<?xml version="1.0" encoding="utf-8"?>
<!-- Generator: Adobe Illustrator 27.6.1, SVG Export Plug-In . SVG Version: 6.00 Build 0)  -->
<svg version="1.1" id="Layer_1" xmlns="http://www.w3.org/2000/svg" xmlns:xlink="http://www.w3.org/1999/xlink" x="0px" y="0px"
	 viewBox="0 0 800 820" style="enable-background:new 0 0 800 820;" xml:space="preserve">
<style type="text/css">
	.st0{fill:#D4ECFF;}
	.st1{fill:url(#SVGID_1_);}
	.st2{fill:#396CAA;}
	.st3{fill:#95D359;}
	.st4{fill:#C13D1A;}
	.st5{fill:#DB5126;}
	.st6{fill:#EF602E;}
	.st7{fill:#5793CE;}
	.st8{fill:url(#SVGID_00000063596117601122483700000005486732957856189112_);}
	.st9{fill:url(#SVGID_00000154396051122311561670000001269472165075169201_);}
	.st10{fill:url(#SVGID_00000155121128595544425190000005690057066109764794_);}
	.st11{fill:#173D7A;}
	.st12{fill:#274F89;}
	.st13{fill:#FFFFFF;}
	.st14{fill:url(#SVGID_00000114785956919884032560000016454279055941772180_);}
	.st15{fill:url(#SVGID_00000129895604503885858680000016937408781011228293_);}
	.st16{fill:url(#SVGID_00000173153855513426432000000008089596586429145516_);}
	.st17{fill:url(#SVGID_00000088815046299411429820000016049518928821043105_);}
	.st18{fill:url(#SVGID_00000010276412748146667850000000464815944490470022_);}
	.st19{fill:url(#SVGID_00000110464231451169920980000001894443336249493669_);}
	.st20{fill:url(#SVGID_00000084531562411827690290000009550109369617097600_);}
	.st21{fill:url(#SVGID_00000006679787958400351580000014874171182676591539_);}
	.st22{fill:url(#SVGID_00000111888897698447761840000005251865558294672049_);}
	.st23{fill:url(#SVGID_00000091729930151711582930000006697969534108719232_);}
	.st24{fill:url(#SVGID_00000091708822967121519280000006825003211355960208_);}
	.st25{fill:url(#SVGID_00000165195736722110844770000008999132522100723620_);}
	.st26{fill:url(#SVGID_00000170990152035466177020000004835892840042638748_);}
	.st27{fill:url(#SVGID_00000005267651154317790210000015790927872466516119_);}
	.st28{fill:url(#SVGID_00000127037751823069467820000014767414740983249562_);}
	.st29{fill:url(#SVGID_00000054252658937968898280000000954988000320358826_);}
	.st30{fill:url(#SVGID_00000090982431682898921020000016036668513637694879_);}
	.st31{fill:url(#SVGID_00000145761295743998015080000007543944351548436106_);}
	.st32{fill:#606060;}
	.st33{fill:url(#SVGID_00000018231016097307872990000011332049840882734752_);}
	.st34{fill:url(#SVGID_00000057828049816312899870000009538597997779998897_);}
	.st35{fill:url(#SVGID_00000177463492881416314110000001974182190792349088_);}
	.st36{fill:url(#SVGID_00000023987529869924675920000000966593385530846593_);}
	.st37{fill:url(#SVGID_00000088812861161836377910000001350069945914008495_);}
	.st38{fill:url(#SVGID_00000057111874154865453510000016719632934250162306_);}
	.st39{fill:url(#SVGID_00000137133152293888451250000015270659824445798317_);}
	.st40{fill:url(#SVGID_00000075159656368240723300000009868188397791753143_);}
	.st41{fill:url(#SVGID_00000183943372624697125560000005637390301854262975_);}
	.st42{fill:#9DB2C4;}
	.st43{fill:url(#SVGID_00000057839662799828148010000005150624210605074600_);}
	.st44{fill:#0F65B2;}
	.st45{fill:url(#SVGID_00000063595247437861689940000006607417808251180475_);}
	.st46{fill:#FFC2B0;}
	.st47{fill:#EA9C92;}
	.st48{fill:#4F565B;}
	.st49{fill:url(#SVGID_00000138551650128889267160000009442655021165866430_);}
	.st50{fill:url(#SVGID_00000119084687922397922030000005316365093599685268_);}
	.st51{fill:url(#SVGID_00000129190280531300693520000007078613823697594789_);}
	.st52{fill:url(#SVGID_00000051366633530512684570000005562552810244423815_);}
	.st53{fill:url(#SVGID_00000062187315667339642880000004854002022835022723_);}
	.st54{fill:url(#SVGID_00000124850814030274630300000001027122958440677012_);}
	.st55{fill:#A7C5D8;}
	.st56{fill:url(#SVGID_00000062891549010974904890000010652118170429932710_);}
	.st57{fill:url(#SVGID_00000171703344382515248310000002185165152673535133_);}
	.st58{fill:url(#SVGID_00000063630827027993857900000000601123653890977974_);}
</style>
<g>
	<polygon class="st0" points="278.99,347.08 310.88,328.66 278.99,310.25 247.1,328.66 247.1,328.66 215.2,347.08 247.1,365.49 
		247.1,365.49 278.99,383.9 310.88,365.49 278.99,347.08 	"/>
	<linearGradient id="SVGID_1_" gradientUnits="userSpaceOnUse" x1="278.9904" y1="224.4881" x2="310.8835" y2="224.4881">
		<stop  offset="0" style="stop-color:#E7ECF1"/>
		<stop  offset="0" style="stop-color:#A5B8C9"/>
		<stop  offset="0.2279" style="stop-color:#99AEC2"/>
		<stop  offset="0.414" style="stop-color:#ABBDCC"/>
		<stop  offset="0.586" style="stop-color:#D4DDE5"/>
		<stop  offset="0.7721" style="stop-color:#8BA4B9"/>
		<stop  offset="1" style="stop-color:#ECF0F3"/>
	</linearGradient>
	<polygon class="st1" points="278.99,301.21 278.99,166.18 310.88,147.77 310.88,282.8 	"/>
	<polygon class="st2" points="278.99,166.18 247.1,147.77 247.1,282.8 278.99,301.21 	"/>
	<polygon class="st0" points="310.88,147.77 278.99,129.35 247.1,147.77 278.99,166.18 	"/>
	<g>
		<polygon class="st3" points="310.88,307.35 278.99,288.93 278.99,301.21 310.88,319.62 		"/>
	</g>
	<g>
		<polygon class="st4" points="247.1,319.62 247.1,221.42 278.99,203.01 278.99,301.21 		"/>
		<polygon class="st5" points="247.1,221.42 215.2,203.01 215.2,301.21 247.1,319.62 		"/>
		<polygon class="st6" points="278.99,203.01 247.1,184.59 215.2,203.01 247.1,221.42 		"/>
		<polygon class="st2" points="247.1,319.62 247.1,221.42 278.99,203.01 278.99,301.21 		"/>
		<polygon class="st7" points="247.1,221.42 215.2,203.01 215.2,301.21 247.1,319.62 		"/>
		<polygon class="st0" points="278.99,203.01 247.1,184.59 215.2,203.01 247.1,221.42 		"/>
	</g>
	<g>
		
			<linearGradient id="SVGID_00000144305469857396179960000018166039285429461178_" gradientUnits="userSpaceOnUse" x1="278.9904" y1="301.2104" x2="310.8835" y2="301.2104">
			<stop  offset="0" style="stop-color:#CED9E2"/>
			<stop  offset="0" style="stop-color:#E8EDF1"/>
			<stop  offset="0.2279" style="stop-color:#F1F4F6"/>
			<stop  offset="0.414" style="stop-color:#C7D3DD"/>
			<stop  offset="0.586" style="stop-color:#D1DBE4"/>
			<stop  offset="0.6899" style="stop-color:#9DB2C4"/>
			<stop  offset="1" style="stop-color:#F4F6F8"/>
		</linearGradient>
		<polygon style="fill:url(#SVGID_00000144305469857396179960000018166039285429461178_);" points="278.99,338.04 278.99,282.8 
			310.88,264.38 310.88,319.62 		"/>
		
			<linearGradient id="SVGID_00000147207657724228282390000015596220991361292689_" gradientUnits="userSpaceOnUse" x1="247.0976" y1="301.2104" x2="278.9904" y2="301.2104">
			<stop  offset="0" style="stop-color:#CED9E2"/>
			<stop  offset="0" style="stop-color:#E8EDF1"/>
			<stop  offset="0.2279" style="stop-color:#F1F4F6"/>
			<stop  offset="0.414" style="stop-color:#C7D3DD"/>
			<stop  offset="0.586" style="stop-color:#D1DBE4"/>
			<stop  offset="0.6899" style="stop-color:#9DB2C4"/>
			<stop  offset="1" style="stop-color:#F4F6F8"/>
		</linearGradient>
		<polygon style="fill:url(#SVGID_00000147207657724228282390000015596220991361292689_);" points="278.99,282.8 247.1,264.38 
			247.1,319.62 278.99,338.04 		"/>
		
			<linearGradient id="SVGID_00000003103182497531782680000012945424621126283963_" gradientUnits="userSpaceOnUse" x1="247.0976" y1="264.3837" x2="310.8835" y2="264.3837">
			<stop  offset="0" style="stop-color:#CED9E2"/>
			<stop  offset="0" style="stop-color:#E8EDF1"/>
			<stop  offset="0.2279" style="stop-color:#F1F4F6"/>
			<stop  offset="0.414" style="stop-color:#C7D3DD"/>
			<stop  offset="0.586" style="stop-color:#D1DBE4"/>
			<stop  offset="0.6899" style="stop-color:#9DB2C4"/>
			<stop  offset="1" style="stop-color:#F4F6F8"/>
		</linearGradient>
		<polygon style="fill:url(#SVGID_00000003103182497531782680000012945424621126283963_);" points="310.88,264.38 278.99,245.97 
			247.1,264.38 278.99,282.8 		"/>
	</g>
	<path class="st0" d="M800.01,606.32l-144.45,89.57c-16.11,9.95-21.1,31.07-11.15,47.18l48.5,78.53h107.1V606.32z"/>
	<g>
		<g>
			<path class="st0" d="M412.95,681.81L172.09,542.75c-6.81-3.93-5.96-10.81,1.91-15.35l164.01-94.66
				c7.87-4.54,19.77-5.04,26.58-1.1L605.45,570.7c6.81,3.93,5.96,10.81-1.91,15.35l-164.01,94.66
				C431.67,685.25,419.77,685.74,412.95,681.81z"/>
			<g>
				<path class="st11" d="M614.36,297.15L369.53,155.92c-3.15-1.82-6.05-2.1-8.38-1.13l0.01-0.03l-0.4,0.19
					c-0.03,0.02-0.07,0.03-0.1,0.05l-7.97,3.75l8.65,4.31c0,0.16-0.02,0.31-0.02,0.48l0.07,201.09c0,10.06,6.23,21.81,13.91,26.24
					l238.31,137.47l1.35,11.22l8.7-4.15c2.87-1.68,4.68-5.49,4.68-10.91l-0.07-201.09C628.27,313.33,622.04,301.58,614.36,297.15z"
					/>
				<path class="st2" d="M614.36,297.15L369.53,155.92c-3.15-1.82-6.05-2.1-8.38-1.13l0.01-0.03l-0.4,0.19
					c-0.03,0.02-0.07,0.03-0.1,0.05l-7.97,3.75l8.65,4.31c0,0.16-0.02,0.31-0.02,0.48l0.05,132.53l111.43,88.04l151.29-76.14
					C621.57,303.3,618.15,299.34,614.36,297.15z"/>
				<path class="st12" d="M618.45,300.32l-23.99,10.09l18.12,13.96l15.13-6.44C626.39,311.31,622.9,304.67,618.45,300.32z"/>
				<path class="st0" d="M606.39,538.49L361.56,397.25c-7.68-4.43-13.91-16.18-13.91-26.24l-0.07-201.09
					c0-10.06,6.22-14.63,13.9-10.2L606.3,300.95c7.68,4.43,13.91,16.18,13.91,26.24l0.07,201.09
					C620.29,538.35,614.07,542.92,606.39,538.49z"/>
				<path class="st13" d="M598.25,523.53L369.58,391.68c-7.03-4.05-12.73-14.81-12.73-24.01l-0.07-184.02
					c0-9.21,5.69-13.39,12.72-9.33l228.66,131.85c7.03,4.05,12.73,14.8,12.73,24.01l0.07,184.02
					C610.97,523.4,605.27,527.58,598.25,523.53z"/>
				<path class="st13" d="M598.25,523.53L369.58,391.68c-7.03-4.05-12.73-14.81-12.73-24.01l-0.07-184.02
					c0-9.21,5.69-13.39,12.72-9.33l228.66,131.85c7.03,4.05,12.73,14.8,12.73,24.01l0.07,184.02
					C610.97,523.4,605.27,527.58,598.25,523.53z"/>
			</g>
			<path class="st11" d="M610.05,544.73l-32.92-4.35L364.59,417.68c-6.81-3.93-18.72-3.44-26.58,1.1l-150.6,86.92l-19.91-2.63v11.3
				l0.02,0c-0.13,2.61,1.36,5.12,4.57,6.98l240.86,139.06c6.81,3.93,18.72,3.44,26.58-1.1l164.01-94.66
				c4.43-2.56,6.63-5.85,6.5-8.94l0,0V544.73z"/>
			<path class="st2" d="M450.36,467.2l-15.1-8.72H269.25l-81.84,47.22l-19.91-2.63v11.3l0.02,0c-0.13,2.61,1.36,5.12,4.57,6.98
				l240.86,139.06c3.6,2.08,8.62,2.91,13.72,2.57L450.36,467.2z"/>
			<path class="st7" d="M176.34,504.24l-8.83-1.17v11.3l0.02,0c-0.13,2.61,1.36,5.12,4.57,6.98l4.24,2.45V504.24z"/>
			<path class="st12" d="M415.38,661.53c6.46,2.45,15.69,1.92,22.59-1.4v-25.2h-22.59V661.53z"/>
			<path class="st0" d="M412.95,649.12L172.09,510.06c-6.81-3.93-5.96-10.81,1.91-15.35l164.01-94.66
				c7.87-4.54,19.77-5.04,26.58-1.1l240.86,139.06c6.81,3.93,5.96,10.81-1.91,15.35l-164.01,94.66
				C431.67,652.56,419.77,653.06,412.95,649.12z"/>
			<path class="st13" d="M603.54,549.24L439.54,643.9c-7.87,4.54-19.77,5.04-26.58,1.1L172.09,505.94c-2.23-1.29-3.63-2.9-4.24-4.63
				c-1.07,3.22,0.29,6.48,4.24,8.76l240.86,139.06c6.81,3.93,18.72,3.44,26.58-1.1l164.01-94.66c5.29-3.05,7.39-7.16,6.14-10.71
				C608.91,545,606.86,547.32,603.54,549.24z"/>
			<g>
				<path class="st11" d="M274.53,464.03l-10.9-6.29c-0.88-0.51-0.77-1.39,0.24-1.97l12.86-7.43c1.01-0.58,2.54-0.65,3.41-0.14
					l10.9,6.29c0.87,0.51,0.77,1.39-0.25,1.97l-12.86,7.43C276.94,464.47,275.41,464.53,274.53,464.03z"/>
				<path class="st11" d="M291.36,473.74l-10.9-6.29c-0.87-0.51-0.77-1.39,0.25-1.97l12.86-7.43c1.01-0.58,2.54-0.65,3.41-0.14
					l10.9,6.29c0.87,0.51,0.77,1.39-0.25,1.97l-12.86,7.43C293.77,474.18,292.24,474.25,291.36,473.74z"/>
				<path class="st11" d="M308.19,483.46l-10.9-6.29c-0.88-0.51-0.77-1.39,0.24-1.97l12.86-7.43c1.01-0.58,2.54-0.65,3.41-0.14
					l10.9,6.29c0.88,0.51,0.77,1.39-0.24,1.97l-12.86,7.43C310.6,483.9,309.07,483.96,308.19,483.46z"/>
				<path class="st11" d="M331.47,475.43l-10.9-6.29c-0.87-0.51-0.77-1.39,0.25-1.97l10.8-6.23c1.01-0.58,2.54-0.65,3.41-0.14
					l10.9,6.29c0.87,0.51,0.77,1.39-0.25,1.97l-10.8,6.23C333.87,475.88,332.34,475.94,331.47,475.43z"/>
				<path class="st11" d="M348.3,485.15l-10.9-6.29c-0.88-0.51-0.77-1.39,0.24-1.97l10.8-6.23c1.01-0.58,2.54-0.65,3.41-0.14
					l10.9,6.29c0.88,0.51,0.77,1.39-0.24,1.97l-10.8,6.23C350.7,485.59,349.17,485.66,348.3,485.15z"/>
				<path class="st11" d="M365.13,494.87l-10.9-6.29c-0.87-0.51-0.77-1.39,0.25-1.97l10.8-6.23c1.01-0.58,2.54-0.65,3.41-0.14
					l10.9,6.29c0.87,0.51,0.77,1.39-0.25,1.97l-10.8,6.23C367.53,495.31,366,495.37,365.13,494.87z"/>
				<path class="st11" d="M381.96,504.58l-10.9-6.29c-0.87-0.51-0.77-1.39,0.24-1.97l10.8-6.23c1.01-0.58,2.54-0.65,3.41-0.14
					l10.9,6.29c0.87,0.51,0.77,1.39-0.25,1.97l-10.8,6.23C384.36,505.03,382.83,505.09,381.96,504.58z"/>
				<path class="st11" d="M398.79,514.3l-10.9-6.29c-0.88-0.51-0.77-1.39,0.24-1.97l10.8-6.23c1.01-0.58,2.54-0.65,3.41-0.14
					l10.9,6.29c0.88,0.51,0.77,1.39-0.24,1.97l-10.8,6.23C401.19,514.74,399.66,514.81,398.79,514.3z"/>
				<path class="st11" d="M415.62,524.02l-10.9-6.29c-0.87-0.51-0.77-1.39,0.25-1.97l10.8-6.23c1.01-0.58,2.54-0.65,3.41-0.14
					l10.9,6.29c0.87,0.51,0.77,1.39-0.25,1.97l-10.8,6.23C418.02,524.46,416.49,524.52,415.62,524.02z"/>
				<path class="st11" d="M432.45,533.73l-10.9-6.29c-0.88-0.51-0.77-1.39,0.24-1.97l10.8-6.23c1.01-0.58,2.54-0.65,3.41-0.14
					l10.9,6.29c0.88,0.51,0.77,1.39-0.24,1.97l-10.8,6.23C434.85,534.18,433.32,534.24,432.45,533.73z"/>
				<path class="st11" d="M449.28,543.45l-10.9-6.29c-0.87-0.51-0.77-1.39,0.25-1.97l10.8-6.23c1.01-0.58,2.54-0.65,3.41-0.14
					l10.9,6.29c0.87,0.51,0.77,1.39-0.25,1.97l-10.8,6.23C451.68,543.89,450.15,543.96,449.28,543.45z"/>
				<path class="st11" d="M466.11,553.17l-10.9-6.29c-0.88-0.51-0.77-1.39,0.24-1.97l10.8-6.23c1.01-0.58,2.54-0.65,3.41-0.14
					l10.9,6.29c0.88,0.51,0.77,1.39-0.24,1.97l-10.8,6.23C468.51,553.61,466.98,553.67,466.11,553.17z"/>
				<path class="st11" d="M482.94,562.88l-10.9-6.29c-0.87-0.51-0.77-1.39,0.25-1.97l10.8-6.23c1.01-0.58,2.54-0.65,3.41-0.14
					l10.9,6.29c0.87,0.51,0.77,1.39-0.24,1.97l-10.8,6.23C485.34,563.33,483.81,563.39,482.94,562.88z"/>
				<path class="st2" d="M356.27,470.83l-10.9-6.29c-0.87-0.51-0.77-1.39,0.25-1.97l10.8-6.23c1.01-0.58,2.54-0.65,3.41-0.14
					l10.9,6.29c0.87,0.51,0.77,1.39-0.25,1.97l-10.8,6.23C358.67,471.28,357.14,471.34,356.27,470.83z"/>
				<path class="st2" d="M339.19,460.97l-10.9-6.29c-0.87-0.51-0.77-1.39,0.25-1.97l10.8-6.23c1.01-0.58,2.54-0.65,3.41-0.14
					l10.9,6.29c0.87,0.51,0.77,1.39-0.25,1.97l-10.8,6.23C341.59,461.41,340.06,461.48,339.19,460.97z"/>
				<path class="st11" d="M322.08,451.09l-23.47-13.55c-0.88-0.51-0.77-1.39,0.24-1.97l10.8-6.23c1.01-0.58,2.54-0.65,3.41-0.14
					l23.47,13.55c0.87,0.51,0.77,1.39-0.25,1.97l-10.8,6.23C324.48,451.54,322.95,451.6,322.08,451.09z"/>
				<path class="st11" d="M334.04,439.08l-19.05-11c-0.87-0.51-0.77-1.39,0.25-1.97l10.8-6.23c1.01-0.58,2.54-0.65,3.41-0.14
					l19.05,11c0.88,0.51,0.77,1.39-0.25,1.97l-10.8,6.23C336.44,439.52,334.91,439.59,334.04,439.08z"/>
				<path class="st2" d="M373.1,480.55l-10.9-6.29c-0.88-0.51-0.77-1.39,0.24-1.97l10.8-6.23c1.01-0.58,2.54-0.65,3.41-0.14
					l10.9,6.29c0.88,0.51,0.77,1.39-0.24,1.97l-10.8,6.23C375.5,480.99,373.97,481.06,373.1,480.55z"/>
				<path class="st11" d="M389.93,490.27l-10.9-6.29c-0.87-0.51-0.77-1.39,0.25-1.97l10.8-6.23c1.01-0.58,2.54-0.65,3.41-0.14
					l10.9,6.29c0.87,0.51,0.77,1.39-0.25,1.97l-10.8,6.23C392.33,490.71,390.8,490.77,389.93,490.27z"/>
				<path class="st11" d="M406.76,499.98l-10.9-6.29c-0.87-0.51-0.77-1.39,0.24-1.97l10.8-6.23c1.01-0.58,2.54-0.65,3.41-0.14
					l10.9,6.29c0.87,0.51,0.77,1.39-0.25,1.97l-10.8,6.23C409.16,500.43,407.63,500.49,406.76,499.98z"/>
				<path class="st11" d="M423.59,509.7l-10.9-6.29c-0.87-0.51-0.77-1.39,0.25-1.97l10.8-6.23c1.01-0.58,2.54-0.65,3.41-0.14
					l10.9,6.29c0.88,0.51,0.77,1.39-0.24,1.97l-10.8,6.23C425.99,510.14,424.46,510.21,423.59,509.7z"/>
				<path class="st11" d="M440.42,519.42l-10.9-6.29c-0.87-0.51-0.77-1.39,0.25-1.97l10.8-6.23c1.01-0.58,2.54-0.65,3.41-0.14
					l10.9,6.29c0.87,0.51,0.77,1.39-0.25,1.97l-10.8,6.23C442.82,519.86,441.29,519.92,440.42,519.42z"/>
				<path class="st11" d="M457.25,529.13l-10.9-6.29c-0.88-0.51-0.77-1.39,0.25-1.97l10.8-6.23c1.01-0.58,2.54-0.65,3.41-0.14
					l10.9,6.29c0.88,0.51,0.77,1.39-0.24,1.97l-10.8,6.23C459.65,529.58,458.12,529.64,457.25,529.13z"/>
				<path class="st11" d="M474.07,538.85l-10.9-6.29c-0.87-0.51-0.77-1.39,0.25-1.97l10.8-6.23c1.01-0.58,2.54-0.65,3.41-0.14
					l10.9,6.29c0.87,0.51,0.77,1.39-0.25,1.97l-10.8,6.23C476.48,539.29,474.95,539.36,474.07,538.85z"/>
				<path class="st11" d="M490.9,548.57l-10.9-6.29c-0.88-0.51-0.77-1.39,0.24-1.97l10.8-6.23c1.01-0.58,2.54-0.65,3.41-0.14
					l10.9,6.29c0.88,0.51,0.77,1.39-0.24,1.97l-10.8,6.23C493.31,549.01,491.78,549.07,490.9,548.57z"/>
				<path class="st11" d="M507.73,558.28l-10.9-6.29c-0.87-0.51-0.77-1.39,0.25-1.97l10.8-6.23c1.01-0.58,2.54-0.65,3.41-0.14
					l10.9,6.29c0.87,0.51,0.77,1.39-0.24,1.97l-10.8,6.23C510.14,558.73,508.61,558.79,507.73,558.28z"/>
				<path class="st11" d="M537.65,575.56l-23.78-13.73c-0.88-0.51-0.77-1.39,0.24-1.97l10.8-6.23c1.01-0.58,2.54-0.65,3.41-0.14
					l23.78,13.73c0.87,0.51,0.77,1.39-0.25,1.97l-10.8,6.23C540.06,576,538.53,576.06,537.65,575.56z"/>
				<path class="st11" d="M570.42,556.64l-20.07-11.59c-0.88-0.51-0.77-1.39,0.24-1.97l10.8-6.23c1.01-0.58,2.54-0.65,3.41-0.14
					l20.07,11.59c0.88,0.51,0.77,1.39-0.24,1.97l-10.8,6.23C572.82,557.08,571.29,557.15,570.42,556.64z"/>
				<path class="st11" d="M402.57,478.65l-10.9-6.29c-0.87-0.51-0.77-1.39,0.25-1.97l10.8-6.23c1.01-0.58,2.54-0.65,3.41-0.14
					l10.9,6.29c0.87,0.51,0.77,1.39-0.25,1.97l-10.8,6.23C404.97,479.09,403.44,479.15,402.57,478.65z"/>
				<path class="st11" d="M385.32,468.69l-10.9-6.29c-0.87-0.51-0.77-1.39,0.25-1.97l10.8-6.23c1.01-0.58,2.54-0.65,3.41-0.14
					l10.9,6.29c0.87,0.51,0.77,1.39-0.25,1.97l-10.8,6.23C387.72,469.13,386.2,469.2,385.32,468.69z"/>
				<path class="st2" d="M368.07,458.73l-10.9-6.29c-0.87-0.51-0.77-1.39,0.25-1.97l10.8-6.23c1.01-0.58,2.54-0.65,3.41-0.14
					l10.9,6.29c0.87,0.51,0.77,1.39-0.25,1.97l-10.8,6.23C370.48,459.17,368.95,459.24,368.07,458.73z"/>
				<path class="st11" d="M350.82,448.77l-10.9-6.29c-0.87-0.51-0.77-1.39,0.25-1.97l10.8-6.23c1.01-0.58,2.54-0.65,3.41-0.14
					l10.9,6.29c0.87,0.51,0.77,1.39-0.25,1.97l-10.8,6.23C353.23,449.22,351.7,449.28,350.82,448.77z"/>
				<path class="st11" d="M419.4,488.37l-10.9-6.29c-0.88-0.51-0.77-1.39,0.24-1.97l10.8-6.23c1.01-0.58,2.54-0.65,3.41-0.14
					l10.9,6.29c0.88,0.51,0.77,1.39-0.24,1.97l-10.8,6.23C421.8,488.81,420.27,488.87,419.4,488.37z"/>
				<path class="st11" d="M436.23,498.08l-10.9-6.29c-0.87-0.51-0.77-1.39,0.25-1.97l10.8-6.23c1.01-0.58,2.54-0.65,3.41-0.14
					l10.9,6.29c0.87,0.51,0.77,1.39-0.25,1.97l-10.8,6.23C438.63,498.52,437.1,498.59,436.23,498.08z"/>
				<path class="st11" d="M453.06,507.8l-10.9-6.29c-0.87-0.51-0.77-1.39,0.24-1.97l10.8-6.23c1.01-0.58,2.54-0.65,3.41-0.14
					l10.9,6.29c0.87,0.51,0.77,1.39-0.25,1.97l-10.8,6.23C455.46,508.24,453.93,508.3,453.06,507.8z"/>
				<path class="st11" d="M469.89,517.52l-10.9-6.29c-0.88-0.51-0.77-1.39,0.24-1.97l10.8-6.23c1.01-0.58,2.54-0.65,3.41-0.14
					l10.9,6.29c0.88,0.51,0.77,1.39-0.24,1.97l-10.8,6.23C472.29,517.96,470.76,518.02,469.89,517.52z"/>
				<path class="st11" d="M486.72,527.23l-10.9-6.29c-0.87-0.51-0.77-1.39,0.25-1.97l10.8-6.23c1.01-0.58,2.54-0.65,3.41-0.14
					l10.9,6.29c0.87,0.51,0.77,1.39-0.25,1.97l-10.8,6.23C489.12,527.67,487.59,527.74,486.72,527.23z"/>
				<path class="st11" d="M503.55,536.95l-10.9-6.29c-0.88-0.51-0.77-1.39,0.24-1.97l10.8-6.23c1.01-0.58,2.54-0.65,3.41-0.14
					l10.9,6.29c0.88,0.51,0.77,1.39-0.24,1.97l-10.8,6.23C505.95,537.39,504.42,537.45,503.55,536.95z"/>
				<path class="st11" d="M520.38,546.67l-10.9-6.29c-0.87-0.51-0.77-1.39,0.25-1.97l10.8-6.23c1.01-0.58,2.54-0.65,3.41-0.14
					l10.9,6.29c0.87,0.51,0.77,1.39-0.25,1.97l-10.8,6.23C522.78,547.11,521.25,547.17,520.38,546.67z"/>
				<path class="st11" d="M537.21,556.38l-10.9-6.29c-0.88-0.51-0.77-1.39,0.24-1.97l10.8-6.23c1.01-0.58,2.54-0.65,3.41-0.14
					l10.9,6.29c0.88,0.51,0.77,1.39-0.24,1.97l-10.8,6.23C539.61,556.82,538.08,556.89,537.21,556.38z"/>
				<path class="st11" d="M554.04,566.1l-10.9-6.29c-0.87-0.51-0.77-1.39,0.25-1.97l10.8-6.23c1.01-0.58,2.54-0.65,3.41-0.14
					l10.9,6.29c0.87,0.51,0.77,1.39-0.24,1.97l-10.8,6.23C556.44,566.54,554.91,566.6,554.04,566.1z"/>
				<path class="st11" d="M393.71,454.62l-10.9-6.29c-0.87-0.51-0.77-1.39,0.25-1.97l10.8-6.23c1.01-0.58,2.54-0.65,3.41-0.14
					l10.9,6.29c0.87,0.51,0.77,1.39-0.25,1.97l-10.8,6.23C396.11,455.06,394.58,455.12,393.71,454.62z"/>
				<path class="st11" d="M376.96,444.95l-10.9-6.29c-0.87-0.51-0.77-1.39,0.24-1.97l10.8-6.23c1.01-0.58,2.54-0.65,3.41-0.14
					l10.9,6.29c0.87,0.51,0.77,1.39-0.25,1.97l-10.8,6.23C379.36,445.39,377.84,445.45,376.96,444.95z"/>
				<path class="st11" d="M360.21,435.28l-10.9-6.29c-0.88-0.51-0.77-1.39,0.24-1.97l10.8-6.23c1.01-0.58,2.54-0.65,3.41-0.14
					l10.9,6.29c0.88,0.51,0.77,1.39-0.24,1.97l-10.8,6.23C362.62,435.72,361.09,435.78,360.21,435.28z"/>
				<path class="st11" d="M343.47,425.61l-10.9-6.29c-0.88-0.51-0.77-1.39,0.24-1.97l10.8-6.23c1.01-0.58,2.54-0.65,3.41-0.14
					l10.9,6.29c0.88,0.51,0.77,1.39-0.24,1.97l-10.8,6.23C345.87,426.05,344.34,426.12,343.47,425.61z"/>
				<path class="st11" d="M360.69,415.67l-10.9-6.29c-0.87-0.51-0.77-1.39,0.25-1.97l3.57-2.06c1.01-0.58,2.54-0.65,3.41-0.14
					l10.9,6.29c0.87,0.51,0.77,1.39-0.25,1.97l-3.57,2.06C363.09,416.11,361.56,416.17,360.69,415.67z"/>
				<path class="st11" d="M382.54,428.29l-10.9-6.29c-0.87-0.51-0.77-1.39,0.25-1.97l3.57-2.06c1.01-0.58,2.54-0.65,3.41-0.14
					l10.9,6.29c0.87,0.51,0.77,1.39-0.25,1.97l-3.57,2.06C384.95,428.73,383.42,428.79,382.54,428.29z"/>
				<path class="st11" d="M399.22,437.91l-10.9-6.29c-0.88-0.51-0.77-1.39,0.24-1.97l3.57-2.06c1.01-0.58,2.54-0.65,3.41-0.14
					l10.9,6.29c0.88,0.51,0.77,1.39-0.24,1.97l-3.57,2.06C401.62,438.36,400.09,438.42,399.22,437.91z"/>
				<path class="st11" d="M415.89,447.54l-10.9-6.29c-0.87-0.51-0.77-1.39,0.25-1.97l3.57-2.06c1.01-0.58,2.54-0.65,3.41-0.14
					l10.9,6.29c0.87,0.51,0.77,1.39-0.25,1.97l-3.57,2.06C418.3,447.98,416.77,448.05,415.89,447.54z"/>
				<path class="st11" d="M432.57,457.17l-10.9-6.29c-0.87-0.51-0.77-1.39,0.24-1.97l3.57-2.06c1.01-0.58,2.54-0.65,3.41-0.14
					l10.9,6.29c0.88,0.51,0.77,1.39-0.24,1.97l-3.57,2.06C434.97,457.61,433.45,457.68,432.57,457.17z"/>
				<path class="st11" d="M525.67,510.92l-10.9-6.29c-0.87-0.51-0.77-1.39,0.25-1.97l3.57-2.06c1.01-0.58,2.54-0.65,3.41-0.14
					l10.9,6.29c0.87,0.51,0.77,1.39-0.25,1.97l-3.57,2.06C528.08,511.36,526.55,511.43,525.67,510.92z"/>
				<path class="st11" d="M542.35,520.55l-10.9-6.29c-0.88-0.51-0.77-1.39,0.24-1.97l3.57-2.06c1.01-0.58,2.54-0.65,3.41-0.14
					l10.9,6.29c0.88,0.51,0.77,1.39-0.24,1.97l-3.57,2.06C544.75,520.99,543.22,521.06,542.35,520.55z"/>
				<path class="st11" d="M559.02,530.18l-10.9-6.29c-0.87-0.51-0.77-1.39,0.25-1.97l3.57-2.06c1.01-0.58,2.54-0.65,3.41-0.14
					l10.9,6.29c0.87,0.51,0.77,1.39-0.25,1.97l-3.57,2.06C561.43,530.62,559.9,530.68,559.02,530.18z"/>
				<path class="st11" d="M575.7,539.81l-10.9-6.29c-0.87-0.51-0.77-1.39,0.24-1.97l3.57-2.06c1.01-0.58,2.54-0.65,3.41-0.14
					l10.9,6.29c0.88,0.51,0.77,1.39-0.24,1.97l-3.57,2.06C578.1,540.25,576.58,540.31,575.7,539.81z"/>
				<path class="st11" d="M410.54,464.33l-10.9-6.29c-0.88-0.51-0.77-1.39,0.24-1.97l10.8-6.23c1.01-0.58,2.54-0.65,3.41-0.14
					l10.9,6.29c0.88,0.51,0.77,1.39-0.24,1.97l-10.8,6.23C412.94,464.77,411.41,464.84,410.54,464.33z"/>
				<path class="st11" d="M427.37,474.05l-10.9-6.29c-0.87-0.51-0.77-1.39,0.25-1.97l10.8-6.23c1.01-0.58,2.54-0.65,3.41-0.14
					l10.9,6.29c0.87,0.51,0.77,1.39-0.25,1.97l-10.8,6.23C429.77,474.49,428.24,474.55,427.37,474.05z"/>
				<path class="st11" d="M444.2,483.77l-10.9-6.29c-0.88-0.51-0.77-1.39,0.24-1.97l10.8-6.23c1.01-0.58,2.54-0.65,3.41-0.14
					l10.9,6.29c0.88,0.51,0.77,1.39-0.24,1.97l-10.8,6.23C446.6,484.21,445.07,484.27,444.2,483.77z"/>
				<path class="st11" d="M461.03,493.48l-10.9-6.29c-0.87-0.51-0.77-1.39,0.25-1.97l10.8-6.23c1.01-0.58,2.54-0.65,3.41-0.14
					l10.9,6.29c0.87,0.51,0.77,1.39-0.25,1.97l-10.8,6.23C463.43,493.92,461.9,493.99,461.03,493.48z"/>
				<path class="st11" d="M477.86,503.2l-10.9-6.29c-0.87-0.51-0.77-1.39,0.24-1.97l10.8-6.23c1.01-0.58,2.54-0.65,3.41-0.14
					l10.9,6.29c0.87,0.51,0.77,1.39-0.25,1.97l-10.8,6.23C480.26,503.64,478.73,503.7,477.86,503.2z"/>
				<path class="st11" d="M494.69,512.92l-10.9-6.29c-0.88-0.51-0.77-1.39,0.24-1.97l10.8-6.23c1.01-0.58,2.54-0.65,3.41-0.14
					l10.9,6.29c0.88,0.51,0.77,1.39-0.25,1.97l-10.8,6.23C497.09,513.36,495.56,513.42,494.69,512.92z"/>
				<path class="st11" d="M511.52,522.63l-10.9-6.29c-0.87-0.51-0.77-1.39,0.25-1.97l10.8-6.23c1.01-0.58,2.54-0.65,3.41-0.14
					l10.9,6.29c0.87,0.51,0.77,1.39-0.25,1.97l-10.8,6.23C513.92,523.07,512.39,523.14,511.52,522.63z"/>
				<path class="st11" d="M528.35,532.35l-10.9-6.29c-0.88-0.51-0.77-1.39,0.24-1.97l10.8-6.23c1.01-0.58,2.54-0.65,3.41-0.14
					l10.9,6.29c0.88,0.51,0.77,1.39-0.24,1.97l-10.8,6.23C530.75,532.79,529.22,532.85,528.35,532.35z"/>
				<path class="st11" d="M545.17,542.07l-10.9-6.29c-0.87-0.51-0.77-1.39,0.25-1.97l10.8-6.23c1.01-0.58,2.54-0.65,3.41-0.14
					l10.9,6.29c0.88,0.51,0.77,1.39-0.25,1.97l-10.8,6.23C547.58,542.51,546.05,542.57,545.17,542.07z"/>
				<path class="st11" d="M314.32,465.53L282.22,447c-0.88-0.51-0.77-1.39,0.24-1.97l10.8-6.23c1.01-0.58,2.54-0.65,3.41-0.14
					l32.1,18.53c0.88,0.51,0.77,1.39-0.24,1.97l-10.8,6.23C316.72,465.97,315.19,466.04,314.32,465.53z"/>
				<path class="st11" d="M521.08,584.9l-32.1-18.53c-0.87-0.51-0.77-1.39,0.25-1.97l10.8-6.23c1.01-0.58,2.54-0.65,3.41-0.14
					l32.1,18.53c0.87,0.51,0.77,1.39-0.25,1.97l-10.8,6.23C523.48,585.35,521.95,585.41,521.08,584.9z"/>
				<path class="st11" d="M453.77,567.51l-10.9-6.29c-0.87-0.51-0.77-1.39,0.25-1.97l12.86-7.43c1.01-0.58,2.54-0.65,3.41-0.14
					l10.9,6.29c0.87,0.51,0.77,1.39-0.25,1.97l-12.86,7.43C456.17,567.95,454.65,568.01,453.77,567.51z"/>
				<path class="st11" d="M331.55,496.95l-17.43-10.06c-0.87-0.51-0.77-1.39,0.25-1.97l12.86-7.43c1.01-0.58,2.54-0.65,3.41-0.14
					l17.43,10.06c0.88,0.51,0.77,1.39-0.24,1.97l-12.86,7.43C333.96,497.39,332.43,497.45,331.55,496.95z"/>
				<path class="st11" d="M437.56,558.15l-17.43-10.06c-0.87-0.51-0.77-1.39,0.25-1.97l12.86-7.43c1.01-0.58,2.54-0.65,3.41-0.14
					l17.43,10.06c0.88,0.51,0.77,1.39-0.24,1.97L440.97,558C439.96,558.59,438.43,558.65,437.56,558.15z"/>
				<path class="st11" d="M355.83,510.96l-17.43-10.06c-0.87-0.51-0.77-1.39,0.24-1.97l12.86-7.43c1.01-0.58,2.54-0.65,3.41-0.14
					l17.43,10.06c0.87,0.51,0.77,1.39-0.25,1.97l-12.86,7.43C358.24,511.41,356.71,511.47,355.83,510.96z"/>
				<path class="st11" d="M355.05,491.43l75.78,43.75c0.94,0.54,0.94,1.42,0,1.97l-13.12,7.57c-0.94,0.54-2.46,0.54-3.4,0
					l-75.78-43.75L355.05,491.43z"/>
				<path class="st11" d="M500.81,585.13l12.14,7.01c0.72,0.41,0.63,1.14-0.2,1.62l-5.26,3.04c-0.83,0.48-2.08,0.53-2.8,0.12
					l-12.14-7.01c-0.72-0.41-0.63-1.14,0.2-1.62l5.26-3.04C498.84,584.76,500.09,584.71,500.81,585.13z"/>
				<path class="st11" d="M483.84,575.33l12.14,7.01c0.72,0.41,0.63,1.14-0.2,1.62l-5.26,3.04c-0.83,0.48-2.08,0.53-2.8,0.12
					l-12.14-7.01c-0.72-0.41-0.63-1.14,0.2-1.62l5.26-3.04C481.87,574.97,483.12,574.91,483.84,575.33z"/>
				<path class="st11" d="M467.01,565.61l12.14,7.01c0.72,0.41,0.63,1.14-0.2,1.62l-5.26,3.04c-0.83,0.48-2.08,0.53-2.8,0.12
					l-12.14-7.01c-0.72-0.41-0.63-1.14,0.2-1.62l5.26-3.04C465.04,565.25,466.29,565.2,467.01,565.61z"/>
				<path class="st11" d="M493.13,569.96l12.14,7.01c0.72,0.41,0.63,1.14-0.2,1.62l-5.26,3.04c-0.83,0.48-2.08,0.53-2.8,0.12
					l-12.14-7.01c-0.72-0.41-0.63-1.14,0.2-1.62l5.26-3.04C491.16,569.6,492.42,569.55,493.13,569.96z"/>
			</g>
		</g>
		<g>
			<g>
				<path class="st0" d="M511.2,330.7l-10.42-6.02c-0.97-0.56-1.77-2.06-1.79-3.36l0,0c-0.02-1.3,0.75-1.9,1.71-1.34l10.42,6.02
					c0.97,0.56,1.77,2.06,1.79,3.36l0,0C512.93,330.66,512.17,331.26,511.2,330.7z"/>
				<path class="st0" d="M536.03,345.04l-15.37-8.87c-0.97-0.56-1.77-2.06-1.79-3.36l0,0c-0.02-1.3,0.75-1.9,1.71-1.34l15.37,8.87
					c0.97,0.56,1.77,2.06,1.79,3.36l0,0C537.76,344.99,536.99,345.59,536.03,345.04z"/>
				<path class="st0" d="M506.03,386.28l-10.42-6.02c-0.97-0.56-1.77-2.06-1.79-3.36l0,0c-0.02-1.3,0.75-1.9,1.71-1.34l10.42,6.02
					c0.97,0.56,1.77,2.06,1.79,3.36l0,0C507.77,386.24,507,386.84,506.03,386.28z"/>
				<path class="st0" d="M528.17,399.06l-15.37-8.87c-0.97-0.56-1.77-2.06-1.79-3.36l0,0c-0.02-1.3,0.75-1.9,1.71-1.34l15.37,8.87
					c0.97,0.56,1.77,2.06,1.79,3.36l0,0C529.9,399.02,529.13,399.62,528.17,399.06z"/>
				<path class="st0" d="M482.62,323.96l-6.51-3.76c-0.97-0.56-1.77-2.06-1.79-3.36l0,0c-0.02-1.3,0.75-1.9,1.71-1.34l6.51,3.76
					c0.97,0.56,1.77,2.06,1.79,3.36l0,0C484.35,323.92,483.59,324.52,482.62,323.96z"/>
				<path class="st0" d="M504.85,346.56l-19.89-11.49c-0.97-0.56-1.77-2.06-1.79-3.36l0,0c-0.02-1.3,0.75-1.9,1.71-1.34l19.89,11.49
					c0.97,0.56,1.77,2.06,1.79,3.36l0,0C506.59,346.52,505.82,347.12,504.85,346.56z"/>
				<path class="st0" d="M491.79,358.54l-6.51-3.76c-0.97-0.56-1.77-2.06-1.79-3.36l0,0c-0.02-1.3,0.75-1.9,1.71-1.34l6.51,3.76
					c0.97,0.56,1.77,2.06,1.79,3.36l0,0C493.52,358.5,492.76,359.1,491.79,358.54z"/>
				<path class="st0" d="M535.85,423.02l-17.39-10.04c-0.97-0.56-1.77-2.06-1.79-3.36l0,0c-0.02-1.3,0.75-1.9,1.71-1.34l17.39,10.04
					c0.97,0.56,1.77,2.06,1.79,3.36l0,0C537.59,422.98,536.82,423.58,535.85,423.02z"/>
				<path class="st0" d="M489.78,376.9l-4.18-2.41c-0.97-0.56-1.77-2.06-1.79-3.36l0,0c-0.02-1.3,0.75-1.9,1.71-1.34l4.18,2.41
					c0.97,0.56,1.77,2.06,1.79,3.36l0,0C491.51,376.86,490.75,377.46,489.78,376.9z"/>
				<path class="st0" d="M491.11,397.19l-5.19-3c-0.97-0.56-1.77-2.06-1.79-3.36l0,0c-0.02-1.3,0.75-1.9,1.71-1.34l5.19,3
					c0.97,0.56,1.77,2.06,1.79,3.36l0,0C492.84,397.15,492.08,397.75,491.11,397.19z"/>
				<path class="st0" d="M511.3,408.85l-13.68-7.9c-0.97-0.56-1.77-2.06-1.79-3.36l0,0c-0.02-1.3,0.75-1.9,1.71-1.34l13.68,7.9
					c0.97,0.56,1.77,2.06,1.79,3.36l0,0C513.03,408.8,512.27,409.4,511.3,408.85z"/>
				<path class="st0" d="M495.92,409.72l-9.84-5.68c-0.97-0.56-1.77-2.06-1.79-3.36l0,0c-0.02-1.3,0.75-1.9,1.71-1.34l9.84,5.68
					c0.97,0.56,1.77,2.06,1.79,3.36l0,0C497.65,409.68,496.88,410.28,495.92,409.72z"/>
				<path class="st0" d="M550.78,431.68l-6.32-3.65c-0.97-0.56-1.77-2.06-1.79-3.36l0,0c-0.02-1.3,0.75-1.9,1.71-1.34l6.32,3.65
					c0.97,0.56,1.77,2.06,1.79,3.36l0,0C552.52,431.64,551.75,432.24,550.78,431.68z"/>
				<path class="st0" d="M516.01,372.52l-17.39-10.04c-0.97-0.56-1.77-2.06-1.79-3.36l0,0c-0.02-1.3,0.75-1.9,1.71-1.34l17.39,10.04
					c0.97,0.56,1.77,2.06,1.79,3.36l0,0C517.75,372.48,516.98,373.08,516.01,372.52z"/>
				<path class="st0" d="M515.43,362.43l-30.31-17.5c-0.97-0.56-1.77-2.06-1.79-3.36l0,0c-0.02-1.3,0.75-1.9,1.71-1.34l30.31,17.5
					c0.97,0.56,1.77,2.06,1.79,3.36l0,0C517.16,362.38,516.4,362.98,515.43,362.43z"/>
				<path class="st0" d="M502.83,374.67l-17.39-10.04c-0.97-0.56-1.77-2.06-1.79-3.36l0,0c-0.02-1.3,0.75-1.9,1.71-1.34l17.39,10.04
					c0.97,0.56,1.77,2.06,1.79,3.36l0,0C504.56,374.63,503.8,375.23,502.83,374.67z"/>
				<path class="st0" d="M529.2,380.14l-6.32-3.65c-0.97-0.56-1.77-2.06-1.79-3.36l0,0c-0.02-1.3,0.75-1.9,1.71-1.34l6.32,3.65
					c0.97,0.56,1.77,2.06,1.79,3.36l0,0C530.94,380.1,530.17,380.7,529.2,380.14z"/>
				<path class="st0" d="M582.91,372.1l-37.42-21.6c-0.97-0.56-1.77-2.06-1.79-3.36l0,0c-0.02-1.3,0.75-1.9,1.71-1.34l37.42,21.6
					c0.97,0.56,1.77,2.06,1.79,3.36l0,0C584.64,372.06,583.87,372.66,582.91,372.1z"/>
				<path class="st0" d="M506.66,396.41l-20.91-12.07c-0.97-0.56-1.77-2.06-1.79-3.36l0,0c-0.02-1.3,0.75-1.9,1.71-1.34l20.91,12.07
					c0.97,0.56,1.77,2.06,1.79,3.36l0,0C508.4,396.37,507.63,396.97,506.66,396.41z"/>
				<path class="st0" d="M491.32,319.22l-15.37-8.87c-0.97-0.56-1.77-2.06-1.79-3.36l0,0c-0.02-1.3,0.75-1.9,1.71-1.34l15.37,8.87
					c0.97,0.56,1.77,2.06,1.79,3.36l0,0C493.05,319.18,492.28,319.78,491.32,319.22z"/>
				<path class="st0" d="M495.35,419.16l-17.8-10.28c-0.97-0.56-1.77-2.06-1.79-3.36l0,0c-0.02-1.3,0.75-1.9,1.71-1.34l17.8,10.28
					c0.97,0.56,1.77,2.06,1.79,3.36l0,0C497.08,419.11,496.31,419.71,495.35,419.16z"/>
			</g>
		</g>
	</g>
	<g>
		
			<linearGradient id="SVGID_00000180364622969247683140000001863451569884794533_" gradientUnits="userSpaceOnUse" x1="439.7609" y1="42.7458" x2="76.2731" y2="484.3384">
			<stop  offset="0" style="stop-color:#CED9E2"/>
			<stop  offset="0" style="stop-color:#E8EDF1"/>
			<stop  offset="0.2279" style="stop-color:#F1F4F6"/>
			<stop  offset="0.414" style="stop-color:#C7D3DD"/>
			<stop  offset="0.586" style="stop-color:#D1DBE4"/>
			<stop  offset="0.6899" style="stop-color:#9DB2C4"/>
			<stop  offset="1" style="stop-color:#F4F6F8"/>
		</linearGradient>
		<path style="fill:url(#SVGID_00000180364622969247683140000001863451569884794533_);" d="M40.22,434.63l91.68-53.38
			c18.16-10.49,35.29-12.15,48.23-4.68c12.94,7.47,20.06,23.14,20.06,44.11v6.72c-0.65,0.44-1.33,0.87-2.02,1.29v-8.01
			c0-20.22-6.77-35.26-19.05-42.36c-12.29-7.09-28.7-5.43-46.21,4.68l-91.68,53.38c-0.48,0.28-1.1,0.12-1.38-0.37
			C39.57,435.53,39.74,434.91,40.22,434.63z"/>
		
			<linearGradient id="SVGID_00000042708004052483665580000015439149816252398770_" gradientUnits="userSpaceOnUse" x1="482.9453" y1="78.2922" x2="119.4576" y2="519.8848">
			<stop  offset="0" style="stop-color:#CED9E2"/>
			<stop  offset="0" style="stop-color:#E8EDF1"/>
			<stop  offset="0.2279" style="stop-color:#F1F4F6"/>
			<stop  offset="0.414" style="stop-color:#C7D3DD"/>
			<stop  offset="0.586" style="stop-color:#D1DBE4"/>
			<stop  offset="0.6899" style="stop-color:#9DB2C4"/>
			<stop  offset="1" style="stop-color:#F4F6F8"/>
		</linearGradient>
		<path style="fill:url(#SVGID_00000042708004052483665580000015439149816252398770_);" d="M326.14,371.04V164.42
			c0-41.36,29.14-91.83,64.96-112.51c17.54-10.13,34.09-11.73,46.59-4.52c12.5,7.22,19.38,22.34,19.38,42.6v14.41
			c-0.67,0.67-1.35,1.35-2.02,2.02V90c0-19.5-6.53-34.01-18.37-40.85c-11.85-6.84-27.67-5.24-44.57,4.51
			c-35.26,20.36-63.95,70.04-63.95,110.76v206.62c0,34.28-20.17,74.85-47.52,99.27c0-0.9,0-1.81,0-2.71
			C306.91,443.45,326.14,404.24,326.14,371.04z"/>
		
			<linearGradient id="SVGID_00000064316222784926229790000015187157778459992501_" gradientUnits="userSpaceOnUse" x1="524.9289" y1="112.8501" x2="161.4411" y2="554.4427">
			<stop  offset="0" style="stop-color:#CED9E2"/>
			<stop  offset="0" style="stop-color:#E8EDF1"/>
			<stop  offset="0.2279" style="stop-color:#F1F4F6"/>
			<stop  offset="0.414" style="stop-color:#C7D3DD"/>
			<stop  offset="0.586" style="stop-color:#D1DBE4"/>
			<stop  offset="0.6899" style="stop-color:#9DB2C4"/>
			<stop  offset="1" style="stop-color:#F4F6F8"/>
		</linearGradient>
		<path style="fill:url(#SVGID_00000064316222784926229790000015187157778459992501_);" d="M457.07,110.73L457.07,110.73
			c3.32-3.15,18.8-16.81,41.39-20.26c25.58-3.91,36.16,26.01,36.16,26.01s2.96,15.54,2.85,24.74c-0.11,9.2-0.76,42.6-0.76,42.6
			l-81.1-46.72l0-0.01c-0.33-0.17-0.56-0.5-0.56-0.89v-23.71C455.72,111.8,456.4,111.4,457.07,110.73z"/>
	</g>
	<g>
		<g>
			
				<linearGradient id="SVGID_00000047035981325632616560000018367552858281015206_" gradientUnits="userSpaceOnUse" x1="553.9824" y1="136.7649" x2="190.4946" y2="578.3574">
				<stop  offset="0" style="stop-color:#CED9E2"/>
				<stop  offset="0" style="stop-color:#E8EDF1"/>
				<stop  offset="0.2279" style="stop-color:#F1F4F6"/>
				<stop  offset="0.414" style="stop-color:#C7D3DD"/>
				<stop  offset="0.586" style="stop-color:#D1DBE4"/>
				<stop  offset="0.6899" style="stop-color:#9DB2C4"/>
				<stop  offset="1" style="stop-color:#F4F6F8"/>
			</linearGradient>
			<path style="fill:url(#SVGID_00000047035981325632616560000018367552858281015206_);" d="M514.56,91.71L437.69,47.4l0.3,1.1
				c-11.85-7.65-29.75-8.48-53.7,9.09c-47.57,34.89-53.29,83.46-55.71,92.56c-2.43,9.1-1.43,66.76-1.43,66.76
				s-0.16,139.07-0.32,155.25c-0.16,16.17-4.87,34.32-13.96,53.92c-9.09,19.59-32.43,43.37-32.43,43.37v28.31
				c3.73,30.61,16.73,37.74,36.08,39.49c15.61,1.41,32.25-9.87,45.54-22.15c-0.49,0.51-0.81,0.84-0.81,0.84v28.31
				c3.73,30.61,16.73,37.74,36.08,39.49c19.35,1.74,40.27-15.98,54.45-30.98c14.18-15,26.13-37.9,32.77-58.57
				c6.64-20.66,4.44-47.36,4.44-47.36s0.16-152.02,0.32-182c0.16-29.97,1.11-24.74,10.94-54.87c9.83-30.13,35.89-51.22,35.89-51.22
				l62.54-18.62L514.56,91.71z"/>
			
				<linearGradient id="SVGID_00000123413819510565743050000013255409026582239882_" gradientUnits="userSpaceOnUse" x1="576.944" y1="155.6652" x2="213.4562" y2="597.2578">
				<stop  offset="0" style="stop-color:#CED9E2"/>
				<stop  offset="0" style="stop-color:#E8EDF1"/>
				<stop  offset="0.2279" style="stop-color:#F1F4F6"/>
				<stop  offset="0.414" style="stop-color:#C7D3DD"/>
				<stop  offset="0.586" style="stop-color:#D1DBE4"/>
				<stop  offset="0.6899" style="stop-color:#9DB2C4"/>
				<stop  offset="1" style="stop-color:#F4F6F8"/>
			</linearGradient>
			<path style="fill:url(#SVGID_00000123413819510565743050000013255409026582239882_);" d="M380.74,581.17
				c-1.05-1.43-14.75-10.62-18.24-26.79c-1.94-9-1.74-22.68-1.74-22.68s0.06-7.61,0.24-14.52c0.15-0.13,0.31-0.26,0.46-0.39
				c0-0.9,0-1.81,0-2.71c-0.12,0.11-0.25,0.22-0.38,0.33c0.05-1.56,0.11-3.03,0.18-4.27c0.4-7.19-4.92-22.52-4.92-22.52
				s-7.53-20.54-29.97-21.33c-19.92-0.7-40.89,13.63-45.35,16.86v-9.27c-0.3,0.2-0.62,0.39-0.92,0.59c0.03-1.24,0.05-2.51,0.09-3.76
				c0.15-0.13,0.31-0.26,0.46-0.39c0-0.9,0-1.81,0-2.71c-0.12,0.11-0.25,0.22-0.38,0.33c0.05-1.56,0.11-3.03,0.18-4.27
				c0.4-7.19-4.92-22.52-4.92-22.52s-7.53-20.54-29.97-21.33c-19.92-0.7-40.89,13.63-45.35,16.86v-9.27
				c-0.65,0.44-1.33,0.87-2.02,1.29v16.23c0,19.67,6.55,34.45,18.45,41.79l0.05,0.05l0.42,0.24c0.11,0.07,0.22,0.14,0.33,0.21
				c0.07,0.04,0.15,0.07,0.22,0.11l82.28,47.37c-0.02-0.03-0.08-0.08-0.1-0.11L380.74,581.17z"/>
			<g>
				
					<linearGradient id="SVGID_00000156570410869070783570000017219736350601732790_" gradientUnits="userSpaceOnUse" x1="493.8283" y1="87.2503" x2="130.3405" y2="528.8428">
					<stop  offset="0" style="stop-color:#CED9E2"/>
					<stop  offset="0" style="stop-color:#E8EDF1"/>
					<stop  offset="0.2279" style="stop-color:#F1F4F6"/>
					<stop  offset="0.414" style="stop-color:#C7D3DD"/>
					<stop  offset="0.586" style="stop-color:#D1DBE4"/>
					<stop  offset="0.6899" style="stop-color:#9DB2C4"/>
					<stop  offset="1" style="stop-color:#F4F6F8"/>
				</linearGradient>
				<path style="fill:url(#SVGID_00000156570410869070783570000017219736350601732790_);" d="M260.95,423.04c0,0-0.62-0.32-1.7-0.76
					c-0.33-0.16-0.66-0.35-0.99-0.5l-78.12-45.22c0,0-14.35-7.54-31.71-1.19C131.06,381.73,40.1,436.3,40.1,436.3l81.26,46.82
					l0.01-0.01c0.07,0.04,0.14,0.04,0.22,0.06l80.58,46.43c0,0,45.59-28.24,77.13-46.47l2.02-1.17c12.9-7.41,23.14-12.95,26.35-13.8
					c19.45-5.15,32.98,1.13,36.5,3.06L260.95,423.04z"/>
				
					<linearGradient id="SVGID_00000079484439059316871770000014862022061988934058_" gradientUnits="userSpaceOnUse" x1="593.4409" y1="169.2443" x2="229.9531" y2="610.8369">
					<stop  offset="0" style="stop-color:#CED9E2"/>
					<stop  offset="0" style="stop-color:#E8EDF1"/>
					<stop  offset="0.2279" style="stop-color:#F1F4F6"/>
					<stop  offset="0.414" style="stop-color:#C7D3DD"/>
					<stop  offset="0.586" style="stop-color:#D1DBE4"/>
					<stop  offset="0.6899" style="stop-color:#9DB2C4"/>
					<stop  offset="1" style="stop-color:#F4F6F8"/>
				</linearGradient>
				<path style="fill:url(#SVGID_00000079484439059316871770000014862022061988934058_);" d="M344.18,471.22l0.94,0.54
					C345.12,471.76,344.78,471.55,344.18,471.22z"/>
			</g>
		</g>
		
			<linearGradient id="SVGID_00000165194800450647903510000011225813404050353846_" gradientUnits="userSpaceOnUse" x1="595.9077" y1="171.2748" x2="232.4199" y2="612.8674">
			<stop  offset="0" style="stop-color:#CED9E2"/>
			<stop  offset="0" style="stop-color:#E8EDF1"/>
			<stop  offset="0.2279" style="stop-color:#F1F4F6"/>
			<stop  offset="0.414" style="stop-color:#C7D3DD"/>
			<stop  offset="0.586" style="stop-color:#D1DBE4"/>
			<stop  offset="0.6899" style="stop-color:#9DB2C4"/>
			<stop  offset="1" style="stop-color:#F4F6F8"/>
		</linearGradient>
		<path style="fill:url(#SVGID_00000165194800450647903510000011225813404050353846_);" d="M537.88,157.2L537.88,157.2
			c3.32-3.15,18.8-16.81,41.39-20.26c25.58-3.91,36.16,26.01,36.16,26.01s2.96,15.54,2.85,24.74c-0.11,9.2-0.76,42.6-0.76,42.6
			l-81.1-46.72l0-0.01c-0.33-0.17-0.56-0.5-0.56-0.89v-23.71C536.54,158.28,537.21,157.88,537.88,157.2z"/>
		<g>
			
				<linearGradient id="SVGID_00000138538813832122783250000009956603199161534630_" gradientUnits="userSpaceOnUse" x1="617.1298" y1="188.7434" x2="253.642" y2="630.3359">
				<stop  offset="0" style="stop-color:#CED9E2"/>
				<stop  offset="0" style="stop-color:#E8EDF1"/>
				<stop  offset="0.2279" style="stop-color:#F1F4F6"/>
				<stop  offset="0.414" style="stop-color:#C7D3DD"/>
				<stop  offset="0.586" style="stop-color:#D1DBE4"/>
				<stop  offset="0.6899" style="stop-color:#9DB2C4"/>
				<stop  offset="1" style="stop-color:#F4F6F8"/>
			</linearGradient>
			<path style="fill:url(#SVGID_00000138538813832122783250000009956603199161534630_);" d="M396.54,584.84
				c8.94,0,18.84-2.99,29.08-8.9c35.56-20.53,64.49-70.64,64.49-111.69V257.63c0-40.71,28.69-90.4,63.95-110.76
				c16.89-9.75,32.72-11.35,44.56-4.51c11.85,6.84,18.37,21.35,18.37,40.85v46.19c0,0.56,0.45,1.01,1.01,1.01
				c0.56,0,1.01-0.45,1.01-1.01v-46.19c0-20.26-6.88-35.39-19.38-42.6c-12.5-7.22-29.04-5.61-46.59,4.51
				c-35.82,20.68-64.96,71.15-64.96,112.51v206.62c0,40.42-28.47,89.74-63.48,109.94c-16.76,9.68-32.47,11.27-44.23,4.48
				c-11.76-6.79-18.23-21.19-18.23-40.54v-24.24c0-20.97-7.12-36.64-20.06-44.11c-12.94-7.47-30.07-5.81-48.23,4.68l-91.68,53.38
				c-0.48,0.28-0.65,0.9-0.37,1.38c0.28,0.49,0.9,0.64,1.38,0.37l91.68-53.38c17.51-10.11,33.92-11.77,46.21-4.68
				c12.29,7.09,19.05,22.14,19.05,42.36v24.24c0,20.11,6.83,35.13,19.25,42.3C384.48,583.38,390.28,584.84,396.54,584.84z"/>
		</g>
	</g>
	
		<linearGradient id="SVGID_00000031908499882530412050000011911354222795232402_" gradientUnits="userSpaceOnUse" x1="540.569" y1="125.7239" x2="177.0812" y2="567.3165">
		<stop  offset="0" style="stop-color:#CED9E2"/>
		<stop  offset="0" style="stop-color:#E8EDF1"/>
		<stop  offset="0.2279" style="stop-color:#F1F4F6"/>
		<stop  offset="0.414" style="stop-color:#C7D3DD"/>
		<stop  offset="0.586" style="stop-color:#D1DBE4"/>
		<stop  offset="0.6899" style="stop-color:#9DB2C4"/>
		<stop  offset="1" style="stop-color:#F4F6F8"/>
	</linearGradient>
	<path style="fill:url(#SVGID_00000031908499882530412050000011911354222795232402_);" d="M402.87,308.27l-13.55-7.83
		c-1.26-0.73-2.3-2.68-2.33-4.37l0,0c-0.03-1.69,0.97-2.47,2.23-1.74l13.55,7.83c1.26,0.73,2.3,2.68,2.33,4.37l0,0
		C405.13,308.22,404.13,309,402.87,308.27z"/>
	
		<linearGradient id="SVGID_00000162314182980435227640000005045642957818328979_" gradientUnits="userSpaceOnUse" x1="563.0502" y1="144.2288" x2="199.5624" y2="585.8214">
		<stop  offset="0" style="stop-color:#CED9E2"/>
		<stop  offset="0" style="stop-color:#E8EDF1"/>
		<stop  offset="0.2279" style="stop-color:#F1F4F6"/>
		<stop  offset="0.414" style="stop-color:#C7D3DD"/>
		<stop  offset="0.586" style="stop-color:#D1DBE4"/>
		<stop  offset="0.6899" style="stop-color:#9DB2C4"/>
		<stop  offset="1" style="stop-color:#F4F6F8"/>
	</linearGradient>
	<path style="fill:url(#SVGID_00000162314182980435227640000005045642957818328979_);" d="M431.65,324.89l-19.99-11.54
		c-1.26-0.73-2.3-2.68-2.33-4.37l0,0c-0.03-1.69,0.97-2.47,2.23-1.74l19.99,11.54c1.26,0.73,2.3,2.68,2.33,4.37l0,0
		C433.91,324.84,432.91,325.62,431.65,324.89z"/>
	
		<linearGradient id="SVGID_00000039825598315124706380000016967740885372070278_" gradientUnits="userSpaceOnUse" x1="508.8918" y1="99.6495" x2="145.404" y2="541.2421">
		<stop  offset="0" style="stop-color:#CED9E2"/>
		<stop  offset="0" style="stop-color:#E8EDF1"/>
		<stop  offset="0.2279" style="stop-color:#F1F4F6"/>
		<stop  offset="0.414" style="stop-color:#C7D3DD"/>
		<stop  offset="0.586" style="stop-color:#D1DBE4"/>
		<stop  offset="0.6899" style="stop-color:#9DB2C4"/>
		<stop  offset="1" style="stop-color:#F4F6F8"/>
	</linearGradient>
	<path style="fill:url(#SVGID_00000039825598315124706380000016967740885372070278_);" d="M401.34,256.62l-25.87-14.94
		c-1.26-0.73-2.3-2.68-2.33-4.37l0,0c-0.03-1.69,0.97-2.47,2.23-1.74l25.87,14.94c1.26,0.73,2.3,2.68,2.33,4.37l0,0
		C403.59,256.56,402.59,257.34,401.34,256.62z"/>
	
		<linearGradient id="SVGID_00000049939663568104988010000013261345675928270751_" gradientUnits="userSpaceOnUse" x1="514.0607" y1="103.9042" x2="150.5729" y2="545.4968">
		<stop  offset="0" style="stop-color:#CED9E2"/>
		<stop  offset="0" style="stop-color:#E8EDF1"/>
		<stop  offset="0.2279" style="stop-color:#F1F4F6"/>
		<stop  offset="0.414" style="stop-color:#C7D3DD"/>
		<stop  offset="0.586" style="stop-color:#D1DBE4"/>
		<stop  offset="0.6899" style="stop-color:#9DB2C4"/>
		<stop  offset="1" style="stop-color:#F4F6F8"/>
	</linearGradient>
	<path style="fill:url(#SVGID_00000049939663568104988010000013261345675928270751_);" d="M384.35,272.19l-8.47-4.89
		c-1.26-0.73-2.3-2.68-2.33-4.37l0,0c-0.03-1.69,0.97-2.47,2.23-1.74l8.47,4.89c1.26,0.73,2.3,2.68,2.33,4.37l0,0
		C386.6,272.14,385.61,272.92,384.35,272.19z"/>
	
		<linearGradient id="SVGID_00000065039635406335314950000015968600136918776760_" gradientUnits="userSpaceOnUse" x1="525.5484" y1="113.36" x2="162.0607" y2="554.9526">
		<stop  offset="0" style="stop-color:#CED9E2"/>
		<stop  offset="0" style="stop-color:#E8EDF1"/>
		<stop  offset="0.2279" style="stop-color:#F1F4F6"/>
		<stop  offset="0.414" style="stop-color:#C7D3DD"/>
		<stop  offset="0.586" style="stop-color:#D1DBE4"/>
		<stop  offset="0.6899" style="stop-color:#9DB2C4"/>
		<stop  offset="1" style="stop-color:#F4F6F8"/>
	</linearGradient>
	<path style="fill:url(#SVGID_00000065039635406335314950000015968600136918776760_);" d="M381.73,296.07l-5.43-3.14
		c-1.26-0.73-2.3-2.68-2.33-4.37l0,0c-0.03-1.69,0.97-2.47,2.23-1.74l5.43,3.14c1.26,0.73,2.3,2.68,2.33,4.37l0,0
		C383.99,296.01,382.99,296.79,381.73,296.07z"/>
	
		<linearGradient id="SVGID_00000084504983697137421660000016786947010976049842_" gradientUnits="userSpaceOnUse" x1="535.5374" y1="121.5823" x2="172.0496" y2="563.1749">
		<stop  offset="0" style="stop-color:#CED9E2"/>
		<stop  offset="0" style="stop-color:#E8EDF1"/>
		<stop  offset="0.2279" style="stop-color:#F1F4F6"/>
		<stop  offset="0.414" style="stop-color:#C7D3DD"/>
		<stop  offset="0.586" style="stop-color:#D1DBE4"/>
		<stop  offset="0.6899" style="stop-color:#9DB2C4"/>
		<stop  offset="1" style="stop-color:#F4F6F8"/>
	</linearGradient>
	<path style="fill:url(#SVGID_00000084504983697137421660000016786947010976049842_);" d="M415.84,290.38l-22.61-13.06
		c-1.26-0.73-2.3-2.68-2.33-4.37l0,0c-0.03-1.69,0.97-2.47,2.23-1.74l22.61,13.06c1.26,0.73,2.3,2.68,2.33,4.37l0,0
		C418.1,290.32,417.1,291.11,415.84,290.38z"/>
	
		<linearGradient id="SVGID_00000005242837157512644520000007609431294698309527_" gradientUnits="userSpaceOnUse" x1="521.258" y1="109.8285" x2="157.7702" y2="551.4211">
		<stop  offset="0" style="stop-color:#CED9E2"/>
		<stop  offset="0" style="stop-color:#E8EDF1"/>
		<stop  offset="0.2279" style="stop-color:#F1F4F6"/>
		<stop  offset="0.414" style="stop-color:#C7D3DD"/>
		<stop  offset="0.586" style="stop-color:#D1DBE4"/>
		<stop  offset="0.6899" style="stop-color:#9DB2C4"/>
		<stop  offset="1" style="stop-color:#F4F6F8"/>
	</linearGradient>
	<path style="fill:url(#SVGID_00000005242837157512644520000007609431294698309527_);" d="M415.09,277.25l-39.41-22.76
		c-1.26-0.73-2.3-2.68-2.33-4.37l0,0c-0.03-1.69,0.97-2.47,2.23-1.74l39.41,22.76c1.26,0.73,2.3,2.68,2.33,4.37l0,0
		C417.34,277.2,416.35,277.98,415.09,277.25z"/>
	
		<linearGradient id="SVGID_00000182508487418239074240000013517982647481498296_" gradientUnits="userSpaceOnUse" x1="526.692" y1="114.3013" x2="163.2042" y2="555.8939">
		<stop  offset="0" style="stop-color:#CED9E2"/>
		<stop  offset="0" style="stop-color:#E8EDF1"/>
		<stop  offset="0.2279" style="stop-color:#F1F4F6"/>
		<stop  offset="0.414" style="stop-color:#C7D3DD"/>
		<stop  offset="0.586" style="stop-color:#D1DBE4"/>
		<stop  offset="0.6899" style="stop-color:#9DB2C4"/>
		<stop  offset="1" style="stop-color:#F4F6F8"/>
	</linearGradient>
	<path style="fill:url(#SVGID_00000182508487418239074240000013517982647481498296_);" d="M398.7,293.18l-22.61-13.06
		c-1.26-0.73-2.3-2.68-2.33-4.37l0,0c-0.03-1.69,0.97-2.47,2.23-1.74l22.61,13.06c1.26,0.73,2.3,2.68,2.33,4.37l0,0
		C400.96,293.12,399.96,293.9,398.7,293.18z"/>
	
		<linearGradient id="SVGID_00000060006509977221394310000004400363286358421388_" gradientUnits="userSpaceOnUse" x1="556.9523" y1="139.2094" x2="193.4645" y2="580.8021">
		<stop  offset="0" style="stop-color:#CED9E2"/>
		<stop  offset="0" style="stop-color:#E8EDF1"/>
		<stop  offset="0.2279" style="stop-color:#F1F4F6"/>
		<stop  offset="0.414" style="stop-color:#C7D3DD"/>
		<stop  offset="0.586" style="stop-color:#D1DBE4"/>
		<stop  offset="0.6899" style="stop-color:#9DB2C4"/>
		<stop  offset="1" style="stop-color:#F4F6F8"/>
	</linearGradient>
	<path style="fill:url(#SVGID_00000060006509977221394310000004400363286358421388_);" d="M433,300.28l-8.22-4.74
		c-1.26-0.73-2.3-2.68-2.33-4.37l0,0c-0.03-1.69,0.97-2.47,2.23-1.74l8.22,4.74c1.26,0.73,2.3,2.68,2.33,4.37l0,0
		C435.25,300.23,434.25,301.01,433,300.28z"/>
	<g>
		<path class="st32" d="M409.59,236l-13.55-7.83c-1.26-0.73-2.3-2.68-2.33-4.37l0,0c-0.03-1.69,0.97-2.47,2.23-1.74l13.55,7.83
			c1.26,0.73,2.3,2.68,2.33,4.37l0,0C411.84,235.94,410.84,236.72,409.59,236z"/>
		<path class="st32" d="M441.87,254.64l-19.99-11.54c-1.26-0.73-2.3-2.68-2.33-4.37l0,0c-0.03-1.69,0.97-2.47,2.23-1.74l19.99,11.54
			c1.26,0.73,2.3,2.68,2.33,4.37l0,0C444.13,254.58,443.13,255.36,441.87,254.64z"/>
		<path class="st32" d="M402.87,308.27l-13.55-7.83c-1.26-0.73-2.3-2.68-2.33-4.37l0,0c-0.03-1.69,0.97-2.47,2.23-1.74l13.55,7.83
			c1.26,0.73,2.3,2.68,2.33,4.37l0,0C405.13,308.22,404.13,309,402.87,308.27z"/>
		<path class="st32" d="M431.65,324.89l-19.99-11.54c-1.26-0.73-2.3-2.68-2.33-4.37l0,0c-0.03-1.69,0.97-2.47,2.23-1.74l19.99,11.54
			c1.26,0.73,2.3,2.68,2.33,4.37l0,0C433.91,324.84,432.91,325.62,431.65,324.89z"/>
		<path class="st32" d="M372.42,227.23l-8.47-4.89c-1.26-0.73-2.3-2.68-2.33-4.37l0,0c-0.03-1.69,0.97-2.47,2.23-1.74l8.47,4.89
			c1.26,0.73,2.3,2.68,2.33,4.37l0,0C374.68,227.18,373.68,227.96,372.42,227.23z"/>
		<path class="st32" d="M401.34,256.62l-25.87-14.94c-1.26-0.73-2.3-2.68-2.33-4.37l0,0c-0.03-1.69,0.97-2.47,2.23-1.74l25.87,14.94
			c1.26,0.73,2.3,2.68,2.33,4.37l0,0C403.59,256.56,402.59,257.34,401.34,256.62z"/>
		<path class="st32" d="M384.35,272.19l-8.47-4.89c-1.26-0.73-2.3-2.68-2.33-4.37l0,0c-0.03-1.69,0.97-2.47,2.23-1.74l8.47,4.89
			c1.26,0.73,2.3,2.68,2.33,4.37l0,0C386.6,272.14,385.61,272.92,384.35,272.19z"/>
		<path class="st32" d="M441.64,356.05l-22.61-13.06c-1.26-0.73-2.3-2.68-2.33-4.37l0,0c-0.03-1.69,0.97-2.47,2.23-1.74l22.61,13.06
			c1.26,0.73,2.3,2.68,2.33,4.37l0,0C443.9,355.99,442.9,356.77,441.64,356.05z"/>
		<path class="st32" d="M381.73,296.07l-5.43-3.14c-1.26-0.73-2.3-2.68-2.33-4.37l0,0c-0.03-1.69,0.97-2.47,2.23-1.74l5.43,3.14
			c1.26,0.73,2.3,2.68,2.33,4.37l0,0C383.99,296.01,382.99,296.79,381.73,296.07z"/>
		<path class="st32" d="M383.46,322.45l-6.75-3.9c-1.26-0.73-2.3-2.68-2.33-4.37l0,0c-0.03-1.69,0.97-2.47,2.23-1.74l6.75,3.9
			c1.26,0.73,2.3,2.68,2.33,4.37l0,0C385.72,322.4,384.72,323.18,383.46,322.45z"/>
		<path class="st32" d="M409.72,337.61l-17.79-10.27c-1.26-0.73-2.3-2.68-2.33-4.37l0,0c-0.03-1.69,0.97-2.47,2.23-1.74l17.79,10.27
			c1.26,0.73,2.3,2.68,2.33,4.37l0,0C411.97,337.56,410.97,338.34,409.72,337.61z"/>
		<path class="st32" d="M389.71,338.76l-12.79-7.39c-1.26-0.73-2.3-2.68-2.33-4.37l0,0c-0.03-1.69,0.97-2.47,2.23-1.74l12.79,7.39
			c1.26,0.73,2.3,2.68,2.33,4.37l0,0C391.97,338.7,390.97,339.48,389.71,338.76z"/>
		<path class="st32" d="M415.84,290.38l-22.61-13.06c-1.26-0.73-2.3-2.68-2.33-4.37l0,0c-0.03-1.69,0.97-2.47,2.23-1.74l22.61,13.06
			c1.26,0.73,2.3,2.68,2.33,4.37l0,0C418.1,290.32,417.1,291.11,415.84,290.38z"/>
		<path class="st32" d="M415.09,277.25l-39.41-22.76c-1.26-0.73-2.3-2.68-2.33-4.37l0,0c-0.03-1.69,0.97-2.47,2.23-1.74l39.41,22.76
			c1.26,0.73,2.3,2.68,2.33,4.37l0,0C417.34,277.2,416.35,277.98,415.09,277.25z"/>
		<path class="st32" d="M398.7,293.18l-22.61-13.06c-1.26-0.73-2.3-2.68-2.33-4.37l0,0c-0.03-1.69,0.97-2.47,2.23-1.74l22.61,13.06
			c1.26,0.73,2.3,2.68,2.33,4.37l0,0C400.96,293.12,399.96,293.9,398.7,293.18z"/>
		<path class="st32" d="M433,300.28l-8.22-4.74c-1.26-0.73-2.3-2.68-2.33-4.37l0,0c-0.03-1.69,0.97-2.47,2.23-1.74l8.22,4.74
			c1.26,0.73,2.3,2.68,2.33,4.37l0,0C435.25,300.23,434.25,301.01,433,300.28z"/>
		<path class="st32" d="M403.69,321.44l-27.18-15.7c-1.26-0.73-2.3-2.68-2.33-4.37l0,0c-0.03-1.69,0.97-2.47,2.23-1.74l27.18,15.7
			c1.26,0.73,2.3,2.68,2.33,4.37l0,0C405.94,321.38,404.95,322.16,403.69,321.44z"/>
		<path class="st32" d="M383.73,221.07l-19.99-11.54c-1.26-0.73-2.3-2.68-2.33-4.37l0,0c-0.03-1.69,0.97-2.47,2.23-1.74l19.99,11.54
			c1.26,0.73,2.3,2.68,2.33,4.37l0,0C385.99,221.02,384.99,221.8,383.73,221.07z"/>
		<path class="st32" d="M388.97,351.02l-23.15-13.36c-1.26-0.73-2.3-2.68-2.33-4.37l0,0c-0.03-1.69,0.97-2.47,2.23-1.74l23.15,13.36
			c1.26,0.73,2.3,2.68,2.33,4.37l0,0C391.22,350.96,390.23,351.74,388.97,351.02z"/>
	</g>
	
		<linearGradient id="SVGID_00000109738603077725936400000010248472609106003135_" gradientUnits="userSpaceOnUse" x1="598.3291" y1="173.268" x2="234.8414" y2="614.8605">
		<stop  offset="0" style="stop-color:#CED9E2"/>
		<stop  offset="0" style="stop-color:#E8EDF1"/>
		<stop  offset="0.2279" style="stop-color:#F1F4F6"/>
		<stop  offset="0.414" style="stop-color:#C7D3DD"/>
		<stop  offset="0.586" style="stop-color:#D1DBE4"/>
		<stop  offset="0.6899" style="stop-color:#9DB2C4"/>
		<stop  offset="1" style="stop-color:#F4F6F8"/>
	</linearGradient>
	<path style="fill:url(#SVGID_00000109738603077725936400000010248472609106003135_);" d="M399.68,429.86l-13.55-7.83
		c-1.26-0.73-2.3-2.68-2.33-4.37l0,0c-0.03-1.69,0.97-2.47,2.23-1.74l13.55,7.83c1.26,0.73,2.3,2.68,2.33,4.37l0,0
		C401.94,429.81,400.94,430.59,399.68,429.86z"/>
	
		<linearGradient id="SVGID_00000021093082577406402200000016709683046855352201_" gradientUnits="userSpaceOnUse" x1="620.8103" y1="191.7729" x2="257.3225" y2="633.3655">
		<stop  offset="0" style="stop-color:#CED9E2"/>
		<stop  offset="0" style="stop-color:#E8EDF1"/>
		<stop  offset="0.2279" style="stop-color:#F1F4F6"/>
		<stop  offset="0.414" style="stop-color:#C7D3DD"/>
		<stop  offset="0.586" style="stop-color:#D1DBE4"/>
		<stop  offset="0.6899" style="stop-color:#9DB2C4"/>
		<stop  offset="1" style="stop-color:#F4F6F8"/>
	</linearGradient>
	<path style="fill:url(#SVGID_00000021093082577406402200000016709683046855352201_);" d="M428.46,446.48l-19.99-11.54
		c-1.26-0.73-2.3-2.68-2.33-4.37l0,0c-0.03-1.69,0.97-2.47,2.23-1.74l19.99,11.54c1.26,0.73,2.3,2.68,2.33,4.37l0,0
		C430.72,446.42,429.72,447.2,428.46,446.48z"/>
	
		<linearGradient id="SVGID_00000169555913481583170760000008740612370385036173_" gradientUnits="userSpaceOnUse" x1="566.6519" y1="147.1935" x2="203.1641" y2="588.7861">
		<stop  offset="0" style="stop-color:#CED9E2"/>
		<stop  offset="0" style="stop-color:#E8EDF1"/>
		<stop  offset="0.2279" style="stop-color:#F1F4F6"/>
		<stop  offset="0.414" style="stop-color:#C7D3DD"/>
		<stop  offset="0.586" style="stop-color:#D1DBE4"/>
		<stop  offset="0.6899" style="stop-color:#9DB2C4"/>
		<stop  offset="1" style="stop-color:#F4F6F8"/>
	</linearGradient>
	<path style="fill:url(#SVGID_00000169555913481583170760000008740612370385036173_);" d="M398.15,378.2l-25.87-14.94
		c-1.26-0.73-2.3-2.68-2.33-4.37l0,0c-0.03-1.69,0.97-2.47,2.23-1.74l25.87,14.94c1.26,0.73,2.3,2.68,2.33,4.37l0,0
		C400.4,378.15,399.41,378.93,398.15,378.2z"/>
	
		<linearGradient id="SVGID_00000100357854113240670040000014245069097353489822_" gradientUnits="userSpaceOnUse" x1="571.8208" y1="151.4482" x2="208.333" y2="593.0408">
		<stop  offset="0" style="stop-color:#CED9E2"/>
		<stop  offset="0" style="stop-color:#E8EDF1"/>
		<stop  offset="0.2279" style="stop-color:#F1F4F6"/>
		<stop  offset="0.414" style="stop-color:#C7D3DD"/>
		<stop  offset="0.586" style="stop-color:#D1DBE4"/>
		<stop  offset="0.6899" style="stop-color:#9DB2C4"/>
		<stop  offset="1" style="stop-color:#F4F6F8"/>
	</linearGradient>
	<path style="fill:url(#SVGID_00000100357854113240670040000014245069097353489822_);" d="M381.16,393.78l-8.47-4.89
		c-1.26-0.73-2.3-2.68-2.33-4.37v0c-0.03-1.69,0.97-2.47,2.23-1.74l8.47,4.89c1.26,0.73,2.3,2.68,2.33,4.37l0,0
		C383.42,393.73,382.42,394.51,381.16,393.78z"/>
	
		<linearGradient id="SVGID_00000051374536506431021220000004868317076625876652_" gradientUnits="userSpaceOnUse" x1="583.3085" y1="160.9041" x2="219.8207" y2="602.4966">
		<stop  offset="0" style="stop-color:#CED9E2"/>
		<stop  offset="0" style="stop-color:#E8EDF1"/>
		<stop  offset="0.2279" style="stop-color:#F1F4F6"/>
		<stop  offset="0.414" style="stop-color:#C7D3DD"/>
		<stop  offset="0.586" style="stop-color:#D1DBE4"/>
		<stop  offset="0.6899" style="stop-color:#9DB2C4"/>
		<stop  offset="1" style="stop-color:#F4F6F8"/>
	</linearGradient>
	<path style="fill:url(#SVGID_00000051374536506431021220000004868317076625876652_);" d="M378.54,417.66l-5.43-3.14
		c-1.26-0.73-2.3-2.68-2.33-4.37l0,0c-0.03-1.69,0.97-2.47,2.23-1.74l5.43,3.14c1.26,0.73,2.3,2.68,2.33,4.37l0,0
		C380.8,417.6,379.8,418.38,378.54,417.66z"/>
	
		<linearGradient id="SVGID_00000058573924637331958960000017255573959991230647_" gradientUnits="userSpaceOnUse" x1="593.2975" y1="169.1263" x2="229.8098" y2="610.7189">
		<stop  offset="0" style="stop-color:#CED9E2"/>
		<stop  offset="0" style="stop-color:#E8EDF1"/>
		<stop  offset="0.2279" style="stop-color:#F1F4F6"/>
		<stop  offset="0.414" style="stop-color:#C7D3DD"/>
		<stop  offset="0.586" style="stop-color:#D1DBE4"/>
		<stop  offset="0.6899" style="stop-color:#9DB2C4"/>
		<stop  offset="1" style="stop-color:#F4F6F8"/>
	</linearGradient>
	<path style="fill:url(#SVGID_00000058573924637331958960000017255573959991230647_);" d="M412.66,411.97l-22.61-13.06
		c-1.26-0.73-2.3-2.68-2.33-4.37l0,0c-0.03-1.69,0.97-2.47,2.23-1.74l22.61,13.06c1.26,0.73,2.3,2.68,2.33,4.37v0
		C414.91,411.91,413.91,412.69,412.66,411.97z"/>
	
		<linearGradient id="SVGID_00000150092386264848424280000014904823532511517875_" gradientUnits="userSpaceOnUse" x1="579.0181" y1="157.3725" x2="215.5303" y2="598.9651">
		<stop  offset="0" style="stop-color:#CED9E2"/>
		<stop  offset="0" style="stop-color:#E8EDF1"/>
		<stop  offset="0.2279" style="stop-color:#F1F4F6"/>
		<stop  offset="0.414" style="stop-color:#C7D3DD"/>
		<stop  offset="0.586" style="stop-color:#D1DBE4"/>
		<stop  offset="0.6899" style="stop-color:#9DB2C4"/>
		<stop  offset="1" style="stop-color:#F4F6F8"/>
	</linearGradient>
	<path style="fill:url(#SVGID_00000150092386264848424280000014904823532511517875_);" d="M411.9,398.84l-39.41-22.76
		c-1.26-0.73-2.3-2.68-2.33-4.37l0,0c-0.03-1.69,0.97-2.47,2.23-1.74l39.41,22.76c1.26,0.73,2.3,2.68,2.33,4.37l0,0
		C414.16,398.78,413.16,399.56,411.9,398.84z"/>
	
		<linearGradient id="SVGID_00000074412887918987263180000002397566262055945652_" gradientUnits="userSpaceOnUse" x1="584.4521" y1="161.8454" x2="220.9643" y2="603.4379">
		<stop  offset="0" style="stop-color:#CED9E2"/>
		<stop  offset="0" style="stop-color:#E8EDF1"/>
		<stop  offset="0.2279" style="stop-color:#F1F4F6"/>
		<stop  offset="0.414" style="stop-color:#C7D3DD"/>
		<stop  offset="0.586" style="stop-color:#D1DBE4"/>
		<stop  offset="0.6899" style="stop-color:#9DB2C4"/>
		<stop  offset="1" style="stop-color:#F4F6F8"/>
	</linearGradient>
	<path style="fill:url(#SVGID_00000074412887918987263180000002397566262055945652_);" d="M395.52,414.76L372.9,401.7
		c-1.26-0.73-2.3-2.68-2.33-4.37l0,0c-0.03-1.69,0.97-2.47,2.23-1.74l22.61,13.06c1.26,0.73,2.3,2.68,2.33,4.37l0,0
		C397.77,414.71,396.77,415.49,395.52,414.76z"/>
	
		<linearGradient id="SVGID_00000072262528262521632840000015242776306190380717_" gradientUnits="userSpaceOnUse" x1="614.7123" y1="186.7535" x2="251.2246" y2="628.3461">
		<stop  offset="0" style="stop-color:#CED9E2"/>
		<stop  offset="0" style="stop-color:#E8EDF1"/>
		<stop  offset="0.2279" style="stop-color:#F1F4F6"/>
		<stop  offset="0.414" style="stop-color:#C7D3DD"/>
		<stop  offset="0.586" style="stop-color:#D1DBE4"/>
		<stop  offset="0.6899" style="stop-color:#9DB2C4"/>
		<stop  offset="1" style="stop-color:#F4F6F8"/>
	</linearGradient>
	<path style="fill:url(#SVGID_00000072262528262521632840000015242776306190380717_);" d="M429.81,421.87l-8.22-4.74
		c-1.26-0.73-2.3-2.68-2.33-4.37l0,0c-0.03-1.69,0.97-2.47,2.23-1.74l8.22,4.74c1.26,0.73,2.3,2.68,2.33,4.37l0,0
		C432.06,421.81,431.07,422.59,429.81,421.87z"/>
	<polygon class="st0" points="498.77,712.87 523.87,698.38 548.97,712.87 523.87,727.36 	"/>
	<polygon class="st0" points="552.05,681.69 577.16,667.2 602.26,681.69 577.16,696.19 	"/>
	<polygon class="st0" points="605.18,651.26 630.28,636.77 655.38,651.26 630.28,665.75 	"/>
	<polygon class="st2" points="577.16,681.69 577.16,604.4 552.05,589.9 552.05,667.2 	"/>
	<polygon class="st2" points="577.16,604.4 602.26,589.9 602.26,667.2 577.16,681.69 	"/>
	<polygon class="st42" points="577.16,681.69 577.16,604.4 552.05,589.9 552.05,667.2 	"/>
	<polygon class="st42" points="523.87,712.87 523.87,669.39 498.77,654.9 498.77,698.38 	"/>
	
		<linearGradient id="SVGID_00000005960223512540962510000003022951097630481803_" gradientUnits="userSpaceOnUse" x1="523.871" y1="683.8829" x2="548.9738" y2="683.8829">
		<stop  offset="0" style="stop-color:#59BDEF"/>
		<stop  offset="1" style="stop-color:#7BDAFF"/>
	</linearGradient>
	<polygon style="fill:url(#SVGID_00000005960223512540962510000003022951097630481803_);" points="523.87,669.39 548.97,654.9 
		548.97,698.38 523.87,712.87 	"/>
	<polygon class="st0" points="498.77,654.9 523.87,640.4 548.97,654.9 523.87,669.39 	"/>
	<polygon class="st44" points="630.28,651.26 630.28,544.98 605.18,530.48 605.18,636.77 	"/>
	
		<linearGradient id="SVGID_00000132090515497013076460000004643173996299214515_" gradientUnits="userSpaceOnUse" x1="630.2798" y1="590.8726" x2="655.3828" y2="590.8726">
		<stop  offset="0" style="stop-color:#59BDEF"/>
		<stop  offset="1" style="stop-color:#7BDAFF"/>
	</linearGradient>
	<polygon style="fill:url(#SVGID_00000132090515497013076460000004643173996299214515_);" points="630.28,544.98 655.38,530.48 
		655.38,636.77 630.28,651.26 	"/>
	<polygon class="st0" points="605.18,530.48 630.28,515.99 655.38,530.48 630.28,544.98 	"/>
	<polygon class="st0" points="552.05,589.9 577.16,575.41 602.26,589.9 577.16,604.4 	"/>
	<path class="st7" d="M141.63,567.86c0,0-7.75-3.91-12.51,1.91c-4.76,5.82-11.56,19.55-11.77,28.84c-0.21,9.28,7.35,8.66,11.84,6.46
		c4.49-2.2,17.61-21.23,18.41-24.96c0.79-3.73-0.94-8.77-2.2-9.76C144.14,569.36,141.63,567.86,141.63,567.86z"/>
	<path class="st0" d="M143.32,565.99l0.36,8.03c0.08,1.71-0.78,3.33-2.27,4.18c-1.35,0.77-3.32,1.36-5.98,0.93
		c-5.84-0.94-6.36-2.61-6.78-10.63C128.25,560.47,143.32,565.99,143.32,565.99z"/>
	<g>
		<path class="st7" d="M113.27,552.42c0,0-7.75-3.91-12.51,1.91c-4.76,5.82-11.56,19.55-11.77,28.84
			c-0.21,9.28,7.35,8.66,11.84,6.46c4.49-2.2,17.61-21.23,18.41-24.96c0.79-3.73-0.94-8.77-2.2-9.76
			C115.77,553.93,113.27,552.42,113.27,552.42z"/>
		<path class="st0" d="M114.96,550.56l0.36,8.03c0.08,1.71-0.78,3.33-2.27,4.18c-1.35,0.77-3.32,1.36-5.98,0.93
			c-5.84-0.94-6.36-2.61-6.78-10.63C99.88,545.03,114.96,550.56,114.96,550.56z"/>
		<path class="st11" d="M184.1,403.17c-2.29-37.32-40.41,5.49-40.41,5.49l-26.09,25.57l-23.49,25.81
			c-4.59,5.04-6.72,11.85-5.84,18.6l9.5,72.37c0.47,3.57,3.53,6.21,7.13,6.18c1.02-0.01,2.18-0.1,3.52-0.31
			c8.48-1.32,7.85-9.38,7.85-9.38l-1.74-67.68l49.34-29.74C163.88,450.07,186.4,440.48,184.1,403.17z"/>
	</g>
	<path class="st11" d="M212.47,417.38c-2.29-37.32-40.41,5.49-40.41,5.49l-26.09,25.57l-23.49,25.81
		c-4.59,5.04-6.72,11.85-5.84,18.6l9.5,72.37c0.47,3.57,3.53,6.21,7.13,6.18c1.02-0.01,2.18-0.1,3.52-0.31
		c8.48-1.32,7.85-9.38,7.85-9.38l-1.74-67.68l49.34-29.74C192.25,464.29,214.76,454.7,212.47,417.38z"/>
	<path class="st7" d="M189.92,297.6c28.9,11.98,28.32,29.06,28.32,29.06s-5.66,62.63-3.73,104.46c0.81,17.49-92.9,18.82-78.92-27.83
		c16.48-55,10.3-99.53,18.01-106.25C161.31,290.33,182.44,294.5,189.92,297.6z"/>
	<path class="st46" d="M199.21,312.75c-1.51,5.87-9.2,8.96-17.17,6.91c-7.97-2.05-13.21-8.47-11.7-14.34
		c1.51-5.87,9.2-8.96,17.17-6.91C195.49,300.46,200.73,306.88,199.21,312.75z"/>
	<path class="st13" d="M186.92,321.66c-1.7,0-3.45-0.22-5.22-0.67c-4.14-1.06-7.74-3.27-10.13-6.21c-2.49-3.06-3.4-6.54-2.56-9.82
		c1.7-6.6,10.15-10.14,18.85-7.9c4.14,1.06,7.74,3.27,10.13,6.21c2.49,3.06,3.4,6.55,2.56,9.82l0,0
		C199.2,318.34,193.56,321.66,186.92,321.66z M182.57,299.15c-5.37,0-9.85,2.5-10.89,6.51c-0.62,2.4,0.1,5.02,2.03,7.38
		c2.03,2.48,5.11,4.36,8.68,5.28c7.21,1.86,14.17-0.8,15.49-5.92l0,0c0.62-2.4-0.1-5.02-2.03-7.38c-2.03-2.48-5.11-4.36-8.68-5.28
		C185.61,299.34,184.05,299.15,182.57,299.15z"/>
	<path class="st46" d="M178.33,296.29c0,0,0.25,1.16-0.25,10.32c-0.16,2.88,9.92,5.57,12.53,2.96c2.61-2.61,1.56-5.32,2.19-15.11
		C193.42,284.66,178.33,296.29,178.33,296.29z"/>
	<path class="st47" d="M192.8,294.46c0,0-2.48,9.08-14.72,12.57l0.19-8.26L192.8,294.46z"/>
	<path class="st46" d="M200.55,271.38c3.08,11.89-4.07,24.03-15.97,27.11c-11.89,3.08-24.03-4.07-27.11-15.97
		c-3.08-11.89,4.07-24.03,15.97-27.11C185.34,252.33,197.47,259.48,200.55,271.38z"/>
	<path class="st47" d="M184.12,277.76c0,0-12.25,5.25-20.73,5.31c-8.48,0.06-6.61-7.04-6.61-7.04l25.17-3.64L184.12,277.76z"/>
	<path class="st48" d="M160.86,279.15c0,0,10.67-4.53,20.03-2.64c2.2,0.44,4.24,1.62,5.66,3.36c0.46,0.57,1.05,1.09,1.71,1.24
		c1.66,0.38,4.38-6.51,7.6-6.67c3.23-0.16,5.38,2.13,2.73,6.36c-2.65,4.23-1.75,8.97-0.53,9.65c1.22,0.68,14.13-9.21,2.74-31.76
		c-11.39-22.56-40.31-10.41-44.81-5.84c0,0-4.74,4.13-8.59,0.45C147.4,253.31,143.08,285.67,160.86,279.15z"/>
	<path class="st46" d="M202.02,372.42v16.92c0,1.94-0.82,3.79-2.25,5.1l-34.77,31.69l3.95,6.04l45.91-33.3
		c2.14-1.55,3.53-3.95,3.8-6.58l3.1-29.51L202.02,372.42z"/>
	<path class="st7" d="M215.79,318.2c0,0,10.55,15.86,14.48,57.61c0,0-18.02,5.83-28.24,2.52C191.8,375.02,215.79,318.2,215.79,318.2
		z"/>
	<path class="st2" d="M200.1,338.26c0,0-4.13,22.1-4.36,32.48c-0.06,2.85,1.68,5.43,4.36,6.4l0,0V338.26z"/>
	<g>
		<path class="st7" d="M191.08,448.14l-7.68-1.01l-49.6-28.64c-1.59-0.92-4.37-0.8-6.2,0.26l-35.15,20.28l-4.65-0.61v4.63l0,0
			c-0.03,0.61,0.32,1.2,1.07,1.63l56.21,32.45c1.59,0.92,4.37,0.8,6.2-0.26l38.28-22.09c1.03-0.6,1.55-1.36,1.52-2.09l0,0V448.14z"
			/>
		<path class="st2" d="M153.81,430.04l-3.52-2.03h-38.74l-19.1,11.02l-4.65-0.61v4.63l0,0c-0.03,0.61,0.32,1.2,1.07,1.63
			l56.21,32.45c0.84,0.49,2.01,0.68,3.2,0.6L153.81,430.04z"/>
		<path class="st7" d="M89.86,438.69l-2.06-0.27v4.63l0,0c-0.03,0.61,0.32,1.2,1.07,1.63l0.99,0.57V438.69z"/>
		<path class="st13" d="M145.65,477.39c1.51,0.57,3.66,0.45,5.27-0.33v-7.87h-5.27V477.39z"/>
		<path class="st13" d="M145.08,472.5l-56.21-32.45c-1.59-0.92-1.39-2.52,0.45-3.58l38.28-22.09c1.84-1.06,4.61-1.18,6.2-0.26
			l56.21,32.45c1.59,0.92,1.39,2.52-0.45,3.58l-38.28,22.09C149.45,473.3,146.67,473.42,145.08,472.5z"/>
		<path class="st0" d="M144.13,467.58L97.39,440.6c-1.32-0.76-1.16-2.1,0.37-2.98l20.51-11.53c1.53-0.88,3.84-0.98,5.16-0.21
			l46.74,26.99c1.32,0.76,1.16,2.1-0.37,2.98l-20.51,11.53C147.76,468.25,145.45,468.34,144.13,467.58z"/>
	</g>
	<path class="st46" d="M129.77,413.31l-0.58,3.88c-0.5,3.3-0.41,6.67,0.25,9.95l0.69,3.42c0.39,1.93,1.92,3.42,3.85,3.78l0,0
		c1.51,0.28,2.94-0.79,3.11-2.31l0.93-8.29c0,0,2.12,2.78,3.15,2.78c1.02,0-1.15-8.3-3.46-13
		C135.38,408.8,129.77,413.31,129.77,413.31z"/>
	<path class="st46" d="M148.82,351.67l-6.03,11.94c-1.43,2.82-2.27,5.91-2.47,9.06l-2.62,40.83l-7.93-0.19l-3.6-45.85
		c-0.11-1.42-0.04-2.84,0.21-4.24l4.11-23.25L148.82,351.67z"/>
	<g>
		
			<linearGradient id="SVGID_00000174569680959589470490000016742026395290933136_" gradientUnits="userSpaceOnUse" x1="83.2204" y1="432.4005" x2="146.8889" y2="432.4005">
			<stop  offset="0" style="stop-color:#E7ECF1"/>
			<stop  offset="0" style="stop-color:#A5B8C9"/>
			<stop  offset="0.2279" style="stop-color:#99AEC2"/>
			<stop  offset="0.414" style="stop-color:#ABBDCC"/>
			<stop  offset="0.586" style="stop-color:#D4DDE5"/>
			<stop  offset="0.7721" style="stop-color:#8BA4B9"/>
			<stop  offset="1" style="stop-color:#ECF0F3"/>
		</linearGradient>
		<path style="fill:url(#SVGID_00000174569680959589470490000016742026395290933136_);" d="M143.18,475.62l-4.71-6.15l-49.57-28.7
			c-1.59-0.92-2.87-3.38-2.87-5.5l0.04-40.58l-2.85-3.72l2.68-1.55l0,0c0.51-0.33,1.19-0.32,1.94,0.11l56.17,32.52
			c1.59,0.92,2.87,3.38,2.87,5.5l-0.05,44.19c0,1.19-0.41,2.02-1.05,2.36l0,0L143.18,475.62z"/>
		
			<linearGradient id="SVGID_00000168810907151565260240000014067154342981076913_" gradientUnits="userSpaceOnUse" x1="83.2204" y1="420.7659" x2="146.1339" y2="420.7659">
			<stop  offset="0" style="stop-color:#E7ECF1"/>
			<stop  offset="0" style="stop-color:#A5B8C9"/>
			<stop  offset="0.2279" style="stop-color:#99AEC2"/>
			<stop  offset="0.414" style="stop-color:#ABBDCC"/>
			<stop  offset="0.586" style="stop-color:#D4DDE5"/>
			<stop  offset="0.7721" style="stop-color:#8BA4B9"/>
			<stop  offset="1" style="stop-color:#ECF0F3"/>
		</linearGradient>
		<path style="fill:url(#SVGID_00000168810907151565260240000014067154342981076913_);" d="M108.9,452.35l-3.52-2.04l-19.33-33.58
			l0.02-22.05l-2.85-3.72l2.68-1.55l0,0c0.51-0.33,1.19-0.32,1.94,0.11l56.17,32.52c0.84,0.49,1.59,1.41,2.12,2.48L108.9,452.35z"/>
		
			<linearGradient id="SVGID_00000048484749613170282090000010080187683943883429_" gradientUnits="userSpaceOnUse" x1="83.2204" y1="390.8986" x2="88.8344" y2="390.8986">
			<stop  offset="0" style="stop-color:#E7ECF1"/>
			<stop  offset="0" style="stop-color:#A5B8C9"/>
			<stop  offset="0.2279" style="stop-color:#99AEC2"/>
			<stop  offset="0.414" style="stop-color:#ABBDCC"/>
			<stop  offset="0.586" style="stop-color:#D4DDE5"/>
			<stop  offset="0.7721" style="stop-color:#8BA4B9"/>
			<stop  offset="1" style="stop-color:#ECF0F3"/>
		</linearGradient>
		<path style="fill:url(#SVGID_00000048484749613170282090000010080187683943883429_);" d="M84.49,392.61l-1.26-1.65l2.68-1.55l0,0
			c0.51-0.33,1.19-0.32,1.94,0.11l0.99,0.57L84.49,392.61z"/>
		
			<linearGradient id="SVGID_00000008138177416789463460000017275967167148762017_" gradientUnits="userSpaceOnUse" x1="138.7539" y1="426.3596" x2="146.8732" y2="426.3596">
			<stop  offset="0" style="stop-color:#E7ECF1"/>
			<stop  offset="0" style="stop-color:#A5B8C9"/>
			<stop  offset="0.2279" style="stop-color:#99AEC2"/>
			<stop  offset="0.414" style="stop-color:#ABBDCC"/>
			<stop  offset="0.586" style="stop-color:#D4DDE5"/>
			<stop  offset="0.7721" style="stop-color:#8BA4B9"/>
			<stop  offset="1" style="stop-color:#ECF0F3"/>
		</linearGradient>
		<path style="fill:url(#SVGID_00000008138177416789463460000017275967167148762017_);" d="M144.53,422.41
			c1.25,1.02,2.21,2.95,2.35,4.73l-5.49,3.17l-2.63-4.57L144.53,422.41z"/>
		
			<linearGradient id="SVGID_00000088110068661970902690000002365486952939113136_" gradientUnits="userSpaceOnUse" x1="82.24" y1="433.2737" x2="144.2137" y2="433.2737">
			<stop  offset="0" style="stop-color:#E7ECF1"/>
			<stop  offset="0" style="stop-color:#A5B8C9"/>
			<stop  offset="0.2279" style="stop-color:#99AEC2"/>
			<stop  offset="0.414" style="stop-color:#ABBDCC"/>
			<stop  offset="0.586" style="stop-color:#D4DDE5"/>
			<stop  offset="0.7721" style="stop-color:#8BA4B9"/>
			<stop  offset="1" style="stop-color:#ECF0F3"/>
		</linearGradient>
		<path style="fill:url(#SVGID_00000088110068661970902690000002365486952939113136_);" d="M141.34,423.6l-56.17-32.52
			c-1.59-0.92-2.88,0.05-2.88,2.17l-0.05,44.19c0,2.12,1.28,4.58,2.87,5.5l56.17,32.52c1.59,0.92,2.88-0.05,2.88-2.17l0.05-44.19
			C144.22,426.98,142.93,424.52,141.34,423.6z"/>
	</g>
	<path class="st46" d="M168.96,432.17l-0.9,1.86c-1.04,2.15-2.67,3.95-4.7,5.2l-5.58,3.44c-1.74,1.07-3.93,1.16-5.7,0.13
		c-0.06-0.04-0.13-0.08-0.19-0.11c-1.77-1.11-1.93-3.66-0.47-5.16l5.83-5.99c0,0-3.28,2.51-4.19,1.5c-0.67-0.74,3.18-4.36,6.13-4.47
		c2.96-0.12,5.82-2.44,5.82-2.44L168.96,432.17z"/>
	<path class="st7" d="M154.18,296.96c0,0-21.37,23.26-30,44.59c0,0,7.31,13.17,25.2,18.34
		C167.27,365.05,154.18,296.96,154.18,296.96z"/>
	<path class="st2" d="M145.35,358.51l3.46-33.47l-8.16,31.36C142.11,357.15,143.69,357.86,145.35,358.51z"/>
	<path class="st13" d="M170.19,292.26l-5.74-1.58c0,0,2.74,4.31,6.74,5.41c4,1.1,4.63-2.29,4.63-2.29L170.19,292.26z"/>
	<path class="st13" d="M200.86,283.07c0,1.77-1.43,3.2-3.2,3.2c-1.77,0-3.2-1.43-3.2-3.2c0-1.77,1.43-3.2,3.2-3.2
		C199.43,279.87,200.86,281.3,200.86,283.07z"/>
	
		<linearGradient id="SVGID_00000078041885045639081630000015739768238707218838_" gradientUnits="userSpaceOnUse" x1="668.7446" y1="280.6816" x2="697.972" y2="280.6816">
		<stop  offset="0" style="stop-color:#CED9E2"/>
		<stop  offset="0" style="stop-color:#E8EDF1"/>
		<stop  offset="0.2279" style="stop-color:#F1F4F6"/>
		<stop  offset="0.414" style="stop-color:#C7D3DD"/>
		<stop  offset="0.586" style="stop-color:#D1DBE4"/>
		<stop  offset="0.6899" style="stop-color:#9DB2C4"/>
		<stop  offset="1" style="stop-color:#F4F6F8"/>
	</linearGradient>
	<path style="fill:url(#SVGID_00000078041885045639081630000015739768238707218838_);" d="M678.38,295.3l-9.63-19.6l19.59-9.63
		l9.63,19.6L678.38,295.3z M674.59,277.69l5.78,11.76l11.76-5.78l-5.78-11.76L674.59,277.69z"/>
	<path class="st0" d="M265.07,668.63c-21.4-12.35-56.09-12.35-77.49,0c-21.4,12.35-21.4,32.38,0,44.74
		c21.4,12.35,56.09,12.35,77.49,0C286.47,701.02,286.47,680.99,265.07,668.63z M244.14,701.28c-9.84,5.68-25.78,5.68-35.62,0
		c-9.84-5.68-9.84-14.89,0-20.56c9.84-5.68,25.78-5.68,35.62,0C253.97,686.4,253.98,695.6,244.14,701.28z"/>
	<path class="st55" d="M179.5,661.31l19.55,0.3c1.45-1.88,3.5-3.65,6.17-5.19c10.75-6.21,27.65-6.68,39.36-1.45l11.61-10.92
		l17.88,0.28c-0.88-0.58-1.79-1.15-2.75-1.7c-24.85-14.35-65.15-14.35-90,0c-4.57,2.64-8.29,5.58-11.18,8.71L179.5,661.31z"/>
	<polygon class="st55" points="274.08,615.95 274.08,644.34 256.19,644.06 256.19,615.67 	"/>
	<polygon class="st2" points="244.58,626.6 244.58,654.98 256.19,644.06 256.19,615.67 	"/>
	<path class="st0" d="M199.05,633.23v28.38l25.71-20.95l19.82,14.31V626.6l-18.25-8.85c0,0-25.12,7.69-26.43,8.02
		C198.59,626.09,199.05,633.23,199.05,633.23z"/>
	<polygon class="st2" points="179.5,632.93 179.5,661.31 199.05,661.62 199.05,633.23 	"/>
	<polygon class="st0" points="170.15,622.96 170.15,651.34 179.5,661.31 179.5,632.93 	"/>
	<path class="st11" d="M179.5,632.93l19.55,0.3c1.45-1.88,3.5-3.65,6.17-5.19c10.75-6.21,27.65-6.68,39.36-1.45l11.61-10.92
		l17.88,0.28c-0.88-0.58-1.79-1.15-2.75-1.7c-24.85-14.35-65.15-14.35-90,0c-4.57,2.64-8.29,5.58-11.18,8.71L179.5,632.93z"/>
	<g>
		<path class="st7" d="M250.47,630.09v26.09l16.92-4.05c0,0-0.99-15.27-1.35-15.68C265.67,636.04,250.47,630.09,250.47,630.09z"/>
		<g>
			<path class="st11" d="M237.66,656.18v28.38l1.83,1.95l11.93-6.88c0,0-1.85-21.67-2.07-22.1
				C249.13,657.1,237.66,656.18,237.66,656.18z"/>
			<path class="st2" d="M260.69,648.85l-10.23,9.62c8.52,6.74,7.51,16.24-3.03,22.33c-2.89,1.67-6.22,2.92-9.78,3.76l10.57,11.26
				l-9.37,8.81c11.89-1.37,23.24-4.72,32.46-10.04c21.36-12.33,24.34-31.25,8.98-45.44L260.69,648.85z"/>
			<polygon class="st2" points="238.87,676.25 238.87,704.63 262.06,695.68 289.96,669.06 289.85,638.93 260.34,662.32 			"/>
			<path class="st0" d="M260.69,620.47l-10.23,9.62c8.52,6.74,7.51,16.24-3.03,22.33c-2.89,1.67-6.22,2.92-9.78,3.76l10.57,11.26
				l-9.37,8.81c11.89-1.37,23.24-4.72,32.46-10.04c21.36-12.33,24.34-31.25,8.98-45.44L260.69,620.47z"/>
		</g>
	</g>
	<g>
		<path class="st2" d="M238.79,695.68l-9.32-9.93c-8.65,0.53-17.62-1.12-24.25-4.95c-6.85-3.95-9.67-9.35-8.47-14.49l-22.19-0.35
			l-8.53-9.09c-7.46,12.81-2.37,27.52,15.3,37.72c12.99,7.5,30.19,11.07,47.2,10.73L238.79,695.68z"/>
		<polygon class="st2" points="228.53,676.94 228.53,705.33 162.71,668.85 162.71,640.45 172.32,644.34 		"/>
		<polygon class="st11" points="238.79,667.29 238.79,695.68 228.53,705.33 228.53,676.94 		"/>
		<path class="st7" d="M238.79,667.29l-9.32-9.93c-8.65,0.53-17.62-1.12-24.25-4.95c-6.85-3.95-9.67-9.35-8.47-14.49l-22.19-0.35
			l-8.53-9.09c-7.46,12.81-2.37,27.52,15.3,37.72c12.99,7.5,30.19,11.07,47.2,10.73L238.79,667.29z"/>
	</g>
	
		<linearGradient id="SVGID_00000178892649250005927270000014885381949350560386_" gradientUnits="userSpaceOnUse" x1="77.0049" y1="195.3572" x2="105.3902" y2="195.3572">
		<stop  offset="0" style="stop-color:#CED9E2"/>
		<stop  offset="0" style="stop-color:#E8EDF1"/>
		<stop  offset="0.2279" style="stop-color:#F1F4F6"/>
		<stop  offset="0.414" style="stop-color:#C7D3DD"/>
		<stop  offset="0.586" style="stop-color:#D1DBE4"/>
		<stop  offset="0.6899" style="stop-color:#9DB2C4"/>
		<stop  offset="1" style="stop-color:#F4F6F8"/>
	</linearGradient>
	<path style="fill:url(#SVGID_00000178892649250005927270000014885381949350560386_);" d="M91.2,209.55
		c-7.83,0-14.19-6.37-14.19-14.19s6.37-14.19,14.19-14.19s14.19,6.37,14.19,14.19S99.02,209.55,91.2,209.55z M91.2,185.53
		c-5.42,0-9.83,4.41-9.83,9.83c0,5.42,4.41,9.83,9.83,9.83c5.42,0,9.83-4.41,9.83-9.83C101.02,189.94,96.62,185.53,91.2,185.53z"/>
	<path class="st0" d="M56.72,652.87c0,5.69-4.61,10.3-10.3,10.3c-5.69,0-10.3-4.61-10.3-10.3c0-5.69,4.61-10.3,10.3-10.3
		C52.11,642.57,56.72,647.18,56.72,652.87z"/>
	<path class="st0" d="M583.39,63.37c0,6.78-5.5,12.28-12.28,12.28c-6.78,0-12.28-5.5-12.28-12.28c0-6.78,5.5-12.28,12.28-12.28
		C577.9,51.09,583.39,56.59,583.39,63.37z"/>
	
		<radialGradient id="SVGID_00000061470694381392117590000015584856260377673355_" cx="485.8293" cy="202.9501" r="41.7241" gradientUnits="userSpaceOnUse">
		<stop  offset="0" style="stop-color:#35158C"/>
		<stop  offset="1" style="stop-color:#13247A"/>
	</radialGradient>
	<path style="fill:url(#SVGID_00000061470694381392117590000015584856260377673355_);" d="M517.01,190.36l-58.38-33.71
		c-1.16-0.67-2.2-0.69-3.02-0.24c0,0,0-0.04,0-0.04l-5.66,3.27c0,0,2.51,0.91,3.98,1.45v42.52c0,3.46,2.1,7.48,4.7,8.98l55.8,32.22
		v4.99l5.72-3.29l-0.03-0.01c0.97-0.59,1.59-1.88,1.59-3.74v-43.41C521.71,195.87,519.61,191.86,517.01,190.36z"/>
	
		<linearGradient id="SVGID_00000081631662145305254940000006880513506594519475_" gradientUnits="userSpaceOnUse" x1="448.163" y1="204.7976" x2="515.9412" y2="204.7976">
		<stop  offset="0" style="stop-color:#59BDEF"/>
		<stop  offset="1" style="stop-color:#7BDAFF"/>
	</linearGradient>
	<path style="fill:url(#SVGID_00000081631662145305254940000006880513506594519475_);" d="M511.24,249.62l-58.38-33.71
		c-2.59-1.5-4.7-5.52-4.7-8.98v-43.41c0-3.46,2.1-5.05,4.7-3.55l58.38,33.71c2.59,1.5,4.7,5.52,4.7,8.98v43.41
		C515.94,249.53,513.84,251.12,511.24,249.62z"/>
	<g>
		<path class="st13" d="M472.49,200.95c0,2.51-1.76,3.53-3.94,2.27c-2.18-1.26-3.94-4.31-3.94-6.82s1.76-3.53,3.94-2.27
			C470.73,195.39,472.49,198.44,472.49,200.95z"/>
		<path class="st13" d="M484.43,207.84c0,2.51-1.76,3.53-3.94,2.27c-2.18-1.26-3.94-4.31-3.94-6.82s1.76-3.53,3.94-2.27
			C482.66,202.28,484.43,205.33,484.43,207.84z"/>
		<path class="st13" d="M496.36,214.73c0,2.51-1.76,3.53-3.94,2.27c-2.18-1.26-3.94-4.31-3.94-6.82c0-2.51,1.76-3.53,3.94-2.27
			C494.6,209.17,496.36,212.22,496.36,214.73z"/>
	</g>
	<g>
		<g>
			<path class="st7" d="M233.13,124.05l-57.28-33.07c-1.13-0.65-2.16-0.68-2.96-0.24c0,0,0-0.04,0-0.04l-5.56,3.21
				c0,0,2.46,0.9,3.9,1.43v41.71c0,3.39,2.06,7.34,4.61,8.81l54.75,31.61v4.89l5.61-3.23l-0.03-0.01c0.95-0.58,1.56-1.85,1.56-3.67
				v-42.59C237.74,129.46,235.68,125.51,233.13,124.05z"/>
			<path class="st0" d="M227.47,182.18l-57.28-33.07c-2.55-1.47-4.61-5.41-4.61-8.81V97.72c0-3.39,2.06-4.95,4.61-3.48l57.28,33.07
				c2.55,1.47,4.61,5.41,4.61,8.81v42.59C232.08,182.09,230.02,183.65,227.47,182.18z"/>
		</g>
		<g>
			<path class="st13" d="M189.46,134.44c0,2.46-1.73,3.46-3.86,2.23c-2.13-1.23-3.86-4.23-3.86-6.69c0-2.46,1.73-3.46,3.86-2.23
				C187.73,128.98,189.46,131.98,189.46,134.44z"/>
			<path class="st13" d="M201.17,141.2c0,2.46-1.73,3.46-3.86,2.23c-2.13-1.23-3.86-4.23-3.86-6.69c0-2.46,1.73-3.46,3.86-2.23
				C199.43,135.74,201.17,138.73,201.17,141.2z"/>
			<path class="st13" d="M212.87,147.96c0,2.46-1.73,3.46-3.86,2.23c-2.13-1.23-3.86-4.23-3.86-6.69c0-2.46,1.73-3.46,3.86-2.23
				C211.14,142.5,212.87,145.49,212.87,147.96z"/>
		</g>
	</g>
</g>
</svg>
