<?xml version="1.0" encoding="utf-8"?>
<!-- Generator: Adobe Illustrator 27.6.1, SVG Export Plug-In . SVG Version: 6.00 Build 0)  -->
<svg version="1.1" id="Layer_1" xmlns="http://www.w3.org/2000/svg" xmlns:xlink="http://www.w3.org/1999/xlink" x="0px" y="0px"
	 viewBox="0 0 682 566" style="enable-background:new 0 0 682 566;" xml:space="preserve">
<style type="text/css">
	.st0{fill:url(#SVGID_1_);}
	.st1{fill:url(#SVGID_00000176762252788266573250000009731944985840074907_);}
	.st2{fill:url(#SVGID_00000128465120158711056640000006571451261513829523_);}
	.st3{fill:url(#SVGID_00000011021532146757882750000007478457752842792065_);}
	.st4{opacity:0.51;}
	.st5{fill:#FCFCFC;}
	.st6{fill:#9DB2C4;}
	.st7{fill:url(#SVGID_00000092420632141414268990000006948313119154475192_);}
	.st8{fill:#606060;}
	.st9{fill:#FFFFFF;}
	.st10{fill:url(#SVGID_00000011022927507383478050000001384897484697733777_);}
	.st11{fill:url(#SVGID_00000023994784792479689940000004322041864671118209_);}
	.st12{opacity:0.35;}
	.st13{clip-path:url(#SVGID_00000097486222706919572400000007451563483255945614_);}
	.st14{fill:url(#SVGID_00000046333251647551540810000008890458930097734305_);}
	.st15{fill:url(#SVGID_00000163753745695010913210000001816196622385709468_);}
	.st16{fill:#9296CA;}
	.st17{opacity:0.6;}
	.st18{fill:url(#SVGID_00000109746264449737431310000015371643378226921126_);}
	.st19{fill:url(#SVGID_00000030455276074840947250000001359975329519209659_);}
	.st20{fill:url(#SVGID_00000111193272392181821130000011571891189618350736_);}
	.st21{fill:url(#SVGID_00000157304611374077811650000013640128638927525505_);}
	.st22{fill:url(#SVGID_00000065051609348535257780000015210891488621555101_);}
	.st23{fill:url(#SVGID_00000155855704526581828280000004624420986492329097_);}
	.st24{fill:url(#SVGID_00000036962515817756051330000007071716809534486420_);}
	.st25{fill:url(#SVGID_00000130605367845049314830000011808725249167592381_);}
	.st26{fill:url(#SVGID_00000174597347092756599790000000593148987561655475_);}
	.st27{opacity:0.38;fill:url(#SVGID_00000166637852042331662400000001176313220566394039_);}
	.st28{opacity:0.28;fill:url(#SVGID_00000067214862101015255410000010521684083467150263_);}
	.st29{fill:url(#SVGID_00000064324342728901513770000000792308747855022473_);}
	.st30{fill:url(#SVGID_00000018946986928346623790000006004886343096384157_);}
	.st31{opacity:0.6;fill:#282567;}
	.st32{fill:#282567;}
	.st33{fill:#343B40;}
	.st34{fill:url(#SVGID_00000181795407471858266590000000125160903922515341_);}
	.st35{fill:url(#SVGID_00000178923765071294220770000010896411738680166584_);}
	.st36{opacity:0.32;}
</style>
<linearGradient id="SVGID_1_" gradientUnits="userSpaceOnUse" x1="-1352.4589" y1="294.2676" x2="-1293.1099" y2="294.2676" gradientTransform="matrix(-1 0 0 1 -931.2388 0)">
	<stop  offset="0" style="stop-color:#CED9E2"/>
	<stop  offset="0" style="stop-color:#E8EDF1"/>
	<stop  offset="0.2279" style="stop-color:#F1F4F6"/>
	<stop  offset="0.414" style="stop-color:#C7D3DD"/>
	<stop  offset="0.586" style="stop-color:#D1DBE4"/>
	<stop  offset="0.7721" style="stop-color:#9DB2C4"/>
	<stop  offset="1" style="stop-color:#F4F6F8"/>
</linearGradient>
<path class="st0" d="M415.61,180.24l4.92-2.18c0.55,1.26,0.82,2.58,0.63,3.7l-37.73,223.87c-0.2,1.17-0.77,1.94-1.58,2.28l0,0
	l-4.43,2.56l-0.76-4.13l0.25,0.08l-15.05-8.69L415.61,180.24z"/>
<path d="M272.86,481.19l-0.22-3.12c-0.02-0.3-0.2-0.44-0.39-0.33l-9.68,5.59c-0.2,0.11-0.34,0.44-0.32,0.74l0.22,3.12
	c0.02,0.3,0.2,0.44,0.39,0.33l9.68-5.59C272.74,481.82,272.88,481.49,272.86,481.19z"/>
<path d="M257.77,490.2l0.74-1.97c0.07-0.19-0.06-0.23-0.29-0.1l-11.46,6.61c-0.23,0.13-0.47,0.39-0.55,0.58l-0.74,1.97
	c-0.07,0.19,0.06,0.23,0.29,0.1l11.46-6.61C257.46,490.64,257.7,490.39,257.77,490.2z"/>
<g>
	<g>
		
			<linearGradient id="SVGID_00000016779228455918577520000018121662694733697938_" gradientUnits="userSpaceOnUse" x1="629.4284" y1="455.8901" x2="-236.5716" y2="392.8901">
			<stop  offset="0" style="stop-color:#CED9E2"/>
			<stop  offset="0" style="stop-color:#E8EDF1"/>
			<stop  offset="0.2279" style="stop-color:#F1F4F6"/>
			<stop  offset="0.414" style="stop-color:#C7D3DD"/>
			<stop  offset="0.586" style="stop-color:#D1DBE4"/>
			<stop  offset="0.6332" style="stop-color:#9DB2C4"/>
			<stop  offset="1" style="stop-color:#F4F6F8"/>
		</linearGradient>
		<path style="fill:url(#SVGID_00000016779228455918577520000018121662694733697938_);" d="M230.46,300.49L510.6,462.23
			c2.43,1.4,2.43,4.91,0,6.31l-155.55,89.81c-7.07,4.08-15.77,4.08-22.84,0L63.48,403.2c-2.43-1.4-2.43-4.91,0-6.31L230.46,300.49z"
			/>
	</g>
	
		<linearGradient id="SVGID_00000183936004295820655990000010087839372064974980_" gradientUnits="userSpaceOnUse" x1="-1515.9879" y1="207.9523" x2="-1170.353" y2="207.9523" gradientTransform="matrix(-1 0 0 1 -931.2388 0)">
		<stop  offset="0" style="stop-color:#CED9E2"/>
		<stop  offset="0" style="stop-color:#E8EDF1"/>
		<stop  offset="0.2279" style="stop-color:#F1F4F6"/>
		<stop  offset="0.414" style="stop-color:#C7D3DD"/>
		<stop  offset="0.586" style="stop-color:#D1DBE4"/>
		<stop  offset="0.7721" style="stop-color:#9DB2C4"/>
		<stop  offset="1" style="stop-color:#F4F6F8"/>
	</linearGradient>
	<path style="fill:url(#SVGID_00000183936004295820655990000010087839372064974980_);" d="M239.18,229.45L276.61,7.34l-3.01-1.27
		l4.52-2.59l-0.01,0.03c0.88-0.58,2.12-0.55,3.49,0.24l299.2,172.74c2.46,1.42,4.32,5.06,3.88,7.6l-37.73,223.87
		c-0.2,1.17-0.77,1.94-1.58,2.28l0,0l-4.43,2.56l-0.76-4.13l0.25,0.08l-297.38-171.7C240.6,235.63,238.75,231.99,239.18,229.45z"/>
	
		<linearGradient id="SVGID_00000098205654527872952400000013298086899307253662_" gradientUnits="userSpaceOnUse" x1="234.4202" y1="209.4609" x2="580.0552" y2="209.4609">
		<stop  offset="0" style="stop-color:#CED9E2"/>
		<stop  offset="0" style="stop-color:#E8EDF1"/>
		<stop  offset="0.2279" style="stop-color:#F1F4F6"/>
		<stop  offset="0.414" style="stop-color:#C7D3DD"/>
		<stop  offset="0.586" style="stop-color:#D1DBE4"/>
		<stop  offset="0.7721" style="stop-color:#9DB2C4"/>
		<stop  offset="1" style="stop-color:#F4F6F8"/>
	</linearGradient>
	<path style="fill:url(#SVGID_00000098205654527872952400000013298086899307253662_);" d="M238.37,239.74l299.2,172.74
		c2.31,1.33,4.29,0.56,4.69-1.83l37.73-223.87c0.43-2.54-1.43-6.18-3.88-7.6L276.91,6.44c-2.31-1.33-4.29-0.56-4.69,1.83
		l-37.73,223.87C234.05,234.68,235.91,238.32,238.37,239.74z"/>
	<g class="st4">
		<polygon class="st5" points="280.82,20.73 569.22,187.24 533.46,398.08 245.25,231.68 		"/>
	</g>
	<path class="st6" d="M50.29,345.73l16.33,8.53l163.73-94.53c2.74-1.58,7.52-1.38,10.69,0.44l282.38,163.03
		c2.7-1.51,15.02-7.44,15.02-7.44l-5.98,15.57c0,0-0.02-0.02-0.02-0.02c-0.25,0.69-0.78,1.34-1.67,1.85l-172.44,99.56
		c-2.74,1.58-7.52,1.38-10.69-0.44L58.68,365.46c-1.3-0.75-2.09-1.66-2.42-2.58l-0.02,0.01L50.29,345.73z"/>
	
		<linearGradient id="SVGID_00000042700645628438010530000012911838256036153520_" gradientUnits="userSpaceOnUse" x1="614.4854" y1="351.8938" x2="55.4854" y2="400.8938">
		<stop  offset="0" style="stop-color:#CED9E2"/>
		<stop  offset="0" style="stop-color:#E8EDF1"/>
		<stop  offset="0.2279" style="stop-color:#F1F4F6"/>
		<stop  offset="0.414" style="stop-color:#C7D3DD"/>
		<stop  offset="0.586" style="stop-color:#D1DBE4"/>
		<stop  offset="0.6899" style="stop-color:#9DB2C4"/>
		<stop  offset="1" style="stop-color:#F4F6F8"/>
	</linearGradient>
	<path style="fill:url(#SVGID_00000042700645628438010530000012911838256036153520_);" d="M52.82,348.42L348.97,519.4
		c3.24,1.87,8.15,2.07,10.95,0.45l176.73-102.03c2.81-1.62,2.46-4.45-0.79-6.32L239.71,240.51c-3.24-1.87-8.15-2.07-10.95-0.45
		L52.03,342.09C49.22,343.71,49.58,346.54,52.82,348.42z"/>
	<path class="st8" d="M490.58,408.27l-246.1-142.09c-1.64-0.95-3.66-0.95-5.3,0l-87.64,50.7c-1.26,0.73-1.26,2.55,0,3.27
		l245.99,142.02c1.64,0.95,3.66,0.95,5.3,0l87.76-50.64C491.84,410.81,491.84,408.99,490.58,408.27z"/>
	<path class="st9" d="M490.58,411.54l-0.88,0.51L244.47,270.47c-1.64-0.95-3.66-0.95-5.3,0l-86.76,50.19l-0.88-0.51
		c-1.26-0.73-1.26-2.54,0-3.27l87.64-50.7c1.64-0.95,3.66-0.95,5.3,0l246.1,142.09C491.84,408.99,491.84,410.81,490.58,411.54z"/>
	<g>
		<polygon class="st6" points="232.56,279.02 446.33,402.44 455.84,396.96 242.06,273.53 		"/>
		<polygon class="st6" points="209.25,292.47 409.77,408.24 419.27,402.75 218.76,286.99 		"/>
		<polygon class="st6" points="194.07,301.24 430.16,437.54 439.66,432.05 203.58,295.75 		"/>
		<polygon class="st6" points="178.9,310 414.98,446.3 424.49,440.82 188.4,304.51 		"/>
		<polygon class="st6" points="163.72,318.76 399.8,455.07 409.31,449.58 173.22,313.28 		"/>
		<polygon class="st6" points="459.25,409.9 468.75,415.39 478.26,409.9 468.75,404.41 		"/>
		<polygon class="st6" points="425.72,417.45 445.45,428.84 454.96,423.36 435.23,411.97 		"/>
	</g>
	
		<linearGradient id="SVGID_00000042712450584107212370000005263575063195497609_" gradientUnits="userSpaceOnUse" x1="-1222.9493" y1="407.683" x2="-1097.9303" y2="407.683" gradientTransform="matrix(-1 0 0 1 -931.2388 0)">
		<stop  offset="0" style="stop-color:#FF992E"/>
		<stop  offset="0.2171" style="stop-color:#F88138"/>
		<stop  offset="0.6728" style="stop-color:#E74453"/>
		<stop  offset="1" style="stop-color:#DA1467"/>
	</linearGradient>
	<path style="fill:url(#SVGID_00000042712450584107212370000005263575063195497609_);" d="M235,442.65l-66.36-38.31
		c-2.59-1.5-2.59-3.93,0-5.42l45.38-26.2c2.59-1.5,6.8-1.5,9.39,0l66.36,38.31c2.59,1.5,2.59,3.93,0,5.42l-45.38,26.2
		C241.79,444.15,237.59,444.15,235,442.65z"/>
	
		<linearGradient id="SVGID_00000111874670102886736160000005138186165050405799_" gradientUnits="userSpaceOnUse" x1="166.716" y1="393.2211" x2="291.686" y2="393.2211">
		<stop  offset="0" style="stop-color:#FF992E"/>
		<stop  offset="0.2171" style="stop-color:#F88138"/>
		<stop  offset="0.6728" style="stop-color:#E74453"/>
		<stop  offset="1" style="stop-color:#DA1467"/>
	</linearGradient>
	<path style="fill:url(#SVGID_00000111874670102886736160000005138186165050405799_);" d="M289.77,413.25l-66.36-38.31
		c-2.59-1.5-6.8-1.5-9.39,0l-45.38,26.2c-0.8,0.46-1.32,1.02-1.63,1.6c-0.69-1.31-0.16-2.79,1.63-3.82l45.38-26.2
		c2.59-1.5,6.8-1.5,9.39,0l66.36,38.31c1.79,1.04,2.32,2.51,1.63,3.82C291.09,414.26,290.57,413.71,289.77,413.25z"/>
	<g class="st12">
		<defs>
			<polygon id="SVGID_6_" class="st12" points="280.82,20.73 569.22,187.24 533.46,398.08 245.25,231.68 			"/>
		</defs>
		<clipPath id="SVGID_00000173141742841609960070000002603176118703478692_">
			<use xlink:href="#SVGID_6_"  style="overflow:visible;"/>
		</clipPath>
		<g style="clip-path:url(#SVGID_00000173141742841609960070000002603176118703478692_);">
			
				<linearGradient id="SVGID_00000091012845387641256320000009885334336203708318_" gradientUnits="userSpaceOnUse" x1="171.4737" y1="182.4215" x2="684.4737" y2="330.4215">
				<stop  offset="0" style="stop-color:#CCCCCC"/>
				<stop  offset="0.3065" style="stop-color:#CFCFD1"/>
				<stop  offset="0.667" style="stop-color:#D9D9DF"/>
				<stop  offset="1" style="stop-color:#E7E6F3"/>
			</linearGradient>
			<path style="fill:url(#SVGID_00000091012845387641256320000009885334336203708318_);" d="M239.42,240.16l296.15,170.98
				c3.24,1.87,8.15,2.07,10.95,0.45l176.73-102.03c2.81-1.62,2.46-4.45-0.79-6.32L426.31,132.26c-3.24-1.87-8.15-2.07-10.95-0.45
				L238.63,233.84C235.82,235.46,236.18,238.29,239.42,240.16z"/>
			
				<radialGradient id="SVGID_00000088813887423487635780000010058459441178044803_" cx="573.0852" cy="192.3696" r="105.8915" gradientUnits="userSpaceOnUse">
				<stop  offset="0" style="stop-color:#C1BDDE"/>
				<stop  offset="0.0808" style="stop-color:#BDB9D9;stop-opacity:0.9399"/>
				<stop  offset="0.1762" style="stop-color:#B0ADCB;stop-opacity:0.869"/>
				<stop  offset="0.2789" style="stop-color:#9C98B3;stop-opacity:0.7926"/>
				<stop  offset="0.3868" style="stop-color:#7F7C92;stop-opacity:0.7123"/>
				<stop  offset="0.4988" style="stop-color:#5A5867;stop-opacity:0.629"/>
				<stop  offset="0.6124" style="stop-color:#2D2C34;stop-opacity:0.5445"/>
				<stop  offset="0.7126" style="stop-color:#000000;stop-opacity:0.47"/>
			</radialGradient>
			<path style="fill:url(#SVGID_00000088813887423487635780000010058459441178044803_);" d="M536.45,270.82l-66.36-38.31
				c-2.59-1.5-2.59-3.93,0-5.42l45.38-26.2c2.59-1.5,6.8-1.5,9.39,0l66.36,38.31c2.59,1.5,2.59,3.93,0,5.42l-45.38,26.2
				C543.25,272.31,539.05,272.31,536.45,270.82z"/>
			<path class="st16" d="M591.22,241.41l-66.36-38.31c-2.59-1.5-6.8-1.5-9.39,0l-45.38,26.2c-0.8,0.46-1.32,1.02-1.63,1.6
				c-0.69-1.31-0.16-2.79,1.63-3.82l45.38-26.2c2.59-1.5,6.8-1.5,9.39,0l66.36,38.31c1.79,1.04,2.32,2.51,1.63,3.82
				C592.55,242.43,592.02,241.88,591.22,241.41z"/>
			<g class="st17">
				
					<linearGradient id="SVGID_00000029019036386005510570000006130687665234132865_" gradientUnits="userSpaceOnUse" x1="611.0624" y1="287.023" x2="231.0624" y2="286.023">
					<stop  offset="0" style="stop-color:#E7ECF1"/>
					<stop  offset="0" style="stop-color:#A5B8C9"/>
					<stop  offset="0.2279" style="stop-color:#99AEC2"/>
					<stop  offset="0.414" style="stop-color:#ABBDCC"/>
					<stop  offset="0.586" style="stop-color:#D4DDE5"/>
					<stop  offset="0.7721" style="stop-color:#8BA4B9"/>
					<stop  offset="1" style="stop-color:#ECF0F3"/>
				</linearGradient>
				<path style="fill:url(#SVGID_00000029019036386005510570000006130687665234132865_);" d="M620.39,330.69L374.29,188.6
					c-1.64-0.95-3.66-0.95-5.3,0l-87.64,50.7c-1.26,0.73-1.26,2.55,0,3.27L527.34,384.6c1.64,0.95,3.66,0.95,5.3,0l87.76-50.64
					C621.65,333.24,621.65,331.42,620.39,330.69z"/>
				
					<linearGradient id="SVGID_00000017513583690271507170000012550190702049031356_" gradientUnits="userSpaceOnUse" x1="674.2358" y1="291.076" x2="299.4578" y2="228.2873">
					<stop  offset="0" style="stop-color:#E7ECF1"/>
					<stop  offset="0" style="stop-color:#A5B8C9"/>
					<stop  offset="0.2279" style="stop-color:#99AEC2"/>
					<stop  offset="0.414" style="stop-color:#ABBDCC"/>
					<stop  offset="0.586" style="stop-color:#D4DDE5"/>
					<stop  offset="0.7721" style="stop-color:#8BA4B9"/>
					<stop  offset="1" style="stop-color:#ECF0F3"/>
				</linearGradient>
				<path style="fill:url(#SVGID_00000017513583690271507170000012550190702049031356_);" d="M620.39,333.96l-0.88,0.51
					L374.29,192.89c-1.64-0.95-3.66-0.95-5.3,0l-86.76,50.19l-0.88-0.51c-1.26-0.73-1.26-2.54,0-3.27l87.64-50.7
					c1.64-0.95,3.66-0.95,5.3,0l246.1,142.09C621.65,331.42,621.65,333.24,620.39,333.96z"/>
				<g>
					
						<linearGradient id="SVGID_00000070078490898600056730000014841588600161480088_" gradientUnits="userSpaceOnUse" x1="679.0601" y1="300.9083" x2="299.0601" y2="299.9083">
						<stop  offset="0" style="stop-color:#E7ECF1"/>
						<stop  offset="0" style="stop-color:#A5B8C9"/>
						<stop  offset="0.2279" style="stop-color:#99AEC2"/>
						<stop  offset="0.414" style="stop-color:#ABBDCC"/>
						<stop  offset="0.586" style="stop-color:#D4DDE5"/>
						<stop  offset="0.7721" style="stop-color:#8BA4B9"/>
						<stop  offset="1" style="stop-color:#ECF0F3"/>
					</linearGradient>
					<polygon style="fill:url(#SVGID_00000070078490898600056730000014841588600161480088_);" points="304.29,235.85 518.68,359.63 
						510.19,364.54 295.79,240.75 					"/>
					
						<linearGradient id="SVGID_00000044860703046505201870000001647164476843337353_" gradientUnits="userSpaceOnUse" x1="679.1026" y1="284.7558" x2="299.1026" y2="283.7558">
						<stop  offset="0" style="stop-color:#E7ECF1"/>
						<stop  offset="0" style="stop-color:#A5B8C9"/>
						<stop  offset="0.2279" style="stop-color:#99AEC2"/>
						<stop  offset="0.414" style="stop-color:#ABBDCC"/>
						<stop  offset="0.586" style="stop-color:#D4DDE5"/>
						<stop  offset="0.7721" style="stop-color:#8BA4B9"/>
						<stop  offset="1" style="stop-color:#ECF0F3"/>
					</linearGradient>
					<polygon style="fill:url(#SVGID_00000044860703046505201870000001647164476843337353_);" points="326.88,222.81 530.66,340.46 
						522.17,345.36 318.38,227.71 					"/>
					
						<linearGradient id="SVGID_00000137816775403620911800000009472023315894594198_" gradientUnits="userSpaceOnUse" x1="678.9111" y1="357.5289" x2="298.9111" y2="356.5289">
						<stop  offset="0" style="stop-color:#E7ECF1"/>
						<stop  offset="0" style="stop-color:#A5B8C9"/>
						<stop  offset="0.2279" style="stop-color:#99AEC2"/>
						<stop  offset="0.414" style="stop-color:#ABBDCC"/>
						<stop  offset="0.586" style="stop-color:#D4DDE5"/>
						<stop  offset="0.7721" style="stop-color:#8BA4B9"/>
						<stop  offset="1" style="stop-color:#ECF0F3"/>
					</linearGradient>
					<polygon style="fill:url(#SVGID_00000137816775403620911800000009472023315894594198_);" points="545.88,349.25 564.91,360.24 
						556.42,365.14 537.38,354.15 					"/>
					
						<linearGradient id="SVGID_00000010294851652083570720000001290881941960565435_" gradientUnits="userSpaceOnUse" x1="678.8723" y1="372.2918" x2="298.8723" y2="371.2918">
						<stop  offset="0" style="stop-color:#E7ECF1"/>
						<stop  offset="0" style="stop-color:#A5B8C9"/>
						<stop  offset="0.2279" style="stop-color:#99AEC2"/>
						<stop  offset="0.414" style="stop-color:#ABBDCC"/>
						<stop  offset="0.586" style="stop-color:#D4DDE5"/>
						<stop  offset="0.7721" style="stop-color:#8BA4B9"/>
						<stop  offset="1" style="stop-color:#ECF0F3"/>
					</linearGradient>
					<polygon style="fill:url(#SVGID_00000010294851652083570720000001290881941960565435_);" points="529.07,365.63 542.32,373.28 
						533.82,378.18 520.57,370.53 					"/>
					
						<linearGradient id="SVGID_00000104692465594820363110000003171838512517491134_" gradientUnits="userSpaceOnUse" x1="679.0983" y1="286.3882" x2="299.0983" y2="285.3882">
						<stop  offset="0" style="stop-color:#E7ECF1"/>
						<stop  offset="0" style="stop-color:#A5B8C9"/>
						<stop  offset="0.2279" style="stop-color:#99AEC2"/>
						<stop  offset="0.414" style="stop-color:#ABBDCC"/>
						<stop  offset="0.586" style="stop-color:#D4DDE5"/>
						<stop  offset="0.7721" style="stop-color:#8BA4B9"/>
						<stop  offset="1" style="stop-color:#ECF0F3"/>
					</linearGradient>
					<polygon style="fill:url(#SVGID_00000104692465594820363110000003171838512517491134_);" points="341.03,214.63 579.06,352.06 
						570.57,356.97 332.54,219.54 					"/>
					
						<linearGradient id="SVGID_00000129203595894980514920000011023303550774664607_" gradientUnits="userSpaceOnUse" x1="679.1199" y1="278.1787" x2="299.1199" y2="277.1787">
						<stop  offset="0" style="stop-color:#E7ECF1"/>
						<stop  offset="0" style="stop-color:#A5B8C9"/>
						<stop  offset="0.2279" style="stop-color:#99AEC2"/>
						<stop  offset="0.414" style="stop-color:#ABBDCC"/>
						<stop  offset="0.586" style="stop-color:#D4DDE5"/>
						<stop  offset="0.7721" style="stop-color:#8BA4B9"/>
						<stop  offset="1" style="stop-color:#ECF0F3"/>
					</linearGradient>
					<polygon style="fill:url(#SVGID_00000129203595894980514920000011023303550774664607_);" points="355.18,206.46 593.22,343.89 
						584.72,348.79 346.69,211.37 					"/>
					
						<linearGradient id="SVGID_00000073721133475757679860000018365954569448940454_" gradientUnits="userSpaceOnUse" x1="679.1415" y1="269.9694" x2="299.1415" y2="268.9694">
						<stop  offset="0" style="stop-color:#E7ECF1"/>
						<stop  offset="0" style="stop-color:#A5B8C9"/>
						<stop  offset="0.2279" style="stop-color:#99AEC2"/>
						<stop  offset="0.414" style="stop-color:#ABBDCC"/>
						<stop  offset="0.586" style="stop-color:#D4DDE5"/>
						<stop  offset="0.7721" style="stop-color:#8BA4B9"/>
						<stop  offset="1" style="stop-color:#ECF0F3"/>
					</linearGradient>
					<polygon style="fill:url(#SVGID_00000073721133475757679860000018365954569448940454_);" points="369.34,198.29 607.37,335.72 
						598.88,340.62 360.85,203.19 					"/>
				</g>
			</g>
		</g>
	</g>
	
		<linearGradient id="SVGID_00000098193008091718222550000009064120636669171340_" gradientUnits="userSpaceOnUse" x1="-1371.5771" y1="334.5704" x2="-1160.4399" y2="334.5704" gradientTransform="matrix(-1 0 0 1 -931.2388 0)">
		<stop  offset="0" style="stop-color:#E7ECF1"/>
		<stop  offset="0" style="stop-color:#A5B8C9"/>
		<stop  offset="0.2279" style="stop-color:#99AEC2"/>
		<stop  offset="0.414" style="stop-color:#ABBDCC"/>
		<stop  offset="0.586" style="stop-color:#D4DDE5"/>
		<stop  offset="0.7721" style="stop-color:#8BA4B9"/>
		<stop  offset="1" style="stop-color:#ECF0F3"/>
	</linearGradient>
	<polygon style="opacity:0.38;fill:url(#SVGID_00000098193008091718222550000009064120636669171340_);" points="376.54,395.61 
		440.34,356.35 296.9,273.53 229.2,319.04 	"/>
	
		<linearGradient id="SVGID_00000162320317422114032480000010362802231193904012_" gradientUnits="userSpaceOnUse" x1="-1386.1943" y1="271.5827" x2="-1251.5829" y2="271.5827" gradientTransform="matrix(-1 0 0 1 -931.2388 0)">
		<stop  offset="0" style="stop-color:#E7ECF1"/>
		<stop  offset="0" style="stop-color:#A5B8C9"/>
		<stop  offset="0.2279" style="stop-color:#99AEC2"/>
		<stop  offset="0.414" style="stop-color:#ABBDCC"/>
		<stop  offset="0.586" style="stop-color:#D4DDE5"/>
		<stop  offset="0.7721" style="stop-color:#8BA4B9"/>
		<stop  offset="1" style="stop-color:#ECF0F3"/>
	</linearGradient>
	<polygon style="opacity:0.28;fill:url(#SVGID_00000162320317422114032480000010362802231193904012_);" points="440.34,356.35 
		454.96,264.03 320.34,186.82 320.34,286.88 	"/>
	
		<linearGradient id="SVGID_00000026843729064023682280000018421268950275668659_" gradientUnits="userSpaceOnUse" x1="-1396.625" y1="302.5229" x2="-1302.2162" y2="132.5263" gradientTransform="matrix(-1 0 0 1 -931.2388 0)">
		<stop  offset="0" style="stop-color:#E7ECF1"/>
		<stop  offset="0" style="stop-color:#A5B8C9"/>
		<stop  offset="0.2279" style="stop-color:#99AEC2"/>
		<stop  offset="0.414" style="stop-color:#ABBDCC"/>
		<stop  offset="0.586" style="stop-color:#D4DDE5"/>
		<stop  offset="0.7721" style="stop-color:#8BA4B9"/>
		<stop  offset="1" style="stop-color:#ECF0F3"/>
	</linearGradient>
	<path style="fill:url(#SVGID_00000026843729064023682280000018421268950275668659_);" d="M306.26,141.97l14.24-8.2l0,0.01
		c0.19-0.12,0.43-0.13,0.71,0.03l178.44,103.03c0.58,0.34,1.05,1.24,1.05,2.02v33.69c0,0.37-0.11,0.64-0.29,0.79l0,0l-0.01,0.01
		c-0.01,0.01-0.03,0.02-0.04,0.03l-14.38,8.29l-0.11-16.27l-164.66-95.07c-0.58-0.34-1.05-1.24-1.05-2.02v-11.56L306.26,141.97z"/>
	
		<linearGradient id="SVGID_00000125595953243024301260000002914330785675281032_" gradientUnits="userSpaceOnUse" x1="255.6164" y1="121.0006" x2="583.6164" y2="333.0005">
		<stop  offset="0" style="stop-color:#E7ECF1"/>
		<stop  offset="0" style="stop-color:#A5B8C9"/>
		<stop  offset="0.2279" style="stop-color:#99AEC2"/>
		<stop  offset="0.414" style="stop-color:#ABBDCC"/>
		<stop  offset="0.586" style="stop-color:#D4DDE5"/>
		<stop  offset="0.7721" style="stop-color:#8BA4B9"/>
		<stop  offset="1" style="stop-color:#ECF0F3"/>
	</linearGradient>
	<path style="fill:url(#SVGID_00000125595953243024301260000002914330785675281032_);" d="M306.89,178.55l178.44,103.03
		c0.58,0.34,1.05-0.02,1.05-0.8v-33.69c0-0.78-0.47-1.68-1.05-2.02L306.89,142.05c-0.58-0.34-1.05,0.02-1.05,0.8v33.69
		C305.84,177.31,306.31,178.21,306.89,178.55z"/>
	<path class="st31" d="M331.51,171.73l138.94,81.7c-4.29,3.7-8.36,7.93-12.09,12.57l-139.97-80.81
		C322.42,180.17,326.83,175.62,331.51,171.73z"/>
	<path class="st32" d="M311.99,168.43l168.26,97.15c0.4,0.23,0.72-0.01,0.72-0.55v-8.46c0-0.53-0.32-1.15-0.72-1.38l-168.26-97.15
		c-0.4-0.23-0.72,0.01-0.72,0.55v8.46C311.26,167.58,311.59,168.2,311.99,168.43z"/>
	<path class="st33" d="M311.99,158.05l3.42,1.98v4.57c0,0.53,0.32,1.15,0.72,1.38l164.84,95.17v3.89c0,0.53-0.32,0.77-0.72,0.55
		l-168.26-97.15c-0.4-0.23-0.72-0.85-0.72-1.38v-8.46C311.26,158.06,311.59,157.82,311.99,158.05z"/>
	
		<linearGradient id="SVGID_00000010288407135748957890000010983734338705600918_" gradientUnits="userSpaceOnUse" x1="212.8505" y1="180.3166" x2="396.8505" y2="705.3166">
		<stop  offset="0" style="stop-color:#E7ECF1"/>
		<stop  offset="0" style="stop-color:#A5B8C9"/>
		<stop  offset="0.2279" style="stop-color:#99AEC2"/>
		<stop  offset="0.414" style="stop-color:#ABBDCC"/>
		<stop  offset="0.586" style="stop-color:#D4DDE5"/>
		<stop  offset="0.7721" style="stop-color:#8BA4B9"/>
		<stop  offset="1" style="stop-color:#ECF0F3"/>
	</linearGradient>
	<path style="fill:url(#SVGID_00000010288407135748957890000010983734338705600918_);" d="M217.46,532.93L77.48,452.11l0,0
		c18.06-10.43,33.28-33.25,37.93-55.07c1.88-8.84,7.3-16.53,15.13-21.05l105.78-61.06c29.46-17.01,48.56-47.63,50.56-81.59
		c1.69-28.67,23.37-56.87,40.19-66.59l0,0l139.98,80.82l0,0c-16.58,9.57-34.82,36.32-36.9,64.5c-2.5,33.96-20.97,64.69-50.46,81.72
		l-109.17,63.02c-7.83,4.52-13.24,12.2-15.13,21.05C250.74,499.68,235.52,522.5,217.46,532.93L217.46,532.93z"/>
	
		<linearGradient id="SVGID_00000051343552062847051640000009552485944693604009_" gradientUnits="userSpaceOnUse" x1="191.3814" y1="101.0531" x2="568.3813" y2="299.0531">
		<stop  offset="0" style="stop-color:#CED9E2"/>
		<stop  offset="0" style="stop-color:#E8EDF1"/>
		<stop  offset="0.2279" style="stop-color:#F1F4F6"/>
		<stop  offset="0.414" style="stop-color:#C7D3DD"/>
		<stop  offset="0.586" style="stop-color:#D1DBE4"/>
		<stop  offset="0.7721" style="stop-color:#9DB2C4"/>
		<stop  offset="1" style="stop-color:#F4F6F8"/>
	</linearGradient>
	<path style="fill:url(#SVGID_00000051343552062847051640000009552485944693604009_);" d="M327.07,166.75l139.98,80.82
		c-1.12,0.65-2.23,1.35-3.33,2.08l-0.01-0.01l-139.97-80.82C324.84,168.1,325.95,167.4,327.07,166.75z"/>
	<g class="st36">
		<polygon class="st9" points="379.71,262.34 404.26,276.57 404.45,273.74 379.95,259.57 		"/>
		<polygon class="st9" points="367.33,255.17 376.01,260.2 376.25,257.43 367.59,252.43 		"/>
		<polygon class="st9" points="357.84,249.67 363.67,253.05 363.94,250.31 358.12,246.95 		"/>
		<polygon class="st9" points="390.3,275.21 403.8,283.08 404,280.22 390.52,272.39 		"/>
		<polygon class="st9" points="370.29,263.55 386.55,273.03 386.78,270.21 370.54,260.78 		"/>
		<polygon class="st9" points="360.72,257.98 366.6,261.4 366.86,258.64 361,255.23 		"/>
		<polygon class="st9" points="351.7,252.72 357.53,256.12 357.81,253.37 351.99,249.99 		"/>
		<polygon class="st9" points="393.52,283.89 403.34,289.64 403.54,286.76 393.74,281.03 		"/>
		<polygon class="st9" points="386.41,279.72 389.73,281.67 389.96,278.82 386.64,276.88 		"/>
		<polygon class="st9" points="376.66,274.01 382.65,277.52 382.89,274.69 376.91,271.2 		"/>
		<polygon class="st9" points="366.91,275.08 402.87,296.26 403.08,293.35 367.18,272.26 		"/>
		<polygon class="st9" points="354.52,267.78 363.2,272.89 363.48,270.08 354.8,264.99 		"/>
		<polygon class="st9" points="392.5,297.07 402.41,302.93 402.61,300 392.73,294.16 		"/>
		<polygon class="st9" points="369.61,283.51 388.69,294.81 388.92,291.91 369.88,280.66 		"/>
		<polygon class="st9" points="359.93,277.78 365.88,281.3 366.15,278.46 360.21,274.95 		"/>
		<polygon class="st9" points="381.69,297.61 401.93,309.66 402.14,306.71 381.93,294.7 		"/>
		<polygon class="st9" points="363.54,286.8 377.9,295.35 378.14,292.46 363.81,283.94 		"/>
		<polygon class="st9" points="350.25,278.89 359.81,284.58 360.09,281.73 350.54,276.06 		"/>
		<polygon class="st9" points="394.55,312.32 401.46,316.45 401.67,313.47 394.77,309.35 		"/>
		<polygon class="st9" points="381.66,304.6 390.69,310.01 390.92,307.06 381.91,301.67 		"/>
		<polygon class="st9" points="363.51,293.74 377.85,302.32 378.1,299.4 363.79,290.85 		"/>
		<polygon class="st9" points="379.87,310.59 400.98,323.3 401.19,320.29 380.11,307.64 		"/>
		<polygon class="st9" points="356.7,296.65 376.05,308.29 376.3,305.35 356.99,293.76 		"/>
		<polygon class="st9" points="347,290.82 352.96,294.4 353.26,291.52 347.31,287.94 		"/>
		<polygon class="st9" points="337.78,285.26 343.69,288.82 344,285.96 338.1,282.41 		"/>
		<polygon class="st9" points="387.74,322.49 400.49,330.21 400.7,327.18 387.98,319.49 		"/>
		<polygon class="st9" points="331.57,234.45 315.61,225.19 315.95,222.57 331.89,231.78 		"/>
		<polygon class="st9" points="327.38,238.55 314.81,231.23 315.16,228.58 327.71,235.88 		"/>
		<polygon class="st9" points="323.12,242.65 314,237.31 314.36,234.64 323.46,239.96 		"/>
		<polygon class="st9" points="326.53,251.29 313.19,243.44 313.55,240.75 326.86,248.57 		"/>
		<polygon class="st9" points="321.56,255.06 312.38,249.62 312.73,246.91 321.9,252.32 		"/>
		<polygon class="st9" points="323.26,262.82 311.55,255.85 311.91,253.12 323.6,260.06 		"/>
		<polygon class="st9" points="317.11,265.96 310.72,262.14 311.09,259.38 317.46,263.19 		"/>
		<polygon class="st9" points="322.34,275.97 309.88,268.47 310.25,265.69 322.68,273.16 		"/>
		<polygon class="st9" points="320.88,282.03 309.04,274.86 309.41,272.06 321.23,279.19 		"/>
		<polygon class="st9" points="378.52,316.91 383.88,320.15 384.12,317.16 378.77,313.93 		"/>
		<polygon class="st9" points="362.76,307.38 374.69,314.59 374.94,311.62 363.04,304.44 		"/>
	</g>
	<g class="st36">
		<g>
			<g>
				<polygon class="st9" points="289.32,355.03 252.82,333.96 255.42,332.45 291.92,353.53 				"/>
				<polygon class="st9" points="310.54,367.28 297.37,359.68 299.97,358.17 313.14,365.78 				"/>
				<polygon class="st9" points="321.11,373.39 317.25,371.16 319.85,369.65 323.71,371.88 				"/>
				<polygon class="st9" points="340.99,384.86 327.82,377.26 330.42,375.75 343.59,383.36 				"/>
			</g>
			<g>
				<polygon class="st9" points="258.09,343.23 247.42,337.07 250.03,335.57 260.7,341.72 				"/>
				<polygon class="st9" points="305.15,370.4 266.14,347.88 268.75,346.37 307.75,368.89 				"/>
				<polygon class="st9" points="315.71,376.5 311.85,374.27 314.46,372.77 318.32,374.99 				"/>
				<polygon class="st9" points="335.59,387.98 322.42,380.37 325.03,378.87 338.2,386.47 				"/>
				<polygon class="st9" points="247.36,343.26 242.03,340.19 244.64,338.68 249.97,341.76 				"/>
				<polygon class="st9" points="261.74,351.56 255.41,347.91 258.02,346.41 264.34,350.06 				"/>
				<polygon class="st9" points="272.31,357.66 268.44,355.44 271.05,353.93 274.91,356.16 				"/>
				<polygon class="st9" points="292.18,369.14 279.01,361.54 281.62,360.03 294.79,367.64 				"/>
				<polygon class="st9" points="247.3,349.46 236.64,343.3 239.24,341.79 249.91,347.95 				"/>
				<polygon class="st9" points="268.52,361.71 255.35,354.1 257.96,352.6 271.13,360.2 				"/>
				<polygon class="st9" points="279.09,367.81 275.23,365.58 277.84,364.08 281.7,366.31 				"/>
				<polygon class="st9" points="298.97,379.29 285.8,371.68 288.41,370.18 301.58,377.78 				"/>
			</g>
		</g>
		<g>
			<g>
				<polygon class="st9" points="267.34,367.72 230.84,346.65 233.45,345.14 269.95,366.22 				"/>
				<polygon class="st9" points="288.56,379.97 275.39,372.37 278,370.86 291.17,378.47 				"/>
				<polygon class="st9" points="299.13,386.07 295.27,383.85 297.88,382.34 301.74,384.57 				"/>
				<polygon class="st9" points="319.01,397.55 305.84,389.95 308.44,388.44 321.62,396.05 				"/>
			</g>
			<g>
				<polygon class="st9" points="236.11,355.92 225.45,349.76 228.05,348.26 238.72,354.41 				"/>
				<polygon class="st9" points="283.17,383.09 244.16,360.57 246.77,359.06 285.77,381.58 				"/>
				<polygon class="st9" points="293.74,389.19 289.88,386.96 292.48,385.45 296.34,387.68 				"/>
				<polygon class="st9" points="313.62,400.67 300.44,393.06 303.05,391.56 316.22,399.16 				"/>
				<polygon class="st9" points="225.39,355.95 220.05,352.87 222.66,351.37 227.99,354.45 				"/>
				<polygon class="st9" points="239.76,364.25 233.44,360.6 236.04,359.1 242.37,362.75 				"/>
				<polygon class="st9" points="250.33,370.35 246.47,368.12 249.07,366.62 252.93,368.85 				"/>
				<polygon class="st9" points="270.21,381.83 257.04,374.23 259.64,372.72 272.81,380.33 				"/>
				<polygon class="st9" points="225.32,362.15 214.66,355.99 217.27,354.48 227.93,360.64 				"/>
				<polygon class="st9" points="246.55,374.4 233.37,366.79 235.98,365.29 249.15,372.89 				"/>
				<polygon class="st9" points="257.11,380.5 253.25,378.27 255.86,376.77 259.72,379 				"/>
				<polygon class="st9" points="276.99,391.98 263.82,384.37 266.43,382.87 279.6,390.47 				"/>
			</g>
		</g>
		<g>
			<g>
				<polygon class="st9" points="245.36,380.41 208.86,359.34 211.47,357.83 247.97,378.9 				"/>
				<polygon class="st9" points="266.58,392.66 253.41,385.06 256.02,383.55 269.19,391.16 				"/>
				<polygon class="st9" points="277.15,398.76 273.29,396.53 275.9,395.03 279.76,397.26 				"/>
				<polygon class="st9" points="297.03,410.24 283.86,402.64 286.47,401.13 299.64,408.74 				"/>
			</g>
			<g>
				<polygon class="st9" points="214.13,368.61 203.47,362.45 206.07,360.95 216.74,367.1 				"/>
				<polygon class="st9" points="261.19,395.78 222.18,373.26 224.79,371.75 263.8,394.27 				"/>
				<polygon class="st9" points="271.76,401.88 267.9,399.65 270.5,398.14 274.36,400.37 				"/>
				<polygon class="st9" points="291.64,413.35 278.47,405.75 281.07,404.25 294.24,411.85 				"/>
				<polygon class="st9" points="203.41,368.64 198.08,365.56 200.68,364.06 206.01,367.14 				"/>
				<polygon class="st9" points="217.78,376.94 211.46,373.29 214.06,371.79 220.39,375.44 				"/>
				<polygon class="st9" points="228.35,383.04 224.49,380.81 227.1,379.31 230.96,381.54 				"/>
				<polygon class="st9" points="248.23,394.52 235.06,386.92 237.66,385.41 250.84,393.02 				"/>
				<polygon class="st9" points="203.35,374.83 192.68,368.68 195.29,367.17 205.95,373.33 				"/>
				<polygon class="st9" points="224.57,387.09 211.4,379.48 214,377.98 227.17,385.58 				"/>
				<polygon class="st9" points="235.14,393.19 231.28,390.96 233.88,389.46 237.74,391.68 				"/>
				<polygon class="st9" points="255.02,404.67 241.84,397.06 244.45,395.56 257.62,403.16 				"/>
			</g>
		</g>
	</g>
</g>
</svg>
