<svg xmlns="http://www.w3.org/2000/svg" width="525" height="280" viewBox="0 0 525 280"><rect width="100%" height="100%" fill="#DDDDDD"/><path fill="#999999" d="m118.735 122.535-1.78 10.53q1.68-.35 3.22-.5 1.54-.16 2.97-.16 3.99 0 7.04 1.19 3.04 1.19 5.11 3.29 2.06 2.1 3.11 4.92 1.05 2.81 1.05 6.07 0 4.02-1.41 7.35-1.42 3.32-3.94 5.69-2.52 2.36-5.97 3.65-3.45 1.3-7.51 1.3-2.38 0-4.51-.49-2.14-.49-4.01-1.31-1.87-.83-3.46-1.89-1.6-1.07-2.86-2.26l2.66-3.68q.84-1.19 2.21-1.19.87 0 1.78.56t2.09 1.23q1.17.66 2.76 1.22 1.59.56 3.83.56 2.38 0 4.2-.77 1.82-.77 3.03-2.15 1.21-1.38 1.82-3.29.61-1.91.61-4.15 0-4.13-2.39-6.45-2.4-2.33-7.09-2.33-3.61 0-7.39 1.33l-5.39-1.54 4.2-24.57h24.99v3.67q0 1.86-1.15 3.01-1.16 1.16-3.92 1.16h-13.9Zm45.96 34.72h12.98q1.4 0 2.23.79.82.78.82 2.08v5.18h-34.72v-2.87q0-.88.37-1.84.36-.96 1.17-1.73l15.36-15.4q1.93-1.96 3.45-3.75 1.52-1.78 2.54-3.53 1.01-1.75 1.56-3.55.54-1.81.54-3.8 0-1.82-.53-3.2-.52-1.39-1.48-2.33-.97-.95-2.31-1.42-1.35-.47-3.03-.47-1.54 0-2.85.44-1.32.43-2.33 1.22-1.02.79-1.72 1.84t-1.05 2.31q-.59 1.61-1.54 2.13-.94.53-2.73.25l-4.55-.81q.53-3.64 2.03-6.38 1.51-2.75 3.77-4.59 2.25-1.84 5.18-2.76 2.92-.93 6.28-.93 3.5 0 6.4 1.03 2.91 1.03 4.97 2.92 2.07 1.89 3.22 4.55 1.16 2.66 1.16 5.92 0 2.8-.82 5.18-.83 2.38-2.21 4.55t-3.24 4.2q-1.85 2.03-3.88 4.13l-11.41 11.65q1.64-.49 3.27-.75 1.63-.26 3.1-.26Zm35.24-34.72-1.78 10.53q1.68-.35 3.22-.5 1.54-.16 2.97-.16 3.99 0 7.04 1.19 3.04 1.19 5.11 3.29 2.06 2.1 3.11 4.92 1.05 2.81 1.05 6.07 0 4.02-1.41 7.35-1.42 3.32-3.94 5.69-2.52 2.36-5.97 3.65-3.45 1.3-7.51 1.3-2.38 0-4.51-.49-2.14-.49-4.01-1.31-1.87-.83-3.46-1.89-1.6-1.07-2.86-2.26l2.66-3.68q.84-1.19 2.21-1.19.87 0 1.78.56t2.09 1.23q1.17.66 2.76 1.22 1.59.56 3.83.56 2.38 0 4.2-.77 1.82-.77 3.03-2.15 1.21-1.38 1.82-3.29.61-1.91.61-4.15 0-4.13-2.39-6.45-2.4-2.33-7.09-2.33-3.61 0-7.39 1.33l-5.39-1.54 4.2-24.57h24.99v3.67q0 1.86-1.15 3.01-1.16 1.16-3.92 1.16h-13.9Zm78.44 31.18-4.59 4.52-11.86-11.87-11.97 11.94-4.59-4.52 11.97-12-11.41-11.41 4.55-4.55 11.41 11.41 11.34-11.34 4.62 4.55-11.37 11.37 11.9 11.9Zm42.14 3.54h12.98q1.4 0 2.23.79.82.78.82 2.08v5.18h-34.72v-2.87q0-.88.37-1.84.36-.96 1.17-1.73l15.36-15.4q1.93-1.96 3.45-3.75 1.52-1.78 2.54-3.53 1.01-1.75 1.56-3.55.54-1.81.54-3.8 0-1.82-.53-3.2-.52-1.39-1.48-2.33-.97-.95-2.31-1.42-1.35-.47-3.03-.47-1.54 0-2.85.44-1.32.43-2.33 1.22-1.02.79-1.72 1.84t-1.05 2.31q-.59 1.61-1.54 2.13-.94.53-2.73.25l-4.55-.81q.53-3.64 2.03-6.38 1.51-2.75 3.77-4.59 2.25-1.84 5.18-2.76 2.92-.93 6.28-.93 3.5 0 6.4 1.03 2.91 1.03 4.97 2.92 2.07 1.89 3.22 4.55 1.16 2.66 1.16 5.92 0 2.8-.82 5.18-.83 2.38-2.21 4.55t-3.24 4.2q-1.85 2.03-3.88 4.13l-11.41 11.65q1.64-.49 3.27-.75 1.63-.26 3.1-.26Zm39.55 1.85q2.13 0 3.74-.61 1.61-.61 2.72-1.7 1.1-1.08 1.66-2.59.56-1.5.56-3.25 0-4.17-2.31-6.3-2.31-2.14-6.37-2.14-4.06 0-6.37 2.14-2.31 2.13-2.31 6.3 0 1.75.56 3.25.56 1.51 1.66 2.59 1.1 1.09 2.71 1.7 1.61.61 3.75.61Zm0-38.46q-1.93 0-3.33.59-1.4.6-2.32 1.6-.93.99-1.37 2.29-.44 1.29-.44 2.73 0 1.5.37 2.92t1.24 2.52q.88 1.1 2.31 1.77 1.44.66 3.54.66t3.53-.66q1.44-.67 2.31-1.77.88-1.1 1.25-2.52.36-1.42.36-2.92 0-1.44-.45-2.73-.46-1.3-1.37-2.29-.91-1-2.31-1.6-1.4-.59-3.32-.59Zm8.54 18.27q4.62 1.5 6.82 4.6 2.21 3.1 2.21 7.58 0 3.36-1.28 6.09t-3.59 4.65q-2.31 1.93-5.54 2.98-3.24 1.05-7.16 1.05t-7.16-1.05q-3.24-1.05-5.55-2.98-2.31-1.92-3.58-4.65-1.28-2.73-1.28-6.09 0-4.48 2.2-7.58 2.21-3.1 6.83-4.6-3.68-1.54-5.51-4.38-1.84-2.83-1.84-6.82 0-2.87 1.17-5.36 1.17-2.48 3.27-4.32 2.1-1.84 5.03-2.87 2.92-1.03 6.42-1.03t6.42 1.03q2.92 1.03 5.02 2.87 2.1 1.84 3.28 4.32 1.17 2.49 1.17 5.36 0 3.99-1.84 6.82-1.84 2.84-5.51 4.38Zm50.61 1.08q0 6.62-1.42 11.5t-3.92 8.07q-2.5 3.18-5.91 4.74-3.42 1.56-7.37 1.56-3.96 0-7.33-1.56-3.38-1.56-5.87-4.74-2.48-3.19-3.88-8.07-1.4-4.88-1.4-11.5 0-6.65 1.4-11.51 1.4-4.87 3.88-8.05 2.49-3.19 5.87-4.74 3.37-1.56 7.33-1.56 3.95 0 7.37 1.56 3.41 1.55 5.91 4.74 2.5 3.18 3.92 8.05 1.42 4.86 1.42 11.51Zm-8.92 0q0-5.49-.81-9.1-.81-3.6-2.15-5.74-1.35-2.13-3.1-2.99-1.75-.86-3.64-.86-1.86 0-3.59.86-1.73.86-3.06 2.99-1.33 2.14-2.12 5.74-.78 3.61-.78 9.1 0 5.5.78 9.1.79 3.61 2.12 5.74 1.33 2.14 3.06 3 1.73.85 3.59.85 1.89 0 3.64-.85 1.75-.86 3.1-3 1.34-2.13 2.15-5.74.81-3.6.81-9.1Z"/></svg>