<svg xmlns="http://www.w3.org/2000/svg" width="92" height="92" viewBox="0 0 92 92"><rect width="100%" height="100%" fill="#DDDDDD"/><path fill="#999999" d="M20.06 43.615q0 1.03.54 1.57.53.54 1.5.54.51 0 .91-.17.4-.16.67-.44.28-.28.42-.66.14-.38.14-.83 0-.5-.16-.89-.15-.4-.43-.67t-.67-.42q-.38-.14-.84-.14-.48 0-.86.16-.38.15-.66.43-.27.29-.41.67-.15.39-.15.85Zm-1.02 8.6 3.81-4.77q.15-.18.27-.35.13-.17.25-.34-.42.27-.93.42-.51.14-1.08.14-.63 0-1.25-.23-.61-.22-1.08-.66-.48-.45-.77-1.11-.3-.66-.3-1.54 0-.83.31-1.55.31-.72.86-1.26.55-.55 1.32-.86.78-.32 1.71-.32.95 0 1.7.3t1.28.83q.53.54.82 1.29.28.74.28 1.64 0 .57-.09 1.08-.1.51-.28.98-.18.47-.43.92-.26.45-.57.89l-2.82 4.02q-.14.2-.43.34t-.66.14h-1.92Zm13.26-1.96h3.16q.34 0 .54.2.2.19.2.5v1.26h-8.43v-.7q0-.21.08-.44.09-.24.29-.42l3.73-3.74q.47-.48.84-.91.37-.44.61-.86.25-.43.38-.86.13-.44.13-.93 0-.44-.12-.77-.13-.34-.36-.57-.24-.23-.57-.34-.32-.12-.73-.12-.37 0-.69.11-.32.1-.57.29-.25.2-.42.45-.17.26-.25.56-.14.39-.37.52-.23.13-.67.06l-1.1-.2q.13-.88.49-1.55.37-.66.91-1.11.55-.45 1.26-.67.71-.23 1.53-.23.85 0 1.55.25.71.25 1.21.71.5.46.78 1.11.28.64.28 1.43 0 .68-.2 1.26t-.53 1.11q-.34.52-.79 1.02-.45.49-.94 1l-2.77 2.83q.4-.12.79-.18.4-.07.75-.07Zm17.75-.85-1.11 1.09-2.88-2.88-2.91 2.9-1.11-1.1 2.9-2.91-2.77-2.77 1.11-1.11 2.77 2.77 2.75-2.75 1.12 1.1-2.76 2.77 2.89 2.89Zm7.86-5.79q0 1.03.53 1.57t1.51.54q.51 0 .91-.17.4-.16.67-.44t.41-.66q.14-.38.14-.83 0-.5-.15-.89-.16-.4-.44-.67t-.66-.42q-.39-.14-.85-.14-.48 0-.86.16-.38.15-.65.43-.27.29-.42.67-.14.39-.14.85Zm-1.03 8.6 3.81-4.77q.15-.18.28-.35l.24-.34q-.42.27-.93.42-.51.14-1.07.14-.64 0-1.25-.23-.61-.22-1.09-.66-.48-.45-.77-1.11-.29-.66-.29-1.54 0-.83.3-1.55.31-.72.86-1.26.55-.55 1.33-.86.77-.32 1.71-.32t1.69.3q.75.3 1.28.83.54.54.82 1.29.29.74.29 1.64 0 .57-.1 1.08-.1.51-.28.98-.18.47-.43.92-.26.45-.57.89l-2.81 4.02q-.15.2-.44.34-.29.14-.65.14h-1.93Zm13.27-1.96h3.15q.34 0 .54.2.2.19.2.5v1.26h-8.43v-.7q0-.21.09-.44.09-.24.28-.42l3.73-3.74q.47-.48.84-.91.37-.44.62-.86.24-.43.37-.86.14-.44.14-.93 0-.44-.13-.77-.13-.34-.36-.57-.24-.23-.56-.34-.33-.12-.74-.12-.37 0-.69.11-.32.1-.57.29-.24.2-.41.45-.17.26-.26.56-.14.39-.37.52-.23.13-.67.06l-1.1-.2q.13-.88.49-1.55.37-.66.92-1.11.54-.45 1.25-.67.71-.23 1.53-.23.85 0 1.56.25.7.25 1.2.71.5.46.78 1.11.29.64.29 1.43 0 .68-.2 1.26t-.54 1.11q-.34.52-.79 1.02-.45.49-.94 1l-2.77 2.83q.4-.12.79-.18.4-.07.76-.07Z"/></svg>