<svg version="1.2" xmlns="http://www.w3.org/2000/svg" viewBox="0 0 16 11" width="16" height="11"><style>.a{fill:#f00}.b{fill:#060}.c{fill:#ff0;stroke:#000;stroke-linecap:round;stroke-linejoin:round;stroke-width:0}.d{fill:#fff;stroke:#000;stroke-width:0}.e{fill:#f00;stroke:#000;stroke-width:0}.f{fill:#ff0}.g{fill:#ff0;stroke:#000;stroke-width:0}.h{fill:#039}.i{fill:#fff}</style><path class="a" d="m0 0h16v11h-16z"/><path class="b" d="m0 0h6.4v11h-6.4z"/><path fill-rule="evenodd" class="c" d="m8.5 7.2c-0.8 0-4.5-2.4-4.5-2.8l0.2-0.3c0.3 0.5 4.1 2.8 4.5 2.8 0 0-0.2 0.3-0.2 0.3z"/><path fill-rule="evenodd" class="c" d="m4.1 4h0.1q0 0 0 0c0.1 0.3 1.1 0.9 2.2 1.6 1 0.7 1.9 1.1 2.3 1.2q0 0 0.1 0c0 0-0.1 0.1-0.1 0.1 0 0-1.1-0.4-2.4-1.2-1.2-0.8-2.2-1.5-2.2-1.7q0 0 0 0zm4.4 3.2q0 0.1-0.1 0c-0.3 0-1.2-0.5-2.3-1.1-1.2-0.8-2.3-1.5-2.2-1.7h0.1c-0.1 0.3 2 1.5 2.1 1.6 1.3 0.8 2.3 1.3 2.4 1.2q0 0 0 0z"/><path fill-rule="evenodd" class="c" d="m6.4 4.7c0.8-0.1 1.8-0.2 2.4-0.4l-0.1-0.2c-0.4 0.2-1.4 0.3-2.3 0.3-1.1 0-1.9-0.1-2.2-0.3l-0.2 0.2c0.8 0.3 1.5 0.4 2.4 0.4z"/><path fill-rule="evenodd" class="c" d="m8.8 4.3c0 0-0.4 0.2-0.9 0.3q-0.6 0.1-1.5 0.1-0.9 0-1.4-0.1c-0.6-0.1-0.9-0.2-1-0.3q0 0 0 0c0.4 0.1 0.7 0.2 1 0.2q0.5 0.1 1.4 0.1 0.9 0 1.5-0.1c0.5-0.1 0.8-0.2 0.9-0.3v0.1q0 0 0 0zm-0.1-0.2c-0.1 0.1-0.4 0.2-0.9 0.3q-0.5 0-1.4 0.1-0.8-0.1-1.3-0.1c-0.6-0.1-0.9-0.2-1-0.3q0 0 0.1 0c0 0 0.3 0.1 0.9 0.2q0.5 0.1 1.3 0.1 0.9 0 1.4-0.1c0.5-0.1 0.8-0.2 0.9-0.3v0.1q0 0 0 0z"/><path fill-rule="evenodd" class="c" d="m3.8 5.7c0.5 0.2 1.6 0.4 2.6 0.4 0.9 0 2.2-0.2 2.6-0.4v-0.3c-0.1 0.2-1.4 0.5-2.6 0.4-1.2 0-2.3-0.1-2.6-0.4 0 0 0 0.3 0 0.3z"/><path fill-rule="evenodd" class="c" d="m9.1 5.6c-0.1 0.1-0.7 0.3-1.1 0.3q-0.6 0.1-1.6 0.1-1 0-1.6-0.1c-0.2 0-0.8-0.1-1.1-0.3v0.1c0.1 0 0.5 0.2 1.1 0.3q0.6 0.1 1.6 0.1 1 0 1.6-0.1c0.6-0.1 1-0.2 1.1-0.3v-0.1q0 0 0 0zm0-0.2c-0.1 0.1-0.7 0.2-1.1 0.3q-0.6 0.1-1.6 0.1-1 0-1.6-0.1c-0.2 0-0.8-0.2-1.1-0.3v0.1c0.1 0 0.5 0.2 1.1 0.3q0.6 0.1 1.6 0.1 1 0 1.6-0.1c0.6-0.1 1-0.3 1.1-0.4q0 0 0 0z"/><path fill-rule="evenodd" class="c" d="m6.4 7.2c-1.1 0-2.1-0.4-2.3-0.4l0.1 0.2c0.4 0.2 1.3 0.4 2.2 0.4 0.9 0 1.6-0.1 2.2-0.4l0.1-0.2c-0.3 0.2-1.6 0.4-2.3 0.4z"/><path fill-rule="evenodd" class="c" d="m8.6 7q0 0 0 0zm0 0c-0.1 0-0.3 0.1-0.9 0.2-0.4 0.1-0.8 0.2-1.3 0.2-0.7-0.1-1.5-0.2-2.2-0.4h-0.1 0.1c0.4 0.2 1.2 0.4 2.2 0.4 0.5 0 1 0 1.3-0.1 0.2 0 0.6-0.1 0.9-0.2q0-0.1 0-0.1zm0 0q0 0 0 0 0 0 0 0zm0.2-0.3l-0.1 0.1q0 0 0 0c-0.1 0-0.4 0.1-1 0.2-0.4 0.1-0.7 0.1-1.3 0.1-0.8 0-1.6-0.1-2.4-0.3h0.1c0.2 0.1 1 0.4 2.3 0.4 0.7 0 0.9-0.1 1.3-0.1 0.5-0.1 0.9-0.2 1-0.3q0 0 0.1 0 0 0 0-0.1 0 0 0 0z"/><path fill-rule="evenodd" class="c" d="m6.4 2.8c1.4 0 2.6 1.2 2.6 2.7 0 1.5-1.2 2.7-2.6 2.7-1.5 0-2.6-1.2-2.6-2.7 0-1.5 1.1-2.7 2.6-2.7zm1.8 1.2c-0.4-0.6-1.1-0.9-1.7-0.9-0.5-0.1-1.2 0.1-1.6 0.5-0.5 0.4-0.8 1-0.9 1.9 0 0.7 0.3 1.3 0.7 1.7 0.2 0.2 0.9 0.8 1.7 0.7 0.7 0 1.2-0.3 1.7-0.7 0.3-0.3 0.7-1 0.7-1.8-0.1-0.6-0.2-1-0.6-1.4z"/><path fill-rule="evenodd" class="c" d="m6.4 8.2c-1.5 0-2.6-1.2-2.6-2.7 0-1.5 1.1-2.7 2.6-2.7 1.5 0 2.6 1.2 2.6 2.7 0 1.5-1.1 2.7-2.6 2.7zm2.6-2.7c0-1.5-1.2-2.7-2.6-2.7-1.4 0-2.6 1.2-2.6 2.7 0 1.5 1.2 2.7 2.6 2.7 1.4 0 2.6-1.2 2.6-2.7z"/><path fill-rule="evenodd" class="c" d="m6.4 8c-1.3 0-2.4-1.1-2.4-2.5 0-1.4 1.1-2.5 2.4-2.5 1.3 0 2.4 1.1 2.4 2.5 0 1.4-1.1 2.5-2.4 2.5zm2.4-2.5c0-1.3-1.1-2.4-2.4-2.4-1.3 0-2.4 1.1-2.4 2.4 0 1.3 1.1 2.4 2.4 2.4 1.3 0 2.4-1.1 2.4-2.4z"/><path fill-rule="evenodd" class="c" d="m6.5 2.8h-0.2v5.4h0.2z"/><path fill-rule="evenodd" class="c" d="m6.5 8.3v-5.6c0 0 0 5.6 0 5.6zm-0.2-5.6c0 0 0 5.6 0 5.6v-5.6z"/><path fill-rule="evenodd" class="c" d="m9 5.6v-0.2l-0.1-0.1-0.9-0.3-1.3-0.1h-1.6l-1.1 0.3-0.3 0.2v0.2l0.6-0.3 1.4-0.2h1.3l0.9 0.1 0.7 0.2z"/><path fill-rule="evenodd" class="c" d="m4.7 5.2c-0.6 0.1-0.9 0.3-1 0.4v0.1c0.1-0.2 0.6-0.3 1-0.4 0.4-0.1 1-0.2 1.7-0.2 0.6 0 1.2 0.1 1.7 0.2 0.4 0.1 0.8 0.2 1 0.4v-0.1c-0.1-0.1-0.5-0.3-1-0.4-0.5-0.1-1.1-0.1-1.7-0.1-0.7 0-1.3 0-1.7 0.1zm0-0.2c-0.6 0.1-0.9 0.3-1 0.4 0.1-0.1 0.6-0.3 1-0.3 0.4-0.1 1-0.2 1.7-0.2 0.6 0 1.2 0.1 1.7 0.2 0.4 0 0.8 0.2 1 0.3-0.1-0.2-0.5-0.3-1-0.4-0.5-0.1-1.1-0.2-1.7-0.2-0.7 0-1.3 0.1-1.7 0.2z"/><path fill-rule="evenodd" class="c" d="m6.4 3.7c1 0 1.8 0.1 2.2 0.3l0.2 0.3c-0.4-0.2-1.3-0.4-2.4-0.4-0.9 0-1.9 0.1-2.4 0.4l0.2-0.3c0.4-0.2 1.3-0.3 2.2-0.3z"/><path fill-rule="evenodd" class="c" d="m6.4 3.9c0.6 0 1.1 0 1.5 0.1 0.4 0.1 0.8 0.2 0.9 0.2v0.1c-0.1-0.1-0.5-0.2-0.9-0.3-0.4 0-0.9-0.1-1.5-0.1-0.6 0-1.1 0.1-1.5 0.1-0.5 0.1-0.8 0.2-0.9 0.3l0.1-0.1c0.1-0.1 0.3-0.1 0.7-0.2 0.5-0.1 1-0.1 1.6-0.1q0 0 0 0zm0-0.3c0.5 0 1.1 0.1 1.5 0.1 0.3 0.1 0.6 0.2 0.7 0.3l0.1 0.1c-0.1-0.1-0.5-0.2-0.8-0.3-0.5-0.1-1-0.1-1.5-0.1-0.6 0-1.1 0-1.5 0.1q-0.6 0.1-0.7 0.2 0.3-0.2 0.7-0.3c0.4 0 0.9-0.1 1.5-0.1z"/><path fill-rule="evenodd" class="c" d="m7.7 6.6c-0.5-0.1-1-0.1-1.3-0.1-1.6 0.1-2.2 0.4-2.2 0.5l-0.2-0.2c0.5-0.3 1.4-0.5 2.4-0.5q0.8 0 1.4 0.1c0 0-0.1 0.2-0.1 0.2z"/><path fill-rule="evenodd" class="c" d="m6.4 6.5q0 0 0 0zm0 0q0 0 0 0c-0.6 0-1.2 0-1.8 0.2-0.3 0.1-0.5 0.2-0.5 0.3h0.1c0-0.1 0.3-0.2 0.4-0.2 0.6-0.2 1.2-0.2 1.8-0.2q0.7 0 1.3 0.1v-0.1q-0.6-0.1-1.3-0.1zm-1.8 0c-0.3 0.1-0.6 0.2-0.6 0.3h0.1c0-0.1 0.3-0.2 0.5-0.3 0.6-0.1 1.2-0.2 1.8-0.2 0.6 0 1 0.1 1.4 0.2v-0.1c-0.4-0.1-0.9-0.1-1.4-0.1-0.6 0-1.2 0-1.8 0.2z"/><path fill-rule="evenodd" class="c" d="m8.7 6.8l-0.2 0.3-0.5-0.5-1.5-1-1.6-1-0.9-0.3 0.2-0.3 0.6 0.1 1.7 0.9 1 0.7 0.9 0.6 0.3 0.4z"/><path fill-rule="evenodd" class="c" d="m4 4.4h-0.1c0.1-0.1 1.2 0.4 2.5 1.1 1.3 0.8 2 1.5 2.1 1.7q0 0 0 0c0.1-0.2-1-1-2.1-1.7-1.2-0.7-2.3-1.3-2.4-1.1zm4.5 2.8q0 0 0 0zm-4.5-2.8q0 0 0 0zm4.8 2.4c0.1-0.2-1-1-2.2-1.8-1.3-0.7-2.3-1.2-2.4-1h-0.1q0 0 0 0 0.1 0 0.1 0c0.3 0 1.2 0.4 2.4 1.1 0.5 0.3 2.1 1.4 2.1 1.7q0 0 0 0.1l0.1-0.1q0 0 0 0zm-0.1 0.1q0 0 0 0z"/><path class="d" d="m4.8 5.8c0 0.5 0.2 0.9 0.5 1.2 0.3 0.2 0.7 0.4 1.1 0.4 0.4 0 0.8-0.1 1.1-0.4 0.3-0.3 0.5-0.7 0.5-1.2v-2.2h-3.2v2.2q0 0 0 0z"/><path fill-rule="evenodd" class="e" d="m4.9 3.7h3v2.1c0 0.4-0.2 0.8-0.4 1.1-0.3 0.3-0.7 0.5-1.1 0.5-0.4 0-0.8-0.2-1.1-0.5-0.3-0.3-0.4-0.7-0.4-1.1 0 0 0-2.1 0-2.1zm2.4 0.6h-1.8v1.5q0 0.4 0.3 0.7 0.2 0.2 0.6 0.2 0.4 0 0.6-0.2 0.3-0.2 0.3-0.6 0 0 0-0.1v-0.1-1.4q0 0 0 0z"/><path class="f" d="m5.1 4.2c0-0.1 0.1-0.1 0.1-0.1 0 0 0.1 0 0.1 0.1 0 0-0.2 0-0.2 0z"/><path class="g" d="m5 4.1v0.1h0.1c0-0.1 0.1-0.1 0.1-0.1 0 0 0.1 0 0.1 0.1h0.1v-0.1h-0.4q0 0 0 0z"/><path class="g" d="m5 4.2h0.4q0 0 0 0.1 0 0 0 0h-0.4q-0.1 0-0.1 0 0-0.1 0.1-0.1z"/><path class="g" d="m5.1 4.2c0-0.1 0.1-0.1 0.1-0.1 0 0 0 0 0 0.1 0 0-0.1 0-0.1 0z"/><path class="g" d="m5 4h0.4q0 0 0 0 0 0 0 0h-0.4q0 0-0.1 0 0.1 0 0.1 0z"/><path class="g" d="m5 4h0.4q0 0 0 0 0 0.1 0 0.1h-0.4q0 0 0-0.1 0 0 0 0z"/><path class="g" d="m5.1 3.7v0.1h0.1v-0.1 0.1-0.1h0.1v0.1q0 0-0.1 0h-0.1q0 0 0 0v-0.1q0 0 0 0z"/><path class="g" d="m5.2 3.8v0.2h-0.1v-0.2c0 0 0.1 0 0.1 0z"/><path class="g" d="m5.1 3.9v0.1h-0.1v-0.1h0.1q0 0 0 0z"/><path class="g" d="m5.4 3.9v0.1h-0.1v-0.1h0.1q0 0 0 0z"/><path class="g" d="m5 3.8h0.1v0.1q0 0 0 0h-0.1q0 0 0 0v-0.1q0 0 0 0z"/><path class="g" d="m5.3 3.8h0.1v0.1q0 0 0 0h-0.1q0 0 0 0v-0.1q0 0 0 0z"/><path  d="m5.2 3.9q0-0.1 0 0c0 0 0 0 0 0z"/><path  d="m5 3.9q0 0 0.1 0v0.1h-0.1c0 0 0-0.1 0-0.1z"/><path  d="m5.3 3.9q0 0 0 0v0.1c0 0 0-0.1 0-0.1z"/><path class="f" d="m5.1 5.5c0-0.1 0.1-0.2 0.1-0.2 0 0 0.1 0.1 0.1 0.2 0 0-0.2 0-0.2 0z"/><path class="g" d="m5 5.3v0.2h0.1c0-0.1 0.1-0.2 0.1-0.2 0 0 0.1 0.1 0.1 0.2h0.1v-0.2h-0.4q0 0 0 0z"/><path class="g" d="m5 5.5h0.4q0 0 0 0 0 0.1 0 0.1h-0.4q-0.1 0-0.1-0.1 0 0 0.1 0z"/><path class="g" d="m5.1 5.5c0-0.1 0.1-0.1 0.1-0.1 0 0 0 0 0 0.1 0 0-0.1 0-0.1 0z"/><path class="g" d="m5 5.3h0.4q0 0 0 0 0 0 0 0h-0.4q0 0-0.1 0 0.1 0 0.1 0z"/><path class="g" d="m5 5.3h0.4q0 0 0 0 0 0 0 0h-0.4q0 0 0 0 0 0 0 0z"/><path class="g" d="m5.1 5h0.1 0.1v0.1q0 0-0.1 0h-0.1q0 0 0 0v-0.1q0 0 0 0z"/><path class="g" d="m5.2 5.1v0.2h-0.1v-0.2c0 0 0.1 0 0.1 0z"/><path class="g" d="m5.1 5.2v0.1h-0.1v-0.1h0.1q0 0 0 0z"/><path class="g" d="m5.4 5.2v0.1h-0.1v-0.1h0.1q0 0 0 0z"/><path class="g" d="m5 5.1h0.1v0.1q0 0 0 0h-0.1q0 0 0 0v-0.1q0 0 0 0z"/><path class="g" d="m5.3 5.1h0.1v0.1q0 0 0 0h-0.1q0 0 0 0v-0.1q0 0 0 0z"/><path  d="m5.2 5.1q0 0 0 0v0.1c0 0 0-0.1 0-0.1z"/><path  d="m5 5.2q0 0 0.1 0h-0.1c0 0 0 0 0 0z"/><path  d="m5.3 5.2q0 0 0 0c0 0 0 0 0 0z"/><path class="f" d="m5.6 6.8c-0.1-0.1-0.1-0.2-0.1-0.2 0 0 0.1 0 0.2 0.1 0 0-0.1 0.1-0.1 0.1z"/><path class="g" d="m5.4 6.8l0.1 0.1v-0.1c-0.1-0.1 0-0.2 0-0.2 0 0 0.1 0 0.2 0.1l0.1-0.1-0.2-0.1-0.2 0.3q0 0 0 0z"/><path class="g" d="m5.5 6.9l0.3-0.3q0 0 0 0 0 0 0 0l-0.3 0.4q0 0 0 0 0-0.1 0-0.1z"/><path class="g" d="m5.6 6.8c-0.1-0.1-0.1-0.1-0.1-0.1 0 0 0.1-0.1 0.2 0 0 0-0.1 0.1-0.1 0.1z"/><path class="g" d="m5.3 6.7l0.3-0.3q0 0 0 0 0 0 0 0.1l-0.3 0.3q0 0 0 0 0 0 0-0.1z"/><path class="g" d="m5.3 6.8l0.3-0.3q0 0 0.1 0 0 0 0 0l-0.3 0.3q-0.1 0-0.1 0 0 0 0 0z"/><path class="g" d="m5.2 6.5l0.1-0.1v0.1-0.1h0.1q0 0 0 0l-0.1 0.1q0 0 0 0h-0.1q0 0 0 0z"/><path class="g" d="m5.4 6.4l0.1 0.1-0.1 0.1-0.1-0.1c0 0 0.1-0.1 0.1-0.1z"/><path class="g" d="m5.3 6.6h0.1l-0.1 0.1v-0.1q0 0 0 0z"/><path class="g" d="m5.5 6.4h0.1l-0.1 0.1v-0.1q0 0 0 0z"/><path class="g" d="m5.2 6.6h0.1v-0.1 0.1q0 0 0 0l-0.1 0.1q0 0 0 0v-0.1q0 0 0 0z"/><path class="g" d="m5.4 6.4h0.1v-0.1 0.1q0 0 0 0l-0.1 0.1q0 0 0 0v-0.1q0 0 0 0z"/><path  d="m5.4 6.5q0 0 0 0c0 0 0 0 0 0z"/><path  d="m5.3 6.7q0-0.1 0-0.1v0.1c0 0 0 0 0 0z"/><path  d="m5.5 6.4q0 0 0 0v0.1c0 0 0-0.1 0-0.1z"/><path class="f" d="m6.3 4.2c0-0.1 0.1-0.1 0.1-0.1 0 0 0.1 0 0.1 0.1 0 0-0.2 0-0.2 0z"/><path class="g" d="m6.2 4.1v0.1h0.1c0-0.1 0.1-0.1 0.1-0.1 0 0 0.1 0 0.1 0.1h0.1v-0.1h-0.4q0 0 0 0z"/><path class="g" d="m6.2 4.2h0.4q0 0 0 0.1 0 0 0 0h-0.4q0 0 0 0 0-0.1 0-0.1z"/><path class="g" d="m6.3 4.2c0-0.1 0.1-0.1 0.1-0.1 0 0 0.1 0 0.1 0.1 0 0-0.2 0-0.2 0z"/><path class="g" d="m6.2 4h0.4q0 0 0 0 0 0 0 0h-0.4q0 0 0 0 0 0 0 0z"/><path class="g" d="m6.2 4h0.4q0 0 0 0 0 0.1 0 0.1h-0.4q0 0 0-0.1 0 0 0 0z"/><path class="g" d="m6.3 3.7h0.1v0.1-0.1 0.1-0.1h0.1v0.1q0 0 0 0h-0.2q0 0 0 0v-0.1q0 0 0 0z"/><path class="g" d="m6.5 3.8v0.2h-0.2l0.1-0.2c0 0 0.1 0 0.1 0z"/><path class="g" d="m6.3 3.9v0.1h-0.1v-0.1h0.1q0 0 0 0z"/><path class="g" d="m6.6 3.9v0.1h-0.1v-0.1h0.1q0 0 0 0z"/><path class="g" d="m6.2 3.8h0.1v0.1q0 0 0 0h-0.1q0 0 0 0v-0.1q0 0 0 0z"/><path class="g" d="m6.5 3.8h0.1v0.1q0 0 0 0h-0.1q0 0 0 0v-0.1q0 0 0 0z"/><path  d="m6.4 3.9q0-0.1 0 0c0 0 0 0 0 0z"/><path  d="m6.2 3.9q0.1 0 0.1 0v0.1h-0.1c0 0 0-0.1 0-0.1z"/><path  d="m6.5 3.9q0 0 0.1 0v0.1h-0.1c0 0 0-0.1 0-0.1z"/><path class="f" d="m7.7 4.2c0-0.1-0.1-0.1-0.1-0.1 0 0-0.1 0-0.1 0.1 0 0 0.2 0 0.2 0z"/><path class="g" d="m7.8 4.1v0.1h-0.1c0-0.1-0.1-0.1-0.1-0.1 0 0-0.1 0-0.1 0.1h-0.1v-0.1h0.4q0 0 0 0z"/><path class="g" d="m7.8 4.2h-0.4q0 0 0 0.1 0 0 0 0h0.4q0.1 0 0.1 0 0-0.1-0.1-0.1z"/><path class="g" d="m7.7 4.2c0-0.1-0.1-0.1-0.1-0.1 0 0 0 0 0 0.1 0 0 0.1 0 0.1 0z"/><path class="g" d="m7.8 4h-0.4q0 0 0 0 0 0 0 0h0.4q0 0 0 0 0 0 0 0z"/><path class="g" d="m7.8 4h-0.4q0 0 0 0 0 0.1 0 0.1h0.4q0 0 0-0.1 0 0 0 0z"/><path class="g" d="m7.7 3.7v0.1h-0.1v-0.1 0.1-0.1h-0.1v0.1q0 0 0.1 0h0.1q0 0 0 0v-0.1q0 0 0 0z"/><path class="g" d="m7.6 3.8v0.2h0.1v-0.2c0 0-0.1 0-0.1 0z"/><path class="g" d="m7.7 3.9v0.1h0.1v-0.1h-0.1q0 0 0 0z"/><path class="g" d="m7.4 3.9v0.1h0.1v-0.1h-0.1q0 0 0 0z"/><path class="g" d="m7.8 3.8h-0.1v0.1q0 0 0 0h0.1q0 0 0 0v-0.1q0 0 0 0z"/><path class="g" d="m7.5 3.8h-0.1v0.1q0 0 0 0h0.1q0 0 0 0v-0.1q0 0 0 0z"/><path  d="m7.6 3.9q0-0.1 0 0c0 0 0 0 0 0z"/><path  d="m7.8 3.9q0 0-0.1 0v0.1h0.1c0 0 0-0.1 0-0.1z"/><path  d="m7.5 3.9q0 0 0 0v0.1c0 0 0-0.1 0-0.1z"/><path class="f" d="m7.7 5.5c0-0.1-0.1-0.2-0.1-0.2 0 0-0.1 0.1-0.1 0.2 0 0 0.2 0 0.2 0z"/><path class="g" d="m7.8 5.3v0.2h-0.1c0-0.1-0.1-0.2-0.1-0.2 0 0-0.1 0.1-0.1 0.2h-0.1v-0.2h0.4q0 0 0 0z"/><path class="g" d="m7.8 5.5h-0.4q0 0 0 0 0 0.1 0 0.1h0.4q0.1 0 0.1-0.1 0 0-0.1 0z"/><path class="g" d="m7.7 5.5c0-0.1-0.1-0.1-0.1-0.1 0 0 0 0 0 0.1 0 0 0.1 0 0.1 0z"/><path class="g" d="m7.8 5.3h-0.4q0 0 0 0 0 0 0 0h0.4q0 0 0 0 0 0 0 0z"/><path class="g" d="m7.8 5.3h-0.4q0 0 0 0 0 0 0 0h0.4q0 0 0 0 0 0 0 0z"/><path class="g" d="m7.7 5h-0.1-0.1v0.1q0 0 0.1 0h0.1q0 0 0 0v-0.1q0 0 0 0z"/><path class="g" d="m7.6 5.1v0.2h0.1v-0.2c0 0-0.1 0-0.1 0z"/><path class="g" d="m7.7 5.2v0.1h0.1v-0.1h-0.1q0 0 0 0z"/><path class="g" d="m7.4 5.2v0.1h0.1v-0.1h-0.1q0 0 0 0z"/><path class="g" d="m7.8 5.1h-0.1v0.1q0 0 0 0h0.1q0 0 0 0v-0.1q0 0 0 0z"/><path class="g" d="m7.5 5.1h-0.1v0.1q0 0 0 0h0.1q0 0 0 0v-0.1q0 0 0 0z"/><path  d="m7.6 5.1q0 0 0 0v0.1c0 0 0-0.1 0-0.1z"/><path  d="m7.8 5.2q0 0-0.1 0h0.1c0 0 0 0 0 0z"/><path  d="m7.5 5.2q0 0 0 0c0 0 0 0 0 0z"/><path class="f" d="m7.2 6.8c0.1-0.1 0.1-0.2 0.1-0.2 0 0-0.1 0-0.2 0.1 0 0 0.1 0.1 0.1 0.1z"/><path class="g" d="m7.4 6.8l-0.1 0.1-0.1-0.1c0.1-0.1 0.1-0.2 0.1-0.2 0 0-0.1 0-0.2 0.1l-0.1-0.1 0.2-0.1 0.2 0.3q0 0 0 0z"/><path class="g" d="m7.3 6.9l-0.3-0.3q0 0 0 0 0 0 0 0l0.3 0.4q0 0 0 0 0-0.1 0-0.1z"/><path class="g" d="m7.2 6.8c0.1-0.1 0.1-0.1 0.1-0.1 0 0-0.1-0.1-0.2 0 0 0 0.1 0.1 0.1 0.1z"/><path class="g" d="m7.5 6.7l-0.3-0.3q0 0 0 0 0 0 0 0.1l0.3 0.3q0 0 0 0 0 0 0-0.1z"/><path class="g" d="m7.5 6.8l-0.3-0.3q0 0-0.1 0 0 0 0 0l0.3 0.3q0 0 0.1 0 0 0 0 0z"/><path class="g" d="m7.6 6.5l-0.1-0.1v0.1-0.1h-0.1q0 0 0 0l0.1 0.1q0 0 0 0h0.1q0 0 0 0z"/><path class="g" d="m7.4 6.4l-0.1 0.1 0.1 0.1 0.1-0.1c0 0-0.1-0.1-0.1-0.1z"/><path class="g" d="m7.5 6.6h-0.1l0.1 0.1v-0.1q0 0 0 0z"/><path class="g" d="m7.3 6.4h-0.1l0.1 0.1v-0.1q0 0 0 0z"/><path class="g" d="m7.6 6.6h-0.1 0.1-0.1v-0.1 0.1q0 0 0 0v0.1q0.1 0 0.1 0v-0.1q0 0 0 0z"/><path class="g" d="m7.4 6.4h-0.1v-0.1 0.1q0 0 0 0v0.1q0.1 0 0.1 0v-0.1q0 0 0 0z"/><path  d="m7.4 6.5q0 0 0 0c0 0 0 0 0 0z"/><path  d="m7.5 6.7q0-0.1 0-0.1v0.1c0 0 0 0 0 0z"/><path  d="m7.3 6.4q0 0 0 0v0.1c0 0 0-0.1 0-0.1z"/><path class="h" d="m6.2 5.6q0 0.1 0.1 0.1 0 0.1 0.1 0.1 0.1 0 0.1-0.1 0.1 0 0.1-0.1v-0.3h-0.4c0 0 0 0.3 0 0.3z"/><path class="i" d="m6.3 5.4q0 0 0 0 0-0.1 0-0.1 0 0 0 0.1 0 0 0 0z"/><path class="i" d="m6.5 5.4q0 0 0 0 0-0.1 0-0.1 0.1 0 0.1 0.1 0 0-0.1 0z"/><path class="i" d="m6.4 5.5q0 0 0 0 0 0 0 0 0 0 0 0 0 0 0 0z"/><path class="i" d="m6.3 5.6q0 0 0 0 0 0 0 0 0 0 0 0 0 0 0 0z"/><path class="i" d="m6.5 5.6q0 0 0 0 0 0 0 0 0.1 0 0.1 0 0 0-0.1 0z"/><path class="h" d="m6.2 4.9q0 0 0.1 0.1 0 0.1 0.1 0.1 0.1 0 0.1-0.1 0.1-0.1 0.1-0.1v-0.3h-0.4c0 0 0 0.3 0 0.3z"/><path class="i" d="m6.3 4.7q0 0 0 0 0-0.1 0-0.1 0 0 0 0.1 0 0 0 0z"/><path class="i" d="m6.5 4.7q0 0 0 0 0-0.1 0-0.1 0.1 0 0.1 0.1 0 0-0.1 0z"/><path class="i" d="m6.4 4.8q0 0 0 0 0-0.1 0-0.1 0 0 0 0.1 0 0 0 0z"/><path class="i" d="m6.3 4.9q0 0 0 0 0 0 0 0 0 0 0 0 0 0 0 0z"/><path class="i" d="m6.5 4.9q0 0 0 0 0 0 0 0 0.1 0 0.1 0 0 0-0.1 0z"/><path class="h" d="m5.6 5.6q0.1 0.1 0.1 0.1 0.1 0.1 0.1 0.1 0.1 0 0.2-0.1 0 0 0-0.1v-0.3h-0.4c0 0 0 0.3 0 0.3z"/><path class="i" d="m5.7 5.4q0 0 0 0 0-0.1 0-0.1 0.1 0 0.1 0.1 0 0-0.1 0z"/><path class="i" d="m6 5.4q-0.1 0-0.1 0 0-0.1 0.1-0.1 0 0 0 0.1 0 0 0 0z"/><path class="i" d="m5.9 5.5q-0.1 0-0.1 0 0 0 0.1 0 0 0 0 0 0 0 0 0z"/><path class="i" d="m5.7 5.6q0 0 0 0 0 0 0 0 0.1 0 0.1 0 0 0-0.1 0z"/><path class="i" d="m6 5.6q-0.1 0-0.1 0 0 0 0.1 0 0 0 0 0 0 0 0 0z"/><path class="h" d="m6.8 5.6q0 0.1 0 0.1 0.1 0.1 0.2 0.1 0 0 0.1-0.1 0.1 0 0.1-0.1v-0.3h-0.4c0 0 0 0.3 0 0.3z"/><path class="i" d="m6.8 5.4q0 0 0 0 0-0.1 0-0.1 0.1 0 0.1 0.1 0 0-0.1 0z"/><path class="i" d="m7.1 5.4q-0.1 0-0.1 0 0-0.1 0.1-0.1 0 0 0 0.1 0 0 0 0z"/><path class="i" d="m7 5.5q-0.1 0-0.1 0 0 0 0.1 0 0 0 0 0 0 0 0 0z"/><path class="i" d="m6.8 5.6q0 0 0 0 0 0 0 0 0.1 0 0.1 0 0 0-0.1 0z"/><path class="i" d="m7.1 5.6q-0.1 0-0.1 0 0 0 0.1 0 0 0 0 0 0 0 0 0z"/><path class="h" d="m6.2 6.3q0 0.1 0.1 0.1 0 0.1 0.1 0.1 0.1 0 0.1-0.1 0.1 0 0.1-0.1v-0.3h-0.4c0 0 0 0.3 0 0.3z"/><path class="i" d="m6.3 6.1q0 0 0 0 0 0 0 0 0 0 0 0 0 0 0 0z"/><path class="i" d="m6.5 6.1q0 0 0 0 0 0 0 0 0.1 0 0.1 0 0 0-0.1 0z"/><path class="i" d="m6.4 6.2q0 0 0 0 0 0 0 0 0 0 0 0 0 0 0 0z"/><path class="i" d="m6.3 6.4q0 0 0-0.1 0 0 0 0 0 0 0 0 0 0.1 0 0.1z"/><path class="i" d="m6.5 6.4q0 0 0-0.1 0 0 0 0 0.1 0 0.1 0 0 0.1-0.1 0.1z"/></svg>