<?xml version="1.0" encoding="UTF-8"?> <svg xmlns="http://www.w3.org/2000/svg" width="65" height="65" viewBox="0 0 65 65" fill="none"><path d="M46.1584 40.2557C45.4984 39.7757 44.6584 39.6357 43.8784 39.8557C43.0984 40.0957 42.4784 40.6957 42.1984 41.4557L42.1184 41.6957H39.3984V36.1357H41.6984C41.8584 36.1357 42.0184 36.0757 42.1384 35.9557C42.2584 35.8357 42.3184 35.6757 42.3184 35.5157V32.2557H44.2584V31.0157H42.3184V24.4757H46.2184V23.2357H42.3184V18.0157C42.3184 17.8557 42.2584 17.6957 42.1384 17.5757C42.0184 17.4557 41.8584 17.3957 41.6984 17.3957H39.3984V12.7957H43.2984V11.5557H38.7784C38.4384 11.5557 38.1584 11.8357 38.1584 12.1757V17.3957H33.5584V8.81572L33.7984 8.73572C34.5584 8.45572 35.1584 7.83572 35.3984 7.05572C35.6384 6.27572 35.4984 5.43572 34.9984 4.77572C34.5184 4.11572 33.7384 3.73572 32.9384 3.73572C32.1384 3.73572 31.3584 4.11572 30.8784 4.77572C30.3984 5.43572 30.2584 6.27572 30.4784 7.05572C30.7184 7.83572 31.3184 8.45572 32.0784 8.73572L32.3184 8.81572V17.3757H27.7184V14.6557L27.9584 14.5757C28.7184 14.2957 29.3184 13.6757 29.5584 12.8957C29.7984 12.1157 29.6584 11.2757 29.1584 10.6157C28.6784 9.95572 27.8984 9.57572 27.0984 9.57572C26.2984 9.57572 25.5184 9.95572 25.0384 10.6157C24.5584 11.2757 24.4184 12.1157 24.6384 12.8957C24.8784 13.6757 25.4784 14.2957 26.2384 14.5757L26.4784 14.6557V17.3757H24.1784C23.8384 17.3757 23.5584 17.6557 23.5584 17.9957V23.2157H15.0784V14.6557L15.3184 14.5757C16.0784 14.2957 16.6784 13.6757 16.9184 12.8957C17.1584 12.1157 17.0184 11.2757 16.5184 10.6157C16.0384 9.95572 15.2584 9.57572 14.4584 9.57572C13.6584 9.57572 12.8784 9.95572 12.3984 10.6157C11.9184 11.2757 11.7784 12.1157 11.9984 12.8957C12.2384 13.6757 12.8384 14.2957 13.5984 14.5757L13.8384 14.6557V23.8357C13.8384 23.9957 13.8984 24.1557 14.0184 24.2757C14.1384 24.3957 14.2984 24.4557 14.4584 24.4557H23.5584V27.6357L23.1184 27.5357C21.8984 27.2557 20.6584 27.0957 19.4184 27.0957H8.59844C8.25844 27.0957 7.97844 27.3757 7.97844 27.7157V36.3157L4.15844 42.9957C3.99844 43.2757 4.07844 43.6157 4.31844 43.8157L7.95844 46.5557V54.9957C7.95844 55.1557 8.01844 55.3157 8.13844 55.4357C8.25844 55.5557 8.41844 55.6157 8.57844 55.6157H13.7984V60.8357C13.7984 60.9957 13.8584 61.1557 13.9784 61.2757C14.0984 61.3957 14.2584 61.4557 14.4184 61.4557H29.9984C30.1584 61.4557 30.3184 61.3957 30.4384 61.2757C30.5584 61.1557 30.6184 60.9957 30.6184 60.8357C30.6184 57.3357 31.6384 53.9557 33.5784 51.0557C34.8384 49.3157 35.4784 47.2557 35.4784 45.1157V43.2157C35.4784 40.9357 34.9984 38.7157 34.0584 36.6357L33.8384 36.1357H38.1184V42.3157C38.1184 42.4757 38.1784 42.6357 38.2984 42.7557C38.4184 42.8757 38.5784 42.9357 38.7384 42.9357H42.0784L42.1584 43.1757C42.4384 43.9357 43.0584 44.5357 43.8384 44.7757C44.6184 45.0157 45.4584 44.8557 46.1184 44.3757C46.7784 43.8957 47.1584 43.1157 47.1584 42.3157C47.1584 41.5157 46.7784 40.7357 46.1184 40.2557H46.1584ZM13.2184 12.6557C13.0184 12.1557 13.1184 11.5957 13.4984 11.2157C13.8784 10.8357 14.4384 10.7157 14.9384 10.9357C15.4384 11.1357 15.7584 11.6157 15.7584 12.1557C15.7584 12.5157 15.6184 12.8357 15.3784 13.0957C15.1384 13.3557 14.7984 13.4757 14.4384 13.4757C13.8984 13.4757 13.4184 13.1557 13.2184 12.6557ZM31.5984 6.31572C31.5984 5.59572 32.1984 4.99572 32.9184 4.99572C33.4584 4.99572 33.9384 5.31572 34.1384 5.81572C34.3384 6.31572 34.2384 6.87572 33.8584 7.25572C33.5984 7.51572 33.2784 7.63572 32.9184 7.63572C32.7384 7.63572 32.5784 7.59572 32.4184 7.53572C31.9184 7.33572 31.5984 6.85572 31.5984 6.31572ZM25.7584 12.1557C25.7584 11.4357 26.3584 10.8357 27.0784 10.8357C27.6184 10.8357 28.0984 11.1557 28.2984 11.6557C28.4984 12.1557 28.3984 12.7157 28.0184 13.0957C27.7584 13.3557 27.4384 13.4757 27.0784 13.4757C26.8984 13.4757 26.7384 13.4357 26.5784 13.3757C26.0784 13.1757 25.7584 12.6957 25.7584 12.1557ZM34.2384 43.1957V45.0957C34.2384 46.9757 33.6584 48.7757 32.5784 50.2957C30.6584 53.1157 29.5584 56.4357 29.3984 59.8557V60.1957H15.0384V55.3357L21.5384 51.6157C21.7384 51.4957 21.8584 51.2957 21.8584 51.0757V47.5357H20.6184V50.7157L14.2584 54.3557H9.19844V46.2157C9.19844 46.0157 9.09844 45.8357 8.95844 45.7157L5.49844 43.1157L9.11844 36.7757C9.11844 36.7757 9.19844 36.5757 9.19844 36.4557V28.3157H19.3784C20.6984 28.3157 21.9984 28.4957 23.2584 28.8557L23.5184 28.9357V35.4957C23.5184 35.6557 23.5784 35.8157 23.6984 35.9357C23.8184 36.0557 23.9784 36.1157 24.1384 36.1157H26.4384V38.7557H21.2184C20.8784 38.7557 20.5984 39.0357 20.5984 39.3757V40.9757H21.8384V39.9957H27.0584C27.2184 39.9957 27.3784 39.9357 27.4984 39.8157C27.6184 39.6957 27.6784 39.5357 27.6784 39.3757V36.1157H32.4184L32.5184 36.2957C33.6184 38.4157 34.2184 40.7957 34.2184 43.1757L34.2384 43.1957ZM24.7784 18.6157H41.0584V34.8957H24.7784V18.6157ZM45.5384 43.2557C45.2784 43.5157 44.9384 43.6357 44.5984 43.6357C44.4384 43.6357 44.2584 43.5957 44.0984 43.5357C43.5984 43.3357 43.2784 42.8557 43.2784 42.3157C43.2784 41.5957 43.8784 40.9957 44.5984 40.9957C45.1384 40.9957 45.6184 41.3157 45.8184 41.8157C46.0184 42.3157 45.9184 42.8757 45.5384 43.2557Z" fill="white"></path><path d="M13.4584 32.9557C12.5784 32.9557 11.8584 33.6757 11.8584 34.5557C11.8584 35.4357 12.5784 36.1557 13.4584 36.1557C14.3384 36.1557 15.0584 35.4357 15.0584 34.5557C15.0584 33.6757 14.3384 32.9557 13.4584 32.9557Z" fill="white"></path><path d="M35.8584 23.2157H30.0184C29.6784 23.2157 29.3984 23.4957 29.3984 23.8357V29.6757C29.3984 29.8357 29.4584 29.9957 29.5784 30.1157C29.6984 30.2357 29.8584 30.2957 30.0184 30.2957H35.8584C36.0184 30.2957 36.1784 30.2357 36.2984 30.1157C36.4184 29.9957 36.4784 29.8357 36.4784 29.6757V23.8357C36.4784 23.6757 36.4184 23.5157 36.2984 23.3957C36.1784 23.2757 36.0184 23.2157 35.8584 23.2157ZM35.2384 29.0557H30.6384V24.4557H35.2384V29.0557Z" fill="white"></path><path d="M49.0184 13.0157C49.2384 13.6157 49.6584 14.0957 50.1984 14.3957C50.7584 14.6957 51.3984 14.7957 52.0184 14.6357C52.6384 14.4957 53.1784 14.1357 53.5384 13.6157C53.8984 13.0957 54.0584 12.4757 53.9984 11.8357C53.9384 11.1957 53.6184 10.6357 53.1584 10.2157C52.6784 9.79572 52.0784 9.57572 51.4584 9.57572C50.9184 9.57572 50.4184 9.73572 49.9784 10.0557C49.5384 10.3557 49.2184 10.7957 49.0384 11.2957L48.9584 11.5357H45.9584V12.7757H48.9584L49.0384 13.0157H49.0184ZM50.4984 11.2157C50.8784 10.8357 51.4384 10.7157 51.9384 10.9357C52.4384 11.1357 52.7584 11.6157 52.7584 12.1557C52.7584 12.5157 52.6184 12.8357 52.3784 13.0957C52.1384 13.3557 51.7984 13.4757 51.4384 13.4757C50.8984 13.4757 50.4184 13.1557 50.2184 12.6557C50.0184 12.1557 50.1184 11.5957 50.4984 11.2157Z" fill="white"></path><path d="M61.0184 22.0157C60.5384 21.5357 59.8784 21.2557 59.1984 21.2557C58.5184 21.2557 57.8584 21.5157 57.3784 22.0157C56.8984 22.4957 56.6184 23.1557 56.6184 23.8357C56.6184 24.5157 56.8984 25.1757 57.3784 25.6557C58.3384 26.6157 60.0584 26.6157 61.0184 25.6557C61.4984 25.1757 61.7784 24.5157 61.7784 23.8357C61.7784 23.1557 61.4984 22.4957 61.0184 22.0157ZM60.1384 24.7757C59.8984 25.0157 59.5584 25.1557 59.1984 25.1557C58.6584 25.1557 58.1784 24.8357 57.9784 24.3357C57.7784 23.8357 57.8784 23.2757 58.2584 22.8957C58.6384 22.5157 59.1984 22.3957 59.6984 22.6157C60.1984 22.8357 60.5184 23.2957 60.5184 23.8357C60.5184 24.1957 60.3784 24.5157 60.1384 24.7757Z" fill="white"></path><path d="M53.3784 29.0557C52.6984 29.0557 52.0384 29.3157 51.5584 29.8157C51.0784 30.2957 50.7984 30.9557 50.7984 31.6357C50.7984 32.3157 51.0784 32.9757 51.5584 33.4557C52.5184 34.4157 54.2384 34.4157 55.1984 33.4557C55.6784 32.9757 55.9584 32.3157 55.9584 31.6357C55.9584 30.9557 55.6784 30.2957 55.1984 29.8157C54.7184 29.3357 54.0584 29.0557 53.3784 29.0557ZM54.3184 32.5557C54.0784 32.7957 53.7384 32.9357 53.3784 32.9357C52.8384 32.9357 52.3584 32.6157 52.1584 32.1157C51.9584 31.6157 52.0584 31.0557 52.4384 30.6757C52.8184 30.2957 53.3784 30.1757 53.8784 30.3957C54.3784 30.5957 54.6984 31.0757 54.6984 31.6157C54.6984 31.9557 54.5584 32.2957 54.3184 32.5557Z" fill="white"></path><path d="M51.0584 41.7157H49.8184V42.9557H51.0584V41.7157Z" fill="white"></path><path d="M48.1384 30.9957H46.8984V32.2357H48.1384V30.9957Z" fill="white"></path><path d="M54.9584 41.7157H53.7184V42.9557H54.9584V41.7157Z" fill="white"></path><path d="M61.7784 41.7157H57.6184V42.9557H61.7784V41.7157Z" fill="white"></path><path d="M50.0984 23.2157H48.8584V24.4557H50.0984V23.2157Z" fill="white"></path><path d="M53.9784 23.2157H52.7384V24.4557H53.9784V23.2157Z" fill="white"></path><path d="M21.8584 43.6557H20.6184V44.8957H21.8584V43.6557Z" fill="white"></path></svg> 