<?xml version="1.0" encoding="UTF-8"?> <svg xmlns="http://www.w3.org/2000/svg" width="1112" height="26" viewBox="0 0 1112 26" fill="none"> <path d="M1095.1 22.5263L1108.6 14.732C1109.93 13.9622 1109.93 12.0377 1108.6 11.2679L1095.1 3.47369C1093.76 2.70389 1092.1 3.66614 1092.1 5.20574V20.7942C1092.1 22.3338 1093.76 23.2961 1095.1 22.5263Z" fill="url(#paint0_linear_851_28863)"></path> <path fill-rule="evenodd" clip-rule="evenodd" d="M0 13C0 8.58169 3.58172 4.99997 8 4.99997H1092V21H8C3.58172 21 0 17.4183 0 13ZM14 13C14 16.3137 11.3137 19 8 19C4.68629 19 2 16.3137 2 13C2 9.68626 4.68629 6.99997 8 6.99997C11.3137 6.99997 14 9.68626 14 13Z" fill="url(#paint1_linear_851_28863)"></path> <defs> <linearGradient id="paint0_linear_851_28863" x1="-4.84386e-07" y1="13.0006" x2="1109.6" y2="13.0006" gradientUnits="userSpaceOnUse"> <stop stop-color="#6A7285"></stop> <stop offset="1" stop-color="#999EAB"></stop> </linearGradient> <linearGradient id="paint1_linear_851_28863" x1="-4.84386e-07" y1="13.0006" x2="1109.6" y2="13.0006" gradientUnits="userSpaceOnUse"> <stop stop-color="#6A7285"></stop> <stop offset="1" stop-color="#999EAB"></stop> </linearGradient> </defs> </svg> 