<?xml version="1.0" encoding="UTF-8"?> <svg xmlns="http://www.w3.org/2000/svg" width="48" height="48" viewBox="0 0 48 48" fill="none"><g clip-path="url(#clip0_9979_17762)"><path d="M22.3597 32.454H25.6421C25.9788 32.454 26.2734 32.1836 26.2734 31.8301C26.2734 31.4765 25.9998 31.2062 25.6421 31.2062H22.3597C22.0231 31.2062 21.7285 31.4765 21.7285 31.8301C21.7285 32.1836 22.002 32.454 22.3597 32.454Z" fill="#029ED5"></path><path d="M40.9169 6H7.06202C5.9258 6 5 6.91508 5 8.03813V33.286C5 34.409 5.9258 35.3241 7.06202 35.3241H20.5493L20.5282 35.3657L18.6346 40.7522H15.8151C15.4784 40.7522 15.1838 41.0225 15.1838 41.3761C15.1838 41.7296 15.4574 42 15.8151 42H32.1849C32.5216 42 32.8162 41.7296 32.8162 41.3761C32.8162 41.0225 32.5426 40.7522 32.1849 40.7522H29.3654V40.7314L27.4718 35.3241H40.959C42.0952 35.3241 43.0421 34.409 43.0421 33.286V8.03813C43 6.91508 42.0742 6 40.9169 6ZM28.0188 40.7522H19.9601L19.9812 40.7106L21.8749 35.3241H26.1041V35.3449L28.0188 40.7522ZM41.7375 33.286C41.7375 33.7227 41.3798 34.0971 40.9169 34.0971H7.08306C6.6412 34.0971 6.26246 33.7227 6.26246 33.286V29.7504H41.7375V33.286ZM41.7375 28.5234H6.26246V8.03813C6.26246 7.60139 6.6412 7.24783 7.08306 7.24783H40.938C41.3798 7.24783 41.7586 7.62218 41.7586 8.05893L41.7375 28.5234Z" fill="#029ED5"></path><path d="M25.5365 10.2218C21.9596 10.2218 19.0349 13.0918 19.0349 16.6481C19.0349 18.0624 19.4978 19.4142 20.3815 20.5372L20.5288 20.7244L16.1523 25.0502C16.026 25.175 15.9629 25.3206 15.9629 25.487C15.9629 25.6533 16.026 25.7989 16.1523 25.9237C16.3837 26.1525 16.8045 26.1525 17.036 25.9237L21.4335 21.5979L21.6229 21.7435C22.7591 22.6169 24.1268 23.0745 25.5576 23.0745C29.1345 23.0745 32.0592 20.2045 32.0592 16.6481C32.0382 13.0918 29.1345 10.2218 25.5365 10.2218ZM25.5365 21.8059C22.6539 21.8059 20.2973 19.4766 20.2973 16.6273C20.2973 13.7781 22.6539 11.4488 25.5365 11.4488C28.4191 11.4488 30.7757 13.7781 30.7757 16.6273C30.7757 19.4766 28.4402 21.8059 25.5365 21.8059Z" fill="#029ED5"></path></g><defs><clipPath id="clip0_9979_17762"><rect width="38" height="36" fill="white" transform="translate(5 6)"></rect></clipPath></defs></svg> 