<?xml version="1.0" encoding="UTF-8"?> <svg xmlns="http://www.w3.org/2000/svg" width="65" height="64" viewBox="0 0 65 64" fill="none"> <path d="M51.2232 52.4283H13.7269C12.6851 52.4272 11.6869 52.0128 10.9503 51.2763C10.2138 50.5398 9.79946 49.5417 9.79834 48.4997V20.8757C9.79946 20.0626 10.1227 19.2831 10.6976 18.7081C11.273 18.1327 12.0525 17.8095 12.8657 17.8083H52.0842C52.8973 17.8095 53.6769 18.1327 54.2524 18.7081C54.8273 19.283 55.1505 20.0626 55.1516 20.8757V48.4997C55.1505 49.5416 54.7361 50.5398 53.9996 51.2763C53.2631 52.0129 52.2649 52.4272 51.223 52.4283H51.2232ZM12.8651 19.2511C11.9687 19.2522 11.2417 19.9787 11.2411 20.8751V48.4992C11.2411 49.1585 11.5034 49.7904 11.9692 50.2562C12.435 50.722 13.0669 50.9842 13.7262 50.9848H51.2225C51.8818 50.9842 52.5137 50.722 52.9795 50.2562C53.4453 49.7903 53.7076 49.1584 53.7076 48.4992V20.8751C53.707 19.9787 52.9801 19.2523 52.0836 19.2511H12.8651Z" fill="#199FD3"></path> <path d="M48.476 34.9995H36.9651C36.5669 34.9995 36.2437 34.6763 36.2437 34.2776C36.2437 33.8794 36.5669 33.5562 36.9651 33.5562H48.4838C49.8713 33.5551 51.2022 33.0031 52.1831 32.0222C53.1645 31.0408 53.7159 29.7105 53.7176 28.323C53.7176 27.9243 54.0403 27.6011 54.439 27.6011C54.8372 27.6011 55.1604 27.9243 55.1604 28.323C55.1582 30.094 54.453 31.7923 53.1998 33.0444C51.9466 34.2959 50.2477 34.9994 48.4761 34.9994L48.476 34.9995Z" fill="#199FD3"></path> <path d="M27.9941 34.9995H16.4754C14.7055 34.9973 13.0082 34.2932 11.7567 33.0417C10.5051 31.7896 9.80112 30.0929 9.79883 28.323C9.79883 27.9243 10.1221 27.6011 10.5202 27.6011C10.9189 27.6011 11.2422 27.9243 11.2422 28.323C11.2433 29.7104 11.7952 31.0407 12.7761 32.0222C13.7576 33.0031 15.0879 33.555 16.4754 33.5562H27.9941C28.3928 33.5562 28.7155 33.8794 28.7155 34.2776C28.7155 34.6763 28.3928 34.9995 27.9941 34.9995L27.9941 34.9995Z" fill="#199FD3"></path> <path d="M36.9648 37.9654H28.0017H28.0022C27.6035 37.9654 27.2803 37.6422 27.2803 37.244V31.3191C27.2803 31.1278 27.3558 30.9438 27.4911 30.8085C27.6264 30.6732 27.8104 30.5971 28.0022 30.5977H36.9647C37.1565 30.5971 37.34 30.6732 37.4753 30.8085C37.6106 30.9438 37.6867 31.1278 37.6861 31.3191V37.2373C37.6878 37.4296 37.6129 37.6153 37.4776 37.7517C37.3417 37.8882 37.1571 37.9654 36.9648 37.9654L36.9648 37.9654ZM28.7236 36.5226H36.2434V32.041H28.7236V36.5226Z" fill="#199FD3"></path> <path d="M39.9205 19.2506H25.0291C24.6304 19.2506 24.3071 18.9274 24.3071 18.5292V12.6799C24.3071 12.2817 24.6304 11.9585 25.0291 11.9585H39.922H39.9214C40.3201 11.9585 40.6434 12.2817 40.6434 12.6799V18.5292C40.6434 18.9274 40.3201 19.2506 39.9214 19.2506H39.9205ZM25.75 17.8079H39.1992V13.4013H25.75V17.8079Z" fill="#199FD3"></path> </svg> 