<?xml version="1.0" encoding="UTF-8"?> <svg xmlns="http://www.w3.org/2000/svg" width="48" height="48" viewBox="0 0 48 48" fill="none"><g id="cloud"><g id="Vector"><path d="M34.7988 18.7186V19.9186C35.9128 19.9186 36.981 20.3611 37.7686 21.1489C38.5563 21.9363 38.9988 23.0045 38.9988 24.1186H40.1988C40.1988 22.6864 39.6299 21.3128 38.6172 20.3003C37.6046 19.2875 36.2311 18.7186 34.7988 18.7186Z" fill="white"></path><path d="M39.5994 33.1186C39.2282 33.1197 38.866 33.2357 38.5631 33.4505C38.2601 33.6653 38.0311 33.9685 37.9074 34.3186H36.5994V31.7027C39.0946 31.103 41.1348 29.3145 42.0562 26.9196C42.9779 24.5249 42.6627 21.83 41.213 19.7127C39.7636 17.5953 37.3655 16.3262 34.7994 16.3187C34.3733 16.3193 33.9477 16.3554 33.5274 16.4267C33.1422 13.2995 31.2468 10.56 28.4558 9.09707C25.665 7.63431 22.3339 7.63431 19.5428 9.09707C16.7518 10.5598 14.8564 13.2992 14.4712 16.4267C14.051 16.3554 13.6253 16.3193 13.1992 16.3187C10.6331 16.3262 8.23493 17.5953 6.78561 19.7127C5.33594 21.8302 5.02072 24.5251 5.94239 26.9196C6.86385 29.3145 8.90405 31.103 11.3992 31.7027V34.3186H10.0912C9.90106 33.7805 9.46686 33.3645 8.92099 33.1973C8.3751 33.0304 7.78257 33.1319 7.32376 33.4713C6.86492 33.811 6.59409 34.3477 6.59409 34.9185C6.59409 35.4893 6.86489 36.0261 7.32376 36.3657C7.7826 36.7051 8.37509 36.8066 8.92099 36.6397C9.46688 36.4726 9.90108 36.0566 10.0912 35.5185H11.9992C12.1583 35.5185 12.311 35.4552 12.4235 35.3427C12.5359 35.2302 12.5992 35.0776 12.5992 34.9185V31.9185H14.3992V36.8264C13.861 37.0166 13.4451 37.4508 13.2779 37.9966C13.111 38.5425 13.2125 39.1351 13.5519 39.5939C13.8915 40.0527 14.4283 40.3235 14.9991 40.3235C15.5699 40.3235 16.1067 40.0527 16.4463 39.5939C16.7857 39.135 16.8872 38.5425 16.7203 37.9966C16.5532 37.4507 16.1372 37.0165 15.599 36.8264V31.9185H17.999V34.9185C17.999 36.6285 20.579 37.9185 23.999 37.9185C27.419 37.9185 29.999 36.6285 29.999 34.9185V31.9185H32.399V36.8264C31.8609 37.0166 31.4449 37.4508 31.2778 37.9966C31.1109 38.5425 31.2124 39.1351 31.5518 39.5939C31.8914 40.0527 32.4282 40.3235 32.999 40.3235C33.5698 40.3235 34.1066 40.0527 34.4462 39.5939C34.7856 39.135 34.8871 38.5425 34.7202 37.9966C34.5531 37.4507 34.1371 37.0165 33.5989 36.8264V31.9185H35.3989V34.9185C35.3989 35.0776 35.4621 35.2302 35.5746 35.3427C35.6871 35.4552 35.8398 35.5185 35.9989 35.5185H37.9069C38.0544 35.9355 38.3504 36.2837 38.7383 36.4967C39.1261 36.7094 39.5788 36.7718 40.0098 36.6721C40.4411 36.5722 40.82 36.3172 41.0751 35.9556C41.3301 35.5941 41.4428 35.1513 41.3919 34.7117C41.3413 34.2721 41.1302 33.8669 40.7994 33.5728C40.4686 33.2789 40.0414 33.1172 39.5989 33.1185L39.5994 33.1186ZM8.3994 35.5186C8.15672 35.5186 7.93788 35.3723 7.84521 35.1482C7.75226 34.924 7.80342 34.666 7.97512 34.4943C8.14681 34.3226 8.40476 34.2715 8.62896 34.3644C8.85315 34.4571 8.9994 34.6759 8.9994 34.9186C8.9994 35.0777 8.93619 35.2304 8.82369 35.3429C8.71119 35.4554 8.55851 35.5186 8.3994 35.5186ZM14.9994 39.1186C14.7567 39.1186 14.5379 38.9723 14.4452 38.7482C14.3523 38.524 14.4034 38.266 14.5751 38.0943C14.7468 37.9226 15.0048 37.8715 15.229 37.9644C15.4532 38.0571 15.5994 38.2759 15.5994 38.5186C15.5994 38.6777 15.5362 38.8304 15.4237 38.9429C15.3112 39.0554 15.1585 39.1186 14.9994 39.1186ZM28.7994 34.9186C28.7994 35.6507 26.9273 36.7186 23.9994 36.7186C21.0715 36.7186 19.1994 35.6507 19.1994 34.9186V32.5545C20.6587 33.3848 22.3218 33.7879 23.9994 33.7186C25.677 33.788 27.3401 33.3848 28.7994 32.5545V34.9186ZM28.7994 30.7186C28.7994 31.4507 26.9273 32.5186 23.9994 32.5186C21.0715 32.5186 19.1994 31.4507 19.1994 30.7186V28.3545C20.6587 29.1848 22.3218 29.5879 23.9994 29.5186C25.677 29.588 27.3401 29.1848 28.7994 28.3545V30.7186ZM23.9994 28.3186C21.0715 28.3186 19.1994 27.2507 19.1994 26.5186C19.1994 25.7865 21.0715 24.7186 23.9994 24.7186C26.9273 24.7186 28.7994 25.7865 28.7994 26.5186C28.7994 27.2507 26.9273 28.3186 23.9994 28.3186ZM32.9994 39.1186C32.7567 39.1186 32.5379 38.9723 32.4452 38.7482C32.3523 38.524 32.4034 38.266 32.5751 38.0943C32.7468 37.9226 33.0048 37.8715 33.229 37.9644C33.4532 38.0571 33.5994 38.2759 33.5994 38.5186C33.5994 38.6777 33.5362 38.8304 33.4237 38.9429C33.3112 39.0554 33.1585 39.1186 32.9994 39.1186ZM34.7994 30.7186H29.9994V26.5186C29.9994 24.8086 27.4194 23.5186 23.9994 23.5186C20.5794 23.5186 17.9994 24.8086 17.9994 26.5186V30.7186H13.1994C10.8414 30.7186 8.66272 29.4607 7.48363 27.4186C6.30482 25.3765 6.30482 22.8607 7.48363 20.8186C8.66272 18.7765 10.8415 17.5186 13.1994 17.5186C13.7627 17.5202 14.3234 17.5947 14.8673 17.7407C15.0431 17.7875 15.2308 17.7522 15.3773 17.6445C15.5236 17.5352 15.612 17.3651 15.6173 17.1827C15.8051 14.3183 17.4425 11.7482 19.959 10.3676C22.4758 8.98706 25.523 8.98706 28.0395 10.3676C30.556 11.7482 32.1934 14.3182 32.3811 17.1827C32.3865 17.3651 32.4749 17.5352 32.6211 17.6445C32.7677 17.7522 32.9554 17.7875 33.1311 17.7407C33.6752 17.5947 34.2358 17.5202 34.7991 17.5186C37.157 17.5186 39.3358 18.7765 40.5148 20.8186C41.6936 22.8607 41.6936 25.3765 40.5148 27.4186C39.3358 29.4607 37.1573 30.7186 34.7994 30.7186ZM39.5994 35.5186C39.3567 35.5186 39.1379 35.3723 39.0452 35.1482C38.9523 34.924 39.0034 34.666 39.1751 34.4943C39.3468 34.3226 39.6048 34.2715 39.829 34.3644C40.0532 34.4571 40.1994 34.6759 40.1994 34.9186C40.1994 35.0777 40.1362 35.2304 40.0237 35.3429C39.9112 35.4554 39.7585 35.5186 39.5994 35.5186Z" fill="white"></path></g></g></svg> 