<?xml version="1.0" encoding="UTF-8"?> <svg xmlns="http://www.w3.org/2000/svg" width="65" height="64" viewBox="0 0 65 64" fill="none"><path fill-rule="evenodd" clip-rule="evenodd" d="M43.9159 49.5804C44.5048 49.5804 44.9822 50.0578 44.9822 50.6467L44.9819 60.123C44.9819 60.7119 44.5045 61.1893 43.9155 61.1892C43.3266 61.1892 42.8492 60.7118 42.8492 60.1229L42.8496 50.6467C42.8496 50.0578 43.327 49.5804 43.9159 49.5804Z" fill="#009ED5"></path><path fill-rule="evenodd" clip-rule="evenodd" d="M10.7222 35.3203C10.1333 35.3203 9.65587 35.7977 9.65589 36.3866L9.65621 45.8629C9.65623 46.4518 10.1337 46.9292 10.7226 46.9291C11.3115 46.9291 11.7889 46.4517 11.7889 45.8628L11.7885 36.3866C11.7885 35.7977 11.3111 35.3203 10.7222 35.3203Z" fill="#009ED5"></path><path fill-rule="evenodd" clip-rule="evenodd" d="M53.3397 26.0828C53.9287 26.0828 54.4061 26.5602 54.406 27.1492L54.4057 36.6254C54.4057 37.2143 53.9283 37.6917 53.3393 37.6917C52.7504 37.6916 52.273 37.2142 52.2731 36.6253L52.2734 27.1491C52.2734 26.5602 52.7508 26.0828 53.3397 26.0828Z" fill="#009ED5"></path><path fill-rule="evenodd" clip-rule="evenodd" d="M28.6915 49.5804C29.2804 49.5804 29.7578 50.0578 29.7578 50.6467L29.7575 60.123C29.7575 60.7119 29.28 61.1893 28.6911 61.1892C28.1022 61.1892 27.6248 60.7118 27.6248 60.1229L27.6252 50.6467C27.6252 50.0578 28.1026 49.5804 28.6915 49.5804Z" fill="#009ED5"></path><path fill-rule="evenodd" clip-rule="evenodd" d="M36.3457 27.4313C33.8894 27.4313 31.8981 29.4226 31.8981 31.8789C31.8981 34.3352 33.8894 36.3264 36.3457 36.3264C38.802 36.3264 40.7932 34.3352 40.7932 31.8789C40.7932 29.4226 38.802 27.4313 36.3457 27.4313ZM29.7655 31.8789C29.7655 28.2447 32.7115 25.2987 36.3457 25.2987C39.9798 25.2987 42.9259 28.2447 42.9259 31.8789C42.9259 35.513 39.9798 38.4591 36.3457 38.4591C32.7115 38.4591 29.7655 35.513 29.7655 31.8789Z" fill="#009ED5"></path><path fill-rule="evenodd" clip-rule="evenodd" d="M18.2878 13.1712C20.7441 13.1712 22.7353 15.1624 22.7353 17.6187C22.7353 20.075 20.7441 22.0662 18.2878 22.0662C15.8315 22.0662 13.8402 20.075 13.8402 17.6187C13.8402 15.1624 15.8315 13.1712 18.2878 13.1712ZM24.868 17.6187C24.868 13.9846 21.9219 11.0385 18.2878 11.0385C14.6537 11.0385 11.7076 13.9846 11.7076 17.6187C11.7076 21.2528 14.6537 24.1989 18.2878 24.1989C21.9219 24.1989 24.868 21.2528 24.868 17.6187Z" fill="#009ED5"></path><path fill-rule="evenodd" clip-rule="evenodd" d="M45.7741 3.93367C43.3178 3.93367 41.3266 5.92491 41.3266 8.38122C41.3266 10.8375 43.3178 12.8288 45.7741 12.8288C48.2304 12.8288 50.2217 10.8375 50.2217 8.38122C50.2217 5.92491 48.2304 3.93367 45.7741 3.93367ZM39.1939 8.38122C39.1939 4.74708 42.14 1.80103 45.7741 1.80103C49.4083 1.80103 52.3543 4.74708 52.3543 8.38122C52.3543 12.0154 49.4083 14.9614 45.7741 14.9614C42.14 14.9614 39.1939 12.0154 39.1939 8.38122Z" fill="#009ED5"></path><path fill-rule="evenodd" clip-rule="evenodd" d="M22.1118 49.0326C22.1118 45.3028 25.1354 42.2792 28.8652 42.2792H43.8971C47.6269 42.2792 50.6505 45.3028 50.6505 49.0326V61.1328C50.6505 61.7217 50.1731 62.1991 49.5842 62.1991H23.1781C22.5892 62.1991 22.1118 61.7217 22.1118 61.1328V49.0326ZM28.8652 44.4119C26.3132 44.4119 24.2445 46.4807 24.2445 49.0326V60.0665H48.5179V49.0326C48.5179 46.4807 46.4491 44.4119 43.8971 44.4119H28.8652Z" fill="#009ED5"></path><path d="M25.7736 28.019H10.7417C7.01187 28.019 3.98828 31.0426 3.98828 34.7724V46.8725C3.98828 47.4615 4.46569 47.9389 5.05461 47.9389H18.8627C19.4516 47.9389 19.929 47.4615 19.929 46.8725C19.929 46.2836 19.4516 45.8062 18.8627 45.8062H6.12093V34.7724C6.12093 32.2204 8.1897 30.1516 10.7417 30.1516H25.7736C26.3333 30.1516 26.8697 30.2511 27.3661 30.4334C27.9068 30.6319 28.5491 30.5225 28.8819 30.0523C29.2311 29.5592 29.1065 28.8662 28.5561 28.617C27.7076 28.2329 26.7656 28.019 25.7736 28.019Z" fill="#009ED5"></path><path d="M38.2883 18.7815H53.3203C57.05 18.7815 60.0736 21.8051 60.0736 25.5349V37.6351C60.0736 38.224 59.5962 38.7014 59.0073 38.7014H45.1992C44.6103 38.7014 44.1329 38.224 44.1329 37.6351C44.1329 37.0462 44.6103 36.5687 45.1992 36.5687H57.941V25.5349C57.941 22.9829 55.8722 20.9141 53.3203 20.9141H38.2883C37.7287 20.9141 37.1923 21.0136 36.6958 21.1959C36.1551 21.3944 35.5128 21.285 35.18 20.8149C34.8309 20.3217 34.9554 19.6288 35.5059 19.3795C36.3543 18.9954 37.2963 18.7815 38.2883 18.7815Z" fill="#009ED5"></path></svg> 