<?xml version="1.0" encoding="UTF-8"?> <svg xmlns="http://www.w3.org/2000/svg" width="48" height="48" viewBox="0 0 48 48" fill="none"> <path fill-rule="evenodd" clip-rule="evenodd" d="M1.66667 13.0533V39.7199H46.3333V13.0533H1.66667ZM1.33333 11.3866C0.596954 11.3866 0 11.9836 0 12.7199V40.0533C0 40.7896 0.596954 41.3866 1.33333 41.3866H46.6667C47.403 41.3866 48 40.7896 48 40.0533V12.7199C48 11.9836 47.403 11.3866 46.6667 11.3866H1.33333Z" fill="white"></path> <path fill-rule="evenodd" clip-rule="evenodd" d="M3.6665 10.48C4.08624 10.48 4.4265 10.1397 4.4265 9.71997C4.4265 9.30023 4.08624 8.95997 3.6665 8.95997C3.24677 8.95997 2.9065 9.30023 2.9065 9.71997C2.9065 10.1397 3.24677 10.48 3.6665 10.48ZM3.6665 10.72C4.21879 10.72 4.6665 10.2723 4.6665 9.71997C4.6665 9.16769 4.21879 8.71997 3.6665 8.71997C3.11422 8.71997 2.6665 9.16769 2.6665 9.71997C2.6665 10.2723 3.11422 10.72 3.6665 10.72Z" fill="white"></path> <path fill-rule="evenodd" clip-rule="evenodd" d="M6.3335 10.48C6.75323 10.48 7.0935 10.1397 7.0935 9.71997C7.0935 9.30023 6.75323 8.95997 6.3335 8.95997C5.91376 8.95997 5.5735 9.30023 5.5735 9.71997C5.5735 10.1397 5.91376 10.48 6.3335 10.48ZM6.3335 10.72C6.88578 10.72 7.3335 10.2723 7.3335 9.71997C7.3335 9.16769 6.88578 8.71997 6.3335 8.71997C5.78121 8.71997 5.3335 9.16769 5.3335 9.71997C5.3335 10.2723 5.78121 10.72 6.3335 10.72Z" fill="white"></path> <path fill-rule="evenodd" clip-rule="evenodd" d="M9 10.48C9.41974 10.48 9.76 10.1397 9.76 9.71997C9.76 9.30023 9.41974 8.95997 9 8.95997C8.58026 8.95997 8.24 9.30023 8.24 9.71997C8.24 10.1397 8.58026 10.48 9 10.48ZM9 10.72C9.55229 10.72 10 10.2723 10 9.71997C10 9.16769 9.55229 8.71997 9 8.71997C8.44772 8.71997 8 9.16769 8 9.71997C8 10.2723 8.44772 10.72 9 10.72Z" fill="white"></path> <path fill-rule="evenodd" clip-rule="evenodd" d="M1.66667 8.38664V11.72H46.3333V8.38664H1.66667ZM1.33333 6.71997C0.596954 6.71997 0 7.31692 0 8.0533V12.0533C0 12.7897 0.596954 13.3866 1.33333 13.3866H46.6667C47.403 13.3866 48 12.7897 48 12.0533V8.0533C48 7.31692 47.403 6.71997 46.6667 6.71997H1.33333Z" fill="white"></path> <path fill-rule="evenodd" clip-rule="evenodd" d="M15.5 18C15.7761 18 16 18.1957 16 18.4371L16 34.5629C16 34.8043 15.7761 35 15.5 35C15.2239 35 15 34.8043 15 34.5629L15 18.4371C15 18.1957 15.2239 18 15.5 18Z" fill="white"></path> <path fill-rule="evenodd" clip-rule="evenodd" d="M15.5 17.75C15.8816 17.75 16.25 18.0272 16.25 18.4371L16.25 34.5629C16.25 34.9728 15.8816 35.25 15.5 35.25C15.1184 35.25 14.75 34.9728 14.75 34.5629L14.75 18.4371C14.75 18.0272 15.1184 17.75 15.5 17.75ZM15.75 18.4371C15.75 18.3643 15.6707 18.25 15.5 18.25C15.3293 18.25 15.25 18.3643 15.25 18.4371L15.25 34.5629C15.25 34.6357 15.3293 34.75 15.5 34.75C15.6707 34.75 15.75 34.6357 15.75 34.5629L15.75 18.4371Z" fill="white"></path> <path fill-rule="evenodd" clip-rule="evenodd" d="M15 34.5C15 34.2239 15.2042 34 15.456 34H33.544C33.7958 34 34 34.2239 34 34.5C34 34.7761 33.7958 35 33.544 35H15.456C15.2042 35 15 34.7761 15 34.5Z" fill="white"></path> <path fill-rule="evenodd" clip-rule="evenodd" d="M14.75 34.5C14.75 34.108 15.0449 33.75 15.456 33.75H33.544C33.9551 33.75 34.25 34.108 34.25 34.5C34.25 34.892 33.9551 35.25 33.544 35.25H15.456C15.0449 35.25 14.75 34.892 14.75 34.5ZM15.456 34.25C15.3634 34.25 15.25 34.3398 15.25 34.5C15.25 34.6602 15.3634 34.75 15.456 34.75H33.544C33.6366 34.75 33.75 34.6602 33.75 34.5C33.75 34.3398 33.6366 34.25 33.544 34.25H15.456Z" fill="white"></path> <path fill-rule="evenodd" clip-rule="evenodd" d="M33.5 35C33.2239 35 33 34.803 33 34.56L33 24.44C33 24.197 33.2239 24 33.5 24C33.7761 24 34 24.197 34 24.44L34 34.56C34 34.803 33.7761 35 33.5 35Z" fill="white"></path> <path fill-rule="evenodd" clip-rule="evenodd" d="M33.5 35.25C33.1168 35.25 32.75 34.9701 32.75 34.56L32.75 24.44C32.75 24.0299 33.1168 23.75 33.5 23.75C33.8832 23.75 34.25 24.0299 34.25 24.44L34.25 34.56C34.25 34.9701 33.8832 35.25 33.5 35.25ZM33.25 34.56C33.25 34.6359 33.3309 34.75 33.5 34.75C33.6691 34.75 33.75 34.6359 33.75 34.56L33.75 24.44C33.75 24.3641 33.6691 24.25 33.5 24.25C33.3309 24.25 33.25 24.3641 33.25 24.44L33.25 34.56Z" fill="white"></path> <path fill-rule="evenodd" clip-rule="evenodd" d="M15 18.5C15 18.2239 15.2157 18 15.4818 18H25.5182C25.7843 18 26 18.2239 26 18.5C26 18.7761 25.7843 19 25.5182 19H15.4818C15.2157 19 15 18.7761 15 18.5Z" fill="white"></path> <path fill-rule="evenodd" clip-rule="evenodd" d="M14.75 18.5C14.75 18.0946 15.0689 17.75 15.4818 17.75H25.5182C25.9311 17.75 26.25 18.0946 26.25 18.5C26.25 18.9054 25.9311 19.25 25.5182 19.25H15.4818C15.0689 19.25 14.75 18.9054 14.75 18.5ZM15.4818 18.25C15.3624 18.25 15.25 18.3531 15.25 18.5C15.25 18.6469 15.3624 18.75 15.4818 18.75H25.5182C25.6376 18.75 25.75 18.6469 25.75 18.5C25.75 18.3531 25.6376 18.25 25.5182 18.25H15.4818Z" fill="white"></path> <path fill-rule="evenodd" clip-rule="evenodd" d="M24.6877 21.5538L28.7557 21.5538C29.0054 21.5538 29.2077 21.7562 29.2077 22.0058L29.2077 26.0738C29.2077 26.3234 29.0054 26.5258 28.7557 26.5258C28.5061 26.5258 28.3037 26.3234 28.3037 26.0738V23.097L19.0309 32.3698C18.8544 32.5464 18.5682 32.5464 18.3917 32.3698C18.2152 32.1933 18.2152 31.9071 18.3917 31.7306L27.6645 22.4578L24.6877 22.4578C24.4381 22.4578 24.2357 22.2554 24.2357 22.0058C24.2357 21.7562 24.4381 21.5538 24.6877 21.5538Z" fill="white"></path> <path fill-rule="evenodd" clip-rule="evenodd" d="M23.9858 22.0058C23.9858 21.6181 24.3001 21.3038 24.6878 21.3038L28.7558 21.3038C29.1435 21.3038 29.4578 21.6181 29.4578 22.0058L29.4578 26.0738C29.4578 26.4615 29.1435 26.7758 28.7558 26.7758C28.3681 26.7758 28.0538 26.4615 28.0538 26.0738V23.7006L19.2077 32.5466C18.9336 32.8208 18.4891 32.8208 18.215 32.5466C17.9408 32.2725 17.9408 31.828 18.215 31.5538L27.061 22.7078L24.6878 22.7078C24.3001 22.7078 23.9858 22.3935 23.9858 22.0058ZM24.6878 21.8038C24.5762 21.8038 24.4858 21.8942 24.4858 22.0058C24.4858 22.1174 24.5762 22.2078 24.6878 22.2078H28.2681L18.5685 31.9074C18.4896 31.9863 18.4896 32.1142 18.5685 32.1931C18.6474 32.272 18.7753 32.272 18.8542 32.1931L28.5538 22.4935V26.0738C28.5538 26.1854 28.6442 26.2758 28.7558 26.2758C28.8673 26.2758 28.9578 26.1854 28.9578 26.0738L28.9578 22.0058C28.9578 21.8942 28.8673 21.8038 28.7558 21.8038L24.6878 21.8038Z" fill="white"></path> </svg> 