<?xml version="1.0" encoding="UTF-8"?> <svg xmlns="http://www.w3.org/2000/svg" width="48" height="48" viewBox="0 0 48 48" fill="none"> <path fill-rule="evenodd" clip-rule="evenodd" d="M1.66667 13.0533V39.7199H46.3333V13.0533H1.66667ZM1.33333 11.3866C0.596954 11.3866 0 11.9836 0 12.7199V40.0533C0 40.7896 0.596954 41.3866 1.33333 41.3866H46.6667C47.403 41.3866 48 40.7896 48 40.0533V12.7199C48 11.9836 47.403 11.3866 46.6667 11.3866H1.33333Z" fill="white"></path> <path fill-rule="evenodd" clip-rule="evenodd" d="M3.6665 10.48C4.08624 10.48 4.4265 10.1397 4.4265 9.71997C4.4265 9.30023 4.08624 8.95997 3.6665 8.95997C3.24677 8.95997 2.9065 9.30023 2.9065 9.71997C2.9065 10.1397 3.24677 10.48 3.6665 10.48ZM3.6665 10.72C4.21879 10.72 4.6665 10.2723 4.6665 9.71997C4.6665 9.16769 4.21879 8.71997 3.6665 8.71997C3.11422 8.71997 2.6665 9.16769 2.6665 9.71997C2.6665 10.2723 3.11422 10.72 3.6665 10.72Z" fill="white"></path> <path fill-rule="evenodd" clip-rule="evenodd" d="M6.3335 10.48C6.75323 10.48 7.0935 10.1397 7.0935 9.71997C7.0935 9.30023 6.75323 8.95997 6.3335 8.95997C5.91376 8.95997 5.5735 9.30023 5.5735 9.71997C5.5735 10.1397 5.91376 10.48 6.3335 10.48ZM6.3335 10.72C6.88578 10.72 7.3335 10.2723 7.3335 9.71997C7.3335 9.16769 6.88578 8.71997 6.3335 8.71997C5.78121 8.71997 5.3335 9.16769 5.3335 9.71997C5.3335 10.2723 5.78121 10.72 6.3335 10.72Z" fill="white"></path> <path fill-rule="evenodd" clip-rule="evenodd" d="M9 10.48C9.41974 10.48 9.76 10.1397 9.76 9.71997C9.76 9.30023 9.41974 8.95997 9 8.95997C8.58026 8.95997 8.24 9.30023 8.24 9.71997C8.24 10.1397 8.58026 10.48 9 10.48ZM9 10.72C9.55228 10.72 10 10.2723 10 9.71997C10 9.16769 9.55228 8.71997 9 8.71997C8.44772 8.71997 8 9.16769 8 9.71997C8 10.2723 8.44772 10.72 9 10.72Z" fill="white"></path> <path fill-rule="evenodd" clip-rule="evenodd" d="M1.66667 8.38664V11.72H46.3333V8.38664H1.66667ZM1.33333 6.71997C0.596954 6.71997 0 7.31692 0 8.0533V12.0533C0 12.7897 0.596954 13.3866 1.33333 13.3866H46.6667C47.403 13.3866 48 12.7897 48 12.0533V8.0533C48 7.31692 47.403 6.71997 46.6667 6.71997H1.33333Z" fill="white"></path> <path fill-rule="evenodd" clip-rule="evenodd" d="M25.025 29.1V20.9H40.725V29.1H25.025ZM24.575 30C24.3265 30 24.125 29.7985 24.125 29.55V20.45C24.125 20.2015 24.3265 20 24.575 20H41.175C41.4235 20 41.625 20.2015 41.625 20.45V29.55C41.625 29.7985 41.4235 30 41.175 30H24.575Z" fill="white"></path> <path fill-rule="evenodd" clip-rule="evenodd" d="M25.3252 28.8V21.2001H40.4252V28.8H25.3252ZM23.8252 29.55C23.8252 29.9643 24.161 30.3 24.5752 30.3H41.1752C41.5894 30.3 41.9252 29.9643 41.9252 29.55V20.4501C41.9252 20.0358 41.5894 19.7001 41.1752 19.7001H24.5752C24.161 19.7001 23.8252 20.0358 23.8252 20.4501V29.55ZM25.0252 29.1H40.7252V20.9001H25.0252V29.1ZM24.1252 29.55C24.1252 29.7986 24.3267 30 24.5752 30H41.1752C41.4237 30 41.6252 29.7986 41.6252 29.55V20.4501C41.6252 20.2015 41.4237 20.0001 41.1752 20.0001H24.5752C24.3267 20.0001 24.1252 20.2015 24.1252 20.4501V29.55Z" fill="white"></path> <path fill-rule="evenodd" clip-rule="evenodd" d="M6 27.95C6 28.1986 6.20147 28.4 6.45 28.4H20.55C20.7985 28.4 21 28.1986 21 27.95C21 27.7015 20.7985 27.5 20.55 27.5H6.45C6.20147 27.5 6 27.7015 6 27.95Z" fill="white"></path> <path fill-rule="evenodd" clip-rule="evenodd" d="M5.5 27.95C5.5 28.4747 5.92533 28.9 6.45 28.9H20.55C21.0747 28.9 21.5 28.4747 21.5 27.95C21.5 27.4254 21.0747 27 20.55 27H6.45C5.92533 27 5.5 27.4254 5.5 27.95Z" fill="white"></path> <path fill-rule="evenodd" clip-rule="evenodd" d="M6 24.825C6 25.0736 6.20147 25.275 6.45 25.275H20.55C20.7985 25.275 21 25.0736 21 24.825C21 24.5765 20.7985 24.375 20.55 24.375H6.45C6.20147 24.375 6 24.5765 6 24.825Z" fill="white"></path> <path fill-rule="evenodd" clip-rule="evenodd" d="M5.5 24.825C5.5 25.3497 5.92533 25.775 6.45 25.775H20.55C21.0747 25.775 21.5 25.3497 21.5 24.825C21.5 24.3004 21.0747 23.875 20.55 23.875H6.45C5.92533 23.875 5.5 24.3004 5.5 24.825Z" fill="white"></path> <path fill-rule="evenodd" clip-rule="evenodd" d="M6 21.7C6 21.9486 6.20147 22.15 6.45 22.15H20.55C20.7985 22.15 21 21.9486 21 21.7C21 21.4515 20.7985 21.25 20.55 21.25H6.45C6.20147 21.25 6 21.4515 6 21.7Z" fill="white"></path> <path fill-rule="evenodd" clip-rule="evenodd" d="M5.5 21.7C5.5 22.2247 5.92533 22.65 6.45 22.65H20.55C21.0747 22.65 21.5 22.2247 21.5 21.7C21.5 21.1754 21.0747 20.75 20.55 20.75H6.45C5.92533 20.75 5.5 21.1754 5.5 21.7Z" fill="white"></path> </svg> 