<?xml version="1.0" encoding="UTF-8"?> <svg xmlns="http://www.w3.org/2000/svg" width="200" height="137" viewBox="0 0 200 137" fill="none"> <g opacity="0.5"> <path fill-rule="evenodd" clip-rule="evenodd" d="M5.74529 0.00703182H193.967C195.573 0.00703182 196.713 -0.0305769 197.768 1.10152L197.782 1.10809C198.845 2.24019 199.5 3.80055 199.5 5.52804V130.742C199.5 132.462 198.844 134.03 197.782 135.162C196.713 136.306 195.241 137 193.625 137L138.061 136.998C136.44 136.998 134.967 136.303 133.903 135.161C133.863 135.125 133.831 135.084 133.803 135.051C132.799 133.924 132.178 132.404 132.178 130.742V115.237L101.051 115.234V124.342L122.692 124.344C123.618 124.344 124.372 125.148 124.372 126.139L124.37 135.169C124.37 136.155 123.617 136.45 122.69 136.45L41.0643 136.449C40.1336 136.449 39.3847 136.153 39.3847 135.167V126.137C39.3847 125.146 40.1336 124.342 41.0643 124.342H62.8843V115.234L5.50148 114.501C3.88047 114.501 2.40739 113.797 1.34424 112.667C1.37659 112.701 1.50942 112.505 1.34424 112.667C0.339578 111.534 0.511456 110.175 0.511456 108.514V97.5502C0.505293 97.4797 0.511567 97.4157 0.511567 97.3451L0.5 6.18681C0.5 4.51981 0.511695 3.25429 1.01068 2.25657C2.00864 0.759984 3.70663 0.17721 5.09033 0.0262517H5.20698L5.26399 0.0147666H5.35028L5.41654 0.00820367H5.50129L5.56754 0.00164073L5.57217 0L5.74529 0.00703182ZM71.5029 106.519H92.243C93.1691 106.519 93.9225 106.262 93.9225 105.276C93.9225 104.285 93.169 104.024 92.243 104.024H71.5029C70.5768 104.024 69.8234 104.286 69.8234 105.276C69.8234 106.262 70.5769 106.519 71.5029 106.519ZM164.245 31.1905H183.38C184.312 31.1905 185.065 31.4783 185.065 32.4643C185.065 33.4504 184.312 33.6848 183.38 33.6848H164.245L164.046 106.519H173.16C174.092 106.519 174.158 106.519 174.158 106.965V122.969C174.158 123.955 174.326 123.764 173.394 123.764H158.364C157.432 123.764 157.428 123.955 157.428 122.969V115.24L134.738 115.237V130.963C134.738 131.662 134.822 132.479 135.237 132.958L135.736 133.457C136.186 133.941 137.038 134.455 137.732 134.455H193.625C194.312 134.455 195.66 133.939 196.113 133.457C196.57 132.97 197.111 131.476 197.111 130.742V5.52804C197.111 4.78644 196.563 3.23943 196.113 2.75543C195.651 2.26811 194.313 2.25657 193.618 2.25657L163.032 2.3829L163.688 2.88457H163.694L163.705 2.92067L163.718 2.95676L163.725 2.96333L163.735 3.00106L163.749 3.02731V3.04372L163.769 3.07982L163.774 3.10115L163.78 3.12412L163.8 3.16678V3.17334L163.811 3.20123L163.825 3.24389L163.839 3.27998L163.849 3.31608V3.32264L163.869 3.3653L163.876 3.38827V3.39976L163.893 3.44242L163.899 3.45718V3.47851L163.913 3.52773L163.919 3.5343L163.929 3.56219L163.943 3.60484V3.61141L163.95 3.6475L163.963 3.68524L163.974 3.73282L163.98 3.75579V3.76236L163.986 3.76892L164 3.8165V3.83127L164.005 3.85424L164.019 3.8969V3.90838L164.025 3.93956L164.04 3.98221L164.051 4.02487L164.057 4.06097V4.06753L164.071 4.11019V4.12824L164.077 4.143L164.082 4.18566V4.21355L164.088 4.22832L164.102 4.27098V4.28574L164.108 4.32184L164.114 4.3645L164.119 4.40716L164.125 4.44325V4.44981L164.131 4.49247L164.137 4.52037L164.144 4.53513V4.57779L164.15 4.59584V4.61881L164.154 4.66803L164.161 4.67295V4.71069L164.173 4.79601V4.83866L164.179 4.88789L164.185 4.90594V4.98141L164.19 5.01259L164.196 5.06017V5.14548L164.202 5.18814V5.32924L164.208 5.3719L164.215 30.6718L164.245 31.1905ZM159.975 121.169H171.674V108.747H164.046C164.046 110.471 163.484 112.122 162.421 113.256L162.407 113.277L162.39 113.292L162.356 113.328L162.32 113.356L162.304 113.377L162.256 113.428H162.25L162.225 113.464L162.199 113.482L162.185 113.489L162.156 113.525L162.145 113.531L162.116 113.554L162.089 113.581L162.083 113.587L162.049 113.615L162.035 113.63L162.015 113.646L161.981 113.674L161.968 113.681L161.941 113.709L161.92 113.723L161.903 113.738L161.863 113.774L161.829 113.802L161.807 113.817L161.79 113.828L161.755 113.86L161.715 113.887L161.698 113.909L161.678 113.914L161.644 113.945L161.638 113.951L161.604 113.969L161.578 113.991L161.572 113.996L161.532 114.027L161.518 114.033L161.491 114.051L161.465 114.074L161.451 114.079L161.411 114.101L161.398 114.107L161.371 114.125L161.337 114.147L161.336 114.143L161.296 114.171L161.282 114.186L161.256 114.193L161.176 114.248L161.156 114.255L161.139 114.27L161.099 114.288L161.059 114.311L161.038 114.329L161.022 114.335L160.975 114.358H160.969L160.944 114.376L160.911 114.391L160.897 114.403L160.857 114.426H160.843L160.817 114.44L160.783 114.458L160.769 114.465L160.729 114.48L160.718 114.485L160.689 114.499L160.649 114.521H160.643L160.598 114.539L160.584 114.545L160.558 114.552L160.518 114.573L160.471 114.595L160.442 114.601L160.431 114.608L160.385 114.626L160.339 114.647L160.319 114.652L160.302 114.659L160.256 114.673L160.21 114.691L160.183 114.698L160.166 114.706L160.12 114.727L160.109 114.734L160.075 114.739L160.04 114.754H160.035L159.989 114.775H159.975L159.941 114.787L159.975 121.169ZM2.89011 96.5413L161.688 96.5266L161.683 4.75087L161.677 4.71478V4.67868L161.671 4.64751V4.61141L161.666 4.57531V4.53922L161.652 4.50312V4.43913L161.638 4.40304V4.36694L161.628 4.33577V4.29967L161.621 4.27178L161.607 4.23568L161.601 4.20779L161.595 4.17169L161.584 4.1356L161.578 4.10934L161.572 4.07817L161.558 4.04208L161.554 4.01418L161.54 3.97809L161.526 3.94691L161.52 3.91082L161.498 3.9141L161.492 3.88292L161.47 3.85503L161.466 3.81894L161.446 3.79104L161.44 3.75987L161.429 3.73198L161.407 3.70572L161.393 3.67455L161.383 3.64666L161.369 3.61877L161.347 3.58759L161.336 3.5515L161.322 3.53345L161.307 3.50227L161.29 3.47438L161.27 3.44649L161.259 3.41532L161.239 3.38742L161.228 3.36445L161.208 3.33656L161.191 3.30867L161.178 3.27749L161.158 3.25945L161.131 3.22827L161.117 3.20038L161.101 3.18233L161.08 3.15936L161.064 3.13147L161.044 3.10029L161.027 3.08881L161.007 3.05763L160.98 3.03959L160.833 2.9067C160.594 2.64746 160.283 2.58838 159.964 2.45548L159.835 2.40095L159.815 2.38947H159.811L159.789 2.3829L159.737 2.36814L159.732 2.36157H159.718L159.704 2.35501H159.698L159.681 2.35009L159.667 2.34353L159.616 2.33696L159.596 2.3222H159.573L159.567 2.31563H159.561L159.544 2.31071H159.538L159.509 2.30415L159.469 2.30251H159.445L159.419 2.28774H159.39L159.364 2.28118H159.331L159.317 2.27461H159.301L159.287 2.26969H159.242L159.225 2.26313H159.199L159.194 2.25657H5.09033C4.48475 2.31071 3.91678 2.61818 3.50535 3.05955L3.30232 3.25429C2.84779 3.73829 2.5704 4.41428 2.5704 5.15425L2.89011 95.5576V96.5413ZM2.88531 99.1416L2.50739 109.013C2.50739 109.717 2.83201 110.675 3.00637 111.008L3.50535 112.006C3.96301 112.485 4.69449 112.875 5.38172 112.875L158.364 113.238C159.051 113.238 160.541 112.1 160.961 111.59C161.38 111.083 161.863 109.711 161.863 108.973V99.1416H2.88531ZM65.2483 115.234V124.342H98.5205V115.234H65.2483ZM41.927 134.215H121.764V126.626H41.927V134.215ZM159.641 2.35221L159.624 2.34564H159.593L159.641 2.35221Z" fill="white"></path> <path d="M63.9652 44.64C64.1752 44.08 64.5718 43.8 65.1552 43.8H66.3102C66.5435 43.8 66.7418 43.8817 66.9052 44.045C67.0685 44.2083 67.1502 44.4067 67.1502 44.64L67.1152 44.92L61.7602 61.02C61.5502 61.6733 61.2002 62 60.7102 62H59.6252C59.3452 62 59.1235 61.9183 58.9602 61.755C58.7968 61.5683 58.6568 61.3233 58.5402 61.02L54.3752 49.4L50.2102 61.02C50.0935 61.3233 49.9535 61.5683 49.7902 61.755C49.6268 61.9183 49.4052 62 49.1252 62H48.0402C47.5502 62 47.2002 61.6733 46.9902 61.02L41.6352 44.92L41.6002 44.64C41.6002 44.4067 41.6818 44.2083 41.8452 44.045C42.0085 43.8817 42.2068 43.8 42.4402 43.8H43.5952C44.1785 43.8 44.5752 44.08 44.7852 44.64L48.7052 56.33L52.9052 44.64C53.1152 44.08 53.4768 43.8 53.9902 43.8H54.7602C55.2735 43.8 55.6352 44.08 55.8452 44.64L60.0452 56.33L63.9652 44.64ZM92.0951 44.64C92.3051 44.08 92.7017 43.8 93.2851 43.8H94.4401C94.6734 43.8 94.8717 43.8817 95.0351 44.045C95.1984 44.2083 95.2801 44.4067 95.2801 44.64L95.2451 44.92L89.8901 61.02C89.6801 61.6733 89.3301 62 88.8401 62H87.7551C87.4751 62 87.2534 61.9183 87.0901 61.755C86.9267 61.5683 86.7867 61.3233 86.6701 61.02L82.5051 49.4L78.3401 61.02C78.2234 61.3233 78.0834 61.5683 77.9201 61.755C77.7567 61.9183 77.5351 62 77.2551 62H76.1701C75.6801 62 75.3301 61.6733 75.1201 61.02L69.7651 44.92L69.7301 44.64C69.7301 44.4067 69.8117 44.2083 69.9751 44.045C70.1384 43.8817 70.3367 43.8 70.5701 43.8H71.7251C72.3084 43.8 72.7051 44.08 72.9151 44.64L76.8351 56.33L81.0351 44.64C81.2451 44.08 81.6067 43.8 82.1201 43.8H82.8901C83.4034 43.8 83.7651 44.08 83.9751 44.64L88.1751 56.33L92.0951 44.64ZM120.225 44.64C120.435 44.08 120.832 43.8 121.415 43.8H122.57C122.803 43.8 123.002 43.8817 123.165 44.045C123.328 44.2083 123.41 44.4067 123.41 44.64L123.375 44.92L118.02 61.02C117.81 61.6733 117.46 62 116.97 62H115.885C115.605 62 115.383 61.9183 115.22 61.755C115.057 61.5683 114.917 61.3233 114.8 61.02L110.635 49.4L106.47 61.02C106.353 61.3233 106.213 61.5683 106.05 61.755C105.887 61.9183 105.665 62 105.385 62H104.3C103.81 62 103.46 61.6733 103.25 61.02L97.8949 44.92L97.8599 44.64C97.8599 44.4067 97.9416 44.2083 98.1049 44.045C98.2683 43.8817 98.4666 43.8 98.6999 43.8H99.8549C100.438 43.8 100.835 44.08 101.045 44.64L104.965 56.33L109.165 44.64C109.375 44.08 109.737 43.8 110.25 43.8H111.02C111.533 43.8 111.895 44.08 112.105 44.64L116.305 56.33L120.225 44.64Z" fill="white"></path> </g> </svg> 