<?xml version="1.0" encoding="UTF-8"?> <svg xmlns="http://www.w3.org/2000/svg" width="48" height="48" viewBox="0 0 48 48" fill="none"><path d="M40.8333 4H14.2333C12.4874 4 11.0667 5.42077 11.0667 7.16667V35.0333H6.63333C6.28359 35.0333 6 35.3166 6 35.6667V38.8333C6 40.5792 7.42077 42 9.16667 42H35.7667C37.5126 42 38.9333 40.5792 38.9333 38.8333V14.7667H43.3667C43.7164 14.7667 44 14.4834 44 14.1333V7.16667C44 5.42077 42.5792 4 40.8333 4ZM9.16667 40.7333C8.11881 40.7333 7.26667 39.8812 7.26667 38.8333V36.3H32.6V38.8333C32.6 39.5458 32.8366 40.2038 33.2347 40.7333H9.16667ZM37.6667 38.8333C37.6667 39.8812 36.8145 40.7333 35.7667 40.7333C34.7188 40.7333 33.8667 39.8812 33.8667 38.8333V35.6667C33.8667 35.3166 33.5831 35.0333 33.2333 35.0333H12.3333V7.16667C12.3333 6.11881 13.1855 5.26667 14.2333 5.26667H38.3014C38.2831 5.29098 38.2698 5.31897 38.2523 5.34385C38.2149 5.39644 38.1827 5.45158 38.1488 5.50643C38.0826 5.61302 38.0224 5.72272 37.9689 5.83723C37.9401 5.89915 37.9127 5.9605 37.8878 6.0244C37.8403 6.14654 37.8027 6.27236 37.7705 6.40129C37.7555 6.46066 37.7371 6.51834 37.7258 6.57913C37.6899 6.77026 37.6667 6.96535 37.6667 7.16666L37.6667 38.8333ZM42.7333 13.5H38.9333V7.16667C38.9333 6.11881 39.7855 5.26667 40.8333 5.26667C41.8812 5.26667 42.7333 6.11881 42.7333 7.16667V13.5Z" fill="#009ED5"></path></svg> 