<?xml version="1.0" encoding="UTF-8"?> <svg xmlns="http://www.w3.org/2000/svg" width="48" height="48" viewBox="0 0 48 48" fill="none"> <path d="M19.9027 35.7557C20.0334 35.8158 20.1638 35.836 20.2945 35.836C20.6864 35.836 21.0581 35.6047 21.2187 35.2233L28.5425 18.144C28.7636 17.6315 28.5223 17.039 28.0102 16.8279C27.5077 16.6068 26.9051 16.8481 26.694 17.3502L19.3703 34.4295C19.1491 34.942 19.3901 35.5349 19.9026 35.7556L19.9027 35.7557Z" fill="white"></path> <path d="M30.7829 33.1831C30.9839 33.3841 31.2349 33.4745 31.496 33.4745C31.7572 33.4745 32.0086 33.374 32.2092 33.1831L37.8956 27.4967C38.2875 27.1048 38.2875 26.472 37.8956 26.0802L32.2092 20.3938C31.8173 20.0019 31.1845 20.0019 30.7926 20.3938C30.4008 20.7856 30.4007 21.4184 30.7926 21.8103L35.7655 26.7832L30.7926 31.756C30.3911 32.1584 30.3911 32.7917 30.7829 33.1831H30.7829Z" fill="white"></path> <path d="M15.7132 33.1832C15.9142 33.3842 16.1652 33.4746 16.4263 33.4746C16.6874 33.4746 16.9388 33.3741 17.1394 33.1832C17.5313 32.7914 17.5313 32.1585 17.1394 31.7667L12.1568 26.7938L17.1297 21.8209C17.5216 21.4291 17.5216 20.7962 17.1297 20.4044C16.7378 20.0125 16.105 20.0125 15.7132 20.4044L10.0267 26.0908C9.83584 26.2817 9.73535 26.5327 9.73535 26.8039C9.73535 27.0751 9.84593 27.3262 10.0267 27.517L15.7132 33.1832Z" fill="white"></path> <path fill-rule="evenodd" clip-rule="evenodd" d="M1.66667 13.0533V39.7199H46.3333V13.0533H1.66667ZM1.33333 11.3866C0.596954 11.3866 0 11.9836 0 12.7199V40.0533C0 40.7896 0.596954 41.3866 1.33333 41.3866H46.6667C47.403 41.3866 48 40.7896 48 40.0533V12.7199C48 11.9836 47.403 11.3866 46.6667 11.3866H1.33333Z" fill="white"></path> <path d="M4.4165 9.71997C4.4165 10.1342 4.08072 10.47 3.6665 10.47C3.25229 10.47 2.9165 10.1342 2.9165 9.71997C2.9165 9.30576 3.25229 8.96997 3.6665 8.96997C4.08072 8.96997 4.4165 9.30576 4.4165 9.71997Z" stroke="white" stroke-width="0.5"></path> <path d="M7.0835 9.71997C7.0835 10.1342 6.74771 10.47 6.3335 10.47C5.91928 10.47 5.5835 10.1342 5.5835 9.71997C5.5835 9.30576 5.91928 8.96997 6.3335 8.96997C6.74771 8.96997 7.0835 9.30576 7.0835 9.71997Z" stroke="white" stroke-width="0.5"></path> <path d="M9.75 9.71997C9.75 10.1342 9.41421 10.47 9 10.47C8.58579 10.47 8.25 10.1342 8.25 9.71997C8.25 9.30576 8.58579 8.96997 9 8.96997C9.41421 8.96997 9.75 9.30576 9.75 9.71997Z" stroke="white" stroke-width="0.5"></path> <path fill-rule="evenodd" clip-rule="evenodd" d="M1.66667 8.38664V11.72H46.3333V8.38664H1.66667ZM1.33333 6.71997C0.596954 6.71997 0 7.31692 0 8.0533V12.0533C0 12.7897 0.596954 13.3866 1.33333 13.3866H46.6667C47.403 13.3866 48 12.7897 48 12.0533V8.0533C48 7.31692 47.403 6.71997 46.6667 6.71997H1.33333Z" fill="white"></path> </svg> 