<?xml version="1.0" encoding="UTF-8"?> <svg xmlns="http://www.w3.org/2000/svg" width="65" height="64" viewBox="0 0 65 64" fill="none"> <path d="M12.9555 44.6436C12.6187 44.6436 12.3452 44.37 12.3452 44.0333V12.244C12.3452 11.9073 12.6187 11.6338 12.9555 11.6338C13.2922 11.6338 13.5657 11.9073 13.5657 12.244V44.0333C13.5657 44.37 13.2926 44.6436 12.9555 44.6436Z" fill="#199FD3"></path> <path d="M6.29237 47.2278C5.95565 47.2278 5.68213 46.9543 5.68213 46.6176V15.5756C5.68213 13.402 7.45037 11.6338 9.62392 11.6338H35.5831C36.6852 11.6338 37.582 12.5309 37.582 13.6327V20.107C37.582 20.4438 37.3085 20.7173 36.9718 20.7173C36.6351 20.7173 36.3616 20.4438 36.3616 20.107V13.6316C36.3616 13.2033 36.0126 12.8528 35.5828 12.8528H9.62453C8.12479 12.8528 6.90318 14.0733 6.90318 15.5742V46.6162C6.90318 46.9544 6.62966 47.228 6.29294 47.228L6.29237 47.2278ZM36.9706 44.6433C36.6338 44.6433 36.3603 44.3698 36.3603 44.033V40.9136C36.3603 40.5769 36.6338 40.3034 36.9706 40.3034C37.3073 40.3034 37.5808 40.5769 37.5808 40.9136V44.033C37.5808 44.3698 37.3073 44.6433 36.9706 44.6433Z" fill="#199FD3"></path> <path d="M36.9703 48.3225H11.014C10.6773 48.3225 10.4038 48.049 10.4038 47.7123C10.4038 47.3756 10.6773 47.1021 11.014 47.1021H36.9703C37.3071 47.1021 37.5806 47.3756 37.5806 47.7123C37.5806 48.0493 37.3071 48.3225 36.9703 48.3225Z" fill="#199FD3"></path> <path d="M39.1013 33.0769C39.0365 33.0769 38.9718 33.0673 38.9086 33.0451L19.2315 26.511C18.9825 26.4279 18.814 26.195 18.814 25.9326C18.814 25.6702 18.9825 25.4357 19.2315 25.3542L38.9086 18.8201C39.0331 18.7787 39.1687 18.7787 39.2932 18.8201L58.9702 25.3542C59.2204 25.4373 59.3878 25.6702 59.3878 25.9326C59.3878 26.195 59.2192 26.4294 58.9702 26.511L39.2932 33.0451C39.2307 33.0669 39.166 33.0769 39.1013 33.0769H39.1013ZM21.36 25.9326L39.1022 31.8234L56.8435 25.9326L39.1022 20.0417L21.36 25.9326Z" fill="#199FD3"></path> <path d="M39.1009 36.4406C39.0362 36.4406 38.9714 36.431 38.9082 36.4088L27.5031 32.6221C27.1832 32.516 27.0101 32.1705 27.1162 31.851C27.2223 31.5311 27.5678 31.358 27.8873 31.4641L39.1002 35.1876L50.3142 31.4641C50.634 31.358 50.9792 31.5311 51.0853 31.851C51.1914 32.1708 51.0182 32.516 50.6984 32.6221L39.2932 36.4088C39.2312 36.4294 39.1664 36.4406 39.1017 36.4406H39.1009Z" fill="#199FD3"></path> <path d="M39.1013 41.6267C35.1912 41.6267 31.2797 40.5345 27.396 38.3487C27.2045 38.24 27.085 38.0377 27.085 37.8167V28.6808C27.085 28.3441 27.3585 28.0706 27.6952 28.0706C28.0319 28.0706 28.3054 28.3441 28.3054 28.6808V37.4577C35.4716 41.3766 42.732 41.3766 49.8968 37.4577V28.6808C49.8968 28.3441 50.1703 28.0706 50.507 28.0706C50.8437 28.0706 51.1172 28.3441 51.1172 28.6808V37.8167C51.1172 38.0377 50.9989 38.24 50.8062 38.3487C46.9226 40.5334 43.0115 41.6267 39.101 41.6267H39.1013Z" fill="#199FD3"></path> <path d="M54.6527 36.1339C54.316 36.1339 54.0425 35.8604 54.0425 35.5237V27.3034C54.0425 26.9666 54.316 26.6931 54.6527 26.6931C54.9894 26.6931 55.263 26.9666 55.263 27.3034V35.5237C55.263 35.8604 54.9894 36.1339 54.6527 36.1339Z" fill="#199FD3"></path> <path d="M55.5458 40.4893H53.758C53.0003 40.4893 52.3828 39.8729 52.3828 39.1141V36.2878C52.3828 35.5301 52.9992 34.9126 53.758 34.9126H55.5458C56.3035 34.9126 56.9209 35.529 56.9209 36.2878V39.1141C56.9209 39.8729 56.3034 40.4893 55.5458 40.4893ZM53.758 36.1337C53.6737 36.1337 53.6029 36.2046 53.6029 36.2889V39.1151C53.6029 39.1994 53.6737 39.2703 53.758 39.2703H55.5458C55.63 39.2703 55.7009 39.1994 55.7009 39.1151V36.2889C55.7009 36.2046 55.63 36.1337 55.5458 36.1337H53.758Z" fill="#199FD3"></path> <path d="M55.644 44.8448H53.662C53.3253 44.8448 53.0518 44.5713 53.0518 44.2346V39.8729C53.0518 39.5362 53.3253 39.2627 53.662 39.2627C53.9987 39.2627 54.2722 39.5362 54.2722 39.8729V43.6243H55.0338V39.8729C55.0338 39.5362 55.3073 39.2627 55.644 39.2627C55.9807 39.2627 56.2543 39.5362 56.2543 39.8729V44.2346C56.2543 44.5728 55.9807 44.8448 55.644 44.8448Z" fill="#199FD3"></path> <path d="M35.1774 52H8.87694C7.11478 52 5.68213 50.5674 5.68213 48.8052V46.6182C5.68213 44.856 7.11478 43.4233 8.87694 43.4233H36.9701C37.3068 43.4233 37.5803 43.6969 37.5803 44.0336V49.5985C37.58 50.9224 36.5024 52 35.1769 52L35.1774 52ZM8.87694 44.6438C7.78821 44.6438 6.90218 45.5298 6.90218 46.6186V48.8056C6.90218 49.8943 7.78823 50.7804 8.87694 50.7804H35.1774C35.829 50.7804 36.36 50.2494 36.36 49.5978V44.6431L8.87685 44.6423L8.87694 44.6438Z" fill="#199FD3"></path> </svg> 