<?xml version="1.0" encoding="UTF-8"?> <svg xmlns="http://www.w3.org/2000/svg" width="64" height="64" viewBox="0 0 64 64" fill="none"><path fill-rule="evenodd" clip-rule="evenodd" d="M39.0055 47.0059C39.0055 45.6339 40.1177 44.5217 41.4897 44.5217H58.8828C60.2548 44.5217 61.367 45.6339 61.367 47.0059V58.5727C61.367 59.9446 60.2548 61.0568 58.8828 61.0568H41.4897C40.1177 61.0568 39.0055 59.9446 39.0055 58.5727V47.0059ZM41.4897 46.651C41.2937 46.651 41.1348 46.8099 41.1348 47.0059V58.5727C41.1348 58.7687 41.2937 58.9275 41.4897 58.9275H58.8828C59.0788 58.9275 59.2377 58.7687 59.2377 58.5727V47.0059C59.2377 46.8099 59.0788 46.651 58.8828 46.651H41.4897Z" fill="#009ED5"></path><path fill-rule="evenodd" clip-rule="evenodd" d="M43.0866 42.1694C43.0866 38.2484 46.2653 35.0697 50.1864 35.0697C54.1074 35.0697 57.2861 38.2484 57.2861 42.1694V46.6301H43.0866V42.1694ZM50.1864 37.199C47.4413 37.199 45.2159 39.4243 45.2159 42.1694V44.5009H55.1568V42.1694C55.1568 39.4243 52.9315 37.199 50.1864 37.199Z" fill="#009ED5"></path><path fill-rule="evenodd" clip-rule="evenodd" d="M30.7681 5.07262C16.4054 5.07262 4.76211 16.7159 4.76211 31.0787C4.76211 45.4414 16.4054 57.0847 30.7681 57.0847C33.838 57.0847 36.7814 56.5532 39.5129 55.5782L40.2287 57.5835C37.2708 58.6394 34.0854 59.214 30.7681 59.214C15.2294 59.214 2.63281 46.6174 2.63281 31.0787C2.63281 15.5399 15.2294 2.94333 30.7681 2.94333C46.3069 2.94333 58.9035 15.5399 58.9035 31.0787C58.9035 34.5704 58.2669 37.916 57.1025 41.0039L55.1101 40.2526C56.1854 37.4011 56.7742 34.3099 56.7742 31.0787C56.7742 16.7159 45.1309 5.07262 30.7681 5.07262Z" fill="#009ED5"></path><path fill-rule="evenodd" clip-rule="evenodd" d="M30.5206 10.2858C19.037 10.2858 9.72769 19.5951 9.72769 31.0787C9.72769 42.5623 19.037 51.8716 30.5206 51.8716C31.1086 51.8716 31.5852 52.3483 31.5852 52.9363C31.5852 53.5243 31.1086 54.0009 30.5206 54.0009C17.861 54.0009 7.59839 43.7383 7.59839 31.0787C7.59839 18.4191 17.861 8.15653 30.5206 8.15653C31.1086 8.15653 31.5852 8.63319 31.5852 9.22118C31.5852 9.80916 31.1086 10.2858 30.5206 10.2858ZM38.6856 10.7691C38.9315 10.2351 39.5639 10.0015 40.0979 10.2474C41.6571 10.9654 43.1216 11.853 44.4677 12.8865C44.9341 13.2446 45.0219 13.913 44.6638 14.3793C44.3058 14.8457 43.6374 14.9335 43.171 14.5755C41.9494 13.6376 40.621 12.8324 39.2073 12.1815C38.6732 11.9356 38.4397 11.3032 38.6856 10.7691Z" fill="#009ED5"></path><path d="M30.4525 41.6163V19.794H31.8505V41.6163H30.4525ZM34.8255 26.5623C34.7346 25.7554 34.3595 25.1302 33.7003 24.687C33.0411 24.238 32.2114 24.0135 31.2112 24.0135C30.4951 24.0135 29.8757 24.1272 29.3529 24.3545C28.83 24.5762 28.4237 24.883 28.1339 25.2752C27.8497 25.6616 27.7077 26.102 27.7077 26.5964C27.7077 27.0113 27.8043 27.3693 27.9975 27.6705C28.1964 27.9717 28.455 28.2246 28.7732 28.4292C29.0971 28.6281 29.4438 28.7957 29.8132 28.9321C30.1826 29.0628 30.5378 29.1708 30.8787 29.256L32.5836 29.6993C33.1405 29.8357 33.7116 30.0204 34.297 30.2534C34.8823 30.4864 35.425 30.7932 35.9251 31.174C36.4252 31.5547 36.8287 32.0264 37.1356 32.589C37.4482 33.1516 37.6044 33.8251 37.6044 34.6093C37.6044 35.5981 37.3487 36.4761 36.8372 37.2433C36.3315 38.0105 35.5955 38.6157 34.6294 39.059C33.669 39.5023 32.5069 39.7239 31.143 39.7239C29.8359 39.7239 28.705 39.5165 27.7503 39.1016C26.7956 38.6868 26.0483 38.0986 25.5084 37.3371C24.9685 36.5699 24.6702 35.6606 24.6133 34.6093H27.2559C27.307 35.2401 27.5116 35.7658 27.8696 36.1863C28.2333 36.6012 28.6965 36.9109 29.2591 37.1155C29.8274 37.3144 30.4497 37.4138 31.1259 37.4138C31.8704 37.4138 32.5324 37.2973 33.1121 37.0643C33.6974 36.8256 34.1578 36.496 34.493 36.0755C34.8283 35.6493 34.996 35.152 34.996 34.5837C34.996 34.0666 34.8482 33.6432 34.5527 33.3136C34.2629 32.984 33.8679 32.7112 33.3678 32.4953C32.8734 32.2793 32.3137 32.0889 31.6885 31.9241L29.6256 31.3615C28.2277 30.9808 27.1195 30.421 26.3012 29.6822C25.4885 28.9435 25.0822 27.966 25.0822 26.7499C25.0822 25.744 25.355 24.866 25.9005 24.1158C26.4461 23.3657 27.1848 22.7832 28.1168 22.3684C29.0488 21.9478 30.1002 21.7375 31.2708 21.7375C32.4529 21.7375 33.4957 21.945 34.3993 22.3598C35.3085 22.7747 36.0246 23.3458 36.5474 24.0732C37.0702 24.7949 37.343 25.6246 37.3658 26.5623H34.8255Z" fill="#009ED5"></path><path d="M52.2342 51.5314C52.2342 52.6012 51.367 53.4685 50.2971 53.4685C49.2272 53.4685 48.36 52.6012 48.36 51.5314C48.36 50.4615 49.2272 49.5942 50.2971 49.5942C51.367 49.5942 52.2342 50.4615 52.2342 51.5314Z" fill="#009ED5"></path><path d="M49.4329 53.1761C49.4329 52.6972 49.8211 52.309 50.2999 52.309C50.7788 52.309 51.1669 52.6972 51.1669 53.1761V56.1585C51.1669 56.6374 50.7788 57.0255 50.2999 57.0255C49.8211 57.0255 49.4329 56.6374 49.4329 56.1585V53.1761Z" fill="#009ED5"></path></svg> 