<?xml version="1.0" encoding="UTF-8"?> <svg xmlns="http://www.w3.org/2000/svg" width="27" height="31" viewBox="0 0 27 31" fill="none"> <g clip-path="url(#clip0_3333_20923)"> <path d="M20.9353 21.6224C19.418 22.8469 17.2939 23.7653 15.1698 23.7653C10.3146 23.7653 6.97664 20.0918 6.97664 15.1939C6.97664 10.2959 10.3146 6.92857 15.1698 6.92857C17.2939 6.92857 19.418 7.54081 20.9353 9.07142L21.8456 9.98979L26.7008 5.39796L25.487 4.47959C22.756 2.03061 19.1146 0.5 15.1698 0.5C6.6732 0.5 0.300781 6.92857 0.300781 15.5C0.300781 24.0714 6.6732 30.5 15.1698 30.5C19.1146 30.5 22.756 28.9694 25.487 26.5204L26.7008 25.602L21.8456 20.7041L20.9353 21.6224Z" fill="#17313B"></path> <path d="M14.8669 20.398C17.5483 20.398 19.7221 18.2051 19.7221 15.5C19.7221 12.7949 17.5483 10.6021 14.8669 10.6021C12.1855 10.6021 10.0117 12.7949 10.0117 15.5C10.0117 18.2051 12.1855 20.398 14.8669 20.398Z" fill="#EF4335"></path> </g> <defs> <clipPath id="clip0_3333_20923"> <rect width="26.4" height="30" fill="white" transform="translate(0.300781 0.5)"></rect> </clipPath> </defs> </svg> 