<?xml version="1.0" encoding="UTF-8"?> <svg xmlns="http://www.w3.org/2000/svg" width="52" height="52" viewBox="0 0 52 52" fill="none"> <path d="M11.0771 40.8572C10.4313 40.8572 9.88243 40.5989 9.43041 40.0823C8.91381 39.6303 8.65551 39.1137 8.65551 38.5325C8.65551 38.0159 8.88153 37.4347 9.33355 36.789C11.0771 34.5935 12.4331 32.4948 13.4017 30.493C14.3058 28.5558 14.7578 26.9414 14.7578 25.6499C14.7578 25.1333 14.6609 24.7459 14.4672 24.4876C14.2735 24.2293 13.9506 24.0678 13.4986 24.0033C10.0116 23.1638 8.26807 20.936 8.26807 17.3198C8.26807 15.318 8.91381 13.6714 10.2053 12.3799C11.4968 11.153 13.1434 10.5395 15.1452 10.5395C17.4699 10.5395 19.278 11.3144 20.5695 12.8642C21.861 14.4785 22.5067 16.6418 22.5067 19.3539C22.5067 25.8759 19.5363 32.5271 13.5955 39.3074C12.6914 40.3406 11.8519 40.8572 11.0771 40.8572ZM31.418 40.8572C30.7722 40.8572 30.2234 40.5989 29.7713 40.0823C29.2547 39.6303 28.9964 39.1137 28.9964 38.5325C28.9964 38.0159 29.2225 37.4347 29.6745 36.789C31.418 34.5935 32.7741 32.4948 33.7427 30.493C34.6467 28.5558 35.0987 26.9414 35.0987 25.6499C35.0987 25.1333 35.0019 24.7459 34.8081 24.4876C34.6144 24.2293 34.2915 24.0678 33.8395 24.0033C30.3525 23.1638 28.609 20.936 28.609 17.3198C28.609 15.318 29.2547 13.6714 30.5462 12.3799C31.8377 11.153 33.4844 10.5395 35.4862 10.5395C37.8109 10.5395 39.6189 11.3144 40.9104 12.8642C42.2019 14.4785 42.8477 16.6418 42.8477 19.3539C42.8477 25.8759 39.8772 32.5271 33.9364 39.3074C33.0323 40.3406 32.1929 40.8572 31.418 40.8572Z" fill="#199FD3"></path> </svg> 