<?xml version="1.0" encoding="UTF-8"?> <svg xmlns="http://www.w3.org/2000/svg" width="52" height="52" viewBox="0 0 52 52" fill="none"> <path d="M40.9229 11.1428C41.5687 11.1428 42.1176 11.4011 42.5696 11.9177C43.0862 12.3697 43.3445 12.8863 43.3445 13.4675C43.3445 13.9841 43.1185 14.5653 42.6665 15.211C40.9229 17.4065 39.5669 19.5052 38.5983 21.507C37.6942 23.4442 37.2422 25.0586 37.2422 26.3501C37.2422 26.8667 37.3391 27.2541 37.5328 27.5124C37.7265 27.7707 38.0494 27.9322 38.5014 27.9967C41.9884 28.8362 43.7319 31.064 43.7319 34.6802C43.7319 36.682 43.0862 38.3286 41.7947 39.6201C40.5032 40.847 38.8566 41.4605 36.8548 41.4605C34.5301 41.4605 32.722 40.6856 31.4305 39.1358C30.139 37.5215 29.4933 35.3582 29.4933 32.6461C29.4933 26.1241 32.4637 19.4729 38.4045 12.6926C39.3086 11.6594 40.1481 11.1428 40.9229 11.1428ZM20.582 11.1428C21.2278 11.1428 21.7766 11.4011 22.2287 11.9177C22.7453 12.3697 23.0036 12.8863 23.0036 13.4675C23.0036 13.9841 22.7775 14.5653 22.3255 15.211C20.582 17.4065 19.2259 19.5052 18.2573 21.507C17.3533 23.4442 16.9013 25.0586 16.9013 26.3501C16.9013 26.8667 16.9981 27.2541 17.1919 27.5124C17.3856 27.7707 17.7085 27.9322 18.1605 27.9967C21.6475 28.8362 23.391 31.064 23.391 34.6802C23.391 36.682 22.7453 38.3286 21.4538 39.6201C20.1623 40.847 18.5156 41.4605 16.5138 41.4605C14.1891 41.4605 12.3811 40.6856 11.0896 39.1358C9.79809 37.5215 9.15234 35.3582 9.15234 32.6461C9.15234 26.1241 12.1228 19.4729 18.0636 12.6926C18.9677 11.6594 19.8071 11.1428 20.582 11.1428Z" fill="#199FD3"></path> </svg> 