<?xml version="1.0" encoding="UTF-8"?> <svg xmlns="http://www.w3.org/2000/svg" width="347" height="68" viewBox="0 0 347 68" fill="none"> <path opacity="0.3" d="M0.28125 66.3047C-0.102736 66.7017 -0.0922208 67.3347 0.304735 67.7187C0.701691 68.1027 1.33477 68.0922 1.71875 67.6952L0.28125 66.3047ZM345.281 67.6952C345.665 68.0922 346.298 68.1027 346.695 67.7187C347.092 67.3347 347.103 66.7017 346.719 66.3047L345.281 67.6952ZM190 58.7297L189.503 59.5976L189.734 59.7297L190 59.7297L190 58.7297ZM158 58.7297L158 59.7297L158.296 59.7297L158.544 59.5687L158 58.7297ZM173 49L173.497 48.1321L172.967 47.8292L172.456 48.161L173 49ZM9.00003 58.7297L9.00003 57.7297L8.57605 57.7297L8.28128 58.0344L9.00003 58.7297ZM338 58.7297L338.719 58.0344L338.424 57.7297L338 57.7297L338 58.7297ZM3.71876 65.6277C4.10275 65.2307 4.09223 64.5976 3.69527 64.2137C3.29832 63.8297 2.66524 63.8402 2.28126 64.2371L3.71876 65.6277ZM6.28127 60.102C5.89728 60.499 5.9078 61.132 6.30475 61.516C6.70171 61.9 7.33479 61.8895 7.71877 61.4925L6.28127 60.102ZM10.9606 59.7297C11.5128 59.7297 11.9606 59.282 11.9606 58.7297C11.9606 58.1774 11.5128 57.7297 10.9606 57.7297L10.9606 59.7297ZM14.8816 57.7297C14.3293 57.7297 13.8816 58.1774 13.8816 58.7297C13.8816 59.282 14.3293 59.7297 14.8816 59.7297L14.8816 57.7297ZM18.8027 59.7297C19.3549 59.7297 19.8027 59.282 19.8027 58.7297C19.8027 58.1774 19.3549 57.7297 18.8027 57.7297L18.8027 59.7297ZM22.7237 57.7297C22.1714 57.7297 21.7237 58.1774 21.7237 58.7297C21.7237 59.282 22.1714 59.7297 22.7237 59.7297L22.7237 57.7297ZM26.6448 59.7297C27.197 59.7297 27.6448 59.282 27.6448 58.7297C27.6448 58.1774 27.197 57.7297 26.6448 57.7297L26.6448 59.7297ZM30.5658 57.7297C30.0135 57.7297 29.5658 58.1774 29.5658 58.7297C29.5658 59.282 30.0135 59.7297 30.5658 59.7297L30.5658 57.7297ZM34.4869 59.7297C35.0391 59.7297 35.4869 59.282 35.4869 58.7297C35.4869 58.1774 35.0391 57.7297 34.4869 57.7297L34.4869 59.7297ZM38.4079 57.7297C37.8556 57.7297 37.4079 58.1774 37.4079 58.7297C37.4079 59.282 37.8556 59.7297 38.4079 59.7297L38.4079 57.7297ZM42.329 59.7297C42.8813 59.7297 43.329 59.282 43.329 58.7297C43.329 58.1774 42.8813 57.7297 42.329 57.7297L42.329 59.7297ZM46.25 57.7297C45.6977 57.7297 45.25 58.1774 45.25 58.7297C45.25 59.282 45.6977 59.7297 46.25 59.7297L46.25 57.7297ZM50.1711 59.7297C50.7234 59.7297 51.1711 59.282 51.1711 58.7297C51.1711 58.1774 50.7234 57.7297 50.1711 57.7297L50.1711 59.7297ZM54.0921 57.7297C53.5398 57.7297 53.0921 58.1774 53.0921 58.7297C53.0921 59.282 53.5398 59.7297 54.0921 59.7297L54.0921 57.7297ZM58.0132 59.7297C58.5655 59.7297 59.0132 59.282 59.0132 58.7297C59.0132 58.1774 58.5655 57.7297 58.0132 57.7297L58.0132 59.7297ZM61.9342 57.7297C61.3819 57.7297 60.9342 58.1774 60.9342 58.7297C60.9342 59.282 61.3819 59.7297 61.9342 59.7297L61.9342 57.7297ZM65.8553 59.7297C66.4076 59.7297 66.8553 59.282 66.8553 58.7297C66.8553 58.1774 66.4076 57.7297 65.8553 57.7297L65.8553 59.7297ZM69.7763 57.7297C69.224 57.7297 68.7763 58.1774 68.7763 58.7297C68.7763 59.282 69.224 59.7297 69.7763 59.7297L69.7763 57.7297ZM73.6974 59.7297C74.2497 59.7297 74.6974 59.282 74.6974 58.7297C74.6974 58.1774 74.2497 57.7297 73.6974 57.7297L73.6974 59.7297ZM77.6184 57.7297C77.0661 57.7297 76.6184 58.1774 76.6184 58.7297C76.6184 59.282 77.0661 59.7297 77.6184 59.7297L77.6184 57.7297ZM81.5395 59.7297C82.0918 59.7297 82.5395 59.282 82.5395 58.7297C82.5395 58.1774 82.0918 57.7297 81.5395 57.7297L81.5395 59.7297ZM85.4605 57.7297C84.9082 57.7297 84.4605 58.1774 84.4605 58.7297C84.4605 59.282 84.9082 59.7297 85.4605 59.7297L85.4605 57.7297ZM89.3816 59.7297C89.9339 59.7297 90.3816 59.282 90.3816 58.7297C90.3816 58.1774 89.9339 57.7297 89.3816 57.7297L89.3816 59.7297ZM93.3026 57.7297C92.7504 57.7297 92.3026 58.1774 92.3026 58.7297C92.3026 59.282 92.7504 59.7297 93.3026 59.7297L93.3026 57.7297ZM97.2237 59.7297C97.776 59.7297 98.2237 59.282 98.2237 58.7297C98.2237 58.1774 97.776 57.7297 97.2237 57.7297L97.2237 59.7297ZM101.145 57.7297C100.592 57.7297 100.145 58.1774 100.145 58.7297C100.145 59.282 100.592 59.7297 101.145 59.7297L101.145 57.7297ZM105.066 59.7297C105.618 59.7297 106.066 59.282 106.066 58.7297C106.066 58.1774 105.618 57.7297 105.066 57.7297L105.066 59.7297ZM108.987 57.7297C108.435 57.7297 107.987 58.1774 107.987 58.7297C107.987 59.282 108.435 59.7297 108.987 59.7297L108.987 57.7297ZM112.908 59.7297C113.46 59.7297 113.908 59.282 113.908 58.7297C113.908 58.1774 113.46 57.7297 112.908 57.7297L112.908 59.7297ZM116.829 57.7297C116.277 57.7297 115.829 58.1774 115.829 58.7297C115.829 59.282 116.277 59.7297 116.829 59.7297L116.829 57.7297ZM120.75 59.7297C121.302 59.7297 121.75 59.282 121.75 58.7297C121.75 58.1774 121.302 57.7297 120.75 57.7297L120.75 59.7297ZM124.671 57.7297C124.119 57.7297 123.671 58.1774 123.671 58.7297C123.671 59.282 124.119 59.7297 124.671 59.7297L124.671 57.7297ZM128.592 59.7297C129.144 59.7297 129.592 59.282 129.592 58.7297C129.592 58.1774 129.144 57.7297 128.592 57.7297L128.592 59.7297ZM132.513 57.7297C131.961 57.7297 131.513 58.1774 131.513 58.7297C131.513 59.282 131.961 59.7297 132.513 59.7297L132.513 57.7297ZM136.434 59.7297C136.986 59.7297 137.434 59.282 137.434 58.7297C137.434 58.1774 136.986 57.7297 136.434 57.7297L136.434 59.7297ZM140.355 57.7297C139.803 57.7297 139.355 58.1774 139.355 58.7297C139.355 59.282 139.803 59.7297 140.355 59.7297L140.355 57.7297ZM144.276 59.7297C144.829 59.7297 145.276 59.282 145.276 58.7297C145.276 58.1774 144.829 57.7297 144.276 57.7297L144.276 59.7297ZM148.197 57.7297C147.645 57.7297 147.197 58.1774 147.197 58.7297C147.197 59.282 147.645 59.7297 148.197 59.7297L148.197 57.7297ZM152.118 59.7297C152.671 59.7297 153.118 59.282 153.118 58.7297C153.118 58.1774 152.671 57.7297 152.118 57.7297L152.118 59.7297ZM156.039 57.7297C155.487 57.7297 155.039 58.1774 155.039 58.7297C155.039 59.282 155.487 59.7297 156.039 59.7297L156.039 57.7297ZM160.419 58.3524C160.883 58.0519 161.015 57.4326 160.714 56.9693C160.413 56.506 159.794 56.374 159.331 56.6745L160.419 58.3524ZM163.081 54.2421C162.617 54.5426 162.485 55.1619 162.786 55.6252C163.087 56.0886 163.706 56.2206 164.169 55.92L163.081 54.2421ZM167.919 53.4876C168.383 53.187 168.515 52.5678 168.214 52.1044C167.913 51.6411 167.294 51.5091 166.831 51.8097L167.919 53.4876ZM170.581 49.3772C170.117 49.6778 169.985 50.297 170.286 50.7604C170.587 51.2237 171.206 51.3557 171.669 51.0552L170.581 49.3772ZM174.628 51.0841C175.108 51.3584 175.719 51.1923 175.993 50.7129C176.267 50.2336 176.101 49.6226 175.622 49.3483L174.628 51.0841ZM179.872 51.7807C179.392 51.5064 178.781 51.6726 178.507 52.1519C178.233 52.6312 178.399 53.2422 178.878 53.5165L179.872 51.7807ZM183.128 55.949C183.608 56.2233 184.219 56.0571 184.493 55.5778C184.767 55.0985 184.601 54.4875 184.122 54.2132L183.128 55.949ZM188.372 56.6456C187.892 56.3712 187.281 56.5374 187.007 57.0168C186.733 57.4961 186.899 58.1071 187.378 58.3814L188.372 56.6456ZM191.947 59.7297C192.5 59.7297 192.947 59.282 192.947 58.7297C192.947 58.1774 192.5 57.7297 191.947 57.7297L191.947 59.7297ZM195.842 57.7297C195.29 57.7297 194.842 58.1774 194.842 58.7297C194.842 59.282 195.29 59.7297 195.842 59.7297L195.842 57.7297ZM199.737 59.7297C200.289 59.7297 200.737 59.282 200.737 58.7297C200.737 58.1774 200.289 57.7297 199.737 57.7297L199.737 59.7297ZM203.632 57.7297C203.079 57.7297 202.632 58.1774 202.632 58.7297C202.632 59.282 203.079 59.7297 203.632 59.7297L203.632 57.7297ZM207.526 59.7297C208.079 59.7297 208.526 59.282 208.526 58.7297C208.526 58.1774 208.079 57.7297 207.526 57.7297L207.526 59.7297ZM211.421 57.7297C210.869 57.7297 210.421 58.1774 210.421 58.7297C210.421 59.282 210.869 59.7297 211.421 59.7297L211.421 57.7297ZM215.316 59.7297C215.868 59.7297 216.316 59.282 216.316 58.7297C216.316 58.1774 215.868 57.7297 215.316 57.7297L215.316 59.7297ZM219.211 57.7297C218.658 57.7297 218.211 58.1774 218.211 58.7297C218.211 59.282 218.658 59.7297 219.211 59.7297L219.211 57.7297ZM223.105 59.7297C223.658 59.7297 224.105 59.282 224.105 58.7297C224.105 58.1774 223.658 57.7297 223.105 57.7297L223.105 59.7297ZM227 57.7297C226.448 57.7297 226 58.1774 226 58.7297C226 59.282 226.448 59.7297 227 59.7297L227 57.7297ZM230.895 59.7297C231.447 59.7297 231.895 59.282 231.895 58.7297C231.895 58.1774 231.447 57.7297 230.895 57.7297L230.895 59.7297ZM234.789 57.7297C234.237 57.7297 233.789 58.1774 233.789 58.7297C233.789 59.282 234.237 59.7297 234.789 59.7297L234.789 57.7297ZM238.684 59.7297C239.236 59.7297 239.684 59.282 239.684 58.7297C239.684 58.1774 239.236 57.7297 238.684 57.7297L238.684 59.7297ZM242.579 57.7297C242.027 57.7297 241.579 58.1774 241.579 58.7297C241.579 59.282 242.027 59.7297 242.579 59.7297L242.579 57.7297ZM246.474 59.7297C247.026 59.7297 247.474 59.282 247.474 58.7297C247.474 58.1774 247.026 57.7297 246.474 57.7297L246.474 59.7297ZM250.368 57.7297C249.816 57.7297 249.368 58.1774 249.368 58.7297C249.368 59.282 249.816 59.7297 250.368 59.7297L250.368 57.7297ZM254.263 59.7297C254.815 59.7297 255.263 59.282 255.263 58.7297C255.263 58.1774 254.815 57.7297 254.263 57.7297L254.263 59.7297ZM258.158 57.7297C257.606 57.7297 257.158 58.1774 257.158 58.7297C257.158 59.282 257.606 59.7297 258.158 59.7297L258.158 57.7297ZM262.053 59.7297C262.605 59.7297 263.053 59.282 263.053 58.7297C263.053 58.1774 262.605 57.7297 262.053 57.7297L262.053 59.7297ZM265.947 57.7297C265.395 57.7297 264.947 58.1774 264.947 58.7297C264.947 59.282 265.395 59.7297 265.947 59.7297L265.947 57.7297ZM269.842 59.7297C270.394 59.7297 270.842 59.282 270.842 58.7297C270.842 58.1774 270.394 57.7297 269.842 57.7297L269.842 59.7297ZM273.737 57.7297C273.185 57.7297 272.737 58.1774 272.737 58.7297C272.737 59.282 273.185 59.7297 273.737 59.7297L273.737 57.7297ZM277.632 59.7297C278.184 59.7297 278.632 59.282 278.632 58.7297C278.632 58.1774 278.184 57.7297 277.632 57.7297L277.632 59.7297ZM281.526 57.7297C280.974 57.7297 280.526 58.1774 280.526 58.7297C280.526 59.282 280.974 59.7297 281.526 59.7297L281.526 57.7297ZM285.421 59.7297C285.973 59.7297 286.421 59.282 286.421 58.7297C286.421 58.1774 285.973 57.7297 285.421 57.7297L285.421 59.7297ZM289.316 57.7297C288.764 57.7297 288.316 58.1774 288.316 58.7297C288.316 59.282 288.764 59.7297 289.316 59.7297L289.316 57.7297ZM293.211 59.7297C293.763 59.7297 294.211 59.282 294.211 58.7297C294.211 58.1774 293.763 57.7297 293.211 57.7297L293.211 59.7297ZM297.105 57.7297C296.553 57.7297 296.105 58.1774 296.105 58.7297C296.105 59.282 296.553 59.7297 297.105 59.7297L297.105 57.7297ZM301 59.7297C301.552 59.7297 302 59.282 302 58.7297C302 58.1774 301.552 57.7297 301 57.7297L301 59.7297ZM304.895 57.7297C304.342 57.7297 303.895 58.1774 303.895 58.7297C303.895 59.282 304.342 59.7297 304.895 59.7297L304.895 57.7297ZM308.789 59.7297C309.342 59.7297 309.789 59.282 309.789 58.7297C309.789 58.1774 309.342 57.7297 308.789 57.7297L308.789 59.7297ZM312.684 57.7297C312.132 57.7297 311.684 58.1774 311.684 58.7297C311.684 59.282 312.132 59.7297 312.684 59.7297L312.684 57.7297ZM316.579 59.7297C317.131 59.7297 317.579 59.282 317.579 58.7297C317.579 58.1774 317.131 57.7297 316.579 57.7297L316.579 59.7297ZM320.474 57.7297C319.921 57.7297 319.474 58.1774 319.474 58.7297C319.474 59.282 319.921 59.7297 320.474 59.7297L320.474 57.7297ZM324.368 59.7297C324.921 59.7297 325.368 59.282 325.368 58.7297C325.368 58.1774 324.921 57.7297 324.368 57.7297L324.368 59.7297ZM328.263 57.7297C327.711 57.7297 327.263 58.1774 327.263 58.7297C327.263 59.282 327.711 59.7297 328.263 59.7297L328.263 57.7297ZM332.158 59.7297C332.71 59.7297 333.158 59.282 333.158 58.7297C333.158 58.1774 332.71 57.7297 332.158 57.7297L332.158 59.7297ZM336.053 57.7297C335.5 57.7297 335.053 58.1774 335.053 58.7297C335.053 59.282 335.5 59.7297 336.053 59.7297L336.053 57.7297ZM339.281 61.4925C339.665 61.8895 340.298 61.9 340.695 61.516C341.092 61.132 341.103 60.4989 340.719 60.102L339.281 61.4925ZM344.719 64.2371C344.335 63.8402 343.702 63.8297 343.305 64.2136C342.908 64.5976 342.897 65.2307 343.281 65.6277L344.719 64.2371ZM1.71875 67.6952L3.71876 65.6277L2.28126 64.2371L0.28125 66.3047L1.71875 67.6952ZM7.71877 61.4925L9.71878 59.425L8.28128 58.0344L6.28127 60.102L7.71877 61.4925ZM9.00003 59.7297L10.9606 59.7297L10.9606 57.7297L9.00003 57.7297L9.00003 59.7297ZM14.8816 59.7297L18.8027 59.7297L18.8027 57.7297L14.8816 57.7297L14.8816 59.7297ZM22.7237 59.7297L26.6448 59.7297L26.6448 57.7297L22.7237 57.7297L22.7237 59.7297ZM30.5658 59.7297L34.4869 59.7297L34.4869 57.7297L30.5658 57.7297L30.5658 59.7297ZM38.4079 59.7297L42.329 59.7297L42.329 57.7297L38.4079 57.7297L38.4079 59.7297ZM46.25 59.7297L50.1711 59.7297L50.1711 57.7297L46.25 57.7297L46.25 59.7297ZM54.0921 59.7297L58.0132 59.7297L58.0132 57.7297L54.0921 57.7297L54.0921 59.7297ZM61.9342 59.7297L65.8553 59.7297L65.8553 57.7297L61.9342 57.7297L61.9342 59.7297ZM69.7763 59.7297L73.6974 59.7297L73.6974 57.7297L69.7763 57.7297L69.7763 59.7297ZM77.6184 59.7297L81.5395 59.7297L81.5395 57.7297L77.6184 57.7297L77.6184 59.7297ZM85.4605 59.7297L89.3816 59.7297L89.3816 57.7297L85.4605 57.7297L85.4605 59.7297ZM93.3026 59.7297L97.2237 59.7297L97.2237 57.7297L93.3026 57.7297L93.3026 59.7297ZM101.145 59.7297L105.066 59.7297L105.066 57.7297L101.145 57.7297L101.145 59.7297ZM108.987 59.7297L112.908 59.7297L112.908 57.7297L108.987 57.7297L108.987 59.7297ZM116.829 59.7297L120.75 59.7297L120.75 57.7297L116.829 57.7297L116.829 59.7297ZM124.671 59.7297L128.592 59.7297L128.592 57.7297L124.671 57.7297L124.671 59.7297ZM132.513 59.7297L136.434 59.7297L136.434 57.7297L132.513 57.7297L132.513 59.7297ZM140.355 59.7297L144.276 59.7297L144.276 57.7297L140.355 57.7297L140.355 59.7297ZM148.197 59.7297L152.118 59.7297L152.118 57.7297L148.197 57.7297L148.197 59.7297ZM156.039 59.7297L158 59.7297L158 57.7297L156.039 57.7297L156.039 59.7297ZM158.544 59.5687L160.419 58.3524L159.331 56.6745L157.456 57.8907L158.544 59.5687ZM164.169 55.92L167.919 53.4876L166.831 51.8097L163.081 54.2421L164.169 55.92ZM171.669 51.0552L173.544 49.8389L172.456 48.161L170.581 49.3772L171.669 51.0552ZM172.503 49.8679L174.628 51.0841L175.622 49.3483L173.497 48.1321L172.503 49.8679ZM178.878 53.5165L183.128 55.949L184.122 54.2132L179.872 51.7807L178.878 53.5165ZM187.378 58.3814L189.503 59.5976L190.497 57.8618L188.372 56.6456L187.378 58.3814ZM190 59.7297L191.947 59.7297L191.947 57.7297L190 57.7297L190 59.7297ZM195.842 59.7297L199.737 59.7297L199.737 57.7297L195.842 57.7297L195.842 59.7297ZM203.632 59.7297L207.526 59.7297L207.526 57.7297L203.632 57.7297L203.632 59.7297ZM211.421 59.7297L215.316 59.7297L215.316 57.7297L211.421 57.7297L211.421 59.7297ZM219.211 59.7297L223.105 59.7297L223.105 57.7297L219.211 57.7297L219.211 59.7297ZM227 59.7297L230.895 59.7297L230.895 57.7297L227 57.7297L227 59.7297ZM234.789 59.7297L238.684 59.7297L238.684 57.7297L234.789 57.7297L234.789 59.7297ZM242.579 59.7297L246.474 59.7297L246.474 57.7297L242.579 57.7297L242.579 59.7297ZM250.368 59.7297L254.263 59.7297L254.263 57.7297L250.368 57.7297L250.368 59.7297ZM258.158 59.7297L262.053 59.7297L262.053 57.7297L258.158 57.7297L258.158 59.7297ZM265.947 59.7297L269.842 59.7297L269.842 57.7297L265.947 57.7297L265.947 59.7297ZM273.737 59.7297L277.632 59.7297L277.632 57.7297L273.737 57.7297L273.737 59.7297ZM281.526 59.7297L285.421 59.7297L285.421 57.7297L281.526 57.7297L281.526 59.7297ZM289.316 59.7297L293.211 59.7297L293.211 57.7297L289.316 57.7297L289.316 59.7297ZM297.105 59.7297L301 59.7297L301 57.7297L297.105 57.7297L297.105 59.7297ZM304.895 59.7297L308.789 59.7297L308.789 57.7297L304.895 57.7297L304.895 59.7297ZM312.684 59.7297L316.579 59.7297L316.579 57.7297L312.684 57.7297L312.684 59.7297ZM320.474 59.7297L324.368 59.7297L324.368 57.7297L320.474 57.7297L320.474 59.7297ZM328.263 59.7297L332.158 59.7297L332.158 57.7297L328.263 57.7297L328.263 59.7297ZM336.053 59.7297L338 59.7297L338 57.7297L336.053 57.7297L336.053 59.7297ZM337.281 59.4249L339.281 61.4925L340.719 60.102L338.719 58.0344L337.281 59.4249ZM343.281 65.6277L345.281 67.6952L346.719 66.3047L344.719 64.2371L343.281 65.6277Z" fill="white"></path> <path opacity="0.25" d="M165.085 25C164.941 25 164.806 24.946 164.68 24.838C164.572 24.73 164.518 24.595 164.518 24.433C164.518 24.361 164.536 24.28 164.572 24.19L171.079 6.775C171.133 6.595 171.232 6.442 171.376 6.316C171.538 6.172 171.754 6.1 172.024 6.1H174.967C175.237 6.1 175.444 6.172 175.588 6.316C175.732 6.442 175.84 6.595 175.912 6.775L182.419 24.19C182.437 24.28 182.446 24.361 182.446 24.433C182.446 24.595 182.392 24.73 182.284 24.838C182.176 24.946 182.05 25 181.906 25H179.557C179.305 25 179.116 24.946 178.99 24.838C178.882 24.712 178.81 24.595 178.774 24.487L177.505 21.193H169.486L168.217 24.487C168.181 24.595 168.1 24.712 167.974 24.838C167.866 24.946 167.686 25 167.434 25H165.085ZM170.431 18.088H176.56L173.482 9.745L170.431 18.088Z" fill="white"></path> </svg> 