<?xml version="1.0" encoding="UTF-8"?> <svg xmlns="http://www.w3.org/2000/svg" width="81" height="67" viewBox="0 0 81 67" fill="none"> <path d="M2.97829 14.7528C1.54326 16.1872 0.735989 18.1326 0.733984 20.1613V20.1614L0.733984 58.7351L0.733984 58.7353C0.73612 60.7647 1.54333 62.7094 2.97828 64.1444L3.04899 64.0737L2.97829 64.1445C4.41329 65.5787 6.358 66.3867 8.38749 66.3887H72.845C74.8739 66.3866 76.8193 65.5787 78.2543 64.1445L78.1836 64.0737L78.2543 64.1444C79.6886 62.7094 80.4959 60.7647 80.4986 58.7353V58.7351V20.1614V20.1613C80.4958 18.1326 79.6886 16.1871 78.2543 14.7528C76.8193 13.3178 74.8739 12.5106 72.8451 12.5078L72.745 12.5077V12.508H55.9339V7.73376V7.73364C55.9318 5.9719 55.2307 4.283 53.9846 3.03683C52.7385 1.79065 51.0496 1.08969 49.2878 1.08677H49.2877L31.834 1.08677L31.8338 1.08677C30.0721 1.08962 28.3832 1.79075 27.137 3.03683L27.2078 3.10754L27.137 3.03683C25.891 4.28286 25.1899 5.97178 25.187 7.7336V7.73376V12.5085L8.38759 12.5078L8.38745 12.5078C6.35801 12.5107 4.41331 13.3179 2.97829 14.7528ZM2.97829 14.7528L3.04899 14.8236M2.97829 14.7528L3.04899 14.8236M3.04899 14.8236C1.63269 16.2392 0.835963 18.1592 0.833984 20.1614L8.38759 12.6078C6.38462 12.6106 4.46529 13.4073 3.04899 14.8236ZM32.903 40.9701V40.9702C32.9059 42.7319 33.607 44.4208 34.8524 45.667L34.8524 45.667C36.0984 46.9123 37.7873 47.6134 39.5492 47.6163H39.5493H42.7619H42.7621C44.5245 47.6135 46.2134 46.9124 47.4589 45.667C48.7049 44.421 49.406 42.732 49.4089 40.9702V40.9701V39.849L77.2778 36.0489L77.2772 58.7349C77.2772 59.9105 76.8107 61.0379 75.9794 61.8691C75.1481 62.7004 74.0206 63.1676 72.8452 63.1676H8.38779C7.21229 63.1676 6.08483 62.7004 5.25361 61.8691C4.42239 61.0378 3.95512 59.9103 3.95512 58.7349V35.9483L32.903 40.0495V40.9701ZM29.4127 5.31197L29.3426 5.2418L29.4128 5.31196C30.0551 4.66962 30.9261 4.30853 31.8345 4.30853H49.2882C50.1968 4.30853 51.0678 4.66962 51.71 5.31195L51.7797 5.24234L51.71 5.31196C52.3524 5.95431 52.7135 6.82531 52.7135 7.73376V12.5085L28.4092 12.5078L28.4093 7.73376C28.4093 6.82524 28.7704 5.95417 29.4127 5.31197ZM42.7215 31.1H42.7214H39.5487H39.5485C37.9395 31.1029 36.3854 31.6884 35.175 32.749C33.9898 33.7868 33.2114 35.2109 32.9781 36.7671L3.95578 32.7044V20.1612C3.95578 18.9857 4.42294 17.8589 5.25427 17.0277L5.18357 16.957L5.25428 17.0277C6.0856 16.1964 7.21306 15.7292 8.38845 15.7292H72.8459C74.0214 15.7292 75.1488 16.1964 75.98 17.0277L76.0508 16.957L75.9801 17.0277C76.8114 17.859 77.2778 18.9858 77.2778 20.1612L77.2772 32.7442L49.2598 36.6067C48.9952 35.0841 48.2075 33.7 47.0312 32.6942C45.83 31.6671 44.3023 31.1021 42.7215 31.1ZM36.1248 40.9694V37.7462C36.1248 36.8376 36.4852 35.9666 37.1275 35.3244L37.0568 35.2537L37.1275 35.3244C37.7699 34.682 38.6409 34.321 39.5493 34.321H42.7619C43.6705 34.321 44.5415 34.6821 45.1837 35.3244L45.2544 35.2537L45.1837 35.3244C45.8261 35.9667 46.1872 36.8377 46.1872 37.7462V40.9694C46.1872 41.8773 45.8261 42.749 45.1837 43.3912L45.2544 43.4619L45.1837 43.3912C44.5414 44.0335 43.6704 44.394 42.7619 44.394H39.5493C38.6407 44.394 37.7697 44.0335 37.1275 43.3912L37.0568 43.4619L37.1275 43.3912C36.4852 42.7489 36.1248 41.8772 36.1248 40.9694Z" fill="white" stroke="white" stroke-width="0.2"></path> </svg> 