<?xml version="1.0" encoding="UTF-8"?> <svg xmlns="http://www.w3.org/2000/svg" width="81" height="76" viewBox="0 0 81 76" fill="none"> <path d="M2.10626 60.4384H32.0237V65.707C32.0237 66.1557 31.8575 66.571 31.5417 66.8868L25.8737 72.5548C25.3917 73.0368 25.2588 73.7513 25.5078 74.3662C25.7569 74.9811 26.3718 75.3964 27.0368 75.3964H53.6295C54.2945 75.3964 54.9095 74.9978 55.1585 74.3662C55.4242 73.7513 55.2747 73.0369 54.7926 72.5548L49.1247 66.8868C48.8109 66.5717 48.6447 66.1557 48.6447 65.707V60.4384H76.8994C80.224 60.4384 80.224 58.028 80.224 57.114V3.92851C80.224 1.56161 77.8135 0.604463 76.8994 0.604463L3.76903 0.60376C2.85498 0.60376 0.443363 0.60376 0.443363 3.92781L0.443359 57.114C0.443359 60.4384 2.85498 60.4384 3.76903 60.4384H2.10626ZM46.783 69.2311L49.6253 72.0734L31.0427 72.0727L33.885 69.2304C34.8325 68.2829 35.3479 67.0364 35.3479 65.7071L35.3472 60.4384H45.3197V65.7071C45.3197 67.0371 45.8356 68.3003 46.783 69.2311ZM46.982 57.114H3.76903V50.4659H76.9012V57.114H46.982ZM76.8994 3.92851V47.1432L3.76903 47.1426V3.92781L76.8994 3.92851Z" fill="white"></path> <path d="M33.3703 42.0228C33.5866 42.1222 33.8023 42.1556 34.0186 42.1556C34.6669 42.1556 35.2819 41.773 35.5476 41.1421L47.664 12.8861C48.0299 12.0381 47.6306 11.0579 46.7833 10.7087C45.952 10.3428 44.9551 10.7421 44.6059 11.5727L32.4895 39.8287C32.1236 40.6767 32.5222 41.6576 33.3702 42.0226L33.3703 42.0228Z" fill="white"></path> <path d="M51.371 37.7668C51.7035 38.0993 52.1188 38.2489 52.5507 38.2489C52.9827 38.2489 53.3987 38.0826 53.7305 37.7668L63.1381 28.3592C63.7865 27.7109 63.7865 26.664 63.1381 26.0157L53.7305 16.6081C53.0822 15.9597 52.0353 15.9597 51.387 16.6081C50.7387 17.2564 50.7387 18.3033 51.387 18.9516L59.6141 27.1787L51.387 35.4058C50.7227 36.0716 50.7227 37.1192 51.371 37.7668H51.371Z" fill="white"></path> <path d="M26.4385 37.7672C26.771 38.0997 27.1863 38.2493 27.6183 38.2493C28.0503 38.2493 28.4663 38.083 28.7981 37.7672C29.4464 37.1189 29.4464 36.072 28.7981 35.4237L20.5549 27.1966L28.7821 18.9694C29.4304 18.3211 29.4304 17.2742 28.7821 16.6259C28.1337 15.9776 27.0868 15.9776 26.4385 16.6259L17.0309 26.0335C16.7151 26.3493 16.5488 26.7646 16.5488 27.2133C16.5488 27.662 16.7318 28.0773 17.0309 28.3931L26.4385 37.7672Z" fill="white"></path> </svg> 