<?xml version="1.0" encoding="UTF-8"?> <svg xmlns="http://www.w3.org/2000/svg" width="159" height="68" viewBox="0 0 159 68" fill="none"> <path opacity="0.3" d="M0.165111 66.4496C-0.138875 66.9107 -0.0115121 67.5309 0.449585 67.8349C0.910682 68.1389 1.53091 68.0115 1.83489 67.5504L0.165111 66.4496ZM157.188 67.5837C157.51 68.0322 158.135 68.1343 158.584 67.812C159.032 67.4896 159.134 66.8647 158.812 66.4163L157.188 67.5837ZM87.2139 56.5676L86.5013 57.2692L86.7952 57.5676L87.2139 57.5676L87.2139 56.5676ZM73.1876 56.5676L73.1876 57.5676L73.6435 57.5676L73.9425 57.2234L73.1876 56.5676ZM79.7624 49L80.475 48.2984L79.7165 47.5281L79.0076 48.3441L79.7624 49ZM7.87777 56.5676L7.87777 55.5676L7.33928 55.5676L7.04288 56.0171L7.87777 56.5676ZM150.5 56.5676L151.312 55.9838L151.013 55.5676L150.5 55.5676L150.5 56.5676ZM2.69461 66.2464C2.9986 65.7853 2.87124 65.165 2.41014 64.8611C1.94904 64.5571 1.32882 64.6844 1.02483 65.1455L2.69461 66.2464ZM2.74428 62.5374C2.44029 62.9985 2.56765 63.6187 3.02875 63.9227C3.48985 64.2267 4.11007 64.0993 4.41406 63.6383L2.74428 62.5374ZM6.1335 61.0301C6.43749 60.569 6.31012 59.9488 5.84903 59.6448C5.38793 59.3409 4.76771 59.4682 4.46372 59.9293L6.1335 61.0301ZM6.18316 57.3212C5.87918 57.7823 6.00654 58.4025 6.46764 58.7065C6.92873 59.0105 7.54896 58.8831 7.85294 58.422L6.18316 57.3212ZM9.91871 57.5676C10.471 57.5676 10.9187 57.1198 10.9187 56.5676C10.9187 56.0153 10.471 55.5676 9.91871 55.5676L9.91871 57.5676ZM14.0006 55.5676C13.4483 55.5676 13.0006 56.0153 13.0006 56.5676C13.0006 57.1198 13.4483 57.5676 14.0006 57.5676L14.0006 55.5676ZM18.0824 57.5676C18.6347 57.5676 19.0824 57.1198 19.0824 56.5676C19.0824 56.0153 18.6347 55.5676 18.0824 55.5676L18.0824 57.5676ZM22.1643 55.5676C21.612 55.5676 21.1643 56.0153 21.1643 56.5676C21.1643 57.1198 21.612 57.5676 22.1643 57.5676L22.1643 55.5676ZM26.2462 57.5676C26.7985 57.5676 27.2462 57.1198 27.2462 56.5676C27.2462 56.0153 26.7985 55.5676 26.2462 55.5676L26.2462 57.5676ZM30.328 55.5676C29.7757 55.5676 29.328 56.0153 29.328 56.5676C29.328 57.1198 29.7757 57.5676 30.328 57.5676L30.328 55.5676ZM34.4099 57.5676C34.9622 57.5676 35.4099 57.1198 35.4099 56.5676C35.4099 56.0153 34.9622 55.5676 34.4099 55.5676L34.4099 57.5676ZM38.4918 55.5676C37.9395 55.5676 37.4918 56.0153 37.4918 56.5676C37.4918 57.1198 37.9395 57.5676 38.4918 57.5676L38.4918 55.5676ZM42.5736 57.5676C43.1259 57.5676 43.5736 57.1198 43.5736 56.5676C43.5736 56.0153 43.1259 55.5676 42.5736 55.5676L42.5736 57.5676ZM46.6555 55.5676C46.1032 55.5676 45.6555 56.0153 45.6555 56.5676C45.6555 57.1198 46.1032 57.5676 46.6555 57.5676L46.6555 55.5676ZM50.7374 57.5676C51.2896 57.5676 51.7374 57.1198 51.7374 56.5676C51.7374 56.0153 51.2896 55.5676 50.7374 55.5676L50.7374 57.5676ZM54.8192 55.5676C54.2669 55.5676 53.8192 56.0153 53.8192 56.5676C53.8192 57.1198 54.2669 57.5676 54.8192 57.5676L54.8192 55.5676ZM58.9011 57.5676C59.4534 57.5676 59.9011 57.1198 59.9011 56.5676C59.9011 56.0153 59.4534 55.5676 58.9011 55.5676L58.9011 57.5676ZM62.9829 55.5676C62.4307 55.5676 61.9829 56.0153 61.9829 56.5676C61.9829 57.1198 62.4307 57.5676 62.9829 57.5676L62.9829 55.5676ZM67.0648 57.5676C67.6171 57.5676 68.0648 57.1198 68.0648 56.5676C68.0648 56.0153 67.6171 55.5676 67.0648 55.5676L67.0648 57.5676ZM71.1467 55.5676C70.5944 55.5676 70.1467 56.0153 70.1467 56.5676C70.1467 57.1198 70.5944 57.5676 71.1467 57.5676L71.1467 55.5676ZM75.5862 55.3315C75.9484 54.9146 75.9041 54.283 75.4872 53.9208C75.0703 53.5586 74.4387 53.6029 74.0764 54.0198L75.5862 55.3315ZM77.3638 50.236C77.0016 50.6529 77.046 51.2846 77.4629 51.6468C77.8798 52.009 78.5114 51.9647 78.8736 51.5477L77.3638 50.236ZM80.9128 51.5935C81.3002 51.987 81.9334 51.9919 82.3269 51.6044C82.7205 51.2169 82.7253 50.5838 82.3379 50.1903L80.9128 51.5935ZM86.0636 53.974C85.6761 53.5805 85.0429 53.5756 84.6494 53.9631C84.2559 54.3506 84.251 54.9838 84.6385 55.3773L86.0636 53.974ZM89.1916 57.5676C89.7439 57.5676 90.1916 57.1198 90.1916 56.5676C90.1916 56.0153 89.7439 55.5676 89.1916 55.5676L89.1916 57.5676ZM93.147 55.5676C92.5947 55.5676 92.147 56.0153 92.147 56.5676C92.147 57.1198 92.5947 57.5676 93.147 57.5676L93.147 55.5676ZM97.1023 57.5676C97.6546 57.5676 98.1023 57.1198 98.1023 56.5676C98.1023 56.0153 97.6546 55.5676 97.1023 55.5676L97.1023 57.5676ZM101.058 55.5676C100.505 55.5676 100.058 56.0153 100.058 56.5676C100.058 57.1198 100.505 57.5676 101.058 57.5676L101.058 55.5676ZM105.013 57.5676C105.565 57.5676 106.013 57.1198 106.013 56.5676C106.013 56.0153 105.565 55.5676 105.013 55.5676L105.013 57.5676ZM108.968 55.5676C108.416 55.5676 107.968 56.0153 107.968 56.5676C107.968 57.1198 108.416 57.5676 108.968 57.5676L108.968 55.5676ZM112.924 57.5676C113.476 57.5676 113.924 57.1198 113.924 56.5676C113.924 56.0153 113.476 55.5676 112.924 55.5676L112.924 57.5676ZM116.879 55.5676C116.327 55.5676 115.879 56.0153 115.879 56.5676C115.879 57.1198 116.327 57.5676 116.879 57.5676L116.879 55.5676ZM120.835 57.5676C121.387 57.5676 121.835 57.1198 121.835 56.5676C121.835 56.0153 121.387 55.5676 120.835 55.5676L120.835 57.5676ZM124.79 55.5676C124.238 55.5676 123.79 56.0153 123.79 56.5676C123.79 57.1198 124.238 57.5676 124.79 57.5676L124.79 55.5676ZM128.745 57.5676C129.298 57.5676 129.745 57.1198 129.745 56.5676C129.745 56.0153 129.298 55.5676 128.745 55.5676L128.745 57.5676ZM132.701 55.5676C132.149 55.5676 131.701 56.0153 131.701 56.5676C131.701 57.1198 132.149 57.5676 132.701 57.5676L132.701 55.5676ZM136.656 57.5676C137.208 57.5676 137.656 57.1198 137.656 56.5676C137.656 56.0153 137.208 55.5676 136.656 55.5676L136.656 57.5676ZM140.612 55.5676C140.059 55.5676 139.612 56.0153 139.612 56.5676C139.612 57.1198 140.059 57.5676 140.612 57.5676L140.612 55.5676ZM144.567 57.5676C145.119 57.5676 145.567 57.1198 145.567 56.5676C145.567 56.0153 145.119 55.5676 144.567 55.5676L144.567 57.5676ZM148.522 55.5676C147.97 55.5676 147.522 56.0153 147.522 56.5676C147.522 57.1198 147.97 57.5676 148.522 57.5676L148.522 55.5676ZM150.626 58.4553C150.948 58.9038 151.573 59.0059 152.021 58.6836C152.47 58.3612 152.572 57.7363 152.249 57.2879L150.626 58.4553ZM154.124 59.896C153.802 59.4476 153.177 59.3454 152.729 59.6678C152.28 59.9902 152.178 60.615 152.501 61.0634L154.124 59.896ZM154.376 63.6716C154.698 64.12 155.323 64.2222 155.771 63.8998C156.22 63.5774 156.322 62.9525 155.999 62.5041L154.376 63.6716ZM157.874 65.1122C157.552 64.6638 156.927 64.5616 156.479 64.884C156.03 65.2064 155.928 65.8312 156.251 66.2797L157.874 65.1122ZM1.83489 67.5504L2.69461 66.2464L1.02483 65.1455L0.165111 66.4496L1.83489 67.5504ZM4.41406 63.6383L6.1335 61.0301L4.46372 59.9293L2.74428 62.5374L4.41406 63.6383ZM7.85294 58.422L8.71266 57.118L7.04288 56.0171L6.18316 57.3212L7.85294 58.422ZM7.87777 57.5676L9.91871 57.5676L9.91871 55.5676L7.87777 55.5676L7.87777 57.5676ZM14.0006 57.5676L18.0824 57.5676L18.0824 55.5676L14.0006 55.5676L14.0006 57.5676ZM22.1643 57.5676L26.2462 57.5676L26.2462 55.5676L22.1643 55.5676L22.1643 57.5676ZM30.328 57.5676L34.4099 57.5676L34.4099 55.5676L30.328 55.5676L30.328 57.5676ZM38.4918 57.5676L42.5736 57.5676L42.5736 55.5676L38.4918 55.5676L38.4918 57.5676ZM46.6555 57.5676L50.7374 57.5676L50.7374 55.5676L46.6555 55.5676L46.6555 57.5676ZM54.8192 57.5676L58.9011 57.5676L58.9011 55.5676L54.8192 55.5676L54.8192 57.5676ZM62.9829 57.5676L67.0648 57.5676L67.0648 55.5676L62.9829 55.5676L62.9829 57.5676ZM71.1467 57.5676L73.1876 57.5676L73.1876 55.5676L71.1467 55.5676L71.1467 57.5676ZM73.9425 57.2234L75.5862 55.3315L74.0764 54.0198L72.4327 55.9117L73.9425 57.2234ZM78.8736 51.5477L80.5173 49.6558L79.0076 48.3441L77.3638 50.236L78.8736 51.5477ZM79.0499 49.7016L80.9128 51.5935L82.3379 50.1903L80.475 48.2984L79.0499 49.7016ZM84.6385 55.3773L86.5013 57.2692L87.9265 55.8659L86.0636 53.974L84.6385 55.3773ZM87.2139 57.5676L89.1916 57.5676L89.1916 55.5676L87.2139 55.5676L87.2139 57.5676ZM93.147 57.5676L97.1023 57.5676L97.1023 55.5676L93.147 55.5676L93.147 57.5676ZM101.058 57.5676L105.013 57.5676L105.013 55.5676L101.058 55.5676L101.058 57.5676ZM108.968 57.5676L112.924 57.5676L112.924 55.5676L108.968 55.5676L108.968 57.5676ZM116.879 57.5676L120.835 57.5676L120.835 55.5676L116.879 55.5676L116.879 57.5676ZM124.79 57.5676L128.745 57.5676L128.745 55.5676L124.79 55.5676L124.79 57.5676ZM132.701 57.5676L136.656 57.5676L136.656 55.5676L132.701 55.5676L132.701 57.5676ZM140.612 57.5676L144.567 57.5676L144.567 55.5676L140.612 55.5676L140.612 57.5676ZM148.522 57.5676L150.5 57.5676L150.5 55.5676L148.522 55.5676L148.522 57.5676ZM149.688 57.1513L150.626 58.4553L152.249 57.2879L151.312 55.9838L149.688 57.1513ZM152.501 61.0634L154.376 63.6716L155.999 62.5041L154.124 59.896L152.501 61.0634ZM156.251 66.2797L157.188 67.5837L158.812 66.4163L157.874 65.1122L156.251 66.2797Z" fill="white"></path> <path opacity="0.25" d="M79.6675 25.27C77.9935 25.27 76.5715 24.982 75.4015 24.406C74.2495 23.812 73.3675 22.975 72.7555 21.895C72.1435 20.797 71.8015 19.483 71.7295 17.953C71.7115 17.215 71.7025 16.423 71.7025 15.577C71.7025 14.731 71.7115 13.921 71.7295 13.147C71.8015 11.635 72.1435 10.33 72.7555 9.232C73.3855 8.134 74.2765 7.297 75.4285 6.721C76.5985 6.127 78.0115 5.83 79.6675 5.83C80.8915 5.83 81.9895 5.992 82.9615 6.316C83.9335 6.64 84.7615 7.09 85.4455 7.666C86.1295 8.224 86.6605 8.881 87.0385 9.637C87.4165 10.393 87.6145 11.212 87.6325 12.094C87.6505 12.256 87.5965 12.391 87.4705 12.499C87.3625 12.607 87.2275 12.661 87.0655 12.661H84.5005C84.3025 12.661 84.1405 12.616 84.0145 12.526C83.8885 12.418 83.7985 12.247 83.7445 12.013C83.4565 10.825 82.9615 10.015 82.2595 9.583C81.5575 9.151 80.6845 8.935 79.6405 8.935C78.4345 8.935 77.4715 9.277 76.7515 9.961C76.0315 10.627 75.6445 11.734 75.5905 13.282C75.5365 14.758 75.5365 16.27 75.5905 17.818C75.6445 19.366 76.0315 20.482 76.7515 21.166C77.4715 21.832 78.4345 22.165 79.6405 22.165C80.6845 22.165 81.5575 21.949 82.2595 21.517C82.9615 21.067 83.4565 20.257 83.7445 19.087C83.7985 18.835 83.8885 18.664 84.0145 18.574C84.1405 18.484 84.3025 18.439 84.5005 18.439H87.0655C87.2275 18.439 87.3625 18.493 87.4705 18.601C87.5965 18.709 87.6505 18.844 87.6325 19.006C87.6145 19.888 87.4165 20.707 87.0385 21.463C86.6605 22.219 86.1295 22.885 85.4455 23.461C84.7615 24.019 83.9335 24.46 82.9615 24.784C81.9895 25.108 80.8915 25.27 79.6675 25.27Z" fill="white"></path> </svg> 