<?xml version="1.0" encoding="UTF-8"?> <svg xmlns="http://www.w3.org/2000/svg" width="88" height="89" viewBox="0 0 88 89" fill="none"> <path fill-rule="evenodd" clip-rule="evenodd" d="M72.3365 67.9484C72.8824 68.6432 72.7617 69.6491 72.0668 70.195C69.4065 72.2852 66.4315 71.8047 65.1489 71.2298C64.3426 70.8683 63.9819 69.9216 64.3434 69.1153C64.7049 68.3089 65.6516 67.9483 66.4579 68.3098C66.9644 68.5368 68.6041 68.8461 70.0899 67.6788C70.7847 67.1328 71.7906 67.2535 72.3365 67.9484Z" fill="white"></path> <path fill-rule="evenodd" clip-rule="evenodd" d="M29.6352 49.5376C33.3701 40.3031 41.8697 39.3989 45.706 40.1323L45.7355 40.1382L65.1528 44.2313C66.0175 44.4136 66.5707 45.2623 66.3884 46.1269C66.2061 46.9916 65.3574 47.5448 64.4928 47.3625L45.091 43.2727C42.1708 42.7207 35.5326 43.41 32.578 50.7964C32.5596 50.8424 32.5391 50.8875 32.5165 50.9316L30.0986 55.6523C31.5057 56.278 33.285 56.6869 35.0207 56.3982C37.0467 56.0613 39.3034 54.7284 40.955 50.909C41.3057 50.098 42.2476 49.7248 43.0586 50.0755C43.8697 50.4262 44.2429 51.3681 43.8921 52.1791C41.8713 56.8523 38.79 59.0153 35.5457 59.5549C32.4293 60.0732 29.4477 59.0464 27.5392 57.9329C26.5393 57.3494 26.2631 56.1213 26.7435 55.1833L29.6352 49.5376Z" fill="white"></path> <path fill-rule="evenodd" clip-rule="evenodd" d="M35.6753 44.9429C35.7914 45.8189 35.1754 46.6232 34.2994 46.7393L22.3252 48.3263C21.4492 48.4424 20.645 47.8264 20.5289 46.9504C20.4128 46.0744 21.0288 45.2701 21.9048 45.154L33.879 43.567C34.755 43.4509 35.5592 44.0669 35.6753 44.9429Z" fill="white"></path> <path fill-rule="evenodd" clip-rule="evenodd" d="M7.20096 39.8449C7.51112 38.6843 8.72995 38.0199 9.87347 38.3882L19.7479 41.568C22.6252 42.4946 24.2479 45.5375 23.4141 48.4431L17.8387 67.8722L40.2142 85.0811C41.0545 85.7274 42.2439 85.6502 42.9935 84.9005C43.8469 84.0471 43.8123 82.6531 42.9175 81.8432L35.5772 75.1986C34.9244 74.6076 34.8718 73.6001 35.4596 72.9444C36.0475 72.2886 37.0547 72.2312 37.7132 72.8158L47.8639 81.8272C48.7016 82.5708 49.9772 82.52 50.7531 81.7121C51.4999 80.9344 51.5193 79.738 50.8573 78.9388L40.7958 70.5381C40.1181 69.9723 40.0268 68.9646 40.5916 68.2862C41.1565 67.6078 42.1641 67.515 42.8433 68.0789L42.8467 68.0818L52.6252 76.2005C52.7887 76.3363 52.9418 76.4797 53.0846 76.6297L54.7058 77.9833C55.735 78.8427 57.2627 78.7206 58.1425 77.7088C59.0853 76.6245 58.9034 74.9666 57.7479 74.1125L47.222 66.3326C46.5114 65.8073 46.3611 64.8055 46.8864 64.0949C47.4116 63.3843 48.4135 63.234 49.1241 63.7592L62.2797 73.483C62.9704 73.9935 63.9393 73.8773 64.4897 73.2179C65.0727 72.5195 64.9676 71.4783 64.2567 70.9105L38.5275 50.3585C37.8371 49.807 37.7245 48.8002 38.276 48.1098C38.8275 47.4194 39.8343 47.3068 40.5247 47.8583L66.2539 68.4102C68.3667 70.0979 68.6791 73.1926 66.9463 75.2686C65.6871 76.7771 63.6908 77.3291 61.902 76.8112C61.7664 77.8818 61.3233 78.9274 60.5573 79.8084C58.9916 81.6093 56.5334 82.1844 54.4049 81.4362C54.2007 82.3417 53.7547 83.2064 53.0611 83.9286C51.349 85.7114 48.6771 86.0395 46.6134 84.8504C46.3757 85.6962 45.924 86.4955 45.2563 87.1633C43.3702 89.0494 40.3777 89.2438 38.2633 87.6177L16.4613 70.8498C15.2282 72.2004 13.2779 72.7965 11.4125 72.2074L1.46807 69.0671C0.396934 68.7289 -0.218364 67.6076 0.0716426 66.5224L7.20096 39.8449ZM14.4627 68.0357L20.3382 47.5604C20.6956 46.3152 20.0001 45.0111 18.767 44.614L9.99378 41.7887L3.43472 66.3324L12.3761 69.156C13.2629 69.436 14.2062 68.9296 14.4627 68.0357Z" fill="white"></path> <path fill-rule="evenodd" clip-rule="evenodd" d="M80.7992 39.8449C80.4891 38.6843 79.2702 38.0199 78.1267 38.3882L68.2523 41.568C65.375 42.4946 63.7523 45.5375 64.5861 48.4431L70.4616 68.9183C71.2148 71.5428 73.984 73.0297 76.5877 72.2074L86.5321 69.0671C87.6032 68.7289 88.2186 67.6076 87.9285 66.5224L80.7992 39.8449ZM78.0064 41.7887L84.5655 66.3324L75.6241 69.156C74.7373 69.436 73.794 68.9296 73.5375 68.0357L67.662 47.5604C67.3046 46.3152 68.0001 45.0111 69.2332 44.614L78.0064 41.7887Z" fill="white"></path> <path fill-rule="evenodd" clip-rule="evenodd" d="M44.2555 23.7955C37.5133 23.7955 32.0477 29.2611 32.0477 36.0032C32.0477 36.8869 31.3314 37.6032 30.4477 37.6032C29.5641 37.6032 28.8477 36.8869 28.8477 36.0032C28.8477 27.4938 35.746 20.5955 44.2555 20.5955C52.7649 20.5955 59.6632 27.4938 59.6632 36.0032C59.6632 36.8869 58.9469 37.6032 58.0632 37.6032C57.1796 37.6032 56.4632 36.8869 56.4632 36.0032C56.4632 29.2611 50.9976 23.7955 44.2555 23.7955Z" fill="white"></path> <path fill-rule="evenodd" clip-rule="evenodd" d="M39.6058 3.18838C38.8326 3.18838 38.2058 3.80033 38.2058 4.55521V10.1534C38.2058 10.7627 37.8429 11.3164 37.2763 11.5717L31.5991 14.1298C31.0384 14.3825 30.3788 14.2975 29.9043 13.9115L25.9621 10.7042C25.393 10.2411 24.5528 10.2912 24.0455 10.8184L18.8389 16.2295C18.3417 16.7462 18.3318 17.5484 18.816 18.0767L21.9313 21.476C22.3436 21.9259 22.4535 22.5674 22.2135 23.1238L19.8845 28.5243C19.6346 29.1035 19.0536 29.4802 18.4098 29.4802H14.1116C13.7741 29.4802 13.5995 29.5746 13.5318 29.6365C12.3776 30.6932 11.7716 32.2798 11.5719 34.0559C11.3732 35.8223 11.6009 37.5876 11.9178 38.7479C12.1455 39.5815 11.638 40.4374 10.7842 40.6597C9.93034 40.882 9.0536 40.3865 8.8259 39.5529C8.41954 38.0653 8.14407 35.91 8.39099 33.7148C8.63681 31.5293 9.42522 29.1132 11.3429 27.3576C12.1702 26.6002 13.2223 26.356 14.1116 26.356H17.3475L18.8714 22.8225L16.4312 20.1599C14.8402 18.4239 14.873 15.7883 16.5066 14.0905L21.7132 8.67934C23.38 6.94706 26.1406 6.78259 28.0107 8.30414L31.1762 10.8795L35.0058 9.1539V4.55521C35.0058 2.0749 37.0652 0.064209 39.6058 0.064209H48.4536C50.9941 0.064209 53.0536 2.0749 53.0536 4.55521V9.14335L57.0206 10.8862L60.2285 8.27628C62.077 6.77229 64.8005 6.9134 66.4757 8.59997L71.7986 13.9591C73.5479 15.7204 73.5258 18.5263 71.7489 20.2611L69.0853 22.8616L70.6866 26.356H75.0131C76.88 26.356 78.7226 27.4873 79.2407 29.4435C79.6438 30.9655 79.979 32.8782 79.9586 34.8155C79.9384 36.7367 79.5668 38.8222 78.418 40.5607C77.9389 41.2857 76.9486 41.4942 76.2061 41.0265C75.4636 40.5588 75.25 39.592 75.729 38.867C76.4257 37.8128 76.7419 36.3887 76.7588 34.7834C76.7755 33.1943 76.497 31.5638 76.1426 30.2256C76.0392 29.8352 75.6288 29.4802 75.0131 29.4802H69.6496C69.0187 29.4802 68.4467 29.1183 68.189 28.556L65.7144 23.1555C65.4435 22.5642 65.5744 21.8711 66.0435 21.413L69.4862 18.052C70.027 17.524 70.0337 16.6701 69.5013 16.134L64.1784 10.7748C63.6686 10.2615 62.8397 10.2186 62.2771 10.6763L58.3006 13.9115C57.8304 14.2941 57.1779 14.3812 56.6197 14.136L50.7971 11.5779C50.2229 11.3256 49.8536 10.7681 49.8536 10.1534V4.55521C49.8536 3.80033 49.2268 3.18838 48.4536 3.18838H39.6058Z" fill="white"></path> </svg> 