<?xml version="1.0" encoding="UTF-8"?> <svg xmlns="http://www.w3.org/2000/svg" width="535" height="79" viewBox="0 0 535 79" fill="none"> <path opacity="0.3" d="M534.733 1.68007C535.109 1.27516 535.085 0.642437 534.68 0.266848C534.275 -0.10874 533.642 -0.0849704 533.267 0.319939L534.733 1.68007ZM1.73315 0.319939C1.3576 -0.0849716 0.724851 -0.108743 0.319944 0.266845C-0.0849635 0.642432 -0.108706 1.27515 0.266843 1.68006L1.73315 0.319939ZM242.009 14.3243L242.521 13.4657L242.284 13.3243L242.009 13.3243L242.009 14.3243ZM291.446 14.3243L291.446 13.3243L291.14 13.3243L290.886 13.496L291.446 14.3243ZM268.272 30L267.76 30.8587L268.306 31.1846L268.833 30.8283L268.272 30ZM521.641 14.3243L521.641 15.3243L522.077 15.3243L522.374 15.0044L521.641 14.3243ZM13.3594 14.3244L12.6263 15.0044L12.923 15.3244L13.3594 15.3244L13.3594 14.3244ZM531.722 1.98548C531.346 2.39039 531.37 3.02311 531.775 3.3987C532.18 3.77428 532.813 3.75052 533.188 3.34561L531.722 1.98548ZM530.098 6.67669C530.474 6.27178 530.45 5.63906 530.045 5.26347C529.64 4.88788 529.008 4.91165 528.632 5.31656L530.098 6.67669ZM525.542 8.64764C525.167 9.05255 525.19 9.68527 525.595 10.0609C526 10.4364 526.633 10.4127 527.008 10.0078L525.542 8.64764ZM523.919 13.3388C524.294 12.9339 524.27 12.3012 523.866 11.9256C523.461 11.55 522.828 11.5738 522.452 11.9787L523.919 13.3388ZM519.656 13.3243C519.104 13.3243 518.656 13.772 518.656 14.3243C518.656 14.8766 519.104 15.3243 519.656 15.3243L519.656 13.3243ZM515.687 15.3243C516.24 15.3243 516.687 14.8766 516.687 14.3243C516.687 13.772 516.24 13.3243 515.687 13.3243L515.687 15.3243ZM511.718 13.3243C511.166 13.3243 510.718 13.772 510.718 14.3243C510.718 14.8766 511.166 15.3243 511.718 15.3243L511.718 13.3243ZM507.75 15.3243C508.302 15.3243 508.75 14.8766 508.75 14.3243C508.75 13.772 508.302 13.3243 507.75 13.3243L507.75 15.3243ZM503.781 13.3243C503.228 13.3243 502.781 13.772 502.781 14.3243C502.781 14.8766 503.228 15.3243 503.781 15.3243L503.781 13.3243ZM499.812 15.3243C500.364 15.3243 500.812 14.8766 500.812 14.3243C500.812 13.772 500.364 13.3243 499.812 13.3243L499.812 15.3243ZM495.843 13.3243C495.291 13.3243 494.843 13.772 494.843 14.3243C494.843 14.8766 495.291 15.3243 495.843 15.3243L495.843 13.3243ZM491.874 15.3243C492.426 15.3243 492.874 14.8766 492.874 14.3243C492.874 13.772 492.426 13.3243 491.874 13.3243L491.874 15.3243ZM487.905 13.3243C487.353 13.3243 486.905 13.772 486.905 14.3243C486.905 14.8766 487.353 15.3243 487.905 15.3243L487.905 13.3243ZM483.936 15.3243C484.489 15.3243 484.936 14.8766 484.936 14.3243C484.936 13.772 484.489 13.3243 483.936 13.3243L483.936 15.3243ZM479.967 13.3243C479.415 13.3243 478.967 13.772 478.967 14.3243C478.967 14.8766 479.415 15.3243 479.967 15.3243L479.967 13.3243ZM475.999 15.3243C476.551 15.3243 476.999 14.8766 476.999 14.3243C476.999 13.772 476.551 13.3243 475.999 13.3243L475.999 15.3243ZM472.03 13.3243C471.477 13.3243 471.03 13.772 471.03 14.3243C471.03 14.8766 471.477 15.3243 472.03 15.3243L472.03 13.3243ZM468.061 15.3243C468.613 15.3243 469.061 14.8766 469.061 14.3243C469.061 13.772 468.613 13.3243 468.061 13.3243L468.061 15.3243ZM464.092 13.3243C463.54 13.3243 463.092 13.772 463.092 14.3243C463.092 14.8766 463.54 15.3243 464.092 15.3243L464.092 13.3243ZM460.123 15.3243C460.675 15.3243 461.123 14.8766 461.123 14.3243C461.123 13.772 460.675 13.3243 460.123 13.3243L460.123 15.3243ZM456.154 13.3243C455.602 13.3243 455.154 13.772 455.154 14.3243C455.154 14.8766 455.602 15.3243 456.154 15.3243L456.154 13.3243ZM452.185 15.3243C452.738 15.3243 453.185 14.8766 453.185 14.3243C453.185 13.772 452.738 13.3243 452.185 13.3243L452.185 15.3243ZM448.217 13.3243C447.664 13.3243 447.217 13.772 447.217 14.3243C447.217 14.8766 447.664 15.3243 448.217 15.3243L448.217 13.3243ZM444.248 15.3243C444.8 15.3243 445.248 14.8766 445.248 14.3243C445.248 13.772 444.8 13.3243 444.248 13.3243L444.248 15.3243ZM440.279 13.3243C439.727 13.3243 439.279 13.772 439.279 14.3243C439.279 14.8766 439.727 15.3243 440.279 15.3243L440.279 13.3243ZM436.31 15.3243C436.862 15.3243 437.31 14.8766 437.31 14.3243C437.31 13.772 436.862 13.3243 436.31 13.3243L436.31 15.3243ZM432.341 13.3243C431.789 13.3243 431.341 13.772 431.341 14.3243C431.341 14.8766 431.789 15.3243 432.341 15.3243L432.341 13.3243ZM428.372 15.3243C428.925 15.3243 429.372 14.8766 429.372 14.3243C429.372 13.772 428.925 13.3243 428.372 13.3243L428.372 15.3243ZM424.403 13.3243C423.851 13.3243 423.403 13.772 423.403 14.3243C423.403 14.8766 423.851 15.3243 424.403 15.3243L424.403 13.3243ZM420.434 15.3243C420.987 15.3243 421.434 14.8766 421.434 14.3243C421.434 13.772 420.987 13.3243 420.434 13.3243L420.434 15.3243ZM416.466 13.3243C415.913 13.3243 415.466 13.772 415.466 14.3243C415.466 14.8766 415.913 15.3243 416.466 15.3243L416.466 13.3243ZM412.497 15.3243C413.049 15.3243 413.497 14.8766 413.497 14.3243C413.497 13.772 413.049 13.3243 412.497 13.3243L412.497 15.3243ZM408.528 13.3243C407.976 13.3243 407.528 13.772 407.528 14.3243C407.528 14.8766 407.976 15.3243 408.528 15.3243L408.528 13.3243ZM404.559 15.3243C405.111 15.3243 405.559 14.8766 405.559 14.3243C405.559 13.772 405.111 13.3243 404.559 13.3243L404.559 15.3243ZM400.59 13.3243C400.038 13.3243 399.59 13.772 399.59 14.3243C399.59 14.8766 400.038 15.3243 400.59 15.3243L400.59 13.3243ZM396.621 15.3243C397.174 15.3243 397.621 14.8766 397.621 14.3243C397.621 13.772 397.174 13.3243 396.621 13.3243L396.621 15.3243ZM392.652 13.3243C392.1 13.3243 391.652 13.772 391.652 14.3243C391.652 14.8766 392.1 15.3243 392.652 15.3243L392.652 13.3243ZM388.684 15.3243C389.236 15.3243 389.684 14.8766 389.684 14.3243C389.684 13.7721 389.236 13.3243 388.684 13.3243L388.684 15.3243ZM384.715 13.3243C384.162 13.3243 383.715 13.7721 383.715 14.3243C383.715 14.8766 384.162 15.3243 384.715 15.3243L384.715 13.3243ZM380.746 15.3243C381.298 15.3243 381.746 14.8766 381.746 14.3243C381.746 13.7721 381.298 13.3243 380.746 13.3243L380.746 15.3243ZM376.777 13.3243C376.225 13.3243 375.777 13.7721 375.777 14.3243C375.777 14.8766 376.225 15.3243 376.777 15.3243L376.777 13.3243ZM372.808 15.3243C373.36 15.3243 373.808 14.8766 373.808 14.3243C373.808 13.7721 373.36 13.3243 372.808 13.3243L372.808 15.3243ZM368.839 13.3243C368.287 13.3243 367.839 13.7721 367.839 14.3243C367.839 14.8766 368.287 15.3243 368.839 15.3243L368.839 13.3243ZM364.87 15.3243C365.423 15.3243 365.87 14.8766 365.87 14.3243C365.87 13.7721 365.423 13.3243 364.87 13.3243L364.87 15.3243ZM360.901 13.3243C360.349 13.3243 359.901 13.7721 359.901 14.3243C359.901 14.8766 360.349 15.3243 360.901 15.3243L360.901 13.3243ZM356.933 15.3243C357.485 15.3243 357.933 14.8766 357.933 14.3243C357.933 13.7721 357.485 13.3243 356.933 13.3243L356.933 15.3243ZM352.964 13.3243C352.411 13.3243 351.964 13.7721 351.964 14.3243C351.964 14.8766 352.411 15.3243 352.964 15.3243L352.964 13.3243ZM348.995 15.3243C349.547 15.3243 349.995 14.8766 349.995 14.3243C349.995 13.7721 349.547 13.3243 348.995 13.3243L348.995 15.3243ZM345.026 13.3243C344.474 13.3243 344.026 13.7721 344.026 14.3243C344.026 14.8766 344.474 15.3243 345.026 15.3243L345.026 13.3243ZM341.057 15.3243C341.609 15.3243 342.057 14.8766 342.057 14.3243C342.057 13.7721 341.609 13.3243 341.057 13.3243L341.057 15.3243ZM337.088 13.3243C336.536 13.3243 336.088 13.7721 336.088 14.3243C336.088 14.8766 336.536 15.3243 337.088 15.3243L337.088 13.3243ZM333.119 15.3243C333.672 15.3243 334.119 14.8766 334.119 14.3243C334.119 13.7721 333.672 13.3243 333.119 13.3243L333.119 15.3243ZM329.15 13.3243C328.598 13.3243 328.15 13.7721 328.15 14.3243C328.15 14.8766 328.598 15.3243 329.15 15.3243L329.15 13.3243ZM325.182 15.3243C325.734 15.3243 326.182 14.8766 326.182 14.3243C326.182 13.7721 325.734 13.3243 325.182 13.3243L325.182 15.3243ZM321.213 13.3243C320.66 13.3243 320.213 13.7721 320.213 14.3243C320.213 14.8766 320.66 15.3243 321.213 15.3243L321.213 13.3243ZM317.244 15.3243C317.796 15.3243 318.244 14.8766 318.244 14.3243C318.244 13.7721 317.796 13.3243 317.244 13.3243L317.244 15.3243ZM313.275 13.3243C312.723 13.3243 312.275 13.7721 312.275 14.3243C312.275 14.8766 312.723 15.3243 313.275 15.3243L313.275 13.3243ZM309.306 15.3243C309.858 15.3243 310.306 14.8766 310.306 14.3243C310.306 13.7721 309.858 13.3243 309.306 13.3243L309.306 15.3243ZM305.337 13.3243C304.785 13.3243 304.337 13.7721 304.337 14.3243C304.337 14.8766 304.785 15.3243 305.337 15.3243L305.337 13.3243ZM301.368 15.3243C301.921 15.3243 302.368 14.8766 302.368 14.3243C302.368 13.7721 301.921 13.3243 301.368 13.3243L301.368 15.3243ZM297.4 13.3243C296.847 13.3243 296.4 13.7721 296.4 14.3243C296.4 14.8766 296.847 15.3243 297.4 15.3243L297.4 13.3243ZM293.431 15.3243C293.983 15.3243 294.431 14.8766 294.431 14.3243C294.431 13.7721 293.983 13.3243 293.431 13.3243L293.431 15.3243ZM288.955 14.8024C288.497 15.1118 288.377 15.7335 288.687 16.1909C288.996 16.6484 289.618 16.7684 290.076 16.4589L288.955 14.8024ZM286.213 19.0716C286.671 18.7621 286.791 18.1404 286.481 17.683C286.172 17.2255 285.55 17.1055 285.093 17.415L286.213 19.0716ZM281.23 20.0276C280.773 20.337 280.653 20.9587 280.962 21.4162C281.272 21.8736 281.893 21.9936 282.351 21.6842L281.23 20.0276ZM278.489 24.2968C278.946 23.9873 279.066 23.3657 278.757 22.9082C278.447 22.4507 277.825 22.3308 277.368 22.6402L278.489 24.2968ZM273.506 25.2528C273.048 25.5622 272.928 26.1839 273.238 26.6414C273.547 27.0988 274.169 27.2188 274.626 26.9094L273.506 25.2528ZM270.764 29.522C271.221 29.2126 271.341 28.5909 271.032 28.1334C270.723 27.676 270.101 27.556 269.643 27.8654L270.764 29.522ZM267.143 28.1616C266.669 27.8786 266.055 28.0335 265.772 28.5078C265.489 28.982 265.644 29.5959 266.118 29.879L267.143 28.1616ZM262.836 27.9195C263.31 28.2026 263.924 28.0476 264.207 27.5733C264.49 27.0991 264.335 26.4852 263.861 26.2022L262.836 27.9195ZM260.578 24.2427C260.103 23.9596 259.489 24.1146 259.206 24.5889C258.923 25.0631 259.078 25.677 259.553 25.9601L260.578 24.2427ZM256.27 24.0006C256.744 24.2836 257.358 24.1287 257.641 23.6544C257.924 23.1802 257.769 22.5663 257.295 22.2832L256.27 24.0006ZM254.012 20.3238C253.537 20.0407 252.923 20.1957 252.64 20.6699C252.357 21.1442 252.512 21.7581 252.987 22.0411L254.012 20.3238ZM249.704 20.0817C250.178 20.3647 250.792 20.2097 251.075 19.7355C251.358 19.2613 251.203 18.6474 250.729 18.3643L249.704 20.0817ZM247.446 16.4049C246.971 16.1218 246.358 16.2768 246.074 16.751C245.791 17.2253 245.946 17.8392 246.421 18.1222L247.446 16.4049ZM243.138 16.1628C243.612 16.4458 244.226 16.2908 244.509 15.8166C244.792 15.3423 244.637 14.7284 244.163 14.4454L243.138 16.1628ZM240.038 13.3243C239.485 13.3243 239.038 13.7721 239.038 14.3243C239.038 14.8766 239.485 15.3243 240.038 15.3243L240.038 13.3243ZM236.095 15.3243C236.648 15.3243 237.095 14.8766 237.095 14.3243C237.095 13.7721 236.648 13.3243 236.095 13.3243L236.095 15.3243ZM232.153 13.3243C231.601 13.3243 231.153 13.7721 231.153 14.3243C231.153 14.8766 231.601 15.3243 232.153 15.3243L232.153 13.3243ZM228.211 15.3243C228.763 15.3243 229.211 14.8766 229.211 14.3243C229.211 13.7721 228.763 13.3243 228.211 13.3243L228.211 15.3243ZM224.269 13.3243C223.716 13.3243 223.269 13.7721 223.269 14.3243C223.269 14.8766 223.716 15.3243 224.269 15.3243L224.269 13.3243ZM220.326 15.3244C220.879 15.3244 221.326 14.8766 221.326 14.3244C221.326 13.7721 220.879 13.3243 220.326 13.3243L220.326 15.3244ZM216.384 13.3243C215.832 13.3243 215.384 13.7721 215.384 14.3244C215.384 14.8766 215.832 15.3244 216.384 15.3244L216.384 13.3243ZM212.442 15.3244C212.994 15.3244 213.442 14.8766 213.442 14.3244C213.442 13.7721 212.994 13.3243 212.442 13.3243L212.442 15.3244ZM208.5 13.3244C207.947 13.3244 207.5 13.7721 207.5 14.3244C207.5 14.8766 207.947 15.3244 208.5 15.3244L208.5 13.3244ZM204.558 15.3244C205.11 15.3244 205.558 14.8766 205.558 14.3244C205.558 13.7721 205.11 13.3244 204.558 13.3244L204.558 15.3244ZM200.615 13.3244C200.063 13.3244 199.615 13.7721 199.615 14.3244C199.615 14.8766 200.063 15.3244 200.615 15.3244L200.615 13.3244ZM196.673 15.3244C197.225 15.3244 197.673 14.8766 197.673 14.3244C197.673 13.7721 197.225 13.3244 196.673 13.3244L196.673 15.3244ZM192.731 13.3244C192.179 13.3244 191.731 13.7721 191.731 14.3244C191.731 14.8766 192.179 15.3244 192.731 15.3244L192.731 13.3244ZM188.789 15.3244C189.341 15.3244 189.789 14.8766 189.789 14.3244C189.789 13.7721 189.341 13.3244 188.789 13.3244L188.789 15.3244ZM184.846 13.3244C184.294 13.3244 183.846 13.7721 183.846 14.3244C183.846 14.8766 184.294 15.3244 184.846 15.3244L184.846 13.3244ZM180.904 15.3244C181.456 15.3244 181.904 14.8766 181.904 14.3244C181.904 13.7721 181.456 13.3244 180.904 13.3244L180.904 15.3244ZM176.962 13.3244C176.41 13.3244 175.962 13.7721 175.962 14.3244C175.962 14.8766 176.41 15.3244 176.962 15.3244L176.962 13.3244ZM173.02 15.3244C173.572 15.3244 174.02 14.8766 174.02 14.3244C174.02 13.7721 173.572 13.3244 173.02 13.3244L173.02 15.3244ZM169.077 13.3244C168.525 13.3244 168.077 13.7721 168.077 14.3244C168.077 14.8766 168.525 15.3244 169.077 15.3244L169.077 13.3244ZM165.135 15.3244C165.687 15.3244 166.135 14.8766 166.135 14.3244C166.135 13.7721 165.687 13.3244 165.135 13.3244L165.135 15.3244ZM161.193 13.3244C160.641 13.3244 160.193 13.7721 160.193 14.3244C160.193 14.8766 160.641 15.3244 161.193 15.3244L161.193 13.3244ZM157.251 15.3244C157.803 15.3244 158.251 14.8766 158.251 14.3244C158.251 13.7721 157.803 13.3244 157.251 13.3244L157.251 15.3244ZM153.309 13.3244C152.756 13.3244 152.309 13.7721 152.309 14.3244C152.309 14.8766 152.756 15.3244 153.309 15.3244L153.309 13.3244ZM149.366 15.3244C149.919 15.3244 150.366 14.8766 150.366 14.3244C150.366 13.7721 149.919 13.3244 149.366 13.3244L149.366 15.3244ZM145.424 13.3244C144.872 13.3244 144.424 13.7721 144.424 14.3244C144.424 14.8766 144.872 15.3244 145.424 15.3244L145.424 13.3244ZM141.482 15.3244C142.034 15.3244 142.482 14.8766 142.482 14.3244C142.482 13.7721 142.034 13.3244 141.482 13.3244L141.482 15.3244ZM137.54 13.3244C136.987 13.3244 136.54 13.7721 136.54 14.3244C136.54 14.8766 136.987 15.3244 137.54 15.3244L137.54 13.3244ZM133.597 15.3244C134.15 15.3244 134.597 14.8766 134.597 14.3244C134.597 13.7721 134.15 13.3244 133.597 13.3244L133.597 15.3244ZM129.655 13.3244C129.103 13.3244 128.655 13.7721 128.655 14.3244C128.655 14.8766 129.103 15.3244 129.655 15.3244L129.655 13.3244ZM125.713 15.3244C126.265 15.3244 126.713 14.8766 126.713 14.3244C126.713 13.7721 126.265 13.3244 125.713 13.3244L125.713 15.3244ZM121.771 13.3244C121.218 13.3244 120.771 13.7721 120.771 14.3244C120.771 14.8766 121.218 15.3244 121.771 15.3244L121.771 13.3244ZM117.828 15.3244C118.381 15.3244 118.828 14.8766 118.828 14.3244C118.828 13.7721 118.381 13.3244 117.828 13.3244L117.828 15.3244ZM113.886 13.3244C113.334 13.3244 112.886 13.7721 112.886 14.3244C112.886 14.8766 113.334 15.3244 113.886 15.3244L113.886 13.3244ZM109.944 15.3244C110.496 15.3244 110.944 14.8766 110.944 14.3244C110.944 13.7721 110.496 13.3244 109.944 13.3244L109.944 15.3244ZM106.002 13.3244C105.449 13.3244 105.002 13.7721 105.002 14.3244C105.002 14.8766 105.449 15.3244 106.002 15.3244L106.002 13.3244ZM102.06 15.3244C102.612 15.3244 103.06 14.8766 103.06 14.3244C103.06 13.7721 102.612 13.3244 102.06 13.3244L102.06 15.3244ZM98.1173 13.3244C97.565 13.3244 97.1173 13.7721 97.1173 14.3244C97.1173 14.8766 97.565 15.3244 98.1173 15.3244L98.1173 13.3244ZM94.1751 15.3244C94.7274 15.3244 95.1751 14.8766 95.1751 14.3244C95.1751 13.7721 94.7274 13.3244 94.1751 13.3244L94.1751 15.3244ZM90.2328 13.3244C89.6806 13.3244 89.2328 13.7721 89.2328 14.3244C89.2328 14.8766 89.6806 15.3244 90.2328 15.3244L90.2328 13.3244ZM86.2906 15.3244C86.8429 15.3244 87.2906 14.8766 87.2906 14.3244C87.2906 13.7721 86.8429 13.3244 86.2906 13.3244L86.2906 15.3244ZM82.3484 13.3244C81.7961 13.3244 81.3484 13.7721 81.3484 14.3244C81.3484 14.8766 81.7961 15.3244 82.3484 15.3244L82.3484 13.3244ZM78.4062 15.3244C78.9584 15.3244 79.4062 14.8766 79.4062 14.3244C79.4062 13.7721 78.9584 13.3244 78.4062 13.3244L78.4062 15.3244ZM74.4639 13.3244C73.9117 13.3244 73.4639 13.7721 73.4639 14.3244C73.4639 14.8766 73.9117 15.3244 74.4639 15.3244L74.4639 13.3244ZM70.5217 15.3244C71.074 15.3244 71.5217 14.8766 71.5217 14.3244C71.5217 13.7721 71.074 13.3244 70.5217 13.3244L70.5217 15.3244ZM66.5795 13.3244C66.0272 13.3244 65.5795 13.7721 65.5795 14.3244C65.5795 14.8766 66.0272 15.3244 66.5795 15.3244L66.5795 13.3244ZM62.6372 15.3244C63.1895 15.3244 63.6372 14.8766 63.6372 14.3244C63.6372 13.7721 63.1895 13.3244 62.6372 13.3244L62.6372 15.3244ZM58.695 13.3244C58.1427 13.3244 57.695 13.7721 57.695 14.3244C57.695 14.8766 58.1427 15.3244 58.695 15.3244L58.695 13.3244ZM54.7528 15.3244C55.3051 15.3244 55.7528 14.8766 55.7528 14.3244C55.7528 13.7721 55.3051 13.3244 54.7528 13.3244L54.7528 15.3244ZM50.8105 13.3244C50.2583 13.3244 49.8105 13.7721 49.8105 14.3244C49.8105 14.8766 50.2583 15.3244 50.8105 15.3244L50.8105 13.3244ZM46.8683 15.3244C47.4206 15.3244 47.8683 14.8766 47.8683 14.3244C47.8683 13.7721 47.4206 13.3244 46.8683 13.3244L46.8683 15.3244ZM42.9261 13.3244C42.3738 13.3244 41.9261 13.7721 41.9261 14.3244C41.9261 14.8766 42.3738 15.3244 42.9261 15.3244L42.9261 13.3244ZM38.9839 15.3244C39.5361 15.3244 39.9839 14.8767 39.9839 14.3244C39.9839 13.7721 39.5361 13.3244 38.9839 13.3244L38.9839 15.3244ZM35.0416 13.3244C34.4893 13.3244 34.0416 13.7721 34.0416 14.3244C34.0416 14.8767 34.4893 15.3244 35.0416 15.3244L35.0416 13.3244ZM31.0994 15.3244C31.6517 15.3244 32.0994 14.8767 32.0994 14.3244C32.0994 13.7721 31.6517 13.3244 31.0994 13.3244L31.0994 15.3244ZM27.1572 13.3244C26.6049 13.3244 26.1572 13.7721 26.1572 14.3244C26.1572 14.8767 26.6049 15.3244 27.1572 15.3244L27.1572 13.3244ZM23.2149 15.3244C23.7672 15.3244 24.2149 14.8767 24.2149 14.3244C24.2149 13.7721 23.7672 13.3244 23.2149 13.3244L23.2149 15.3244ZM19.2727 13.3244C18.7204 13.3244 18.2727 13.7721 18.2727 14.3244C18.2727 14.8767 18.7204 15.3244 19.2727 15.3244L19.2727 13.3244ZM15.3305 15.3244C15.8828 15.3244 16.3305 14.8767 16.3305 14.3244C16.3305 13.7721 15.8828 13.3244 15.3305 13.3244L15.3305 15.3244ZM12.5477 11.9788C12.1721 11.5739 11.5394 11.5501 11.1345 11.9257C10.7296 12.3013 10.7057 12.934 11.0814 13.3389L12.5477 11.9788ZM7.99151 10.0078C8.36706 10.4127 8.99982 10.4365 9.40472 10.0609C9.80963 9.6853 9.83337 9.05258 9.45782 8.64767L7.99151 10.0078ZM6.36798 5.31658C5.99237 4.91167 5.35968 4.8879 4.95477 5.26348C4.5498 5.63907 4.52606 6.27179 4.90167 6.6767L6.36798 5.31658ZM1.81177 3.34561C2.18738 3.75052 2.82007 3.77429 3.22503 3.3987C3.62994 3.02312 3.65368 2.3904 3.27807 1.98549L1.81177 3.34561ZM533.267 0.319939L531.722 1.98548L533.188 3.34561L534.733 1.68007L533.267 0.319939ZM528.632 5.31656L525.542 8.64764L527.008 10.0078L530.098 6.67669L528.632 5.31656ZM522.452 11.9787L520.907 13.6443L522.374 15.0044L523.919 13.3388L522.452 11.9787ZM521.641 13.3243L519.656 13.3243L519.656 15.3243L521.641 15.3243L521.641 13.3243ZM515.687 13.3243L511.718 13.3243L511.718 15.3243L515.687 15.3243L515.687 13.3243ZM507.75 13.3243L503.781 13.3243L503.781 15.3243L507.75 15.3243L507.75 13.3243ZM499.812 13.3243L495.843 13.3243L495.843 15.3243L499.812 15.3243L499.812 13.3243ZM491.874 13.3243L487.905 13.3243L487.905 15.3243L491.874 15.3243L491.874 13.3243ZM483.936 13.3243L479.967 13.3243L479.967 15.3243L483.936 15.3243L483.936 13.3243ZM475.999 13.3243L472.03 13.3243L472.03 15.3243L475.999 15.3243L475.999 13.3243ZM468.061 13.3243L464.092 13.3243L464.092 15.3243L468.061 15.3243L468.061 13.3243ZM460.123 13.3243L456.154 13.3243L456.154 15.3243L460.123 15.3243L460.123 13.3243ZM452.185 13.3243L448.217 13.3243L448.217 15.3243L452.185 15.3243L452.185 13.3243ZM444.248 13.3243L440.279 13.3243L440.279 15.3243L444.248 15.3243L444.248 13.3243ZM436.31 13.3243L432.341 13.3243L432.341 15.3243L436.31 15.3243L436.31 13.3243ZM428.372 13.3243L424.403 13.3243L424.403 15.3243L428.372 15.3243L428.372 13.3243ZM420.434 13.3243L416.466 13.3243L416.466 15.3243L420.434 15.3243L420.434 13.3243ZM412.497 13.3243L408.528 13.3243L408.528 15.3243L412.497 15.3243L412.497 13.3243ZM404.559 13.3243L400.59 13.3243L400.59 15.3243L404.559 15.3243L404.559 13.3243ZM396.621 13.3243L392.652 13.3243L392.652 15.3243L396.621 15.3243L396.621 13.3243ZM388.684 13.3243L384.715 13.3243L384.715 15.3243L388.684 15.3243L388.684 13.3243ZM380.746 13.3243L376.777 13.3243L376.777 15.3243L380.746 15.3243L380.746 13.3243ZM372.808 13.3243L368.839 13.3243L368.839 15.3243L372.808 15.3243L372.808 13.3243ZM364.87 13.3243L360.901 13.3243L360.901 15.3243L364.87 15.3243L364.87 13.3243ZM356.933 13.3243L352.964 13.3243L352.964 15.3243L356.933 15.3243L356.933 13.3243ZM348.995 13.3243L345.026 13.3243L345.026 15.3243L348.995 15.3243L348.995 13.3243ZM341.057 13.3243L337.088 13.3243L337.088 15.3243L341.057 15.3243L341.057 13.3243ZM333.119 13.3243L329.15 13.3243L329.15 15.3243L333.119 15.3243L333.119 13.3243ZM325.182 13.3243L321.213 13.3243L321.213 15.3243L325.182 15.3243L325.182 13.3243ZM317.244 13.3243L313.275 13.3243L313.275 15.3243L317.244 15.3243L317.244 13.3243ZM309.306 13.3243L305.337 13.3243L305.337 15.3243L309.306 15.3243L309.306 13.3243ZM301.368 13.3243L297.4 13.3243L297.4 15.3243L301.368 15.3243L301.368 13.3243ZM293.431 13.3243L291.446 13.3243L291.446 15.3243L293.431 15.3243L293.431 13.3243ZM290.886 13.496L288.955 14.8024L290.076 16.4589L292.007 15.1526L290.886 13.496ZM285.093 17.415L281.23 20.0276L282.351 21.6842L286.213 19.0716L285.093 17.415ZM277.368 22.6402L273.506 25.2528L274.626 26.9094L278.489 24.2968L277.368 22.6402ZM269.643 27.8654L267.712 29.1717L268.833 30.8283L270.764 29.522L269.643 27.8654ZM268.785 29.1413L267.143 28.1616L266.118 29.879L267.76 30.8587L268.785 29.1413ZM263.861 26.2022L260.578 24.2427L259.553 25.9601L262.836 27.9195L263.861 26.2022ZM257.295 22.2832L254.012 20.3238L252.987 22.0411L256.27 24.0006L257.295 22.2832ZM250.729 18.3643L247.446 16.4049L246.421 18.1222L249.704 20.0817L250.729 18.3643ZM244.163 14.4454L242.521 13.4657L241.496 15.183L243.138 16.1628L244.163 14.4454ZM242.009 13.3243L240.038 13.3243L240.038 15.3243L242.009 15.3243L242.009 13.3243ZM236.095 13.3243L232.153 13.3243L232.153 15.3243L236.095 15.3243L236.095 13.3243ZM228.211 13.3243L224.269 13.3243L224.269 15.3243L228.211 15.3243L228.211 13.3243ZM220.326 13.3243L216.384 13.3243L216.384 15.3244L220.326 15.3244L220.326 13.3243ZM212.442 13.3243L208.5 13.3244L208.5 15.3244L212.442 15.3244L212.442 13.3243ZM204.558 13.3244L200.615 13.3244L200.615 15.3244L204.558 15.3244L204.558 13.3244ZM196.673 13.3244L192.731 13.3244L192.731 15.3244L196.673 15.3244L196.673 13.3244ZM188.789 13.3244L184.846 13.3244L184.846 15.3244L188.789 15.3244L188.789 13.3244ZM180.904 13.3244L176.962 13.3244L176.962 15.3244L180.904 15.3244L180.904 13.3244ZM173.02 13.3244L169.077 13.3244L169.077 15.3244L173.02 15.3244L173.02 13.3244ZM165.135 13.3244L161.193 13.3244L161.193 15.3244L165.135 15.3244L165.135 13.3244ZM157.251 13.3244L153.309 13.3244L153.309 15.3244L157.251 15.3244L157.251 13.3244ZM149.366 13.3244L145.424 13.3244L145.424 15.3244L149.366 15.3244L149.366 13.3244ZM141.482 13.3244L137.54 13.3244L137.54 15.3244L141.482 15.3244L141.482 13.3244ZM133.597 13.3244L129.655 13.3244L129.655 15.3244L133.597 15.3244L133.597 13.3244ZM125.713 13.3244L121.771 13.3244L121.771 15.3244L125.713 15.3244L125.713 13.3244ZM117.828 13.3244L113.886 13.3244L113.886 15.3244L117.828 15.3244L117.828 13.3244ZM109.944 13.3244L106.002 13.3244L106.002 15.3244L109.944 15.3244L109.944 13.3244ZM102.06 13.3244L98.1173 13.3244L98.1173 15.3244L102.06 15.3244L102.06 13.3244ZM94.1751 13.3244L90.2328 13.3244L90.2328 15.3244L94.1751 15.3244L94.1751 13.3244ZM86.2906 13.3244L82.3484 13.3244L82.3484 15.3244L86.2906 15.3244L86.2906 13.3244ZM78.4062 13.3244L74.4639 13.3244L74.4639 15.3244L78.4062 15.3244L78.4062 13.3244ZM70.5217 13.3244L66.5795 13.3244L66.5795 15.3244L70.5217 15.3244L70.5217 13.3244ZM62.6372 13.3244L58.695 13.3244L58.695 15.3244L62.6372 15.3244L62.6372 13.3244ZM54.7528 13.3244L50.8105 13.3244L50.8105 15.3244L54.7528 15.3244L54.7528 13.3244ZM46.8683 13.3244L42.9261 13.3244L42.9261 15.3244L46.8683 15.3244L46.8683 13.3244ZM38.9839 13.3244L35.0416 13.3244L35.0416 15.3244L38.9839 15.3244L38.9839 13.3244ZM31.0994 13.3244L27.1572 13.3244L27.1572 15.3244L31.0994 15.3244L31.0994 13.3244ZM23.2149 13.3244L19.2727 13.3244L19.2727 15.3244L23.2149 15.3244L23.2149 13.3244ZM15.3305 13.3244L13.3594 13.3244L13.3594 15.3244L15.3305 15.3244L15.3305 13.3244ZM14.0926 13.6443L12.5477 11.9788L11.0814 13.3389L12.6263 15.0044L14.0926 13.6443ZM9.45782 8.64767L6.36798 5.31658L4.90167 6.6767L7.99151 10.0078L9.45782 8.64767ZM3.27807 1.98549L1.73315 0.319939L0.266843 1.68006L1.81177 3.34561L3.27807 1.98549Z" fill="white"></path> <path opacity="0.25" d="M261.999 71C261.819 71 261.666 70.937 261.54 70.811C261.414 70.685 261.351 70.532 261.351 70.352V52.775C261.351 52.577 261.414 52.415 261.54 52.289C261.666 52.163 261.819 52.1 261.999 52.1H269.829C271.287 52.1 272.475 52.325 273.393 52.775C274.311 53.207 274.986 53.81 275.418 54.584C275.868 55.358 276.093 56.258 276.093 57.284C276.093 57.968 275.967 58.571 275.715 59.093C275.481 59.597 275.184 60.011 274.824 60.335C274.482 60.659 274.14 60.911 273.798 61.091C274.5 61.415 275.121 61.955 275.661 62.711C276.201 63.467 276.471 64.367 276.471 65.411C276.471 66.491 276.228 67.454 275.742 68.3C275.256 69.146 274.536 69.812 273.582 70.298C272.628 70.766 271.449 71 270.045 71H261.999ZM265.104 68.138H269.613C270.585 68.138 271.323 67.877 271.827 67.355C272.331 66.815 272.583 66.167 272.583 65.411C272.583 64.619 272.322 63.962 271.8 63.44C271.296 62.918 270.567 62.657 269.613 62.657H265.104V68.138ZM265.104 59.849H269.343C270.297 59.849 271.008 59.624 271.476 59.174C271.962 58.706 272.205 58.103 272.205 57.365C272.205 56.609 271.962 56.024 271.476 55.61C271.008 55.178 270.297 54.962 269.343 54.962H265.104V59.849Z" fill="white"></path> </svg> 