<?xml version="1.0" encoding="UTF-8"?> <svg xmlns="http://www.w3.org/2000/svg" width="65" height="64" viewBox="0 0 65 64" fill="none"> <path d="M56.0483 24.1605C56.0094 22.7787 54.6158 21.5498 53.1237 21.5651C52.4001 21.5769 50.0401 21.9758 50.058 26.6212L50.0891 34.7615C50.0901 35.1451 50.0426 35.5065 49.943 35.8537C49.8244 35.6344 49.6726 35.428 49.4876 35.2429C48.493 34.2487 46.8615 34.2387 45.7741 35.219C45.7516 35.2387 45.7316 35.2601 45.7123 35.2826C44.3877 36.849 42.7666 38.2154 41.4644 39.3137C40.9994 39.7051 40.5791 40.0598 40.233 40.3722C38.8166 41.6487 38.6283 43.4283 38.6305 45.0004L38.6448 55.3044C38.6448 55.3334 38.6494 55.3605 38.6534 55.388C38.6555 55.4041 38.6548 55.4205 38.658 55.4359C38.6655 55.4737 38.6777 55.5094 38.6916 55.5448C38.693 55.5491 38.6941 55.5544 38.6959 55.5587C38.7955 55.7941 39.0287 55.9587 39.2995 55.9587H39.3005H47.6084C47.9698 55.9587 48.2637 55.6655 48.2637 55.3034L48.2634 49.7652L54.8494 43.1791C55.9709 42.0577 56.5176 40.7006 56.4734 39.1467L56.0483 24.1605ZM53.9226 42.2524L47.1444 49.031C47.0219 49.1535 46.9522 49.3206 46.9522 49.4946V54.6488L39.9533 54.6485L39.94 44.9991C39.9379 43.6509 40.0775 42.2756 41.1097 41.3463C41.4468 41.0423 41.8558 40.6973 42.3082 40.3162C43.6382 39.1951 45.2918 37.8016 46.6811 36.1662C47.2593 35.6701 48.0604 35.6701 48.5607 36.1698C49.0065 36.6155 49.07 37.3008 48.7511 37.8151L48.5382 38.0776L43.3347 43.2812C43.0786 43.5373 43.0786 43.9515 43.3347 44.2076C43.4625 44.3355 43.63 44.3998 43.7983 44.3998C43.9658 44.3998 44.1336 44.3359 44.2618 44.2076L49.4886 38.9808C49.6111 38.8584 49.72 38.7258 49.8133 38.5866L50.1593 38.1605C50.9993 37.1269 51.4058 36.0126 51.4007 34.7562L51.3697 26.6159C51.3607 24.2916 52.0247 22.8934 53.1458 22.8755C53.9276 22.8677 54.7208 23.5298 54.7401 24.1977L55.1651 39.1838C55.1965 40.363 54.779 41.3955 53.9226 42.2523L53.9226 42.2524ZM24.2275 40.3727C23.8815 40.0606 23.4622 39.707 22.9983 39.3162C21.6954 38.218 20.0737 36.8512 18.7483 35.2841C18.729 35.2616 18.7087 35.2405 18.6865 35.2205C17.5997 34.2397 15.9676 34.2498 14.973 35.2441C14.7901 35.4269 14.6369 35.633 14.5169 35.8548C14.4173 35.508 14.3698 35.1466 14.3708 34.763L14.4019 26.6223C14.4201 21.9769 12.0594 21.578 11.3362 21.5662C9.82947 21.5487 8.44981 22.7795 8.41159 24.1616L7.98624 39.1477C7.94267 40.6798 8.50481 42.0741 9.61019 43.1791L16.1962 49.7659V55.3041C16.1962 55.6655 16.4895 55.9595 16.8516 55.9595H25.1587H25.1598C25.3859 55.9595 25.5855 55.8448 25.7033 55.6705C25.7033 55.6705 25.7033 55.6702 25.7037 55.6702C25.7273 55.6355 25.7473 55.598 25.7641 55.5591C25.7662 55.5537 25.7673 55.5473 25.7694 55.542C25.7826 55.5077 25.7951 55.473 25.8026 55.4363C25.8069 55.4166 25.8069 55.3952 25.8091 55.3745C25.8116 55.3516 25.8158 55.3288 25.8158 55.3045L25.8301 45.0005C25.833 43.4287 25.6441 41.6491 24.2277 40.3726L24.2275 40.3727ZM24.5061 54.6484H17.5072V49.4944C17.5072 49.3205 17.4379 49.1541 17.315 49.0309L10.5368 42.2523C9.68035 41.3962 9.26245 40.3637 9.29573 39.1844L9.72072 24.1983C9.7393 23.5376 10.5297 22.8762 11.2936 22.8762H11.3143C12.4357 22.8944 13.1 24.2922 13.0907 26.6165L13.0597 34.7572C13.055 36.0144 13.4611 37.128 14.3011 38.1618L14.6468 38.5868C14.7418 38.7272 14.8504 38.8593 14.9721 38.9815L20.1982 44.2083C20.3261 44.3361 20.4936 44.4004 20.6618 44.4004C20.8296 44.4004 20.9971 44.3365 21.1253 44.2083C21.3814 43.9522 21.3814 43.5379 21.1253 43.2818L15.9239 38.0804L15.71 37.8175C15.5803 37.6089 15.511 37.3668 15.511 37.1136C15.511 36.7557 15.6485 36.4214 15.8989 36.1708C16.3992 35.6704 17.2006 35.6722 17.7786 36.1676C19.1689 37.8033 20.8229 39.1969 22.1536 40.3186C22.6047 40.6993 23.0132 41.0432 23.3504 41.3468C24.3814 42.2757 24.5215 43.6514 24.5193 44.9996L24.5061 54.6484ZM46.1454 25.8026V16.9626C46.1454 16.6005 45.8522 16.3072 45.49 16.3072H37.3054V8.12191C37.3054 7.75977 37.0121 7.46655 36.65 7.46655H27.8093C27.4479 7.46655 27.154 7.75976 27.154 8.12191V16.3069L18.969 16.3072C18.6076 16.3072 18.3136 16.6004 18.3136 16.9626V25.8029C18.3136 26.1651 18.6069 26.4583 18.969 26.4583H27.154V34.643C27.154 35.0044 27.4472 35.2983 27.8093 35.2983H36.6496C37.0111 35.2983 37.305 35.0051 37.305 34.643L37.3053 26.458H45.4903C45.8521 26.458 46.1453 26.1648 46.1453 25.8026L46.1454 25.8026ZM44.835 25.1476H36.6501C36.2887 25.1476 35.9947 25.4409 35.9947 25.803V33.9877H28.4651V25.8027C28.4651 25.4406 28.1719 25.1474 27.8098 25.1474H19.6245V17.6178H27.8094C28.1708 17.6178 28.4648 17.3246 28.4648 16.9624L28.4651 8.77772H35.9951V16.9627C35.9951 17.3248 36.2883 17.618 36.6504 17.618H44.8354V25.1476H44.835Z" fill="#199FD3"></path> </svg> 