<?xml version="1.0" encoding="UTF-8"?> <svg xmlns="http://www.w3.org/2000/svg" width="38" height="69" viewBox="0 0 38 69" fill="none"> <g opacity="0.5"> <path fill-rule="evenodd" clip-rule="evenodd" d="M0 5.20666C0 2.52082 2.29176 0.34375 5.11529 0.34375H32.8847C35.7097 0.34375 38 2.51946 38 5.20666V63.4808C38 66.1667 35.7082 68.3438 32.8847 68.3438H5.11529C2.29033 68.3438 0 66.168 0 63.4808V5.20666ZM2.19245 5.19892V63.4892C2.19245 65.0163 3.50197 66.2631 5.11686 66.2631H32.8837C34.5006 66.2631 35.8081 65.0212 35.8081 63.4892V5.19892C35.8081 3.67187 34.5005 2.42498 32.8877 2.42498H27.7714C27.3717 2.42498 26.8701 2.69215 26.6617 3.02177L25.2232 5.2981C25.0183 5.62239 24.5187 5.8944 24.115 5.8944H13.8854C13.4791 5.8944 12.9851 5.62772 12.7772 5.2981L11.3387 3.02177C11.1338 2.69748 10.6337 2.42498 10.229 2.42498H5.11265C3.50547 2.42498 2.1923 3.66691 2.1923 5.19892H2.19245Z" fill="white"></path> <path d="M22.6491 26.2109H23.001C23.1175 28.1555 21.3614 30.1946 19.0221 30.0025C18.9048 28.6416 19.255 28.251 20.0729 27.3789C20.7774 26.6024 21.9456 26.4063 22.6491 26.2109Z" fill="white"></path> <path d="M22.5458 30.0176C23.0718 30.0201 23.6213 30.1371 24.2439 30.4374C24.8644 30.7392 25.4852 31.239 25.6915 31.7422C24.5519 32.6416 23.7216 33.4432 23.9271 35.2461C24.0301 36.6453 24.9673 37.949 26.2117 38.4488V38.5446C26.106 38.746 25.8018 39.5532 25.5921 39.8541C25.177 40.7509 24.5548 41.5492 23.8276 42.2538C23.2036 42.8556 23.305 42.651 22.4747 42.9519H22.0632C21.7537 42.8558 21.2294 42.753 20.8143 42.5549C20.3992 42.4521 19.8812 42.2538 19.4662 42.2538C18.7408 42.2538 17.185 42.7538 16.7697 42.9519H16.0413C15.1061 42.4529 15.4231 42.8536 14.4897 41.7519C13.6594 40.9512 12.7233 39.3452 12.413 38.2435C12.101 37.4428 11.8917 36.1464 11.7886 35.9441V34.4432C11.9957 34.0403 11.8921 33.3447 12.413 32.4403C13.5534 30.4385 15.4182 29.5381 17.9098 30.4374C18.74 30.7392 18.9491 30.939 19.8824 30.6381C20.8552 30.3257 21.6688 30.0135 22.5458 30.0176Z" fill="white"></path> </g> </svg> 