<?xml version="1.0" encoding="UTF-8"?> <svg xmlns="http://www.w3.org/2000/svg" width="77" height="103" viewBox="0 0 77 103" fill="none"> <g opacity="0.5"> <path d="M71.209 0.419922H5.791C2.59778 0.419922 0 2.87127 0 5.88401V96.9558C0 99.9688 2.59801 102.42 5.791 102.42H71.209C74.4022 102.42 77 99.9686 77 96.9558V5.88401C77.0009 2.87105 74.4029 0.419922 71.209 0.419922ZM74.4263 96.956C74.4263 98.6306 72.9837 99.9918 71.209 99.9918H5.791C4.01714 99.9918 2.57365 98.6306 2.57365 96.956V5.88423C2.57365 4.2105 4.01714 2.8485 5.791 2.8485H71.209C72.9837 2.8485 74.4263 4.2105 74.4263 5.88423V96.956Z" fill="white"></path> <path d="M5.03955 92.0991H71.9606V9.52734H5.03955V92.0991ZM7.61321 11.9559H69.3864V89.6705H7.61321V11.9559Z" fill="white"></path> <path d="M39.0904 92.9082C37.2214 92.9082 35.7017 94.3431 35.7017 96.1057C35.7017 97.8692 37.2215 99.3032 39.0904 99.3032C40.9594 99.3032 42.4792 97.8692 42.4792 96.1057C42.4792 94.3422 40.9585 92.9082 39.0904 92.9082ZM39.0904 96.8748C38.6407 96.8748 38.2753 96.5309 38.2753 96.1057C38.2753 95.6814 38.6407 95.3366 39.0904 95.3366C39.5402 95.3366 39.9055 95.6813 39.9055 96.1057C39.9055 96.5301 39.5402 96.8748 39.0904 96.8748Z" fill="white"></path> <path d="M42.2714 42.9209H42.6246C42.7416 44.8606 40.9788 46.8946 38.6305 46.703C38.5129 45.3455 38.8643 44.9559 39.6854 44.0859C40.3926 43.3113 41.5652 43.1158 42.2714 42.9209Z" fill="white"></path> <path d="M42.1678 46.7168C42.6958 46.7193 43.2473 46.8361 43.8723 47.1356C44.4952 47.4366 45.1183 47.9352 45.3255 48.4371C44.1816 49.3342 43.3481 50.1338 43.5543 51.9322C43.6577 53.3278 44.5985 54.6283 45.8477 55.1268V55.2224C45.7416 55.4233 45.4362 56.2285 45.2257 56.5286C44.809 57.4232 44.1845 58.2194 43.4545 58.9223C42.8281 59.5226 42.9299 59.3185 42.0964 59.6186H41.6833C41.3727 59.5228 40.8464 59.4202 40.4297 59.2226C40.013 59.1201 39.4931 58.9223 39.0764 58.9223C38.3483 58.9223 36.7866 59.4211 36.3697 59.6186H35.6385C34.6998 59.1209 35.018 59.5206 34.081 58.4217C33.2476 57.623 32.3079 56.021 31.9964 54.9221C31.6833 54.1234 31.4731 52.8303 31.3696 52.6285V51.1313C31.5775 50.7294 31.4736 50.0356 31.9964 49.1334C33.1412 47.1367 35.0131 46.2385 37.5142 47.1356C38.3476 47.4366 38.5574 47.6359 39.4943 47.3358C40.4708 47.0242 41.2875 46.7127 42.1678 46.7168Z" fill="white"></path> </g> </svg> 