<?xml version="1.0" encoding="UTF-8"?> <svg xmlns="http://www.w3.org/2000/svg" width="48" height="48" viewBox="0 0 48 48" fill="none"><path fill-rule="evenodd" clip-rule="evenodd" d="M24.6106 7.35106C25.4949 6.46715 26.6961 6 27.9478 6H27.9639L38.2542 6.30217C40.0458 6.30678 41.5266 7.77364 41.5741 9.57305L42.0091 20.0259C42.0304 21.3008 41.5616 22.5236 40.6571 23.4276L23.0499 41.0064L23.0481 41.0082C21.704 42.3723 19.4831 42.3059 18.1294 40.953L7.03787 29.8674C5.6816 28.5119 5.62061 26.3119 6.98118 24.9521L24.6106 7.35106ZM27.94 7.1021C26.9649 7.10404 26.0529 7.46766 25.3896 8.13057L7.76027 25.7316C6.85339 26.638 6.86798 28.1395 7.81695 29.0879L18.9085 40.1735C19.8595 41.124 21.3785 41.1338 22.2643 40.2335L22.2677 40.23L39.878 22.6481C40.5592 21.9673 40.9219 21.0397 40.9071 20.0508L40.4724 9.60535C40.442 8.38811 39.4342 7.40426 38.2457 7.40426H38.2296L27.94 7.1021Z" fill="#009ED5"></path><path fill-rule="evenodd" clip-rule="evenodd" d="M34.3901 11.3747C33.1522 11.3747 32.1492 12.3776 32.1492 13.6141C32.1492 14.8506 33.1522 15.8535 34.3901 15.8535C35.628 15.8535 36.631 14.8506 36.631 13.6141C36.631 12.3776 35.628 11.3747 34.3901 11.3747ZM31.0471 13.6141C31.0471 11.7684 32.5441 10.2726 34.3901 10.2726C36.2361 10.2726 37.7331 11.7684 37.7331 13.6141C37.7331 15.4598 36.2361 16.9556 34.3901 16.9556C32.5441 16.9556 31.0471 15.4598 31.0471 13.6141Z" fill="#009ED5"></path></svg> 