<?xml version="1.0" encoding="UTF-8"?> <svg xmlns="http://www.w3.org/2000/svg" width="48" height="48" viewBox="0 0 48 48" fill="none"><g clip-path="url(#clip0_9979_17847)"><path d="M13.6491 31.4118V29.0568H15.7945V28.6745V27.8361H1.55356C1.38094 27.8361 1.22065 27.6882 1.22065 27.5032V24.729H15.7822V23.5083H1.22065V7.55356C1.22065 7.38094 1.36861 7.22065 1.55356 7.22065H30.1711C30.3437 7.22065 30.504 7.36861 30.504 7.55356V17.627H31.7246V7.55356C31.7246 6.7028 31.0342 6 30.1711 6H1.55356C0.69047 6 0 6.69047 0 7.55356V27.5032C0 28.354 0.69047 29.0568 1.55356 29.0568H12.4285V31.4118H9.46931C9.1364 31.4118 8.85281 31.683 8.85281 32.0283C8.85281 32.3735 9.12407 32.6447 9.46931 32.6447H15.7945V31.4241H13.6491V31.4118Z" fill="#009ED5"></path><path d="M46.1509 17.627H31.7251H30.5044H17.6444C16.658 17.627 15.7949 18.4284 15.7949 19.4764V23.5083V24.7289V27.836V28.6745V29.0567V29.8458V31.4117V32.6323V41.6208C15.7949 42.6072 16.5964 43.4703 17.6444 43.4703H46.1509C47.1373 43.4703 48.0004 42.6688 48.0004 41.6208V19.4764C48.0004 18.4284 47.199 17.627 46.1509 17.627ZM46.8291 41.6208C46.8291 41.9907 46.5208 42.2989 46.1509 42.2989H17.6444C17.2745 42.2989 17.0279 41.9907 17.0279 41.6824V32.6323V31.4117V29.0567V27.836V25.592H30.5044H31.7251H46.8291V41.6208ZM46.8291 19.4764V24.3467H31.7251H16.9663V23.5083V19.4764C16.9663 19.1065 17.2745 18.8599 17.5827 18.8599H30.5044H31.7251H46.1509C46.5208 18.7983 46.8291 19.1065 46.8291 19.4764Z" fill="#009ED5"></path><path d="M11.8991 38.8467C11.6648 38.6124 11.3073 38.6124 11.073 38.8467C10.8387 39.0809 10.8387 39.4385 11.073 39.6728L11.7265 40.3262H10.6661C8.12617 40.3262 6.05476 38.2548 6.05476 35.7149C6.05476 35.419 5.82049 35.123 5.46293 35.123C5.10536 35.123 4.87109 35.3573 4.87109 35.7149C4.87109 38.8467 7.41104 41.4482 10.6045 41.4482H11.6648L11.0113 42.1017C10.7771 42.336 10.7771 42.6936 11.0113 42.9278C11.2456 43.1621 11.6032 43.1621 11.8374 42.9278L13.4896 41.2756C13.6129 41.1523 13.6623 41.0414 13.6623 40.8564C13.6623 40.6838 13.6006 40.5605 13.4896 40.4372L11.8991 38.8467Z" fill="#009ED5"></path><path d="M35.0782 8.40424C37.6181 8.40424 39.6895 10.4757 39.6895 13.0156V14.076L39.036 13.4225C38.8018 13.1882 38.4442 13.1882 38.2099 13.4225C37.9757 13.6567 37.9757 14.0143 38.2099 14.2486L39.8005 15.8391C39.9238 15.9624 40.0347 16.0117 40.2197 16.0117C40.3923 16.0117 40.5156 15.9501 40.6389 15.8391L42.2911 14.1993C42.5254 13.965 42.5254 13.6074 42.2911 13.3732C42.0568 13.1389 41.6993 13.1389 41.465 13.3732L40.8115 14.0266V12.9663C40.8115 9.77285 38.2099 7.23291 35.0782 7.23291C34.7206 7.23291 34.4863 7.46718 34.4863 7.82474C34.4863 8.16998 34.7822 8.40424 35.0782 8.40424Z" fill="#009ED5"></path><path d="M18.2851 20.9931C18.0508 21.2273 18.0508 21.5849 18.2851 21.8192C18.5193 22.0534 18.8769 22.0534 19.1112 21.8192C19.3454 21.5849 19.3454 21.2273 19.1112 20.9931C18.8769 20.7588 18.5193 20.7588 18.2851 20.9931Z" fill="#009ED5"></path><path d="M21.5409 20.9931C21.3067 21.1657 21.3067 21.5849 21.5409 21.8192C21.7752 22.0534 22.1328 22.0534 22.367 21.8192C22.6013 21.5849 22.6013 21.2273 22.367 20.9931C22.1821 20.7588 21.7752 20.7588 21.5409 20.9931Z" fill="#009ED5"></path><path d="M24.7206 20.9931C24.4864 21.2273 24.4864 21.5849 24.7206 21.8192C24.9549 22.0534 25.3125 22.0534 25.5467 21.8192C25.781 21.5849 25.781 21.2273 25.5467 20.9931C25.3125 20.7588 24.9672 20.7588 24.7206 20.9931Z" fill="#009ED5"></path></g><defs><clipPath id="clip0_9979_17847"><rect width="48" height="37.4827" fill="white" transform="translate(0 6)"></rect></clipPath></defs></svg> 