<?xml version="1.0" encoding="UTF-8"?> <svg xmlns="http://www.w3.org/2000/svg" width="48" height="48" viewBox="0 0 48 48" fill="none"> <path d="M9.5998 43.4003C8.36791 43.4003 7.16791 42.9026 6.30062 42.0356L6.15169 41.8802C5.28461 41.0131 4.7998 39.8434 4.7998 38.6003C4.7998 37.3684 5.29748 36.1684 6.16451 35.3027L17.2011 25.3427C17.3484 25.2098 17.5386 25.1362 17.7371 25.1362H17.7403C18.3786 25.1362 18.9802 24.8865 19.4348 24.4339C19.7468 24.1218 20.2538 24.1218 20.5659 24.4339C20.878 24.7459 20.878 25.253 20.5659 25.5667C19.8874 26.2468 19.0059 26.6515 18.0604 26.7252L7.26654 36.463C6.72574 37.0022 6.39925 37.7908 6.39925 38.5957C6.39925 39.418 6.71773 40.1847 7.29521 40.7622L7.44547 40.9189C8.57018 42.0436 10.6166 42.05 11.7607 40.906C17.4615 34.7525 20.7703 31.1812 21.6117 30.2726C21.6885 29.3271 22.0933 28.4485 22.7717 27.7719C23.0838 27.4615 23.5908 27.4599 23.9029 27.7719C24.215 28.0856 24.215 28.591 23.9029 28.9047C23.4486 29.3577 23.1989 29.9593 23.1989 30.6008C23.1989 30.8041 23.1189 31.0023 22.9798 31.1512C22.8199 31.3208 12.9129 42.015 12.9129 42.015C12.012 42.9158 10.8423 43.4006 9.59921 43.4006L9.5998 43.4003Z" fill="white"></path> <path d="M27.5998 23.8005C27.3949 23.8005 27.1903 23.722 27.0333 23.5669C26.7213 23.2548 26.7213 22.7478 27.0333 22.4357L36.2335 13.2355C36.3841 13.085 36.5871 13.0003 36.8001 13.0003H38.7056L41.4257 7.55885L40.6416 6.7748L35.1999 9.49462V11.4001C35.1999 11.6128 35.115 11.8161 34.9663 11.9667L25.7661 21.1669C25.454 21.479 24.947 21.479 24.6349 21.1669C24.3229 20.8548 24.3229 20.3478 24.6349 20.0357L33.6 11.0693V9.0004C33.6 8.69799 33.7711 8.4213 34.0417 8.2852L40.4416 5.08511C40.7504 4.93002 41.1216 4.99082 41.3649 5.23538L42.9648 6.83529C43.208 7.0785 43.2688 7.45136 43.115 7.7586L39.915 14.1585C39.7792 14.4293 39.5025 14.6005 39.2 14.6005H37.1311L28.1647 23.5669C28.0096 23.722 27.805 23.8004 27.6 23.8004L27.5998 23.8005Z" fill="white"></path> <path d="M39.9997 43.4002C38.8798 43.4002 37.8268 42.965 37.0348 42.1713L16.774 21.3441C16.1695 20.7232 15.2749 20.4736 14.4349 20.7007C13.6765 20.904 13.1566 20.9999 12.7998 20.9999C10.6064 20.9999 8.48465 20.0846 6.97745 18.4879C5.45091 16.8671 4.68298 14.7473 4.81423 12.5184C4.8303 12.2434 4.98699 11.9953 5.23021 11.8625C5.47664 11.7264 5.81253 11.7151 6.05732 11.8625L10.4333 14.488C11.7645 13.7999 12.6332 12.5088 12.7773 11.0399L7.88948 8.1055C7.66367 7.97104 7.51984 7.73586 7.50055 7.47523C7.48447 7.21434 7.59323 6.96148 7.79813 6.79836C9.20625 5.6624 10.8782 5.03984 12.63 5.00158C14.6044 4.96649 16.5308 5.77754 18.0619 7.30572C20.025 9.2672 20.8171 11.8432 20.3548 14.7601C20.23 15.5442 20.4876 16.333 21.0445 16.8738L41.9664 37.2258C42.7536 38.0143 43.2001 39.0959 43.2001 40.1982C43.2001 41.9647 41.7649 43.3999 40 43.3999L39.9997 43.4002ZM15.0555 19.0197C16.1195 19.0197 17.1579 19.4453 17.921 20.2293L38.1743 41.0483C38.6559 41.5315 39.3071 41.8005 39.9997 41.8005C40.8829 41.8005 41.5996 41.082 41.5996 40.2006C41.5996 39.5079 41.3294 38.8564 40.8397 38.3671L19.9261 18.0226C18.998 17.1202 18.5662 15.8083 18.7708 14.5124C19.1549 12.0883 18.5373 10.0451 16.9294 8.44033C15.7117 7.22264 14.2684 6.56991 12.6637 6.60179C11.6558 6.62429 10.6797 6.88974 9.78696 7.38097L14.0111 9.91386C14.2524 10.0596 14.3998 10.3186 14.3998 10.6004C14.3998 12.8788 13.1341 14.9284 11.0957 15.9476L10.7582 16.1155C10.5118 16.2371 10.2206 16.2259 9.98863 16.0866L6.47167 13.9762C6.66533 15.2498 7.23803 16.429 8.142 17.389C9.36614 18.6868 11.0188 19.4003 12.7998 19.4003C12.8941 19.4003 13.1997 19.3762 14.0207 19.1555C14.363 19.0644 14.7102 19.0194 15.0557 19.0194L15.0555 19.0197Z" fill="white"></path> </svg> 