<?xml version="1.0" encoding="UTF-8"?> <svg xmlns="http://www.w3.org/2000/svg" width="48" height="48" viewBox="0 0 48 48" fill="none"><path fill-rule="evenodd" clip-rule="evenodd" d="M24 44.6556C35.4077 44.6556 44.6556 35.4077 44.6556 24C44.6556 12.5923 35.4077 3.34444 24 3.34444C12.5923 3.34444 3.34444 12.5923 3.34444 24C3.34444 35.4077 12.5923 44.6556 24 44.6556ZM24 46C36.1503 46 46 36.1503 46 24C46 11.8497 36.1503 2 24 2C11.8497 2 2 11.8497 2 24C2 36.1503 11.8497 46 24 46Z" fill="#009ED5"></path><path d="M12.6349 28.6667C12.5476 28.6667 12.4762 28.6389 12.4207 28.5833C12.3651 28.5278 12.3374 28.4603 12.3374 28.381V20.6319C12.3374 20.5446 12.3651 20.4732 12.4207 20.4176C12.4762 20.3621 12.5476 20.3343 12.6349 20.3343H13.5753C13.6864 20.3343 13.7697 20.366 13.8253 20.4295C13.8808 20.4851 13.9165 20.5287 13.9324 20.5605L16.2298 24.8457L18.5509 20.5605C18.5668 20.5287 18.6025 20.4851 18.6581 20.4295C18.7136 20.366 18.7969 20.3343 18.908 20.3343H19.8365C19.9238 20.3343 19.9952 20.3621 20.0507 20.4176C20.1063 20.4732 20.1341 20.5446 20.1341 20.6319V28.381C20.1341 28.4603 20.1063 28.5278 20.0507 28.5833C19.9952 28.6389 19.9238 28.6667 19.8365 28.6667H18.8366C18.7493 28.6667 18.6779 28.6389 18.6223 28.5833C18.5747 28.5278 18.5509 28.4603 18.5509 28.381V23.2268L16.8844 26.405C16.8448 26.4764 16.7932 26.5399 16.7297 26.5955C16.6662 26.6431 16.5829 26.6669 16.4797 26.6669H15.9917C15.8806 26.6669 15.7933 26.6431 15.7298 26.5955C15.6743 26.5399 15.6267 26.4764 15.587 26.405L13.9205 23.2268V28.381C13.9205 28.4603 13.8927 28.5278 13.8372 28.5833C13.7816 28.6389 13.7142 28.6667 13.6348 28.6667H12.6349Z" fill="#009ED5"></path><path d="M24.4139 28.6667C24.2869 28.6667 24.1877 28.6349 24.1163 28.5714C24.0449 28.508 23.9933 28.4286 23.9616 28.3334L21.4142 20.6914C21.3984 20.6517 21.3904 20.616 21.3904 20.5843C21.3904 20.5128 21.4142 20.4533 21.4619 20.4057C21.5095 20.3581 21.569 20.3343 21.6404 20.3343H22.6879C22.799 20.3343 22.8823 20.366 22.9379 20.4295C23.0014 20.4851 23.041 20.5406 23.0569 20.5962L25.0686 26.7264L27.0683 20.5962C27.0922 20.5406 27.1318 20.4851 27.1874 20.4295C27.2509 20.366 27.3382 20.3343 27.4493 20.3343H28.4968C28.5602 20.3343 28.6158 20.3581 28.6634 20.4057C28.719 20.4533 28.7467 20.5128 28.7467 20.5843C28.7467 20.616 28.7388 20.6517 28.7229 20.6914L26.1756 28.3334C26.1439 28.4286 26.0923 28.508 26.0209 28.5714C25.9494 28.6349 25.8502 28.6667 25.7233 28.6667H24.4139Z" fill="#009ED5"></path><path d="M30.2921 28.6667C30.2128 28.6667 30.1453 28.6389 30.0898 28.5833C30.0342 28.5278 30.0064 28.4603 30.0064 28.381V20.6319C30.0064 20.5446 30.0342 20.4732 30.0898 20.4176C30.1453 20.3621 30.2128 20.3343 30.2921 20.3343H33.4822C34.1012 20.3343 34.6408 20.4335 35.1011 20.6319C35.5613 20.8223 35.9184 21.116 36.1724 21.5127C36.4263 21.9016 36.5533 22.3896 36.5533 22.9768C36.5533 23.572 36.4263 24.064 36.1724 24.4529C35.9184 24.8338 35.5613 25.1195 35.1011 25.3099C34.6408 25.5004 34.1012 25.5956 33.4822 25.5956H31.7086V28.381C31.7086 28.4603 31.6808 28.5278 31.6253 28.5833C31.5777 28.6389 31.5102 28.6667 31.4229 28.6667H30.2921ZM31.6848 24.2743H33.4227C33.883 24.2743 34.2361 24.1672 34.4821 23.9529C34.7281 23.7307 34.8511 23.4054 34.8511 22.9768C34.8511 22.5801 34.736 22.2626 34.5059 22.0246C34.2758 21.7786 33.9147 21.6556 33.4227 21.6556H31.6848V24.2743Z" fill="#009ED5"></path></svg> 