<?xml version="1.0" encoding="UTF-8"?> <svg xmlns="http://www.w3.org/2000/svg" width="48" height="48" viewBox="0 0 48 48" fill="none"> <path fill-rule="evenodd" clip-rule="evenodd" d="M45.5709 38.3664C45.4471 38.4926 45.2827 38.5546 45.1176 38.5546C44.9525 38.5546 44.7902 38.493 44.6643 38.3664L42.6208 36.3229C38.3971 40.3274 32.9417 42.5877 27.1247 42.7423V46.2494H38.9941C39.3499 46.2494 39.636 46.5355 39.636 46.8912C39.636 47.247 39.3499 47.5328 38.9941 47.5328H26.4827H26.4774H13.9686C13.6129 47.5328 13.3267 47.2466 13.3267 46.8912C13.3267 46.5355 13.6129 46.2494 13.9686 46.2494H25.838V42.7423C13.1877 42.3988 3 32.0084 3 19.2784C3 13.22 5.28309 7.51725 9.43475 3.1384L7.39129 1.09494C7.13909 0.845185 7.13909 0.437683 7.39129 0.187561C7.6414 -0.0621947 8.04855 -0.0621947 8.29867 0.187561L10.7857 2.67455C11.0379 2.9243 11.0379 3.33181 10.7857 3.58193C6.59477 7.77452 4.28616 13.3488 4.28616 19.2786C4.28616 31.517 14.2411 41.4719 26.4822 41.4719C32.4094 41.4719 37.9836 39.1657 42.1761 34.9728C42.4259 34.7199 42.8334 34.7199 43.0828 34.9728L45.5698 37.4598C45.822 37.7095 45.822 38.1163 45.5694 38.3668L45.5709 38.3664ZM24.0429 1.83925C17.4791 2.75183 12.0643 7.29222 9.89454 13.3666H16.2391C17.497 8.80744 20.2054 4.77434 24.0427 1.83925H24.0429ZM43.0717 13.3666C40.8659 7.19452 35.3049 2.60488 28.5991 1.79806C32.4619 4.73843 35.1938 8.78658 36.4537 13.3657L43.0714 13.3661L43.0717 13.3666ZM28.5991 36.7581C35.3046 35.949 40.8625 31.3622 43.0717 25.1877H36.454C35.1937 29.7673 32.4621 33.8182 28.5994 36.7581H28.5991ZM9.89454 25.1877C12.0643 31.2615 17.4787 35.8026 24.0429 36.7142C20.2057 33.7791 17.4972 29.746 16.2401 25.1877H9.89454ZM15.9298 23.9043C15.6154 22.4146 15.4429 20.879 15.4429 19.3143V19.2395C15.4429 17.6756 15.6154 16.1393 15.9298 14.6526H9.48979C9.08822 16.1267 8.87136 17.6756 8.87136 19.2779C8.87136 20.8786 9.08753 22.4271 9.48979 23.9039L15.9298 23.9043ZM25.8382 14.6524H17.2466C16.9119 16.1369 16.7286 17.6725 16.7286 19.2392V19.3141C16.7286 20.8836 16.9115 22.4167 17.2466 23.9041H25.8382V14.6524ZM25.8382 13.3669V2.12607C21.7925 4.86254 18.9165 8.82885 17.5793 13.3669H25.8382ZM27.124 13.3669H35.1129C33.8064 8.92699 31.0332 5.0299 27.124 2.30159V13.3669ZM25.8382 36.4315V25.188H17.5813C18.9165 29.7262 21.7925 33.6918 25.8382 36.4315ZM27.124 25.188V36.2533C31.0336 33.5242 33.8061 29.6276 35.1133 25.188H27.124ZM35.966 19.2405C35.966 17.6738 35.7831 16.1378 35.448 14.6536H27.124V23.9047H35.4476C35.7824 22.4174 35.9657 20.8846 35.9657 19.3147L35.966 19.2405ZM44.0938 19.2789C44.0938 17.6759 43.8749 16.127 43.4726 14.6537H36.7647C37.0791 16.141 37.2516 17.6766 37.2516 19.2405V19.3154C37.2516 20.88 37.0791 22.4156 36.7647 23.9054L43.4723 23.905C43.8745 22.4279 44.0938 20.879 44.0938 19.279L44.0938 19.2789ZM7.58557 19.2789C7.58557 29.6458 15.9813 38.0883 26.3313 38.1707H26.3464H26.3488H26.3593C26.4006 38.1707 26.4419 38.1731 26.4831 38.1731C36.9019 38.1731 45.3775 29.6973 45.3775 19.2787C45.3775 8.85723 36.9017 0.381612 26.4831 0.381612C26.4495 0.381612 26.4163 0.384061 26.3827 0.384061H26.3467C26.3317 0.384061 26.3131 0.384061 26.2977 0.386509C15.9631 0.487599 7.58602 8.91935 7.58602 19.2791L7.58557 19.2789Z" fill="#199FD3"></path> </svg> 