<?xml version="1.0" encoding="UTF-8"?> <svg xmlns="http://www.w3.org/2000/svg" width="48" height="48" viewBox="0 0 48 48" fill="none"> <path fill-rule="evenodd" clip-rule="evenodd" d="M43.0178 7.23027L38.2368 2.44931C37.9432 2.15565 37.5683 2.00032 37.1533 2.00032L11.0486 2C10.2036 2 9.51587 2.68777 9.51587 3.53277V21.93C4.76153 22.2798 1 26.2598 1 31.1015C1 35.9433 4.76136 39.9239 9.51587 40.273V44.0668C9.51587 44.9119 10.2036 45.5996 11.0486 45.5996H41.9334C42.7784 45.5996 43.4661 44.9118 43.4661 44.0668V8.31333C43.4661 7.89836 43.3108 7.5235 43.0175 7.2298L43.0178 7.23027ZM38.187 4.32576L41.1406 7.27932H38.187V4.32576ZM2.36287 31.1017C2.36287 26.7815 5.87742 23.267 10.197 23.267C14.5165 23.267 18.0311 26.7815 18.0311 31.1017C18.0311 35.4211 14.5165 38.9358 10.197 38.9358C5.87742 38.9358 2.36287 35.4212 2.36287 31.1017ZM41.9335 44.2374H11.0488C10.9564 44.2374 10.8787 44.1594 10.8787 44.0673V40.2735C14.8237 39.983 18.0841 37.1938 19.0799 33.486H36.1355C36.5116 33.486 36.8165 33.1811 36.8165 32.805C36.8165 32.4288 36.5116 32.1239 36.1355 32.1239H19.3371C19.3743 31.7886 19.3942 31.4477 19.3942 31.102C19.3942 29.9399 19.1773 28.8269 18.7819 27.8022H36.1357C36.5118 27.8022 36.8167 27.4973 36.8167 27.1211C36.8167 26.745 36.5118 26.4401 36.1357 26.4401L18.1221 26.4404C16.6298 23.9133 13.9634 22.1582 10.8789 21.9309V3.53285C10.8789 3.44042 10.9569 3.36275 11.049 3.36275H36.8242V7.53557C36.8242 8.14632 37.3207 8.64284 37.9315 8.64284H42.1043V44.0669C42.104 44.1587 42.0263 44.2367 41.9335 44.2367L41.9335 44.2374ZM36.8162 21.4364C36.8162 21.8125 36.5113 22.1174 36.1352 22.1174H16.8473C16.4712 22.1174 16.1663 21.8125 16.1663 21.4364C16.1663 21.0602 16.4712 20.7553 16.8473 20.7553H36.1352C36.5113 20.7553 36.8162 21.0602 36.8162 21.4364ZM36.8162 38.4887C36.8162 38.8648 36.5113 39.1697 36.1352 39.1697H26.4912C26.1151 39.1697 25.8102 38.8648 25.8102 38.4887C25.8102 38.1125 26.1151 37.8076 26.4912 37.8076H36.1352C36.5113 37.8073 36.8162 38.1125 36.8162 38.4887ZM19.57 15.1626C19.4805 14.7984 19.7032 14.4299 20.0675 14.3401C20.4317 14.2505 20.8002 14.4733 20.8901 14.8375C20.9738 15.1739 21.1754 15.4303 21.4382 15.6052C22.1058 16.05 23.1925 16.0362 23.8385 15.5458C24.3706 15.1424 24.153 14.4055 23.6453 14.0994C23.3051 13.8937 22.8533 13.7846 22.4289 13.7146C21.8817 13.6251 21.2877 13.4611 20.8014 13.1437C20.2363 12.7746 19.8306 12.2286 19.7908 11.4144C19.7516 10.606 20.0998 9.95741 20.6486 9.51063C20.9879 9.23494 21.4047 9.04206 21.8496 8.94256V8.52984C21.8496 8.15371 22.1544 7.84881 22.5306 7.84881C22.9067 7.84881 23.2116 8.1537 23.2116 8.52984V8.93229C23.2505 8.94032 23.2886 8.94962 23.3271 8.95925C24.141 9.16529 24.8815 9.70061 25.2701 10.6265C25.4158 10.9735 25.2524 11.3727 24.9055 11.5181C24.5585 11.6638 24.1593 11.5005 24.0139 11.1535C23.7144 10.4398 22.923 10.1099 22.1788 10.2591C21.6399 10.3672 21.1171 10.7485 21.1463 11.3499C21.1611 11.6522 21.3193 11.8602 21.5395 12.004C21.8389 12.1994 22.2523 12.3079 22.6451 12.3724C23.2106 12.4655 23.8284 12.6202 24.3461 12.9328C25.6741 13.7345 25.9421 15.6498 24.6567 16.6251C24.244 16.938 23.725 17.1312 23.2112 17.2188V17.6081C23.2112 17.9843 22.9063 18.2892 22.5302 18.2892C22.154 18.2892 21.8492 17.9843 21.8492 17.6081V17.2057C21.4313 17.1238 21.0324 16.9679 20.687 16.7381C20.153 16.3831 19.7431 15.8574 19.5698 15.1626L19.57 15.1626ZM27.4892 15.1626C27.3996 14.7984 27.6224 14.4299 27.9866 14.3401C28.3512 14.2505 28.7193 14.4733 28.8092 14.8375C28.893 15.1739 29.0945 15.4303 29.3574 15.6052C30.0246 16.0494 31.1126 16.0356 31.7577 15.5458C32.285 15.1456 32.0754 14.4081 31.5645 14.0994C31.2243 13.8937 30.7724 13.7846 30.3481 13.7146C29.8009 13.6251 29.2068 13.4611 28.7206 13.1437C27.4382 12.3064 27.3958 10.4642 28.5681 9.51095C28.9074 9.23527 29.3243 9.04239 29.7691 8.94289V8.53017C29.7691 8.15403 30.074 7.84914 30.4501 7.84914C30.8262 7.84914 31.1311 8.15403 31.1311 8.53017V8.93262C31.17 8.94065 31.2082 8.94995 31.2467 8.95958C32.0606 9.16562 32.801 9.70094 33.1896 10.6269C33.3353 10.9738 33.1719 11.373 32.825 11.5184C32.4781 11.6642 32.0791 11.5008 31.9334 11.1539C31.7293 10.668 31.3419 10.3875 30.9163 10.2796C30.1974 10.0976 29.0203 10.4157 29.0659 11.3502C29.1008 12.0714 29.9956 12.2796 30.5649 12.373C31.1304 12.4661 31.7482 12.6208 32.2659 12.9334C33.5811 13.7274 33.8475 15.6613 32.5766 16.6257C32.1638 16.9387 31.6449 17.1319 31.131 17.2195V17.6088C31.131 17.9849 30.8262 18.2898 30.45 18.2898C30.0739 18.2898 29.769 17.9849 29.769 17.6088V17.2063C29.3511 17.1245 28.9522 16.9685 28.6068 16.7387C28.0725 16.3831 27.6626 15.8574 27.489 15.1626L27.4892 15.1626ZM10.5322 34.1251C10.5322 35.3328 11.5146 36.3155 12.7226 36.3155C13.9302 36.3155 14.913 35.3331 14.913 34.1251C14.913 32.9175 13.9306 31.9348 12.7226 31.9348C11.5149 31.9348 10.5322 32.9175 10.5322 34.1251ZM13.5497 34.1251C13.5497 34.5815 13.1784 34.9528 12.722 34.9528C12.2656 34.9528 11.8943 34.5815 11.8943 34.1251C11.8943 33.6688 12.2656 33.2975 12.722 33.2975C13.1784 33.2975 13.5497 33.6685 13.5497 34.1251ZM9.86275 28.0768C9.86275 26.8691 8.88037 25.8864 7.67237 25.8864C6.4647 25.8864 5.48199 26.8688 5.48199 28.0768C5.48199 29.2845 6.46437 30.2672 7.67237 30.2672C8.88037 30.2672 9.86275 29.2845 9.86275 28.0768ZM6.84502 28.0768C6.84502 27.6204 7.21634 27.2491 7.6727 27.2491C8.12907 27.2491 8.50038 27.6204 8.50038 28.0768C8.50038 28.5331 8.12905 28.9045 7.6727 28.9045C7.21632 28.9045 6.84502 28.5331 6.84502 28.0768ZM13.9284 27.1066L7.5732 35.9527C7.35432 36.257 6.93005 36.326 6.62582 36.1071C6.32157 35.8882 6.25256 35.4639 6.47145 35.1597L12.8267 26.3135C13.0456 26.0093 13.4698 25.9403 13.7741 26.1592C14.0783 26.3787 14.1473 26.803 13.9284 27.1066Z" fill="#199FD3"></path> </svg> 