<?xml version="1.0" encoding="UTF-8"?> <svg xmlns="http://www.w3.org/2000/svg" width="48" height="48" viewBox="0 0 48 48" fill="none"> <g clip-path="url(#clip0_715_6057)"> <path d="M47.9448 25.136L42.1125 10.497C41.9559 10.1026 41.5147 9.90346 41.115 10.0463L34.7577 12.3211C34.5557 12.3932 34.3917 12.5448 34.3041 12.7405C34.2165 12.9361 34.2123 13.1592 34.2925 13.3583L34.7102 14.3938L32.0699 15.2608C31.0879 14.8808 27.6302 13.542 26.6559 13.1029C25.0993 12.4023 23.6792 12.9604 22.0294 14.0156C20.8669 13.1251 19.7775 13.1187 18.3046 13.9533C17.28 14.5311 15.6832 15.4948 14.9447 15.9427L13.6988 15.2404L14.2709 14.0473V14.0469C14.4563 13.6609 14.2994 13.1976 13.918 13.0037L8.20318 10.0875C8.01635 9.99215 7.7996 9.97491 7.60045 10.04C7.4013 10.1047 7.23593 10.2465 7.14128 10.4334L0.0840742 24.3716C-0.112262 24.7583 0.0407955 25.2308 0.426431 25.4292L6.43363 28.5202V28.5206C6.54552 28.5776 6.66902 28.6072 6.79463 28.6072C6.88013 28.6072 6.96493 28.5934 7.04586 28.567C7.24747 28.4984 7.4132 28.3521 7.50539 28.1603L7.96315 27.2051L8.68832 27.7015H8.68868C8.54758 27.9827 8.42443 28.2722 8.31887 28.5685C8.29354 28.6473 8.28087 28.7296 8.28087 28.812C8.28087 30.7964 10.3231 31.8935 11.1837 32.2679V32.2682C11.468 33.1567 12.1267 33.8765 12.9863 34.2386C13.1654 34.2914 13.3512 34.3178 13.538 34.3174C13.8255 34.3139 14.1098 34.2545 14.3744 34.1415C14.646 34.7326 15.0932 35.2256 15.6552 35.5532C16.158 35.8213 16.7375 35.9085 17.297 35.7998C17.6421 36.4275 18.1724 36.9335 18.8155 37.2484C19.0523 37.3466 19.306 37.3972 19.5622 37.3983C19.8282 37.3979 20.0917 37.3445 20.3366 37.2407C21.0122 36.9423 21.5931 36.4655 22.0171 35.8614C22.4111 36.1728 23.0132 36.6496 23.6824 37.1823C24.1964 37.5714 24.8266 37.7755 25.4708 37.7618C26.0098 37.7607 26.5419 37.6358 27.025 37.3969C27.747 37.0518 28.2906 36.4192 28.5225 35.6535C28.8025 35.65 29.0812 35.6145 29.3532 35.5469C30.3606 35.301 31.2124 34.6314 31.6892 33.7106C31.8398 33.7331 31.9918 33.745 32.1441 33.7461C32.894 33.7415 33.6248 33.5103 34.2402 33.0825C34.8559 32.6546 35.3274 32.0505 35.5931 31.3493C35.628 31.3493 35.661 31.3556 35.6948 31.3556C36.5132 31.3799 37.3091 31.0857 37.915 30.5351C38.3214 30.1625 38.5983 29.6699 38.7056 29.1291C38.8129 28.5883 38.7454 28.0275 38.5124 27.5275L39.7798 26.9663L40.2425 28.1136V28.114C40.4033 28.5126 40.8537 28.709 41.2551 28.5552L47.4949 26.1671C47.6912 26.0915 47.8488 25.9409 47.9333 25.7484C48.0181 25.5563 48.022 25.3382 47.9449 25.1425L47.9448 25.136ZM6.43463 26.7479L1.84431 24.3834L8.19037 11.8522L12.5175 14.059L6.43463 26.7479ZM9.86379 28.9326C10.1002 28.3453 10.4042 27.7876 10.7695 27.2704C11.0707 27.0347 11.4841 27.0037 11.817 27.1916C11.9475 27.2307 12.0548 27.3239 12.1115 27.4478C12.1685 27.5713 12.1688 27.7138 12.1132 27.838C11.8138 28.8048 11.5087 29.851 11.3029 30.5698C10.6977 30.2316 9.94053 29.6704 9.86378 28.9326L9.86379 28.9326ZM13.439 32.7252C13.1388 32.6362 12.8447 32.164 12.6719 31.7519C13.2581 30.7607 13.8988 29.803 14.5913 28.8829C14.9168 28.4504 15.5104 28.3223 15.9854 28.5817C16.3007 28.7998 16.1241 29.2344 15.9217 29.5612C15.9154 29.5707 15.9161 29.5816 15.9108 29.5911C15.8989 29.614 15.8809 29.6337 15.8707 29.6566C15.7321 29.9718 14.8271 31.4261 14.1881 32.4253C13.9851 32.591 13.6755 32.7962 13.439 32.7251L13.439 32.7252ZM17.1669 34.2157C16.9181 34.3047 16.6433 34.2867 16.4079 34.166C16.035 33.9043 15.7633 33.5225 15.6381 33.0844C16.1022 32.3547 17.1032 30.7657 17.3083 30.3048H17.308C17.3981 30.2031 17.5205 30.1356 17.6549 30.1134C17.9621 30.0613 18.277 30.1419 18.5219 30.3347C18.8495 30.55 18.9842 30.9638 18.8467 31.3308L17.1669 34.2157ZM19.7291 35.7825C19.3178 35.9553 18.8755 35.3547 18.6257 34.9359L20.2203 32.7576C20.5591 32.7481 20.8874 32.8765 21.1298 33.1136C21.2864 33.4177 21.3149 33.7716 21.2087 34.0967C20.9423 34.823 20.4149 35.4239 19.7291 35.7825V35.7825ZM36.7992 29.4195C36.3319 29.7643 35.731 29.8724 35.1725 29.713C35.1669 29.713 35.163 29.7084 35.1574 29.7073H35.1497C35.0747 29.6848 35.003 29.6528 34.9361 29.612C34.472 29.3024 32.0421 26.9653 30.6195 25.5649C30.306 25.281 29.8243 25.295 29.5281 25.5969C29.2318 25.8988 29.2265 26.3805 29.5161 26.6887C30.1466 27.3105 33.3387 30.4395 34.0638 30.9237L34.0635 30.9233C33.82 31.4497 33.3745 31.8554 32.8277 32.0489C32.3679 32.2512 31.838 32.2157 31.4091 31.9543C30.389 31.0472 27.6213 28.2806 27.5936 28.2499C27.2843 27.9512 26.7927 27.9558 26.4887 28.2598C26.1847 28.5638 26.1805 29.0553 26.4792 29.3647C26.5911 29.4758 29.148 32.0317 30.2624 33.0391C29.9844 33.5264 29.5196 33.879 28.9753 34.0148C28.5946 34.1432 28.1773 34.1041 27.8268 33.9075L25.025 31.1113L23.9107 32.2256L26.7101 35.0249C26.7998 35.1104 26.8976 35.1868 27.0025 35.2529C26.8832 35.5784 26.6379 35.8423 26.3223 35.9858C25.803 36.2666 25.1746 36.254 24.6672 35.9521C23.8382 35.2892 23.1106 34.7163 22.752 34.4348C22.9695 33.6695 22.8424 32.8476 22.4044 32.1837C21.9311 31.5901 21.2239 31.2305 20.4657 31.1978C20.5019 30.777 20.4242 30.3541 20.2405 29.9737C20.0568 29.5937 19.7743 29.2696 19.4221 29.0367C18.9214 28.6778 18.3144 28.4977 17.699 28.5258C17.5995 28.0223 17.3074 27.5776 16.8848 27.2862C16.4014 26.9819 15.8335 26.8408 15.2639 26.8834C14.6942 26.9259 14.1534 27.1501 13.7206 27.5227C13.6991 27.1483 13.5753 26.7869 13.3621 26.4783C13.1492 26.1698 12.8554 25.9256 12.513 25.7729C12.0208 25.51 11.4532 25.4231 10.905 25.5266C10.3565 25.6297 9.85968 25.9171 9.49686 26.3411L8.65276 25.7634L13.0168 16.6604L14.5734 17.5376H14.573C14.8218 17.6776 15.1265 17.6727 15.37 17.5242C15.3943 17.5091 17.7662 16.0636 19.0806 15.3174C19.7397 14.9455 20.1573 14.8216 20.5781 14.9697C19.4163 15.8511 18.6349 17.1432 18.3935 18.5812C18.0581 19.5111 18.1049 20.5365 18.524 21.4319C18.9691 22.0621 19.6591 22.4751 20.4244 22.5702C21.0556 22.7035 21.7133 22.5498 22.22 22.1508C22.9328 21.6283 23.4297 20.8622 23.6158 19.9984L24.4447 19.4562V19.4559C26.831 20.7863 29.3176 21.9273 31.8819 22.8689C32.6148 23.5726 35.9465 26.778 36.7621 27.6932L36.7678 27.6988V27.6985C37.0271 27.9068 37.1808 28.2196 37.1868 28.5525C37.1932 28.885 37.051 29.203 36.7991 29.4208L36.7992 29.4195ZM37.5494 26.2289C36.1975 24.8211 32.9781 21.7364 32.8274 21.5915L32.8278 21.5918C32.7307 21.4996 32.6121 21.4331 32.4826 21.3987C30.1551 20.7885 24.8414 17.8826 24.7879 17.852C24.5328 17.7119 24.221 17.7242 23.9776 17.8836L22.4603 18.8759C22.2584 19.0082 22.1282 19.2263 22.1074 19.467C22.0451 20.0254 21.7556 20.5335 21.3066 20.8713C21.1542 21.005 20.9498 21.0627 20.75 21.0289C20.2904 20.9139 20.0019 20.8294 19.8774 20.6215C19.7802 20.4638 19.6574 20.031 19.9238 18.9663C20.4438 16.8865 21.1352 16.4442 22.512 15.5727L22.8509 15.3559C24.5658 14.2525 25.3075 14.2202 26.0098 14.5372C27.1826 15.0653 31.5789 16.7567 31.7633 16.8291L31.7637 16.8288C31.9333 16.8932 32.1194 16.8977 32.2918 16.8414L35.2995 15.8556L39.1875 25.5008L37.5494 26.2289ZM41.4113 26.8049L36.0593 13.5278L40.9275 11.7861L46.1829 24.9776L41.4113 26.8049Z" fill="#199FD3"></path> </g> <defs> <clipPath id="clip0_715_6057"> <rect width="48" height="48" fill="white"></rect> </clipPath> </defs> </svg> 