<?xml version="1.0" encoding="UTF-8"?> <svg xmlns="http://www.w3.org/2000/svg" width="48" height="48" viewBox="0 0 48 48" fill="none"><g clip-path="url(#clip0_9979_4987)"><path d="M46.1589 20.2241L43.0171 19.8287L42.9963 19.7143C42.5074 17.54 41.6543 15.4697 40.4579 13.5867L40.3955 13.4931L42.3409 10.9963C42.9859 10.1641 42.9131 8.96767 42.164 8.21863L39.7817 5.83627C39.0535 5.10803 37.8155 5.03521 37.004 5.65941L34.5072 7.60483L34.4136 7.54241C32.5306 6.34603 30.4707 5.49296 28.286 5.004L28.1716 4.98319V4.93118L27.7762 1.84139C27.641 0.790653 26.7463 0 25.6956 0H22.3249C21.2638 0 20.3691 0.790653 20.2442 1.84139L19.8489 4.98319L19.7345 5.004C17.5498 5.49296 15.4899 6.34603 13.6069 7.54241L13.5133 7.60483L11.0165 5.65941C10.2154 5.03521 8.96703 5.10803 8.2388 5.83627L5.84603 8.21863C5.09699 8.96767 5.02417 10.1536 5.66918 10.9963L7.6146 13.4931L7.55218 13.5867C6.35579 15.4697 5.50272 17.54 5.01377 19.7143L4.99296 19.8287H4.87852L1.85115 20.2241C0.800418 20.3593 0.00976562 21.254 0.00976562 22.3047V25.6754C0.00976562 26.7365 0.800418 27.6312 1.85115 27.7561L4.99296 28.1514L5.01377 28.2658C5.50272 30.4401 6.35579 32.5104 7.55218 34.3934L7.6146 34.4974L5.66918 36.9942C5.02417 37.8265 5.09699 39.0229 5.84603 39.7719L8.22839 42.1543C8.94622 42.8825 10.1946 42.9553 11.0061 42.3311L13.5029 40.3857L13.5965 40.4481C15.4795 41.6445 17.5394 42.4976 19.7241 42.9865L19.8385 43.0073V43.0594L20.2338 46.1492C20.3691 47.1999 21.2638 47.9905 22.3145 47.9905H25.6852C26.7463 47.9905 27.641 47.1999 27.7658 46.1492L28.1612 43.0073L28.2756 42.9865C30.4603 42.4976 32.5202 41.6445 34.4032 40.4481L34.5072 40.3857L37.004 42.3311C37.3681 42.612 37.8259 42.7681 38.294 42.7681C38.8558 42.7681 39.3864 42.5496 39.7817 42.1543L42.164 39.7719C42.9131 39.0229 42.9859 37.8369 42.3409 36.9942L40.3955 34.4974L40.4579 34.4038C41.6543 32.5208 42.5074 30.4505 42.9963 28.2762L43.0171 28.1618H43.0691L46.1589 27.7665C47.2097 27.6312 48.0003 26.7365 48.0003 25.6858V22.3151C48.0003 21.254 47.2097 20.3593 46.1589 20.2345V20.2241ZM46.8247 25.9459L46.7935 25.9251C46.6895 26.2788 46.3878 26.5493 46.0237 26.5909L42.4657 27.0382C42.2161 27.0695 42.008 27.2567 41.9664 27.5064C41.4982 29.9096 40.5619 32.1671 39.1991 34.1957C39.0534 34.4038 39.0639 34.6847 39.2199 34.8824L41.4254 37.7121C41.7063 38.0762 41.6751 38.5963 41.3526 38.9292L38.9702 41.3116C38.6477 41.6341 38.1067 41.6653 37.753 41.3844L34.9233 39.1789C34.7257 39.0229 34.4448 39.0125 34.2367 39.1581C32.2081 40.521 29.9609 41.4573 27.5474 41.9254C27.2977 41.9774 27.1104 42.1751 27.0792 42.4248L26.6319 45.9827C26.5799 46.4404 26.1845 46.7942 25.7164 46.7942H22.3457C21.8776 46.7942 21.4926 46.4509 21.4302 45.9827L20.9829 42.4248C20.9517 42.1751 20.7644 41.967 20.5147 41.9254C18.1116 41.4573 15.854 40.521 13.8254 39.1581C13.6173 39.0229 13.326 39.0333 13.1388 39.1789L10.3091 41.3844C9.94494 41.6653 9.41437 41.6341 9.09187 41.3116L6.70951 38.9292C6.3766 38.5963 6.34539 38.0762 6.63668 37.7121L8.84219 34.8824C8.99824 34.6847 9.00864 34.4038 8.863 34.1957C7.48976 32.1671 6.56386 29.9096 6.09571 27.5064C6.04369 27.2567 5.84603 27.0695 5.58595 27.0382L2.02801 26.5909C1.57026 26.5389 1.21655 26.1436 1.21655 25.6754V22.3047C1.21655 21.8366 1.55986 21.4517 2.02801 21.3892L5.58595 20.9419C5.83563 20.9107 6.04369 20.7234 6.09571 20.4737C6.56386 18.0706 7.50016 15.8235 8.863 13.7844C9.00864 13.5763 8.99824 13.2955 8.84219 13.0978L6.63668 10.2681C6.35579 9.90397 6.387 9.3838 6.70951 9.05089L9.10227 6.66853C9.42478 6.34603 9.96575 6.31482 10.3195 6.59571L13.1492 8.80121C13.3468 8.95726 13.6277 8.96767 13.8358 8.82202C15.8644 7.45919 18.1116 6.52289 20.5251 6.05474C20.7748 6.00272 20.9621 5.80506 20.9933 5.55538L21.4406 1.99744C21.4926 1.53969 21.888 1.18598 22.3561 1.18598H25.7268C26.1949 1.18598 26.5799 1.52929 26.6423 1.99744L27.0896 5.55538C27.1208 5.80506 27.3081 6.01312 27.5578 6.05474C29.9713 6.52289 32.2185 7.45919 34.2471 8.82202C34.4656 8.96767 34.7361 8.95726 34.9337 8.80121L37.7634 6.59571C38.1276 6.31482 38.6581 6.34603 38.9806 6.66853L41.363 9.05089C41.6855 9.3838 41.7271 9.90397 41.4358 10.2681L39.2303 13.0978C39.0743 13.2955 39.0639 13.5763 39.2095 13.7948C40.5827 15.8235 41.5086 18.081 41.9768 20.4842C42.0288 20.7338 42.2265 20.9211 42.4761 20.9523L46.0341 21.3996C46.4918 21.4621 46.8455 21.847 46.8455 22.3151V25.9563L46.8247 25.9459Z" fill="#009ED5"></path><path d="M24.0001 9.06125C15.7607 9.06125 9.06093 15.761 9.06093 24.0004C9.06093 32.2399 15.7607 38.9396 24.0001 38.9396C32.2395 38.9396 38.9393 32.2399 38.9393 24.0004C38.9393 15.761 32.2395 9.06125 24.0001 9.06125ZM24.0001 37.764C16.4161 37.764 10.2365 31.5949 10.2365 24.0004C10.2365 16.406 16.4057 10.2368 24.0001 10.2368C31.5945 10.2368 37.7637 16.4164 37.7637 24.0004C37.7637 31.5845 31.5945 37.764 24.0001 37.764Z" fill="#009ED5"></path><path d="M14.2757 27.4322C14.2046 27.4322 14.1442 27.4073 14.0944 27.3575C14.0447 27.3078 14.0198 27.2474 14.0198 27.1763V20.2356C14.0198 20.1574 14.0447 20.0935 14.0944 20.0437C14.1442 19.9939 14.2046 19.9691 14.2757 19.9691H17.133C17.6874 19.9691 18.1707 20.0579 18.5829 20.2356C18.9952 20.4062 19.315 20.6692 19.5425 21.0246C19.7699 21.3728 19.8837 21.81 19.8837 22.3359C19.8837 22.869 19.7699 23.3097 19.5425 23.658C19.315 23.9991 18.9952 24.255 18.5829 24.4256C18.1707 24.5962 17.6874 24.6815 17.133 24.6815H15.5444V27.1763C15.5444 27.2474 15.5195 27.3078 15.4698 27.3575C15.4271 27.4073 15.3667 27.4322 15.2885 27.4322H14.2757ZM15.5231 23.498H17.0797C17.4919 23.498 17.8082 23.4021 18.0285 23.2102C18.2489 23.0112 18.3591 22.7198 18.3591 22.3359C18.3591 21.9806 18.256 21.6962 18.0499 21.483C17.8437 21.2627 17.5203 21.1525 17.0797 21.1525H15.5231V23.498Z" fill="#009ED5"></path><path d="M23.9156 27.5388C23.2831 27.5388 22.7393 27.4357 22.2844 27.2296C21.8295 27.0164 21.4741 26.693 21.2183 26.2594C20.9624 25.8187 20.8238 25.2714 20.8025 24.6175C20.7954 24.3119 20.7918 24.0098 20.7918 23.7113C20.7918 23.4128 20.7954 23.1071 20.8025 22.7944C20.8238 22.1476 20.9659 21.6074 21.2289 21.1738C21.4919 20.7403 21.8509 20.4133 22.3057 20.193C22.7677 19.9726 23.3044 19.8625 23.9156 19.8625C24.5269 19.8625 25.0635 19.9726 25.5255 20.193C25.9875 20.4133 26.35 20.7403 26.613 21.1738C26.876 21.6074 27.0182 22.1476 27.0395 22.7944C27.0537 23.1071 27.0608 23.4128 27.0608 23.7113C27.0608 24.0098 27.0537 24.3119 27.0395 24.6175C27.0182 25.2714 26.8796 25.8187 26.6237 26.2594C26.3678 26.693 26.0089 27.0164 25.5469 27.2296C25.092 27.4357 24.5482 27.5388 23.9156 27.5388ZM23.9156 26.3127C24.3776 26.3127 24.7544 26.1777 25.0458 25.9076C25.3372 25.6304 25.4936 25.1826 25.5149 24.5642C25.5291 24.2515 25.5362 23.9636 25.5362 23.7006C25.5362 23.4305 25.5291 23.1427 25.5149 22.837C25.5007 22.4248 25.4225 22.0907 25.2803 21.8348C25.1453 21.5719 24.9605 21.3835 24.7259 21.2698C24.4914 21.149 24.2213 21.0885 23.9156 21.0885C23.6171 21.0885 23.3506 21.149 23.116 21.2698C22.8815 21.3835 22.6931 21.5719 22.551 21.8348C22.4159 22.0907 22.3413 22.4248 22.3271 22.837C22.32 23.1427 22.3164 23.4305 22.3164 23.7006C22.3164 23.9636 22.32 24.2515 22.3271 24.5642C22.3484 25.1826 22.5048 25.6304 22.7962 25.9076C23.0876 26.1777 23.4607 26.3127 23.9156 26.3127Z" fill="#009ED5"></path><path d="M31.3394 27.5388C30.6784 27.5388 30.1169 27.4251 29.6549 27.1976C29.2 26.9631 28.8517 26.6325 28.6101 26.2061C28.3684 25.7725 28.2334 25.2537 28.2049 24.6495C28.1978 24.3581 28.1943 24.0453 28.1943 23.7113C28.1943 23.3772 28.1978 23.0574 28.2049 22.7517C28.2334 22.1547 28.3684 21.6394 28.6101 21.2058C28.8588 20.7722 29.2107 20.4417 29.6656 20.2143C30.1276 19.9797 30.6855 19.8625 31.3394 19.8625C31.8227 19.8625 32.2563 19.9264 32.6401 20.0544C33.0239 20.1823 33.3509 20.36 33.621 20.5874C33.8911 20.8078 34.1008 21.0672 34.25 21.3657C34.3993 21.6643 34.4775 21.9877 34.4846 22.3359C34.4917 22.3999 34.4704 22.4532 34.4206 22.4959C34.378 22.5385 34.3247 22.5598 34.2607 22.5598H33.2478C33.1697 22.5598 33.1057 22.5421 33.0559 22.5065C33.0062 22.4639 32.9706 22.3964 32.9493 22.304C32.8356 21.8348 32.6401 21.515 32.3629 21.3444C32.0857 21.1738 31.741 21.0885 31.3288 21.0885C30.8525 21.0885 30.4723 21.2236 30.188 21.4937C29.9037 21.7567 29.7508 22.1938 29.7295 22.805C29.7082 23.3879 29.7082 23.9849 29.7295 24.5962C29.7508 25.2075 29.9037 25.6481 30.188 25.9182C30.4723 26.1812 30.8525 26.3127 31.3288 26.3127C31.741 26.3127 32.0857 26.2274 32.3629 26.0568C32.6401 25.8791 32.8356 25.5593 32.9493 25.0973C32.9706 24.9978 33.0062 24.9303 33.0559 24.8947C33.1057 24.8592 33.1697 24.8414 33.2478 24.8414H34.2607C34.3247 24.8414 34.378 24.8627 34.4206 24.9054C34.4704 24.948 34.4917 25.0013 34.4846 25.0653C34.4775 25.4136 34.3993 25.737 34.25 26.0355C34.1008 26.334 33.8911 26.597 33.621 26.8245C33.3509 27.0448 33.0239 27.2189 32.6401 27.3469C32.2563 27.4748 31.8227 27.5388 31.3394 27.5388Z" fill="#009ED5"></path></g><defs><clipPath id="clip0_9979_4987"><rect width="48" height="48" fill="white"></rect></clipPath></defs></svg> 