<?xml version="1.0" encoding="UTF-8"?> <svg xmlns="http://www.w3.org/2000/svg" width="48" height="48" viewBox="0 0 48 48" fill="none"> <path d="M34.3138 7.311H26.6054C25.7123 6.04186 24.3963 5.14873 22.8924 4.77305C22.6573 3.22198 21.2944 2 19.6491 2C18.0039 2 16.641 3.22198 16.4059 4.77305C14.9016 5.14911 13.6328 6.04219 12.6929 7.311H5.03107C4.65501 7.311 4.32617 7.64018 4.32617 8.0159V45.0067C4.32617 45.3827 4.65535 45.7116 5.03107 45.7116H34.3135C34.6896 45.7116 35.0184 45.3824 35.0184 45.0067V8.0159C35.0184 7.59263 34.6892 7.31068 34.3135 7.31068L34.3138 7.311ZM17.2519 6.0422C17.5811 5.99531 17.8631 5.66614 17.8631 5.3373V5.29041C17.8631 4.25636 18.7089 3.41049 19.743 3.41049C20.777 3.41049 21.6229 4.25636 21.6229 5.29041V5.3373C21.6229 5.71336 21.858 5.99531 22.234 6.0422C23.691 6.27727 24.9602 7.12316 25.7592 8.39231C26.1353 9.00344 26.3703 9.66145 26.5113 10.3664H12.9747C13.0688 9.6615 13.3038 9.00351 13.7268 8.39231C14.4789 7.12316 15.795 6.27695 17.2519 6.0422H17.2519ZM33.6087 44.302H5.73636V8.72132H11.9408V8.76821C11.8939 8.95607 11.7998 9.09738 11.753 9.28525C11.7061 9.47312 11.6589 9.61443 11.612 9.80229C11.612 9.84918 11.612 9.89639 11.5651 9.94327C11.5651 10.0843 11.5182 10.2252 11.5182 10.3193V10.4603C11.5182 10.6482 11.4713 10.8364 11.4713 11.0242C11.4713 11.4003 11.8005 11.7291 12.1762 11.7291H27.076C27.452 11.7291 27.7809 11.4 27.7809 11.0242C27.7809 10.8364 27.7809 10.6482 27.734 10.4603V10.3193C27.734 10.1784 27.6871 10.0374 27.6871 9.94327C27.6871 9.89639 27.6871 9.84918 27.6402 9.80229C27.5933 9.61443 27.5461 9.42623 27.4992 9.28525C27.4523 9.09738 27.4051 8.95607 27.3114 8.76821V8.72132H33.5158L33.5145 44.302H33.6087Z" fill="white"></path> <path d="M40.8478 9.61417C38.8268 9.61417 37.1348 11.2594 37.1348 13.3272V36.2643V36.4521V36.499C37.1348 36.5459 37.1816 36.5931 37.1816 36.64V36.6869L40.1898 41.8573C40.3308 42.0924 40.5658 42.1865 40.8009 42.1865C41.036 42.1865 41.2711 42.0455 41.412 41.8573L44.4202 36.6869V36.64C44.4202 36.5931 44.4671 36.5459 44.4671 36.499V36.4521V36.2643L44.4667 13.3272C44.5608 11.3063 42.8687 9.61417 40.8478 9.61417H40.8478ZM38.5446 35.5594V15.3954H43.1507V35.5124H38.5446V35.5594ZM40.8478 11.0242C42.1169 11.0242 43.1509 12.0583 43.1509 13.3274L43.1506 13.9851H38.5445V13.3271C38.5445 12.0583 39.5785 11.0242 40.8477 11.0242L40.8478 11.0242ZM40.8478 40.0246L39.0616 36.9696H42.5868L40.8478 40.0246Z" fill="white"></path> <path d="M14.0083 34.4314H9.40216C9.0261 34.4314 8.69727 34.7605 8.69727 35.1363V39.7424C8.69727 40.1185 9.02644 40.4473 9.40216 40.4473H14.0083C14.3844 40.4473 14.7132 40.1182 14.7132 39.7424V35.1363C14.7132 34.7605 14.4312 34.4314 14.0083 34.4314ZM13.3034 39.0375H10.1074V35.8415H13.3034V39.0375Z" fill="white"></path> <path d="M14.0083 15.6305H9.40216C9.0261 15.6305 8.69727 15.9597 8.69727 16.3354V20.9415C8.69727 21.3176 9.02644 21.6464 9.40216 21.6464H14.0083C14.3844 21.6464 14.7132 21.3173 14.7132 20.9415V16.3354C14.7132 15.9597 14.4312 15.6305 14.0083 15.6305ZM13.3034 20.2366H10.1074V17.0406H13.3034V20.2366Z" fill="white"></path> <path d="M14.0083 25.0309H9.40216C9.0261 25.0309 8.69727 25.3601 8.69727 25.7358V30.342C8.69727 30.718 9.02644 31.0469 9.40216 31.0469H14.0083C14.3844 31.0469 14.7132 30.7177 14.7132 30.342V25.7358C14.7132 25.3601 14.4312 25.0309 14.0083 25.0309ZM13.3034 29.6371H10.1074V26.4411H13.3034V29.6371Z" fill="white"></path> <path d="M16.2188 18.6386C16.2188 19.0147 16.5479 19.3435 16.9237 19.3435H29.9903C30.3663 19.3435 30.6952 19.0144 30.6952 18.6386C30.6952 18.2626 30.366 17.9337 29.9903 17.9337H16.9237C16.5479 17.9337 16.2188 18.2626 16.2188 18.6386Z" fill="white"></path> <path d="M29.9903 27.334H16.9236C16.5476 27.334 16.2188 27.6632 16.2188 28.0389C16.2188 28.415 16.5479 28.7438 16.9236 28.7438H29.9903C30.3663 28.7438 30.6952 28.4147 30.6952 28.0389C30.6955 27.6629 30.3663 27.334 29.9903 27.334Z" fill="white"></path> <path d="M29.9903 36.7345H16.9236C16.5476 36.7345 16.2188 37.0636 16.2188 37.4394C16.2188 37.8154 16.5479 38.1442 16.9236 38.1442H29.9903C30.3663 38.1442 30.6952 37.8151 30.6952 37.4394C30.6955 37.0633 30.3663 36.7345 29.9903 36.7345Z" fill="white"></path> </svg> 