<?xml version="1.0" encoding="UTF-8"?> <svg xmlns="http://www.w3.org/2000/svg" width="48" height="48" viewBox="0 0 48 48" fill="none"><g clip-path="url(#clip0_9979_17749)"><path d="M46.5008 18.7913C46.3959 18.2462 46.1025 17.7851 45.6832 17.5125C45.2639 17.1981 44.7189 17.0723 44.1739 17.1981L40.7989 17.9318L40.5683 17.4706C40.0023 16.1499 39.3105 15.0599 38.5558 14.2633L38.1575 13.865L40.5263 11.014C40.8617 10.5948 41.0294 10.1126 40.9875 9.54664C40.9456 9.0016 40.694 8.51946 40.2748 8.20501L37.7802 6.15065C36.9207 5.43791 35.642 5.54273 34.9292 6.40221L32.7701 9.16931L32.3089 8.93871C30.9673 8.2679 29.7095 7.84864 28.7242 7.74383L28.1373 7.68094V3.99147C28.1373 2.9014 27.2149 2 26.1039 2H22.8546C22.3096 2 21.8274 2.20963 21.4291 2.60792C21.0518 2.98526 20.8631 3.4674 20.8631 4.0334L20.9889 7.49228L20.4649 7.61805C19.0184 7.97442 17.8655 8.43561 16.9431 9.04353L16.4609 9.33701L14.0712 6.52798C13.7148 6.08776 13.2327 5.85717 12.7086 5.81524C12.1426 5.77332 11.6185 5.94102 11.2412 6.27643L8.7466 8.20501C8.34831 8.54042 8.09675 9.02257 8.03386 9.5676C7.99194 10.1126 8.15964 10.6367 8.49505 11.056L10.8639 13.6554L10.5075 14.0746C9.68993 15.1857 9.06104 16.2967 8.68371 17.3868L8.53697 17.9318L4.88943 17.3029C4.36536 17.1981 3.84128 17.3239 3.40106 17.6593C2.93988 18.0156 2.6464 18.4768 2.58351 18.9799L2.01751 22.1244C1.93366 22.6694 2.05944 23.2144 2.37388 23.6547C2.68833 24.0739 3.12855 24.3674 3.65262 24.4512L7.04861 25.0172L7.11149 25.5204C7.23727 26.862 7.50979 28.0988 7.92905 29.1469L8.15964 29.671L4.97328 31.5367C4.5121 31.8092 4.17669 32.2494 4.02995 32.7735C3.90417 33.2766 3.98802 33.8217 4.26054 34.2828L5.87468 37.0709C6.44068 38.0352 7.65653 38.3496 8.62082 37.7836L11.5976 35.9179L11.9539 36.3372C12.9182 37.3644 13.9244 38.161 14.9307 38.685L15.4547 38.9785L14.2179 42.4793C14.0292 42.9824 14.0502 43.5065 14.2808 43.9887C14.5114 44.4708 14.9307 44.8481 15.4338 45.0368L18.4734 46.1269C18.683 46.1898 18.9136 46.2317 19.1442 46.2317C19.9827 46.2317 20.7583 45.7076 21.0309 44.911L22.1838 41.6618L22.7079 41.7247C24.1543 41.9343 25.2654 41.8714 26.5651 41.7247L27.0891 41.6618L28.284 44.911C28.4517 45.3932 28.829 45.7915 29.3741 46.043C29.8772 46.2526 30.4222 46.2946 30.9044 46.1059L33.944 45.0158C34.9921 44.6175 35.5162 43.4855 35.1179 42.4164L33.7972 39.2091L34.2584 38.9156C35.4743 38.119 36.4176 37.2805 37.0884 36.3791L37.4448 35.9179L40.6731 37.7836C41.6583 38.3287 42.8951 37.9933 43.4192 37.029L44.9914 34.2409C45.2849 33.7797 45.3478 33.2557 45.2011 32.7106C45.0543 32.1656 44.7399 31.7463 44.2787 31.5157L41.1971 29.9016L41.3649 29.3775C41.7841 28.0149 42.0357 26.6943 42.0985 25.4994L42.1614 24.9753L45.5365 24.3674C46.0815 24.2626 46.5427 23.9691 46.8362 23.5079C47.1296 23.0677 47.2345 22.5436 47.1296 22.0196L46.5008 18.7913ZM41.1343 23.5079C40.8408 23.5708 40.5892 23.9901 40.5473 24.3464L40.5054 24.577C40.4634 26.0654 40.2329 27.4909 39.8346 28.8115C39.562 29.692 39.9394 30.6563 40.736 31.1174L43.9433 32.7316L41.9308 36.6516L38.5977 34.744C37.7802 34.2828 36.7949 34.4505 36.1241 35.1423C35.3066 36.0437 34.3632 36.8403 33.3361 37.4902C32.5604 38.0142 32.225 38.9785 32.5604 39.838L33.9859 43.1711L29.9191 44.8691L28.263 40.383C28.1373 40.0896 27.8648 39.9009 27.5503 39.9009H27.4036C26.2716 40.0896 25.454 40.1734 24.6365 40.1734C23.9028 40.2153 23.0223 40.1315 21.8484 39.9009C21.492 39.838 21.1566 40.0476 21.0099 40.404L19.6054 44.7224L15.3709 43.4227L16.6706 39.838C16.985 38.9995 16.6496 38.0352 15.853 37.4902C14.7001 36.7145 13.7987 35.9599 13.065 35.1423C12.4151 34.4505 11.3879 34.2828 10.6123 34.744L7.57268 36.6936L5.14098 33.0041L8.45312 31.0965C9.27067 30.6353 9.62704 29.671 9.33356 28.7486C8.87238 27.2603 8.62082 25.6881 8.62082 24.2207C8.62082 23.8643 8.34831 23.5498 8.0129 23.487L3.48492 22.8581L4.05091 18.5188L7.80327 19.1896C8.72564 19.3363 9.58511 18.8542 9.98341 17.9737C10.4446 16.9256 11.0525 15.8565 11.8281 14.7874C12.3941 14.0327 12.3732 13.0055 11.7653 12.2928L9.20778 9.84012L12.4361 6.82146L14.9097 9.7353C15.5176 10.448 16.5029 10.6367 17.3833 10.1965C18.5363 9.63049 19.6892 9.19027 20.8212 8.91775C21.7436 8.70812 22.3934 7.91153 22.3934 7.01013L22.2257 3.44644L26.6279 3.23681V7.03109C26.6279 7.95346 27.2778 8.72908 28.2002 8.93871C29.3322 9.21123 30.4851 9.63049 31.6381 10.2175C32.4975 10.6367 33.4828 10.448 34.1117 9.71434L36.2709 6.84243L39.8136 9.48375L37.34 12.4395C36.753 13.1732 36.7321 14.1794 37.298 14.9341C38.0527 15.9194 38.6397 16.9465 39.1428 18.0785C39.5411 18.938 40.4425 19.4202 41.3229 19.2525L44.8657 18.4559L45.8719 22.7533L41.1343 23.5079Z" fill="#009ED5"></path><path d="M34.0275 16.9885C33.5873 16.9256 33.21 17.0514 32.9584 17.3868L28.661 22.7323C28.4724 22.9629 28.2208 23.1096 27.9483 23.1516C27.6339 23.1935 27.2985 23.1096 27.0259 22.879L24.5942 20.9505C24.3427 20.7408 24.1959 20.4474 24.1959 20.1119C24.1959 19.8394 24.2798 19.525 24.4265 19.2944L24.4475 19.2734L28.8497 13.8231C29.0384 13.4877 29.0803 13.0894 28.9126 12.7749V12.754C28.8287 12.5234 28.3885 12.2089 28.116 12.1461C27.2565 11.9993 26.2503 12.0203 25.2441 12.188C21.0306 13.0265 18.0538 16.8837 18.3263 21.1601C18.4102 22.1663 18.6408 23.1096 19.0181 23.9901L19.1858 24.3255L18.9343 24.619C18.8085 24.7867 18.6408 24.9963 18.4731 25.2059C18.2006 25.5623 17.8861 25.9606 17.5507 26.4008L13.9241 31.1175C13.7984 31.2852 13.7564 31.4948 13.7774 31.6835C13.7984 31.8721 13.9032 32.0398 14.0709 32.1656C14.2386 32.3123 14.4272 32.3543 14.6369 32.3333C14.8465 32.3123 15.0142 32.2075 15.14 32.0608L18.9552 27.1136C19.7728 26.0235 20.3597 25.2479 20.6951 24.9125C20.8838 24.6609 20.9048 24.3255 20.779 24.032C20.2759 23.1306 19.9824 22.1453 19.8986 21.0553C19.668 17.6174 22.1625 14.3891 25.5795 13.6973H27.1308L23.3574 18.3511C22.8962 18.938 22.6866 19.6508 22.7914 20.3845C22.8753 21.0762 23.2317 21.6842 23.7557 22.1034L26.2084 24.032C26.7325 24.4932 27.4242 24.7028 28.1789 24.619C28.8497 24.5561 29.4786 24.1997 29.9817 23.6337L34.0066 18.6655V20.8247C33.8808 24.053 31.4701 26.862 28.2837 27.5118C27.2565 27.7005 26.1665 27.6376 24.9506 27.3022L24.9087 27.2813C24.8668 27.2603 24.8248 27.2603 24.7619 27.2603C24.4475 27.2603 24.1331 27.449 24.0073 27.7215L23.9444 27.8473H23.7138C23.5042 28.1198 23.1478 28.6019 22.6657 29.2308C21.5965 30.6353 20.0034 32.7316 18.4521 34.7231C18.2006 35.0585 18.2635 35.5197 18.5779 35.7712C18.8714 36.0228 19.3745 35.9599 19.626 35.6454C21.7014 32.9622 23.8396 30.1741 24.6362 29.126L24.8668 28.7906L25.2651 28.8535C26.439 29.0631 27.4871 29.0841 28.3885 28.8954C32.2667 28.1617 35.2015 24.7657 35.3482 20.8037C35.3901 19.7346 35.2015 18.6445 34.8032 17.5964C34.7193 17.4077 34.3001 17.0304 34.0275 16.9885Z" fill="#009ED5"></path></g><defs><clipPath id="clip0_9979_17749"><rect width="45.175" height="44.2107" fill="white" transform="translate(2 2)"></rect></clipPath></defs></svg> 