<?xml version="1.0" encoding="UTF-8"?> <svg xmlns="http://www.w3.org/2000/svg" width="49" height="48" viewBox="0 0 49 48" fill="none"><g id="Server"><g id="Vector"><path fill-rule="evenodd" clip-rule="evenodd" d="M43.5609 6.69505L5.77015 6.69504L5.77015 17.1562L43.5609 17.1562L43.5609 6.69505ZM45.0509 6.19839C45.0509 5.6498 44.6062 5.20508 44.0576 5.20508L5.2735 5.20508C4.72491 5.20508 4.28019 5.6498 4.28019 6.19839L4.28019 17.6529C4.28019 18.2015 4.72491 18.6462 5.2735 18.6462L44.0576 18.6462C44.6062 18.6462 45.0509 18.2015 45.0509 17.6529V6.19839Z" fill="white"></path><path fill-rule="evenodd" clip-rule="evenodd" d="M43.5609 21.5159L5.77015 21.5159L5.77015 31.9771L43.5609 31.9771L43.5609 21.5159ZM45.0509 21.0193C45.0509 20.4707 44.6062 20.026 44.0576 20.026L5.2735 20.026C4.72491 20.026 4.28019 20.4707 4.28019 21.0193L4.28019 32.4738C4.28019 33.0224 4.72491 33.4671 5.2735 33.4671H44.0576C44.6062 33.4671 45.0509 33.0224 45.0509 32.4738V21.0193Z" fill="white"></path><path fill-rule="evenodd" clip-rule="evenodd" d="M10.332 7.16366C10.7435 7.16366 11.077 7.4972 11.077 7.90865V15.5296C11.077 15.9411 10.7435 16.2746 10.332 16.2746C9.9206 16.2746 9.58706 15.9411 9.58706 15.5296V7.90865C9.58706 7.4972 9.9206 7.16366 10.332 7.16366Z" fill="white"></path><path fill-rule="evenodd" clip-rule="evenodd" d="M10.332 22.191C10.7435 22.191 11.077 22.5245 11.077 22.936V30.5569C11.077 30.9684 10.7435 31.3019 10.332 31.3019C9.9206 31.3019 9.58706 30.9684 9.58706 30.5569V22.936C9.58706 22.5245 9.9206 22.191 10.332 22.191Z" fill="white"></path><path fill-rule="evenodd" clip-rule="evenodd" d="M24.6656 32.722C25.077 32.722 25.4105 33.0555 25.4105 33.467V36.3312C25.4105 36.7426 25.077 37.0762 24.6656 37.0762C24.2541 37.0762 23.9206 36.7426 23.9206 36.3312V33.467C23.9206 33.0555 24.2541 32.722 24.6656 32.722Z" fill="white"></path><path fill-rule="evenodd" clip-rule="evenodd" d="M4.25195 39.5141C4.25195 39.1027 4.58549 38.7692 4.99694 38.7692H21.9695C22.381 38.7692 22.7145 39.1027 22.7145 39.5141C22.7145 39.9256 22.381 40.2591 21.9695 40.2591H4.99694C4.58549 40.2591 4.25195 39.9256 4.25195 39.5141Z" fill="white"></path><path fill-rule="evenodd" clip-rule="evenodd" d="M26.6168 39.5141C26.6168 39.1027 26.9504 38.7692 27.3618 38.7692H44.3344C44.7458 38.7692 45.0794 39.1027 45.0794 39.5141C45.0794 39.9256 44.7458 40.2591 44.3344 40.2591H27.3618C26.9504 40.2591 26.6168 39.9256 26.6168 39.5141Z" fill="white"></path><path fill-rule="evenodd" clip-rule="evenodd" d="M38.0983 9.76797C37.0207 9.76797 36.1472 10.6415 36.1472 11.7191C36.1472 12.7967 37.0207 13.6703 38.0983 13.6703C39.1759 13.6703 40.0495 12.7967 40.0495 11.7191C40.0495 10.6415 39.1759 9.76797 38.0983 9.76797ZM34.6572 11.7191C34.6572 9.81865 36.1978 8.278 38.0983 8.278C39.9988 8.278 41.5394 9.81865 41.5394 11.7191C41.5394 13.6196 39.9988 15.1602 38.0983 15.1602C36.1978 15.1602 34.6572 13.6196 34.6572 11.7191Z" fill="white"></path><path fill-rule="evenodd" clip-rule="evenodd" d="M38.0983 24.7954C37.0207 24.7954 36.1471 25.669 36.1471 26.7465C36.1471 27.8241 37.0207 28.6977 38.0983 28.6977C39.1758 28.6977 40.0494 27.8241 40.0494 26.7465C40.0494 25.669 39.1758 24.7954 38.0983 24.7954ZM34.6571 26.7465C34.6571 24.8461 36.1978 23.3054 38.0983 23.3054C39.9987 23.3054 41.5394 24.8461 41.5394 26.7465C41.5394 28.647 39.9987 30.1877 38.0983 30.1877C36.1978 30.1877 34.6571 28.647 34.6571 26.7465Z" fill="white"></path><path fill-rule="evenodd" clip-rule="evenodd" d="M24.6658 37.4026C23.5882 37.4026 22.7146 38.2762 22.7146 39.3538C22.7146 40.4314 23.5882 41.3049 24.6658 41.3049C25.7434 41.3049 26.6169 40.4314 26.6169 39.3538C26.6169 38.2762 25.7434 37.4026 24.6658 37.4026ZM21.2247 39.3538C21.2247 37.4533 22.7653 35.9126 24.6658 35.9126C26.5662 35.9126 28.1069 37.4533 28.1069 39.3538C28.1069 41.2542 26.5662 42.7949 24.6658 42.7949C22.7653 42.7949 21.2247 41.2542 21.2247 39.3538Z" fill="white"></path></g></g></svg> 