<?xml version="1.0" encoding="UTF-8"?> <svg xmlns="http://www.w3.org/2000/svg" width="48" height="48" viewBox="0 0 48 48" fill="none"><path d="M6.62321 6.12376C7.06865 6.12376 7.4349 5.76238 7.4349 5.31188C7.4349 4.86139 7.07359 4.5 6.62321 4.5C6.17282 4.5 5.81153 4.86139 5.81153 5.31188C5.81153 5.76238 6.17282 6.12376 6.62321 6.12376Z" fill="#009ED5"></path><path d="M9.51361 6.12376C9.95905 6.12376 10.3253 5.76238 10.3253 5.31188C10.3253 4.86139 9.96399 4.5 9.51361 4.5C9.06322 4.5 8.70193 4.86139 8.70193 5.31188C8.70193 5.76238 9.06322 6.12376 9.51361 6.12376Z" fill="#009ED5"></path><path d="M12.3991 6.12871C12.8474 6.12871 13.2107 5.76522 13.2107 5.31683C13.2107 4.86844 12.8474 4.50495 12.3991 4.50495C11.9508 4.50495 11.5874 4.86844 11.5874 5.31683C11.5874 5.76522 11.9508 6.12871 12.3991 6.12871Z" fill="#009ED5"></path><path d="M10.5529 31.9109V35.6089C10.5529 36.4505 11.231 37.1386 12.0674 37.1386H13.478L13.5423 37.3168C13.676 37.6832 13.8195 38.0594 14.0026 38.4307L14.0867 38.599L13.1117 39.6386C12.8346 39.9208 12.6663 40.3267 12.6663 40.7327C12.6663 41.1386 12.8296 41.5446 13.1018 41.8218L15.6854 44.4307C16.2199 45.0099 17.3038 45.005 17.8284 44.4356L18.8183 43.4356L18.9965 43.5248C19.3627 43.7079 19.7389 43.8515 20.0952 43.9852L20.2734 44.0495V45.4703C20.2734 46.3119 20.9515 47 21.7829 47H25.4454C26.2769 47 26.9599 46.3119 26.9599 45.4703V44.0495L27.1332 43.9852C27.4944 43.8465 27.8706 43.7079 28.2319 43.5248L28.4101 43.4356L29.395 44.4307C29.9295 45.0099 31.0134 45.005 31.538 44.4356L34.1265 41.8218C34.3988 41.5446 34.5621 41.1386 34.5621 40.7327C34.5621 40.3267 34.3988 39.9208 34.1265 39.6436L33.1466 38.6535L33.2307 38.4802C33.4138 38.1089 33.5524 37.7327 33.691 37.3663L33.7553 37.1881H35.1659C35.9974 37.1881 36.7744 36.5198 36.7744 35.6782V31.9109M35.4381 35.7376H33.3346C33.0327 35.7376 32.7556 35.9505 32.6516 36.2624C32.4586 37.005 32.1617 37.7277 31.7855 38.396C31.6073 38.6881 31.7014 39.0248 31.8845 39.2079L33.3396 40.6782L30.5135 43.5347L29.098 42.0495C28.9001 41.8465 28.5289 41.7921 28.3259 41.9406C27.5835 42.3713 26.9055 42.6535 26.168 42.8366C25.8612 42.9059 25.6682 43.1733 25.6682 43.5198V45.6436H21.6939V43.5693C21.6939 43.2624 21.486 42.9852 21.1742 42.8812C20.4367 42.6832 19.7191 42.3861 19.0608 42.005C18.7935 41.8713 18.457 41.9109 18.264 42.104L16.8039 43.5792L13.9779 40.7277L15.433 39.2574C15.6161 39.0743 15.7101 38.7376 15.5369 38.4554C15.1212 37.7178 14.844 37.0347 14.6609 36.2921C14.5916 35.9852 14.3293 35.7871 13.9878 35.7871H11.8843V31.7822H13.9383C14.2402 31.7822 14.5173 31.5693 14.6213 31.2574C14.8143 30.5149 15.1113 29.7921 15.4874 29.1238C15.6705 28.8317 15.5715 28.4951 15.3884 28.3119L13.9333 26.8416L16.7594 23.9901L18.2194 25.4654C18.4223 25.6733 18.7935 25.7228 18.9915 25.5792C19.7339 25.1485 20.412 24.8663 21.1494 24.6832C21.4563 24.6139 21.6493 24.3465 21.6493 24V21.8762H25.6236V23.9505C25.6236 24.2574 25.8315 24.5347 26.1433 24.6386C26.8807 24.8366 27.5984 25.1337 28.2566 25.5149C28.5239 25.6485 28.8605 25.6089 29.0535 25.4158L30.5135 23.9406L33.3396 26.7921L31.8845 28.2624C31.6816 28.4703 31.6271 28.8465 31.7707 29.0495C32.1963 29.802 32.4735 30.4852 32.6566 31.2277C32.7259 31.5347 32.9882 31.7327 33.3297 31.7327H35.4332V35.7376H35.4381ZM36.7744 31.9109C36.7744 31.0693 36.0964 30.3812 35.2599 30.3812H33.8048L33.7405 30.203C33.597 29.8168 33.4633 29.4555 33.2802 29.0891L33.1961 28.9158L34.176 27.9257C34.4482 27.6485 34.6116 27.2426 34.6116 26.8366C34.6116 26.4307 34.4482 26.0248 34.176 25.7475L31.5925 23.1386C31.3252 22.8465 30.9342 22.6881 30.5185 22.6881C30.1027 22.6881 29.7117 22.8515 29.4494 23.1337L28.4596 24.1337L28.2814 24.0446C27.9151 23.8614 27.539 23.7178 27.1826 23.5842L27.0045 23.5198V22.099C27.0045 21.2574 26.3264 20.5693 25.49 20.5693H21.8275C20.991 20.5693 20.313 21.2574 20.313 22.099V23.5198L20.1398 23.5842C19.7587 23.7277 19.4023 23.8614 19.041 24.0446L18.8678 24.1337L17.8383 23.1485C17.289 22.5594 16.215 22.5693 15.6903 23.1386L13.1018 25.7525C12.8296 26.0297 12.6663 26.4356 12.6663 26.8416C12.6663 27.2475 12.8296 27.6535 13.1068 27.9307L14.0867 28.9208L14.0026 29.0941C13.8195 29.4604 13.6859 29.8218 13.5423 30.203L13.478 30.3812H12.0674C11.2359 30.3812 10.5529 31.0693 10.5529 31.9109" fill="#009ED5"></path><path d="M45.807 1.18812C45.6882 1.06931 45.5298 1 45.3566 1H2.64891C2.29751 1 2.0154 1.28218 2.0154 1.63366V29.896C2.0154 31.7277 1.98075 33.2871 2.0154 34.0594C2.03025 34.396 2.40144 34.6733 2.73799 34.6733H10.5529C10.5529 34.6733 10.5826 33.3713 10.5529 33.2871H3.50019V32.9257L3.4606 9.81188L2.11665 9.81683C2.11665 9.47525 2.11671 8.4122 2.11671 8.4122L3.4606 8.42079V2.39109H44.5548V8.42079H45.3516C45.6338 8.42079 45.9886 8.4122 45.9886 8.4122V9.81683C45.9886 9.81683 45.6338 9.81188 45.3516 9.81188H44.5548V33.2822H36.7695L36.7844 34.6733H45.3368C45.6832 34.6733 45.9703 34.3911 45.9703 34.0396L46 1.63366C46 1.46535 45.9357 1.30693 45.8169 1.18317L45.807 1.18812Z" fill="#009ED5"></path><path d="M45.9886 9.81683H2.11665L2.11671 8.4122H45.9886V9.81683Z" fill="#009ED5"></path><path fill-rule="evenodd" clip-rule="evenodd" d="M23.75 38.5C26.3734 38.5 28.5 36.3734 28.5 33.75C28.5 31.1266 26.3734 29 23.75 29C21.1266 29 19 31.1266 19 33.75C19 36.3734 21.1266 38.5 23.75 38.5ZM23.75 39.75C27.0637 39.75 29.75 37.0637 29.75 33.75C29.75 30.4363 27.0637 27.75 23.75 27.75C20.4363 27.75 17.75 30.4363 17.75 33.75C17.75 37.0637 20.4363 39.75 23.75 39.75Z" fill="#009ED5"></path></svg> 