<?xml version="1.0" encoding="UTF-8"?> <svg xmlns="http://www.w3.org/2000/svg" width="48" height="48" viewBox="0 0 48 48" fill="none"><g clip-path="url(#clip0_9979_5049)"><path d="M43.7204 6H4.27959C3.04154 6 2 7.04154 2 8.27959V38.2287C2 39.4864 3.02188 40.5083 4.27959 40.5083H43.7204C44.8602 40.5083 45.8624 39.6239 46 38.5038V8.00447C45.8624 6.84502 44.8995 6 43.7204 6ZM44.8799 38.2483C44.8799 38.8575 44.3493 39.3881 43.7401 39.3881H4.27959C3.63109 39.3881 3.19875 38.8379 3.19875 38.3269V14.5878H44.8602V38.2483H44.8799ZM44.8799 13.3694H3.13979V8.27959C3.13979 7.69004 3.61143 7.2184 4.22063 7.2184H43.7401C44.0152 7.1791 44.2903 7.2577 44.5261 7.43457C44.762 7.63109 44.8995 7.94551 44.8995 8.25994V13.3694H44.8799Z" fill="#009ED5"></path><path d="M6.36245 9.53735C6.12663 9.53735 5.91046 9.63561 5.73359 9.79282C5.37986 10.1466 5.37986 10.6771 5.75325 11.0505C5.93011 11.2077 6.14628 11.2863 6.36245 11.2863C6.59827 11.2863 6.81443 11.2077 6.9913 11.0309C7.34503 10.6771 7.32538 10.1466 6.9913 9.79282C6.83408 9.63561 6.59827 9.53735 6.36245 9.53735Z" fill="#029ED5"></path><path d="M11.6095 9.81239C11.4916 9.67483 11.3148 9.57657 11.0789 9.55692C10.8038 9.53727 10.5287 9.63553 10.3518 9.81239L10.3322 9.83205C10.175 9.94996 10.0964 10.1268 10.0767 10.343C10.057 10.6181 10.1553 10.8736 10.3322 11.0701C10.509 11.247 10.7252 11.3256 10.961 11.3256C11.1968 11.3256 11.413 11.247 11.6095 11.0701C11.9436 10.6967 11.9436 10.1661 11.6095 9.81239Z" fill="#029ED5"></path><path d="M16.1285 9.81236C15.9516 9.63549 15.7354 9.55688 15.4996 9.55688C15.2638 9.55688 15.0476 9.65514 14.8708 9.81236C14.517 10.1661 14.517 10.6967 14.8708 11.0504C15.0476 11.2273 15.2638 11.3059 15.4996 11.3059C15.7354 11.3059 15.9516 11.2273 16.1481 11.0504C16.4625 10.6967 16.4625 10.1464 16.1285 9.81236Z" fill="#009ED5"></path><path d="M13.8098 33.4534C14.6156 33.8465 15.5785 34.043 16.6986 34.043C17.8188 34.043 18.8014 33.8465 19.5874 33.4534C20.3735 33.0604 20.963 32.4708 21.3757 31.6848C21.8081 30.8791 22.0242 29.7982 22.0242 28.5209V20.1493C22.0242 20.0314 21.9849 19.9921 21.9653 19.9724L21.9456 19.9528C21.926 19.9135 21.867 19.8938 21.7884 19.8938H20.7272C20.6486 19.8938 20.5897 19.9135 20.5307 19.9724C20.5111 19.9921 20.4718 20.0314 20.4718 20.1689V28.5602C20.4718 29.9554 20.118 31.0166 19.4302 31.7044C18.7621 32.3922 17.8384 32.746 16.6986 32.746C15.5392 32.746 14.6156 32.3922 13.9474 31.7044C13.2793 31.0166 12.9452 29.9554 12.9452 28.5602V20.1493C12.9452 20.0314 12.9059 19.9921 12.8862 19.9724L12.8469 19.9528C12.8273 19.9331 12.7683 19.8938 12.6701 19.8938H11.6285C11.5106 19.8938 11.4713 19.9331 11.4517 19.9528C11.432 19.9724 11.373 20.0314 11.373 20.1493V28.5012C11.373 29.7982 11.5892 30.8594 12.0019 31.6651C12.4342 32.4708 13.0434 33.0604 13.8098 33.4534Z" fill="#009ED5"></path><path d="M24.8158 33.8463H26.0145C26.0931 33.8463 26.1521 33.8267 26.1914 33.7874C26.27 33.7284 26.329 33.6695 26.3879 33.5909L30.3575 28.0098L34.3665 33.6105C34.4254 33.6695 34.4844 33.7284 34.563 33.7874C34.6023 33.8267 34.6809 33.8463 34.7399 33.8463H35.9976C36.0565 33.8463 36.1155 33.8267 36.1548 33.7874C36.1941 33.7481 36.2137 33.7088 36.2137 33.6498C36.2137 33.6105 36.2137 33.5909 36.2137 33.5712C36.2137 33.5319 36.1941 33.5319 36.1941 33.5319L36.1744 33.5123L31.3991 26.7521L35.919 20.2081C35.9386 20.1688 35.9583 20.1098 35.9583 20.0705C35.9583 20.0116 35.9386 19.9723 35.8993 19.933C35.86 19.8937 35.8207 19.874 35.7617 19.874H34.5826C34.504 19.874 34.4451 19.8937 34.3861 19.933C34.3272 19.9723 34.2879 20.0312 34.2486 20.0902L34.2289 20.1491L30.4558 25.5533L26.6434 20.1491C26.5844 20.0509 26.5255 19.9919 26.4665 19.9526L26.4469 19.933C26.4076 19.8937 26.3486 19.874 26.27 19.874H25.0319C24.973 19.874 24.9337 19.8937 24.8944 19.933C24.8551 19.9723 24.8354 20.0116 24.8354 20.0705C24.8354 20.1295 24.8551 20.1688 24.8747 20.2278L29.4339 26.7324L24.6389 33.5123L24.5996 33.5909C24.5996 33.6105 24.5996 33.6302 24.5996 33.6498C24.5996 33.7088 24.6193 33.7481 24.6586 33.7874C24.7175 33.8267 24.7765 33.8463 24.8158 33.8463Z" fill="#009ED5"></path></g><defs><clipPath id="clip0_9979_5049"><rect width="44" height="34.5083" fill="white" transform="translate(2 6)"></rect></clipPath></defs></svg> 