<?xml version="1.0" encoding="UTF-8"?> <svg xmlns="http://www.w3.org/2000/svg" width="86" height="108" viewBox="0 0 86 108" fill="none"> <g opacity="0.5"> <path d="M6.68939 0.431641C3.14451 0.431641 0.25 3.1644 0.25 6.51119V101.352C0.25 104.699 3.14451 107.432 6.68939 107.432H78.8106C82.3555 107.432 85.25 104.699 85.25 101.352V6.51119C85.25 3.1644 82.3555 0.431641 78.8106 0.431641H6.68939ZM6.68939 2.86324H78.8106C80.9729 2.86324 82.6745 4.46878 82.6745 6.51119V10.1591H2.82599V6.51119C2.82599 4.4697 4.52656 2.86324 6.68985 2.86324H6.68939ZM2.82553 12.5907H82.674V90.4089H2.82553V12.5907ZM2.82553 92.8407H82.674V101.352C82.674 103.393 80.9734 105 78.8102 105H6.68893C4.52661 105 2.82507 103.394 2.82507 101.352L2.82553 92.8407ZM42.7498 96.4887C41.3268 96.4887 40.1742 97.5777 40.1742 98.9203C40.1742 100.264 41.3277 101.352 42.7498 101.352C44.1728 101.352 45.3253 100.263 45.3253 98.9203C45.3253 97.5768 44.1718 96.4887 42.7498 96.4887Z" fill="white"></path> <path d="M37.6139 59.0795C37.6139 59.5911 37.9923 59.9565 38.5221 59.9565H39.4302V62.9529C39.4302 63.6107 40.0356 64.2685 40.7924 64.2685C41.4734 64.2685 42.1545 63.6838 42.1545 62.9529V59.9565H43.8951V62.9529C43.8951 63.6107 44.5005 64.2685 45.2573 64.2685C46.0141 64.2685 46.6195 63.6838 46.6195 62.9529V59.9565H47.5276C48.0573 59.9565 48.4357 59.5911 48.4357 59.0795V50.5286H37.6139V59.0795ZM35.4193 50.5286C34.7382 50.5286 34.0571 51.1133 34.0571 51.8441V57.837C34.0571 58.4948 34.6625 59.1526 35.4193 59.1526C36.1761 59.1526 36.7815 58.5679 36.7815 57.837V51.8441C36.7058 51.1133 36.1004 50.5286 35.4193 50.5286ZM50.4033 50.5286C49.7222 50.5286 49.0411 51.1133 49.0411 51.8441V57.837C49.0411 58.4948 49.6465 59.1526 50.4033 59.1526C51.1601 59.1526 51.7655 58.5679 51.7655 57.837V51.8441C51.7655 51.1133 51.1601 50.5286 50.4033 50.5286ZM46.0141 45.5588L47.1492 44.4626C47.3006 44.3164 47.3006 44.0241 47.1492 43.8779C46.9978 43.7317 46.6951 43.7317 46.5438 43.8779L45.1816 45.1934C44.5762 44.7549 43.7438 44.6087 42.9113 44.6087C42.0789 44.6087 41.2464 44.7549 40.4897 45.1203L39.2788 43.8048C39.1275 43.7317 38.7491 43.7317 38.5977 43.8048C38.5221 43.951 38.5221 44.3164 38.5977 44.4626L39.7329 45.5588C38.5221 46.5089 37.6139 47.9706 37.6139 49.6516H48.2087C48.2087 47.9706 47.3006 46.4359 46.0141 45.5588ZM41.1707 47.9706H40.2626V47.0936H41.1707V47.9706ZM45.56 47.9706H44.6519V47.0936H45.56V47.9706Z" fill="white"></path> </g> </svg> 