<?xml version="1.0" encoding="UTF-8"?> <svg xmlns="http://www.w3.org/2000/svg" width="49" height="48" viewBox="0 0 49 48" fill="none"><path d="M24.3331 5.54321C21.1634 5.54321 18.592 8.1228 18.592 11.2839V11.3019C18.6281 13.4274 19.0994 15.7892 20.0405 17.6778C20.9641 19.5674 22.395 21.0387 24.3325 21.0387C26.2524 21.0387 27.7194 19.5674 28.6426 17.6778C29.5843 15.7882 30.0555 13.4274 30.0736 11.3019V11.2839C30.074 8.1228 27.5027 5.54321 24.3331 5.54321ZM24.3331 6.56031C26.9591 6.56031 29.0597 8.66772 29.0597 11.2839C29.0421 13.2643 28.5708 15.5172 27.7376 17.2246C26.8863 18.9312 25.7459 20.0034 24.3329 20.0034C22.92 20.0034 21.7796 18.9312 20.946 17.2237C20.1128 15.5161 19.6239 13.2633 19.6058 11.2829C19.6063 8.66819 21.707 6.56031 24.3331 6.56031ZM11.7827 8.81324C9.08436 8.81324 6.89297 11.0119 6.89297 13.6999C6.91105 15.4982 7.32764 17.4782 8.10613 19.0767C8.88466 20.6753 10.1168 21.9287 11.7827 21.9287C13.4306 21.9287 14.6619 20.6753 15.4593 19.0767C16.2379 17.4782 16.6364 15.4978 16.6725 13.6999C16.6721 11.011 14.4626 8.81324 11.7827 8.81324ZM36.9019 8.81324C34.2216 8.81324 32.0121 11.0119 32.0121 13.6999C32.0302 15.4982 32.4468 17.4782 33.2253 19.0767C34.0219 20.6753 35.254 21.9287 36.9019 21.9287C38.5497 21.9287 39.8 20.6753 40.5785 19.0767C41.357 17.4782 41.7741 15.4978 41.7917 13.6999C41.7917 11.011 39.6007 8.81324 36.9019 8.81324ZM11.7827 9.83033C13.9195 9.83033 15.6401 11.5559 15.6401 13.6814V13.6994C15.6221 15.3342 15.2235 17.2057 14.5178 18.6223C13.8292 20.0208 12.906 20.9113 11.7827 20.9113C10.6418 20.9113 9.71777 20.0207 9.01159 18.6223C8.32299 17.2049 7.94344 15.3342 7.90639 13.6994V13.6814C7.92447 11.5568 9.64502 9.83033 11.7827 9.83033ZM36.9019 9.83033C39.0387 9.83033 40.7593 11.5559 40.7773 13.6814V13.6994C40.7412 15.3342 40.3603 17.2057 39.6721 18.6223C38.9659 20.0208 38.0243 20.9113 36.9015 20.9113C35.7791 20.9113 34.8551 20.0207 34.1484 18.6223C33.4598 17.2049 33.0622 15.3342 33.0441 13.6994V13.6814C33.0445 11.5568 34.7651 9.83033 36.9019 9.83033ZM24.3331 21.874C21.7431 21.874 19.3524 22.7822 17.3608 24.3266C15.7671 23.1459 13.8292 22.4732 11.7827 22.4732C5.98738 22.4732 1.33301 27.869 1.33301 34.4267C1.33301 35.1528 1.40575 35.8612 1.51419 36.5521L1.53227 36.7518L1.713 36.8788C4.41138 38.7504 7.92489 39.8587 11.7823 39.8587C12.4338 39.8587 13.0502 39.8226 13.684 39.7498C16.6721 41.4574 20.3487 42.4568 24.333 42.4568C28.2992 42.4568 31.9758 41.4573 34.9638 39.7498C35.5978 39.8226 36.2488 39.8587 36.9013 39.8587C40.7587 39.8587 44.2722 38.7504 46.9706 36.8788L47.1337 36.7518L47.1699 36.5521C47.2788 35.8617 47.333 35.1527 47.333 34.4267C47.333 27.8687 42.6971 22.4732 36.9013 22.4732C34.8364 22.4732 32.9175 23.1636 31.3048 24.3438C29.3316 22.7823 26.9229 21.874 24.3331 21.874ZM24.3331 22.8911C30.5816 22.8911 35.7072 28.7401 35.7072 36.0614C35.7072 36.788 35.6345 37.4789 35.5441 38.1688C32.5552 40.1668 28.6432 41.4384 24.333 41.4384C20.0411 41.4384 16.1285 40.185 13.1405 38.1865C13.0325 37.4781 12.9778 36.7881 12.9778 36.0611C12.9778 28.7408 18.0845 22.8911 24.3331 22.8911ZM11.7827 23.5092C13.5214 23.5092 15.1512 24.0541 16.5456 25.017C14.9701 26.4882 13.7207 28.3778 12.9233 30.5579L12.3435 28.324L14.0276 26.6347C14.2992 26.3437 14.0638 25.7622 13.6657 25.7622H9.88058H9.78975C9.42783 25.8349 9.26426 26.3622 9.51819 26.6347L11.2031 28.324L9.48245 34.8093C9.4463 34.9724 9.48245 35.154 9.59044 35.2814L11.3833 37.3711C11.5284 37.5523 11.818 37.607 12.0173 37.4981C12.0534 37.8614 12.0715 38.2066 12.1262 38.5694L12.1623 38.7877L12.2165 38.8238C12.0715 38.8238 11.9269 38.8419 11.7819 38.8419C8.21411 38.8419 4.97219 37.8063 2.49116 36.1539C2.41842 35.5905 2.34612 35.0094 2.34612 34.4283C2.34703 28.3407 6.62091 23.5092 11.7827 23.5092ZM36.9019 23.5092C42.0637 23.5092 46.3196 28.3408 46.3196 34.4271C46.3196 35.0082 46.2654 35.5892 46.1926 36.1527C43.7116 37.806 40.4696 38.8406 36.9019 38.8406C36.7388 38.8406 36.5938 38.8226 36.4492 38.8226L36.5219 38.7683L36.5581 38.5501C36.6123 38.1868 36.6308 37.824 36.667 37.4788C36.8667 37.5877 37.1559 37.533 37.3009 37.3699L39.0938 35.2802C39.2027 35.1532 39.2388 34.9711 39.2027 34.808L37.4821 28.3228L39.148 26.6334C39.42 26.3424 39.2022 25.7799 38.8041 25.7609H35.019H34.9101C34.5473 25.8337 34.3846 26.361 34.6562 26.6334L36.3411 28.3228L35.7604 30.5566C34.9458 28.3769 33.7141 26.4873 32.1209 25.0158C33.5333 24.0538 35.1642 23.5092 36.9019 23.5092ZM21.7073 25.1078C21.3454 25.1797 21.1818 25.707 21.4358 25.9609L23.7722 28.3046L21.4177 37.097C21.3816 37.243 21.4358 37.4241 21.5447 37.5511L23.9719 40.348C24.1527 40.5663 24.5336 40.5663 24.7324 40.348L27.1226 37.5511C27.2315 37.4241 27.2857 37.2421 27.2491 37.097L24.9317 28.2861L27.2491 25.9605C27.5211 25.6885 27.2672 25.1075 26.8687 25.1075H21.8162C21.78 25.1079 21.7435 25.1078 21.7073 25.1078ZM23.0475 26.1249H25.6198L24.3515 27.4144L23.0475 26.1249ZM11.131 26.7792H12.435L11.7835 27.4511L11.131 26.7792ZM36.2502 26.7792H37.5546L36.9022 27.4511L36.2502 26.7792ZM11.7834 30.1576L12.3631 32.3914C12.1097 33.554 11.9646 34.7712 11.9465 36.0246L11.7839 36.2424L10.5345 34.8079L11.7834 30.1576ZM24.3523 30.1576L26.1813 37.0969L24.3523 39.2224L22.4866 37.0969L24.3523 30.1576ZM36.9026 30.1576L38.1529 34.8084L36.9026 36.2429L36.7218 36.0251C36.7218 34.7713 36.5768 33.5545 36.3048 32.3919L36.9026 30.1576Z" fill="white"></path></svg> 