<?xml version="1.0" encoding="UTF-8"?> <svg xmlns="http://www.w3.org/2000/svg" width="65" height="64" viewBox="0 0 65 64" fill="none"><path d="M27.4319 31.8351C27.4319 29.9576 28.954 28.4355 30.8315 28.4355C32.709 28.4355 34.231 29.9576 34.231 31.8351C34.231 33.7126 32.709 35.2346 30.8315 35.2346C28.954 35.2346 27.4319 33.7126 27.4319 31.8351Z" fill="#009ED5"></path><path fill-rule="evenodd" clip-rule="evenodd" d="M30.157 6.72887C16.4835 6.72887 5.39896 17.8134 5.39896 31.4869C5.39896 32.076 4.9214 32.5536 4.33229 32.5536C3.74319 32.5536 3.26562 32.076 3.26562 31.4869C3.26562 16.6352 15.3053 4.59554 30.157 4.59554C45.0087 4.59554 57.0484 16.6352 57.0484 31.4869C57.0484 33.0824 56.9093 34.6463 56.6424 36.1669C56.5406 36.7471 55.9876 37.1349 55.4074 37.0331C54.8272 36.9312 54.4394 36.3783 54.5412 35.7981C54.7868 34.3987 54.9151 32.9582 54.9151 31.4869C54.9151 17.8134 43.8305 6.72887 30.157 6.72887ZM6.12239 41.0134C6.66048 40.7736 7.29108 41.0155 7.53086 41.5536C11.3893 50.2123 20.0698 56.245 30.157 56.245C31.2091 56.245 32.2455 56.1794 33.2622 56.0522C34.1443 55.928 35.4833 55.6836 36.6338 55.3587C37.2145 55.1947 37.7078 55.021 38.0604 54.8492C38.2369 54.7632 38.3477 54.6922 38.4087 54.6436C38.4121 54.6409 38.4152 54.6383 38.4181 54.636C38.6662 54.1512 39.2475 53.9265 39.7632 54.1327C40.3102 54.3515 40.5762 54.9723 40.3574 55.5193C40.2126 55.8813 39.9552 56.1389 39.7391 56.3113C39.5134 56.4914 39.2532 56.6412 38.9949 56.767C38.478 57.0188 37.847 57.2328 37.2135 57.4117C35.9391 57.7716 34.4952 58.0333 33.5514 58.1659L33.5357 58.1681C32.4285 58.307 31.3009 58.3783 30.157 58.3783C19.1972 58.3783 9.77101 51.822 5.58224 42.4219C5.34246 41.8838 5.58429 41.2532 6.12239 41.0134Z" fill="#009ED5"></path><path fill-rule="evenodd" clip-rule="evenodd" d="M30.8847 15.1007C31.4738 15.1007 31.9513 15.5783 31.9513 16.1674V29.503C31.9513 30.0921 31.4738 30.5697 30.8847 30.5697C30.2956 30.5697 29.818 30.0921 29.818 29.503V16.1674C29.818 15.5783 30.2956 15.1007 30.8847 15.1007Z" fill="#009ED5"></path><path fill-rule="evenodd" clip-rule="evenodd" d="M32.271 31.0151C32.5154 31.5511 32.279 32.1837 31.743 32.4281L20.3706 37.6135C19.8346 37.8579 19.2019 37.6215 18.9575 37.0855C18.7131 36.5495 18.9495 35.9168 19.4856 35.6724L30.858 30.4871C31.394 30.2427 32.0266 30.4791 32.271 31.0151Z" fill="#009ED5"></path><path fill-rule="evenodd" clip-rule="evenodd" d="M5.60361 40.8339C5.87785 40.6677 6.21229 40.6338 6.51434 40.7414L14.5945 43.6205C15.1494 43.8183 15.439 44.4284 15.2412 44.9833C15.0435 45.5383 14.4334 45.8278 13.8784 45.6301L7.03118 43.1903L6.08397 49.9551C6.00228 50.5385 5.4631 50.9452 4.87969 50.8635C4.29628 50.7819 3.88955 50.2427 3.97124 49.6593L5.09995 41.5983C5.14441 41.2807 5.32937 41 5.60361 40.8339Z" fill="#009ED5"></path><path fill-rule="evenodd" clip-rule="evenodd" d="M47.901 35.8088C41.9743 35.8088 37.1698 40.6133 37.1698 46.54C37.1698 52.4667 41.9743 57.2712 47.901 57.2712C53.8277 57.2712 58.6322 52.4667 58.6322 46.54C58.6322 40.6133 53.8277 35.8088 47.901 35.8088ZM35.0365 46.54C35.0365 39.4351 40.7961 33.6755 47.901 33.6755C55.0059 33.6755 60.7655 39.4351 60.7655 46.54C60.7655 53.6449 55.0059 59.4045 47.901 59.4045C40.7961 59.4045 35.0365 53.6449 35.0365 46.54Z" fill="#009ED5"></path><path d="M47.9194 52.79V40.4607H48.7093V52.79H47.9194ZM50.1975 44.4051C50.1525 43.9845 49.9631 43.657 49.6292 43.4226C49.2985 43.1882 48.8682 43.071 48.3385 43.071C47.966 43.071 47.6465 43.1272 47.38 43.2396C47.1135 43.352 46.9097 43.5045 46.7684 43.6971C46.6271 43.8898 46.5549 44.1097 46.5517 44.357C46.5517 44.5624 46.5982 44.7406 46.6913 44.8915C46.7877 45.0424 46.9177 45.1709 47.0814 45.2768C47.2452 45.3796 47.4266 45.4663 47.6257 45.5369C47.8247 45.6075 48.0254 45.6669 48.2277 45.7151L49.1524 45.9463C49.5248 46.033 49.8828 46.1502 50.2264 46.2979C50.5731 46.4455 50.883 46.6318 51.1559 46.8565C51.432 47.0813 51.6503 47.3526 51.8109 47.6704C51.9714 47.9883 52.0517 48.3608 52.0517 48.7878C52.0517 49.3657 51.904 49.8746 51.6086 50.3145C51.3132 50.7512 50.8862 51.0931 50.3275 51.3403C49.772 51.5843 49.0994 51.7064 48.3096 51.7064C47.5422 51.7064 46.876 51.5876 46.3109 51.35C45.749 51.1124 45.3091 50.7656 44.9912 50.3097C44.6766 49.8538 44.5064 49.2983 44.4807 48.6433H46.2386C46.2643 48.9869 46.3703 49.2726 46.5565 49.5006C46.7427 49.7285 46.9851 49.8987 47.2837 50.0111C47.5855 50.1235 47.9227 50.1796 48.2951 50.1796C48.6836 50.1796 49.0239 50.1218 49.3161 50.0063C49.6115 49.8875 49.8427 49.7237 50.0096 49.515C50.1766 49.3031 50.2617 49.0559 50.2649 48.7733C50.2617 48.5165 50.1862 48.3046 50.0385 48.1376C49.8908 47.9674 49.6838 47.8262 49.4173 47.7138C49.154 47.5982 48.8457 47.4955 48.4926 47.4056L47.3704 47.1166C46.5581 46.9079 45.9159 46.5916 45.444 46.1678C44.9752 45.7408 44.7408 45.1741 44.7408 44.4677C44.7408 43.8866 44.8981 43.3777 45.2128 42.941C45.5307 42.5044 45.9625 42.1656 46.5083 41.9248C47.0541 41.6808 47.6722 41.5588 48.3625 41.5588C49.0625 41.5588 49.6757 41.6808 50.2023 41.9248C50.7321 42.1656 51.1479 42.5011 51.4497 42.9314C51.7515 43.3584 51.9072 43.8497 51.9168 44.4051H50.1975Z" fill="#009ED5"></path></svg> 