<?xml version="1.0" encoding="UTF-8"?> <svg xmlns="http://www.w3.org/2000/svg" width="49" height="84" viewBox="0 0 49 84" fill="none"> <g opacity="0.5"> <path fill-rule="evenodd" clip-rule="evenodd" d="M44.4049 0.329762L44.4066 0.334191C45.6363 0.740451 46.7131 1.49397 47.4902 2.50108C48.3058 3.5583 48.7486 4.83941 48.75 6.15711V77.8468C48.7478 79.4852 48.0634 81.0518 46.8548 82.203C45.6477 83.3543 44.0137 83.998 42.3149 84H7.1846C5.48595 83.9979 3.85263 83.3544 2.64536 82.2032C1.4367 81.052 0.752132 79.4848 0.75 77.8463V6.15388C0.75 4.5146 1.4339 2.9464 2.64261 1.79441C3.85116 0.643069 5.48543 0 7.18507 0H42.3166C42.9622 0 43.6048 0.0923911 44.2219 0.275482L44.4049 0.329762ZM4.25648 3.28362C3.47925 4.02525 3.04231 5.03024 3.04099 6.07824L3.04125 8.39982L3.1816 8.31454C5.11147 7.1383 7.3537 6.51354 9.64304 6.5148H39.8563C42.1456 6.51351 44.3878 7.13831 46.3177 8.31454L46.4581 8.39919V6.07824C46.4567 5.03032 46.0198 4.02524 45.2426 3.28362C44.466 2.54263 43.4128 2.12571 42.3144 2.12444H7.18459C6.08636 2.12571 5.03304 2.54264 4.25648 3.28362ZM4.20154 10.0875L3.04097 11.0341V73.1731L4.2022 74.0886C6.21743 74.9471 7.59082 75.0147 9.64275 75.2597L39.8561 75.3339C41.7839 75.3345 43.6721 75.0785 45.2967 74.0886L46.458 73.0494L46.4581 10.8584L45.2967 10.0875C43.6721 9.09758 41.7841 8.88777 39.8563 8.8884H9.64304C7.7152 8.88777 5.82616 9.09758 4.20154 10.0875ZM45.2425 80.6321C46.0191 79.8911 46.4561 78.8861 46.458 77.8381L46.4578 75.5299L46.3174 75.6158C44.3876 76.7914 42.1453 77.4155 39.856 77.4143H9.64275C7.35341 77.4156 5.11119 76.7914 3.18132 75.6158L3.04097 75.5299V77.8381C3.04295 78.886 3.47991 79.8911 4.25647 80.6321C5.03302 81.3731 6.08626 81.79 7.18457 81.7912H42.3144C43.4127 81.79 44.466 81.373 45.2425 80.6321Z" fill="white"></path> <path d="M16.606 5.10376C16.6695 5.10249 16.7331 5.09617 16.7953 5.08543C16.8522 5.0671 16.9184 5.0494 16.9754 5.03107C17.0323 5.01274 17.0892 4.97672 17.1369 4.94954C17.1899 4.91794 17.2389 4.87812 17.2799 4.83198C17.4606 4.66576 17.5633 4.43696 17.5646 4.19741C17.5633 3.95534 17.4606 3.72401 17.2799 3.55399C17.2389 3.50785 17.1905 3.46866 17.1376 3.43643C17.0899 3.40925 17.033 3.38207 16.976 3.3549C16.9171 3.3353 16.8569 3.32014 16.7953 3.30939C16.5166 3.25693 16.2273 3.32582 16.0075 3.49774C15.787 3.66903 15.6586 3.92626 15.6566 4.19741C15.6692 4.69292 16.0869 5.09173 16.606 5.10376Z" fill="white"></path> <path d="M21.0207 5.09908H32.6592C33.1835 5.09908 33.6085 4.69332 33.6085 4.19273C33.6085 3.69215 33.1835 3.28638 32.6592 3.28638H21.0207C20.4963 3.28638 20.0713 3.69215 20.0713 4.19273C20.0713 4.69332 20.4963 5.09908 21.0207 5.09908Z" fill="white"></path> <path d="M19.8769 46.8145C19.8769 47.3283 20.2529 47.6953 20.7794 47.6953H21.6818V50.7047C21.6818 51.3653 22.2834 52.0259 23.0354 52.0259C23.7122 52.0259 24.389 51.4387 24.389 50.7047V47.6953H26.1187V50.7047C26.1187 51.3653 26.7203 52.0259 27.4723 52.0259C28.2243 52.0259 28.826 51.4387 28.826 50.7047V47.6953H29.7284C30.2548 47.6953 30.6308 47.3283 30.6308 46.8145V38.2266H19.8769V46.8145ZM17.6961 38.2266C17.0193 38.2266 16.3425 38.8138 16.3425 39.5478V45.5667C16.3425 46.2273 16.9441 46.8879 17.6961 46.8879C18.4481 46.8879 19.0497 46.3007 19.0497 45.5667V39.5478C18.9745 38.8138 18.3729 38.2266 17.6961 38.2266ZM32.5861 38.2266C31.9092 38.2266 31.2324 38.8138 31.2324 39.5478V45.5667C31.2324 46.2273 31.834 46.8879 32.5861 46.8879C33.3381 46.8879 33.9397 46.3007 33.9397 45.5667V39.5478C33.9397 38.8138 33.3381 38.2266 32.5861 38.2266ZM28.2243 33.2354L29.3524 32.1344C29.5028 31.9876 29.5028 31.694 29.3524 31.5472C29.202 31.4004 28.9012 31.4004 28.7508 31.5472L27.3971 32.8684C26.7955 32.428 25.9683 32.2812 25.1411 32.2812C24.3138 32.2812 23.4866 32.428 22.7346 32.795L21.5314 31.4738C21.381 31.4004 21.005 31.4004 20.8546 31.4738C20.7794 31.6206 20.7794 31.9876 20.8546 32.1344L21.9826 33.2354C20.7794 34.1896 19.8769 35.6576 19.8769 37.3458H30.4052C30.4052 35.6576 29.5028 34.1162 28.2243 33.2354ZM23.4114 35.6576H22.509V34.7768H23.4114V35.6576ZM27.7731 35.6576H26.8707V34.7768H27.7731V35.6576Z" fill="white"></path> </g> </svg> 