<?xml version="1.0" encoding="UTF-8"?> <svg xmlns="http://www.w3.org/2000/svg" width="63" height="80" viewBox="0 0 63 80" fill="none"> <path d="M48.166 24.2001L31.366 44.0001V44.1001C31.066 44.6001 30.666 44.9001 30.166 44.9001H30.066C29.566 44.9001 29.066 44.7001 28.666 44.3001L17.666 32.7001C17.466 32.5001 17.466 32.2001 17.466 32.0001C17.466 31.6001 17.666 31.2001 18.066 30.9001C18.366 30.6001 18.866 30.4001 19.266 30.3001H19.366C19.866 30.3001 20.266 30.5001 20.566 30.9001L29.466 40.2001L29.866 40.6001L30.166 40.2001L45.366 22.2001C45.766 21.7001 46.166 21.5001 46.566 21.5001H46.666C47.066 21.5001 47.466 21.6001 47.866 21.9001C48.266 22.2001 48.466 22.6001 48.566 23.0001C48.666 23.4001 48.466 23.8001 48.166 24.2001Z" fill="white"></path> <path d="M61.666 31.0001C61.666 38.5001 59.366 45.2001 54.866 50.3001C54.566 50.8001 54.066 51.0001 53.666 51.0001H53.566C53.166 51.0001 52.766 50.8001 52.466 50.5001C51.766 50.0001 51.366 48.9001 52.166 47.8001C56.266 42.9001 58.466 36.9001 58.466 30.9001C58.466 23.8001 55.666 17.2001 50.666 12.2001C45.666 7.2001 38.866 4.5001 31.666 4.5001C17.166 4.7001 5.26602 16.5001 5.26602 31.0001C5.26602 37.4001 7.26602 43.3001 11.166 47.9001C11.966 48.9001 11.666 50.0001 11.066 50.6001C10.766 50.9001 10.366 51.0001 10.066 51.0001H9.96602C9.56602 51.0001 9.16602 50.7001 8.76602 50.3001C4.16602 45.0001 1.66602 38.2001 1.66602 31.0001C1.66602 23.1001 4.76602 15.6001 10.466 9.9001C16.166 4.2001 23.766 1.1001 31.666 1.1001C48.166 1.1001 61.666 14.5001 61.666 31.0001Z" fill="white"></path> <path d="M45.666 58.5001C45.666 59.0001 45.466 59.5001 45.266 59.8001C44.966 60.1001 44.566 60.3001 43.966 60.3001H19.666C19.166 60.3001 18.666 60.1001 18.366 59.8001C18.066 59.5001 17.966 59.0001 17.966 58.5001C17.966 58.0001 18.166 57.5001 18.366 57.2001C18.666 56.9001 19.066 56.7001 19.666 56.7001H43.966C44.466 56.7001 44.966 56.9001 45.266 57.2001C45.566 57.5001 45.666 58.0001 45.666 58.5001Z" fill="white"></path> <path d="M45.666 67.8001C45.666 68.3001 45.466 68.8001 45.266 69.1001C44.966 69.4001 44.566 69.6001 43.966 69.6001H19.666C19.166 69.6001 18.666 69.4001 18.366 69.1001C18.066 68.8001 17.966 68.3001 17.966 67.8001C17.966 67.3001 18.166 66.8001 18.366 66.5001C18.666 66.2001 19.066 66.0001 19.666 66.0001H43.966C44.466 66.0001 44.966 66.2001 45.266 66.5001C45.566 66.8001 45.666 67.3001 45.666 67.8001Z" fill="white"></path> <path d="M38.966 77.1001C38.966 77.6001 38.766 78.1001 38.566 78.4001C38.266 78.7001 37.866 78.9001 37.266 78.9001H26.066C25.466 78.9001 25.066 78.7001 24.766 78.4001C24.466 78.1001 24.366 77.6001 24.366 77.1001C24.366 76.6001 24.566 76.1001 24.766 75.8001C25.066 75.5001 25.466 75.3001 26.066 75.3001H37.266C37.866 75.3001 38.266 75.5001 38.566 75.8001C38.866 76.2001 38.966 76.7001 38.966 77.1001Z" fill="white"></path> <path d="M48.166 24.2001L31.366 44.0001V44.1001C31.066 44.6001 30.666 44.9001 30.166 44.9001H30.066C29.566 44.9001 29.066 44.7001 28.666 44.3001L17.666 32.7001C17.466 32.5001 17.466 32.2001 17.466 32.0001C17.466 31.6001 17.666 31.2001 18.066 30.9001C18.366 30.6001 18.866 30.4001 19.266 30.3001H19.366C19.866 30.3001 20.266 30.5001 20.566 30.9001L29.466 40.2001L29.866 40.6001L30.166 40.2001L45.366 22.2001C45.766 21.7001 46.166 21.5001 46.566 21.5001H46.666C47.066 21.5001 47.466 21.6001 47.866 21.9001C48.266 22.2001 48.466 22.6001 48.566 23.0001C48.666 23.4001 48.466 23.8001 48.166 24.2001Z" stroke="white" stroke-width="0.5"></path> <path d="M61.666 31.0001C61.666 38.5001 59.366 45.2001 54.866 50.3001C54.566 50.8001 54.066 51.0001 53.666 51.0001H53.566C53.166 51.0001 52.766 50.8001 52.466 50.5001C51.766 50.0001 51.366 48.9001 52.166 47.8001C56.266 42.9001 58.466 36.9001 58.466 30.9001C58.466 23.8001 55.666 17.2001 50.666 12.2001C45.666 7.2001 38.866 4.5001 31.666 4.5001C17.166 4.7001 5.26602 16.5001 5.26602 31.0001C5.26602 37.4001 7.26602 43.3001 11.166 47.9001C11.966 48.9001 11.666 50.0001 11.066 50.6001C10.766 50.9001 10.366 51.0001 10.066 51.0001H9.96602C9.56602 51.0001 9.16602 50.7001 8.76602 50.3001C4.16602 45.0001 1.66602 38.2001 1.66602 31.0001C1.66602 23.1001 4.76602 15.6001 10.466 9.9001C16.166 4.2001 23.766 1.1001 31.666 1.1001C48.166 1.1001 61.666 14.5001 61.666 31.0001Z" stroke="white" stroke-width="0.5"></path> <path d="M45.666 58.5001C45.666 59.0001 45.466 59.5001 45.266 59.8001C44.966 60.1001 44.566 60.3001 43.966 60.3001H19.666C19.166 60.3001 18.666 60.1001 18.366 59.8001C18.066 59.5001 17.966 59.0001 17.966 58.5001C17.966 58.0001 18.166 57.5001 18.366 57.2001C18.666 56.9001 19.066 56.7001 19.666 56.7001H43.966C44.466 56.7001 44.966 56.9001 45.266 57.2001C45.566 57.5001 45.666 58.0001 45.666 58.5001Z" stroke="white" stroke-width="0.5"></path> <path d="M45.666 67.8001C45.666 68.3001 45.466 68.8001 45.266 69.1001C44.966 69.4001 44.566 69.6001 43.966 69.6001H19.666C19.166 69.6001 18.666 69.4001 18.366 69.1001C18.066 68.8001 17.966 68.3001 17.966 67.8001C17.966 67.3001 18.166 66.8001 18.366 66.5001C18.666 66.2001 19.066 66.0001 19.666 66.0001H43.966C44.466 66.0001 44.966 66.2001 45.266 66.5001C45.566 66.8001 45.666 67.3001 45.666 67.8001Z" stroke="white" stroke-width="0.5"></path> <path d="M38.966 77.1001C38.966 77.6001 38.766 78.1001 38.566 78.4001C38.266 78.7001 37.866 78.9001 37.266 78.9001H26.066C25.466 78.9001 25.066 78.7001 24.766 78.4001C24.466 78.1001 24.366 77.6001 24.366 77.1001C24.366 76.6001 24.566 76.1001 24.766 75.8001C25.066 75.5001 25.466 75.3001 26.066 75.3001H37.266C37.866 75.3001 38.266 75.5001 38.566 75.8001C38.866 76.2001 38.966 76.7001 38.966 77.1001Z" stroke="white" stroke-width="0.5"></path> </svg> 