<?xml version="1.0" encoding="UTF-8"?> <svg xmlns="http://www.w3.org/2000/svg" width="48" height="48" viewBox="0 0 48 48" fill="none"><g clip-path="url(#clip0_10001_12531)"><path d="M34.0267 3H13.9733C12.8885 3 12 3.91444 12 5.03091V43.9691C12 45.0856 12.8885 46 13.9733 46H34.0164C35.1115 46 35.9897 45.0856 35.9897 43.9691V5.03091C35.9897 4.49926 35.7934 3.98887 35.4214 3.59545C35.0495 3.21266 34.5536 3 34.0267 3V3ZM13.1675 5.03091C13.1778 4.57369 13.5394 4.21217 13.9733 4.21217H34.0164C34.4606 4.21217 34.8222 4.58432 34.8222 5.03091V23.8408L34.6156 23.8939H30.576L30.4933 23.7344C29.9871 21.6397 28.5613 19.9065 26.65 19.0559L26.2884 18.8964L26.5777 18.6199C27.3629 17.865 27.7968 16.8442 27.7968 15.7703C27.7968 13.6118 26.0921 11.8467 23.9845 11.8467C21.8769 11.8467 20.1722 13.6011 20.1722 15.7703C20.1722 16.8655 20.6061 17.8756 21.3913 18.6199L21.6806 18.8964L21.319 19.0559C19.418 19.9172 17.9923 21.6503 17.486 23.6919L17.4447 23.8514L17.269 23.8939H13.1675V5.03091ZM24.0052 19.6832C26.3711 19.6832 28.4684 21.2357 29.2329 23.543L29.2949 23.7451L29.1916 23.7876V23.8514L28.9849 23.9046H18.6638L18.7774 23.5537C19.542 21.2463 21.6393 19.6939 24.0052 19.6939V19.6832ZM21.3706 15.7596C21.3706 14.2604 22.5588 13.0482 24.0052 13.0482C25.4516 13.0482 26.6397 14.2604 26.6397 15.7596C26.6397 17.2589 25.4619 18.4711 24.0052 18.4711C22.5484 18.4711 21.3706 17.2589 21.3706 15.7596ZM34.8429 43.9797C34.8325 44.4369 34.4709 44.7985 34.037 44.7985H13.9733C13.5291 44.7985 13.1778 44.4263 13.1778 43.9797V25.1593L13.4361 25.1061H34.8325V43.9691L34.8429 43.9797Z" fill="#009ED5"></path><path d="M20.4098 7.14688H27.5901C27.9207 7.14688 28.1894 6.87043 28.1894 6.53017C28.1894 6.18991 27.9207 5.91345 27.5901 5.91345H20.4098C20.0792 5.91345 19.8105 6.18991 19.8105 6.53017C19.8105 6.87043 20.0792 7.14688 20.4098 7.14688Z" fill="#009ED5"></path><path d="M25.3901 41.8638H22.6109C22.2803 41.8638 22.0117 42.1402 22.0117 42.4805C22.0117 42.8207 22.2803 43.0972 22.6109 43.0972H25.3901C25.7207 43.0972 25.9893 42.8207 25.9893 42.4805C25.9893 42.1402 25.731 41.8638 25.3901 41.8638Z" fill="#009ED5"></path><path d="M30.535 6.97673C30.7623 7.20002 31.1549 7.20002 31.3822 6.97673C31.4338 6.92356 31.4752 6.84913 31.5062 6.7747C31.5372 6.70027 31.5578 6.61521 31.5578 6.54078C31.5578 6.46634 31.5372 6.39191 31.5062 6.30685V6.26432C31.4648 6.21115 31.4338 6.15799 31.3719 6.09419C31.3305 6.06229 31.3202 6.05166 31.3099 6.04102L31.1342 5.94533C31.1342 5.94533 31.1032 5.94533 31.0826 5.93469H30.8863C30.8863 5.93469 30.8553 5.93469 30.845 5.93469C30.8036 5.93469 30.7726 5.95596 30.752 5.96659L30.5557 6.06229L30.5143 6.10482C30.5143 6.10482 30.442 6.20052 30.4214 6.26432V6.29622C30.38 6.37065 30.3594 6.45571 30.3594 6.53014C30.3594 6.60457 30.38 6.68964 30.411 6.76407C30.442 6.8385 30.4834 6.91293 30.535 6.97673Z" fill="#009ED5"></path><path d="M18.4047 38.8971C18.5183 39.0035 18.663 39.0673 18.818 39.0673H29.1908C29.3561 39.0673 29.5214 38.9928 29.6453 38.8546C29.759 38.7164 29.8106 38.5463 29.79 38.3761C29.511 36.3878 28.3022 34.6758 26.5356 33.7933L26.1636 33.6338L26.4116 33.3573C27.0315 32.6981 27.3621 31.8474 27.3621 30.9543C27.3621 29.051 25.8537 27.4985 24.0044 27.4985C22.155 27.4985 20.6466 29.051 20.6466 30.9543C20.6466 31.8474 20.9876 32.6981 21.5971 33.3573L21.8348 33.6125L21.5248 33.7614C19.7271 34.6333 18.4874 36.3559 18.2291 38.3655C18.2084 38.5463 18.2601 38.7164 18.3737 38.844L18.4047 38.8865V38.8971ZM24.0044 28.732C25.1925 28.732 26.1636 29.7315 26.1636 30.9543C26.1636 32.1771 25.1925 33.1766 24.0044 33.1766C22.8162 33.1766 21.8451 32.1771 21.8451 30.9543C21.8451 29.7315 22.8162 28.732 24.0044 28.732ZM19.6651 37.5042C20.347 35.6647 22.0827 34.4313 24.0044 34.4313C25.926 34.4313 27.6514 35.6647 28.3436 37.5042L28.4676 37.8551H19.5412L19.6651 37.5042Z" fill="#009ED5"></path></g><defs><clipPath id="clip0_10001_12531"><rect width="24" height="43" fill="white" transform="translate(12 3)"></rect></clipPath></defs></svg> 